<svg id="Grupo_972115" data-name="Grupo 972115" xmlns="http://www.w3.org/2000/svg" xmlns:xlink="http://www.w3.org/1999/xlink" width="400" height="352.148" viewBox="0 0 400 352.148">
  <defs>
    <clipPath id="clip-path">
      <rect id="Rectángulo_338939" data-name="Rectángulo 338939" width="400" height="352.148" fill="none"/>
    </clipPath>
  </defs>
  <g id="Grupo_972114" data-name="Grupo 972114" clip-path="url(#clip-path)">
    <path id="Trazado_664617" data-name="Trazado 664617" d="M59.669,242.635c-1.191,15.977-13.713,26.787-17.936,41.672-7.051,24.853,4.5,48.688,19.989,67.84H357.8a40.194,40.194,0,0,1,14.275-20.155c7.609-5.512,17.813-8.461,22.182-17.516,5.07-10.506-.914-21.908-5.531-31.345-2.8-5.729-5.573-12.014-4.474-18.533q.133-.793.325-1.508a12.065,12.065,0,0,1,5.15-6.855c7.428-4.913,12.225-12.938,14.09-21.815,2.523-12.005-.136-23.75-6.268-34.246-14.878-25.465-43.959-37.74-60.574-61.7-15.614-22.517-12.621-51.411-20.06-76.709-3.585-12.192-10.045-23.123-20.047-31.122-10.92-8.733-24.393-13.6-37.544-17.855C243.8,7.767,227.948,2.761,211.691.8A104.468,104.468,0,0,0,166.463,5.08C151.72,9.9,139.406,18.506,127.118,27.719c-6.266,4.7-12.592,9.4-19.505,13.119C101.008,44.39,93.9,46.8,86.9,49.431,74.129,54.223,62.645,60.45,53.949,71.2c-7.875,9.737-12.972,21.614-15.584,33.806-6.486,30.266,2.337,60.573,11.283,89.371,4.8,15.453,11.248,31.8,10.021,48.258" transform="translate(-4.765 0)" fill="#d7f3ff"/>
    <path id="Trazado_664618" data-name="Trazado 664618" d="M332.538,374.948s61.644-110.633,72.622-138.072,23.223-59.945,0-63.536-58.266,12.977-78.111,56.258-62.7,145.35-62.7,145.35Z" transform="translate(-34.867 -22.8)" fill="#57661a"/>
    <path id="Trazado_664619" data-name="Trazado 664619" d="M413.817,210.383l-.793-1.861-27.444,11.707,20.184-37.9-1.786-.951L373.234,239.1l-12.047-39.288-1.934.592,12.638,41.217-24.366,45.746-12.938-41.956-1.932.6,13.53,43.877-19,35.67-12.542-44.18-1.945.554,13.116,46.2-21.2,39.8-15.07-27.863-1.78.963,15.708,29.043-3.193,6h2.293l12.87-24.165,37.605-16.765-.824-1.847L316.99,349l17.287-32.453,33.7-5.24-.311-2-32.2,5.006,19.474-36.562L387.61,267.1l-.628-1.924-30.671,10.006,27.752-52.1Z" transform="translate(-37.955 -23.924)" fill="#819335"/>
    <path id="Trazado_664620" data-name="Trazado 664620" d="M141.544,356.729l-.367-.756c-3.081-6.346-6.164-12.691-9.189-19.064q-9.017-19.006-18.052-38-9.056-18.992-18.086-38c-5.422-11.4-12.129-23.455-12.074-36.445.023-5.482,1.516-11.211,5.719-14.989a14.358,14.358,0,0,1,11.1-3.43l-1.5-3.778q-4.509-11.381-9.007-22.767-4.46-11.284-8.9-22.578c-2.621-6.687-5.175-13.894-3.105-21.1a14.122,14.122,0,0,1,6.423-8.408,12.5,12.5,0,0,1,6.064-1.684q-.958-2.753-1.639-5.59a59.183,59.183,0,0,1-1.624-12.054c-.109-3.748.135-7.756,1.939-11.126a11.683,11.683,0,0,1,7.982-6.242,10.329,10.329,0,0,1,4.079.1c-.25-.7-.5-1.4-.752-2.1C97,78.7,93.541,68.624,90.3,58.488c-1.475-4.608-2.693-9.458-1.521-14.275a12.11,12.11,0,0,1,8.33-8.959c4.236-1.248,8.9-.065,12.784,1.755a51.942,51.942,0,0,1,11.146,7.454,68.769,68.769,0,0,1,15.67,18.7,14.371,14.371,0,0,1,3.644-4.73,9.4,9.4,0,0,1,11.318-.1c3.475,2.4,5.691,6.347,7.8,9.9a140.591,140.591,0,0,1,6.6,12.494c7.9,16.929,12.495,35.174,15.56,53.546a8.54,8.54,0,0,1,5.1-3.731c3.713-1.05,7.648.451,10.347,3.043,2.906,2.791,4.309,6.556,5.111,10.43.921,4.456,1.551,8.984,2.3,13.472q2.287,13.738,4.573,27.477a8.636,8.636,0,0,1,5.509.191c2.633.947,4.556,3.079,6.136,5.3a59.07,59.07,0,0,1,4.421,7.376c5.284,10.343,7.952,21.882,11.044,33.008q.717,2.58,1.434,5.159a7.866,7.866,0,0,1,2.334-3.146,9.826,9.826,0,0,1,12.94,1.011,15.139,15.139,0,0,1,3.077,6.323c.73,2.6,1.387,5.221,2.044,7.839q2.073,8.262,3.794,16.606a450.254,450.254,0,0,1,8.922,67.583q.5,9.45.593,18.912.022,2.8.007,5.6Z" transform="translate(-10.2 -4.582)" fill="#216838"/>
    <path id="Trazado_664621" data-name="Trazado 664621" d="M152.562,362.215c-1.069,3.32-2.293,6.558-3.6,9.767H26.773c-.957-1.788-1.884-3.592-2.791-5.4-2.127-4.231-4.173-8.507-6.069-12.848-3.783-8.665-7.193-17.512-10.1-26.512q-2.176-6.75-4.031-13.6c-1.261-4.661-2.562-9.373-3.4-14.132-.74-4.228-.631-8.777,2.141-12.29a9.53,9.53,0,0,1,11.14-2.884,21.163,21.163,0,0,1,6,3.886c.609.521,1.208,1.053,1.81,1.581a136.748,136.748,0,0,1-3.154-21.96,153.809,153.809,0,0,1,1.264-32.443,141.6,141.6,0,0,1,3.235-16.026c1.25-4.686,3.144-9.382,7.017-12.514a12.58,12.58,0,0,1,13.162-1.9,16.984,16.984,0,0,1,4.65,3.241l-.518-2c-.884-3.409-1.846-7.217-.226-10.569a7.771,7.771,0,0,1,8.395-4.291,9.1,9.1,0,0,1,2.058.537Q54,184.416,51.334,176.677q-1.982-5.762-3.56-11.652c-.982-3.662-1.878-7.644.151-11.125a7.307,7.307,0,0,1,8.954-3.018c3.572,1.231,6.278,4.268,8.888,6.857a162.236,162.236,0,0,1,15.54,17.86c2.6,3.472,5.1,7.03,7.432,10.693,1.166,1.834,2.32,3.676,3.4,5.556a11.853,11.853,0,0,1,1.07-4.235,9.074,9.074,0,0,1,8.349-5.436c3.722.117,6.759,2.531,9.089,5.238a73.2,73.2,0,0,1,6.662,9.6,116.148,116.148,0,0,1,10.394,21.7,159.323,159.323,0,0,1,6.264,23.934c.85,4.5,1.556,9.025,2.168,13.566.127.938.243,1.876.359,2.814a12.221,12.221,0,0,1,11.563.708c4.11,2.463,6.459,6.833,7.772,11.3a108.732,108.732,0,0,1,2.906,14.621,172.194,172.194,0,0,1-1.909,60.169,158.946,158.946,0,0,1-4.268,16.378" transform="translate(0 -19.839)" fill="#205134"/>
    <path id="Trazado_664622" data-name="Trazado 664622" d="M122.773,384.791s-21.78-159.5-69.492-134.641-.869,100.867,9.711,114.48c11.189,14.4,21.639,20.161,21.639,20.161Z" transform="translate(-4.252 -32.647)" fill="#819335"/>
    <path id="Trazado_664623" data-name="Trazado 664623" d="M107.91,379.39l9.5-14.29-1.347-.9-8.919,13.408-9.1-21.253,9.632-33.576-1.557-.446L97.043,354l-14.7-34.353L93.02,287.561l-1.536-.511L81.379,317.408,66.626,282.94l6.146-26.7-1.577-.364-5.649,24.539-8.755-20.453L55.3,260.6l12.031,28.108L41.975,274.774l-.779,1.418,27.171,14.932,14.652,34.229-38-13.477-.542,1.525,39.4,13.977,15.38,35.932L64.879,351.771l-.516,1.535,35.756,12,7.12,16.634-25.809-6.907-.418,1.563,27.037,7.235.884,2.064h1.761Z" transform="translate(-5.434 -33.75)" fill="#57661a"/>
    <path id="Trazado_664624" data-name="Trazado 664624" d="M17.477,395.088c-.164-1.273-.29-2.547-.365-3.82-.293-4.984.48-10.07,3.284-14.292a14.47,14.47,0,0,1,11.054-6.638,13.169,13.169,0,0,1,4.328.484,62.223,62.223,0,0,1-1.96-8.652c-.642-4.216-1.286-9.168.531-13.2a8.576,8.576,0,0,1,4.369-4.457,10.5,10.5,0,0,1,7.882.122c4.389,1.646,8.144,5.386,11.008,8.99.339.426.663.865.984,1.306a72.514,72.514,0,0,1,.533-12.166,74.009,74.009,0,0,1,2.69-12.442c.525-1.689,1.3-3.429,2.967-4.259a5.075,5.075,0,0,1,5.679,1,24.382,24.382,0,0,1,3.452,4.635q1.637,2.49,3.157,5.053,3.107,5.239,5.742,10.74a129.648,129.648,0,0,1,8.295,22.493,125.515,125.515,0,0,1,4.019,25.1Z" transform="translate(-2.249 -42.944)" fill="#57661a"/>
    <path id="Trazado_664625" data-name="Trazado 664625" d="M223.154,22.018A1370.67,1370.67,0,0,1,87.661,108.735S102.08,227.889,140.1,281.608s83.059,72.4,83.059,72.4,45.045-18.677,83.059-72.4,52.434-172.874,52.434-172.874C307.091,82.887,262.091,53.9,223.154,22.018" transform="translate(-11.562 -2.904)" fill="#6e6cc3"/>
    <path id="Trazado_664626" data-name="Trazado 664626" d="M313.534,278.71,137.4,88.188q-24.333,15-49.741,29.274S102.081,236.616,140.1,290.336s83.06,72.4,83.06,72.4,45.044-18.677,83.059-72.4a136.643,136.643,0,0,0,7.32-11.626" transform="translate(-11.562 -11.632)" fill="#5b59bb"/>
    <path id="Trazado_664627" data-name="Trazado 664627" d="M336.266,123.853c-39.36-20.2-75.218-43.1-106.576-68.07l-3.329-2.651L222.9,55.611a1204.155,1204.155,0,0,1-106.4,68.035l-3.341,1.9.551,3.8c3.407,23.522,16.649,103.266,43.966,141.869,25.506,36.041,54.83,53.624,66.254,59.511l2.579,1.329,2.578-1.329c11.424-5.885,40.75-23.466,66.257-59.511,27.24-38.5,40.5-118.072,43.918-141.544l.58-3.983ZM286.158,264.712c-22.33,31.553-47.574,48.019-59.644,54.634-12.07-6.616-37.314-23.084-59.642-54.634-24.586-34.742-37.394-106.51-41.451-133.188,34.785-19.915,68.591-41.522,100.592-64.3a653.578,653.578,0,0,0,101.519,64.786c-4.095,26.763-16.917,98.132-41.375,132.7" transform="translate(-14.926 -7.008)" fill="#fff"/>
    <path id="Trazado_664628" data-name="Trazado 664628" d="M286.12,153.726c-6.7-30.327-35.545-49.741-64.434-43.361S174.807,146.5,181.5,176.827A57.114,57.114,0,0,0,212.263,216.2l11.1,46.351,27.677-1.377,11.3-47.766c18.863-11.959,29.087-35.636,23.776-59.686" transform="translate(-23.755 -14.397)" fill="#ffe67b"/>
    <path id="Trazado_664629" data-name="Trazado 664629" d="M259.071,169.991l-10.708-4.731-11.383,7.314-12.282-5.71-7.374,5.874-17.12-4.782,16.069,19.224,16.215,85.743,1.383-.261-16.249-85.924-.034-.18-13.4-16.026,13.449,3.755,7.255-5.781,12.2,5.669,11.4-7.322,10.575,4.673,13.239-5.709-11.337,18.34-.078.128L249.006,272.7l1.394.188,11.84-88.116,13.61-22.014Z" transform="translate(-26.406 -21.467)" fill="#fff"/>
    <path id="Trazado_664630" data-name="Trazado 664630" d="M241.808,273.128l1.4-.127-7.283-81.483,14.022-1.789-2.268,83.316,1.408.038,2.312-84.957-17,2.165Z" transform="translate(-30.917 -24.813)" fill="#fff"/>
    <path id="Trazado_664631" data-name="Trazado 664631" d="M221.323,256.175l44.246-3.3-9.179,57.466H226.647Z" transform="translate(-29.192 -33.353)" fill="#cde7ff"/>
    <path id="Trazado_664632" data-name="Trazado 664632" d="M224.993,294.005l.207,2.111h34.812l.338-2.111Z" transform="translate(-29.676 -38.779)" fill="#fff"/>
    <path id="Trazado_664633" data-name="Trazado 664633" d="M225.8,301.858l.207,2.1,33.386-2.638.342-2.147Z" transform="translate(-29.783 -39.46)" fill="#fff"/>
    <path id="Trazado_664634" data-name="Trazado 664634" d="M257.539,315.268l-28.216-.826L258,312.358l.343-2.142-31.5,2.288.392,3.989,29.965.878Z" transform="translate(-29.92 -40.917)" fill="#fff"/>
    <path id="Trazado_664635" data-name="Trazado 664635" d="M226.4,308.31l31.865,1.346.335-2.1-32.408-1.37Z" transform="translate(-29.834 -40.385)" fill="#fff"/>
    <path id="Trazado_664636" data-name="Trazado 664636" d="M224.663,289.588l.207,2.11,36.669-6.923.353-2.216Z" transform="translate(-29.633 -37.269)" fill="#fff"/>
    <path id="Trazado_664637" data-name="Trazado 664637" d="M222.439,267.723l.207,2.1,40.951-1.989.34-2.13Z" transform="translate(-29.339 -35.046)" fill="#fff"/>
    <path id="Trazado_664638" data-name="Trazado 664638" d="M223.781,281.273l.207,2.1,38-2.649.341-2.14Z" transform="translate(-29.516 -36.745)" fill="#fff"/>
    <path id="Trazado_664639" data-name="Trazado 664639" d="M222.128,263.777l.207,2.107,42.468-7.059.352-2.2Z" transform="translate(-29.298 -33.848)" fill="#fff"/>
    <path id="Trazado_664640" data-name="Trazado 664640" d="M223.332,276.039l.207,2.109,39.706-6.943L263.6,269Z" transform="translate(-29.457 -35.48)" fill="#fff"/>
    <path id="Trazado_664641" data-name="Trazado 664641" d="M382.27,392.931H386.1c3.21-8.025,16.075-39.994,21-49.362,5.646-10.742,11.236-30.207,5.525-33.523s-15.655,3.131-20.26,20.022c-4.067,14.916-8.994,53.94-10.091,62.863" transform="translate(-50.42 -40.783)" fill="#819335"/>
    <path id="Trazado_664642" data-name="Trazado 664642" d="M414.843,320.477q.074-.565.129-1.111l-7.89,3.857,4.508-13.674a6.357,6.357,0,0,0-.917-.223l-4.421,13.409-3.964-10.323q-.375.323-.747.679l4.245,11.059-2.615,7.932-5.6-14.034q-.31.491-.612,1.009l5.754,14.416-3.563,10.805-6.578-14.546c-.034.119-.069.234-.1.353-.094.344-.188.714-.283,1.083l6.527,14.431-2.768,8.393-5.9-12.928c-.1.53-.2,1.063-.3,1.607l5.768,12.638-2.8,8.486-4.595-11.732q-.148.91-.3,1.828l4.427,11.306-3.8,11.521-2.877-7.892c-.095.664-.188,1.326-.28,1.979l2.681,7.356-2.408,7.306-1.747-3.823c-.08.6-.157,1.188-.232,1.759l1.545,3.38-2.032,6.164h.99l1.928-5.848,3.1-1.394c.168-.412.337-.832.511-1.263l-3.208,1.445,2.445-7.415,4.188-2.424.586-1.427-4.331,2.507,3.833-11.626,5.623-3.169q.3-.714.6-1.419l-5.788,3.262,2.834-8.6,7.562-5.229q.391-.866.762-1.671l-7.835,5.417,2.7-8.178,8.283-3.669c.21-.424.418-.861.626-1.307L400,344.71l3.6-10.93,9.5-5.211q.18-.633.346-1.263l-9.413,5.164,2.636-8Z" transform="translate(-50.531 -40.799)" fill="#b2d855"/>
    <path id="Trazado_664643" data-name="Trazado 664643" d="M385.411,405.546h1.1c.086-.214.181-.454.281-.7-.527.266-.99.5-1.38.7" transform="translate(-50.835 -53.398)" fill="#aaa"/>
    <path id="Trazado_664644" data-name="Trazado 664644" d="M382.279,405.567l-.009.074h.062l-.053-.074" transform="translate(-50.42 -53.493)" fill="#aaa"/>
    <path id="Trazado_664645" data-name="Trazado 664645" d="M361.458,386.046c3.357-11.331,14.566-49.274,21.856-75.333,8.657-30.944,10.867-52.677,5.525-53.6s-9.947,3.683-18.972,25.049c-8.2,19.406-21.407,90.923-23.763,103.882Z" transform="translate(-45.65 -33.898)" fill="#819335"/>
    <path id="Trazado_664646" data-name="Trazado 664646" d="M391.725,271.626q.061-.664.109-1.3l-7.748,6.292,5.452-19.375a1.876,1.876,0,0,0-.4-.122q-.264-.046-.527-.072l-5.475,19.458-4.8-11.246q-.293.487-.593,1.01l4.987,11.681-5.677,20.175L370.243,282l-.072.17c-.142.336-.286.691-.431,1.057l6.909,16.349-4.43,15.743-8-14.022c-.112.431-.225.869-.338,1.307l7.98,13.985-5.389,19.151L359.5,320.908c-.112.5-.225,1-.337,1.5l6.92,14.721L362.515,349.8l-7.052-10.24c-.089.424-.178.85-.266,1.273l6.986,10.145-4.447,15.808-5.163-13.048q-.171.857-.339,1.7l5.081,12.839-4.088,14.529-4.544-9.027q-.146.779-.286,1.523l4.452,8.847-.534,1.9h.978l.461-1.637,10.32-6.192c.129-.437.259-.876.394-1.334l-10.343,6.2,4.089-14.529,10.65-6.626.4-1.356-10.668,6.637,4.513-16.04,11.4-8.6.438-1.509-11.418,8.609,3.455-12.282,10.8-6.169q.188-.65.373-1.3l-10.813,6.175,5.422-19.268,10.955-6.51c.122-.44.241-.874.361-1.31l-10.946,6.5,4.415-15.691,10.758-7.769c.1-.464.2-.919.3-1.376l-10.646,7.688,5.679-20.183Z" transform="translate(-45.953 -33.904)" fill="#b2d855"/>
    <path id="Trazado_664647" data-name="Trazado 664647" d="M288.31,398.136H334.5c.621-3.873.813-7.855,1.051-11.736a140.434,140.434,0,0,0,.214-15.388c-.124-2.57-.349-5.144-.708-7.692a16.755,16.755,0,0,0-1.916-6.293c-2.274-3.867-6.738-5.137-10.892-3.738a12.341,12.341,0,0,0-5.677,4.156,18.556,18.556,0,0,0-1.529,2.329c-.2-.49-.4-.962-.589-1.4a33.544,33.544,0,0,0-3.044-5.811,8.556,8.556,0,0,0-4.477-3.617,7.348,7.348,0,0,0-5.952.938c-3.581,2.189-5.192,6.464-5.777,10.431-.7,4.765.022,9.685.409,14.449.021.253.042.506.062.76a5.564,5.564,0,0,0-4.1-.517c-3.568.956-5.228,4.821-5.762,8.151-.618,3.854.174,7.8,1.317,11.476.366,1.178.773,2.342,1.187,3.5" transform="translate(-37.669 -45.989)" fill="#b2d855"/>
    <path id="Trazado_664648" data-name="Trazado 664648" d="M426.469,397.859a16.867,16.867,0,0,0,.436-1.924c.99-6.192-2.638-13.081-9.421-13.383a8.717,8.717,0,0,0-1.733.112c.555-1.08,1.088-2.164,1.634-3.2q2.292-4.356,4.4-8.8c1.367-2.882,2.695-5.788,3.906-8.739,1.086-2.644,2.048-5.6,1.523-8.485a8.446,8.446,0,0,0-4.565-6.088,11.181,11.181,0,0,0-7.835-.133c-5.141,1.55-10.045,4.683-14.25,7.965a52.119,52.119,0,0,0-8.582,8.6,11.27,11.27,0,0,0-2.712-4.507,15.008,15.008,0,0,0-12.1-3.993c-8.987.818-16.647,7.782-22.09,14.495a55.42,55.42,0,0,0-4.736,6.869c-.083-.694-.161-1.387-.245-2.081a61.649,61.649,0,0,0-1.052-7.842,5.178,5.178,0,0,0-4.393-3.982,9.44,9.44,0,0,0-6.407,1.958,39.134,39.134,0,0,0-9.256,9.8,49.359,49.359,0,0,0-6.175,12.068,44.475,44.475,0,0,0-2.4,11.294Z" transform="translate(-42.261 -45.712)" fill="#216838"/>
    <path id="Trazado_664649" data-name="Trazado 664649" d="M424.084,401.034a15.807,15.807,0,0,0-3.954-9.151,13.4,13.4,0,0,0-8.936-4.426,12.531,12.531,0,0,0-4.788.562c0-.391,0-.782-.012-1.173a22.518,22.518,0,0,0-2.186-9.612,6.756,6.756,0,0,0-7.755-3.715c-3.122.8-5.76,3.249-7.724,5.71-.5.631-.984,1.3-1.432,1.985a10.536,10.536,0,0,0-1-1.327,9.185,9.185,0,0,0-10.359-2.538c-7.136,2.694-11.261,10.41-12.468,17.537a34.7,34.7,0,0,0-.473,6.15Z" transform="translate(-47.878 -49.237)" fill="#b2d855"/>
    <path id="Trazado_664650" data-name="Trazado 664650" d="M108.483,256.712s1.979,15.833,5.462,26.284,6.94,20.425,6.94,20.425-4.882,5.542-3.457,17.575,13.616,45.759,13.616,45.759l-1.267,9.342h12.983l-4.908-10.767,1.9-62.542,1.221-3.642s-3.571-28.5-5.563-40.691-7.533-26.916-7.533-26.916l-3.167-8.762H110.689Z" transform="translate(-14.309 -29.383)" fill="#ad693b"/>
    <path id="Trazado_664651" data-name="Trazado 664651" d="M131.773,380.436l8.959-3.806.274-9.039-12.5,3.243c1.219,3.679,2.362,7.014,3.262,9.6" transform="translate(-16.95 -48.484)" fill="#875532"/>
    <path id="Trazado_664652" data-name="Trazado 664652" d="M140.978,299.146l-1.222,3.642-1.6,52.57-10.181,2.605c-3.715-10.844-9.581-28.842-10.544-36.966-1.425-12.034,3.455-17.577,3.455-17.577s-3.455-9.97-6.935-20.426-5.462-26.284-5.462-26.284l2.2-33.932h14.025l3.164,8.764s5.543,14.72,7.533,26.916,5.568,40.69,5.568,40.69" transform="translate(-14.309 -29.384)" fill="#f6d430"/>
    <path id="Trazado_664653" data-name="Trazado 664653" d="M136.263,315.445l-4.222,10.239a31.152,31.152,0,0,0,10.705-7.471l.117-3.823,1.221-3.642Z" transform="translate(-17.416 -40.987)" fill="#e2bd23"/>
    <path id="Trazado_664654" data-name="Trazado 664654" d="M121.149,316.065c.607.784,1.247,1.582,1.9,2.349,3.155,3.695,4.551,4.117,4.551,4.117l-8.41-17.287c1.806,5.3,3.105,9.052,3.105,9.052a10.63,10.63,0,0,0-1.148,1.769" transform="translate(-15.721 -40.261)" fill="#e2bd23"/>
    <path id="Trazado_664655" data-name="Trazado 664655" d="M116.717,266.566l6.41-17.1-14.085,2.209-.555,8.554s1.974,15.837,5.462,26.284c.431,1.3.862,2.583,1.286,3.845.487-7.384,1.482-23.792,1.482-23.792" transform="translate(-14.309 -32.904)" fill="#e2bd23"/>
    <path id="Trazado_664656" data-name="Trazado 664656" d="M125.354,366.817l4.552,10.331,10.885-2.893.725-11.147Z" transform="translate(-16.534 -47.893)" fill="#ffe67b"/>
    <path id="Trazado_664657" data-name="Trazado 664657" d="M133.02,391.73l-3.563,9.816v2.269H165l-1.742-2.427-20.029-9.659-6.967,2.454Z" transform="translate(-17.075 -51.668)" fill="#01265a"/>
    <path id="Trazado_664658" data-name="Trazado 664658" d="M163.551,403.2l-.289-.4-.832-.4-32.826.154-.147.405v.4Z" transform="translate(-17.075 -53.075)" fill="#fff"/>
    <path id="Trazado_664659" data-name="Trazado 664659" d="M132.273,395.163a5.873,5.873,0,0,1,3.081,2.858,9.521,9.521,0,0,1,1,3.849l.806.071a9.88,9.88,0,0,0-1.06-4.238,6.651,6.651,0,0,0-3.547-3.307Z" transform="translate(-17.446 -52.02)" fill="#fff"/>
    <path id="Trazado_664660" data-name="Trazado 664660" d="M154.824,399.543a8.864,8.864,0,0,1,1.819-2.136l-.79-.381a9.328,9.328,0,0,0-1.73,2.115c-1.208,2.1-1.268,2.889-1.268,3.025l.81.013a7.833,7.833,0,0,1,1.16-2.636" transform="translate(-20.161 -52.367)" fill="#fff"/>
    <path id="Trazado_664661" data-name="Trazado 664661" d="M114.122,226.312l3.8,19.633L107,259.245l-10.45,39.9L95.122,312.6l-3.167,8.392L84.039,365.17l1.425,12.35H74.7l1.741-10.608s-9.183-38.158-7.125-48.45,12.35-18.683,12.35-18.683-8.867-29.45-3.8-45.442,11.875-22.642,11.875-22.642l2.753-8.92Z" transform="translate(-9.103 -29.383)" fill="#ad693b"/>
    <path id="Trazado_664662" data-name="Trazado 664662" d="M73.264,368.931c.492,2.5.985,4.888,1.444,7.043l10.859,3.079,1.814-10.122Z" transform="translate(-9.663 -48.661)" fill="#875532"/>
    <path id="Trazado_664663" data-name="Trazado 664663" d="M117.92,245.945l-10.926,13.3-10.448,39.9L95.123,312.6,91.959,321l-6.23,34.749-12.067-1.367c-2.517-12.083-5.641-29.466-4.346-35.915,2.055-10.294,12.35-18.686,12.35-18.686s-8.87-29.449-3.8-45.44,11.881-22.643,11.881-22.643l2.752-8.918,21.631,3.537Z" transform="translate(-9.103 -29.384)" fill="#f6d430"/>
    <path id="Trazado_664664" data-name="Trazado 664664" d="M70.74,360.632l2.444,12.43,14.409,1.978,3.417-13.458Z" transform="translate(-9.33 -47.566)" fill="#ffe67b"/>
    <path id="Trazado_664665" data-name="Trazado 664665" d="M96.126,328.589l-13.711,9.7a16.345,16.345,0,0,0,9.2,0c.566-.168,1.1-.337,1.607-.5l.508-2.832Z" transform="translate(-10.87 -43.34)" fill="#e2bd23"/>
    <path id="Trazado_664666" data-name="Trazado 664666" d="M83.459,313.068a15.551,15.551,0,0,0,5.806,4.961l-10.247-26.99a153.985,153.985,0,0,0,3.967,17.741s-.59.483-1.51,1.35c.672,1.064,1.352,2.086,1.984,2.938" transform="translate(-10.422 -38.387)" fill="#e2bd23"/>
    <path id="Trazado_664667" data-name="Trazado 664667" d="M75.526,389.531,69.816,401.6v1.794H90.887l-.726-2.9-5.225-10.845-5.224-1.109Z" transform="translate(-9.209 -51.247)" fill="#01265a"/>
    <path id="Trazado_664668" data-name="Trazado 664668" d="M90.262,402.648l-.1-.4-.19-.394-19.959,1.087-.2.416v.405Z" transform="translate(-9.209 -53.003)" fill="#fff"/>
    <path id="Trazado_664669" data-name="Trazado 664669" d="M80.29,394.362c-5.774.6-8.454,7.455-8.566,7.746l.757.29c.025-.068,2.609-6.683,7.892-7.231,5.216-.53,8.051,6.258,8.079,6.328l.75-.3c-.122-.3-3.084-7.426-8.912-6.828" transform="translate(-9.46 -52.011)" fill="#fff"/>
    <path id="Trazado_664670" data-name="Trazado 664670" d="M124.411,231.666l-2.5-6.919-14.776-.538-.051.793-6.267-1.024-6.841-.249-2.5,8.091s-4.754,4.646-9.272,15.495a17.513,17.513,0,0,0,8.875-1.244c5.462-2.691,6.333-4.116,6.333-4.116s10.292,5.462,18.129,1.979c4.621-2.054,8.086-5.868,10.152-8.654-.772-2.243-1.287-3.614-1.287-3.614" transform="translate(-10.843 -29.509)" fill="#e2bd23"/>
    <path id="Trazado_664671" data-name="Trazado 664671" d="M132.267,119.506a6.741,6.741,0,0,0-5.5.4c-.142.068-.279.147-.418.221,0-.014,0-.03,0-.044a2.784,2.784,0,0,0-.656-1.455,2.741,2.741,0,0,0-1.984-.89,4.062,4.062,0,0,0,.246-.808,4.23,4.23,0,0,0-.355-2.567,4.949,4.949,0,0,0-.6-.951,7.819,7.819,0,0,0,.655-1.016,5.03,5.03,0,0,0,.2-4.645,4.9,4.9,0,0,0-3.5-2.343,9.117,9.117,0,0,0-3.722.188,5.523,5.523,0,0,0-.6-4.558c-1.164-1.7-3.335-2.1-5.26-1.9a15.143,15.143,0,0,0-5.916,2.065,16.173,16.173,0,0,0-4.126,3.375c-.375-2.237-2.7-4.057-4.824-4.44a7.8,7.8,0,0,0-7.844,3.707,10.216,10.216,0,0,0-.794,1.618,4.713,4.713,0,0,0-2.484-.056,4.961,4.961,0,0,0-3.15,2.437,6.517,6.517,0,0,0-.734,4.071,8.818,8.818,0,0,0,.29,1.3c-2.695-.18-5.612.505-7.367,2.541a4.9,4.9,0,0,0-1.161,3.878,5.761,5.761,0,0,0,.7,2.046c-3.53,1.254-7.369,3.744-7.48,7.821a5.794,5.794,0,0,0,2.658,4.836,7.174,7.174,0,0,0,.8.465c-.193.188-.379.379-.554.567A8.79,8.79,0,0,0,67.5,137.12a5.317,5.317,0,0,0-.605,3.774,3.863,3.863,0,0,0,2.083,2.695,4.583,4.583,0,0,0,4.194-.431c.125-.075.242-.16.36-.244a8.974,8.974,0,0,0-.173,2.4c.2,2.689,2.169,5.276,5.084,5.078a7.354,7.354,0,0,0,3.752-1.476,1.716,1.716,0,0,0,.679.68,3.622,3.622,0,0,0,2.155.284,4.447,4.447,0,0,0,1.6-.553,3.706,3.706,0,0,0,1.361,2.245,3.394,3.394,0,0,0,3.141.385,4.889,4.889,0,0,0,1.152-.592,4.286,4.286,0,0,0,1.588,1.831,5.176,5.176,0,0,0,3.811.678,7.964,7.964,0,0,0,3.843-2.07,13.486,13.486,0,0,0,.965-1.015,2.864,2.864,0,0,0,.542.777,3.362,3.362,0,0,0,2.136,1.2,2.61,2.61,0,0,0,2.107-.979,4.168,4.168,0,0,0,.638-1.069,3.721,3.721,0,0,0,.192-.575.976.976,0,0,0,.016-.161,2.9,2.9,0,0,0,.791.167,4.424,4.424,0,0,0,1.813-.3,4.768,4.768,0,0,0,2.492-1.914c.253.085.517.147.747.2a6.7,6.7,0,0,0,1.549.2,5.164,5.164,0,0,0,2.794-.748c1.457-.911,2.266-3,1.161-4.481a4.488,4.488,0,0,0,.58-.391,4.216,4.216,0,0,0,1.636-3.268c0-.07-.005-.137-.009-.206.219.027.439.058.653.076a11.988,11.988,0,0,0,4.308-.406,5.7,5.7,0,0,0,3.331-2.186,3.544,3.544,0,0,0,.115-3.63,5.723,5.723,0,0,0-1.274-1.6,11.3,11.3,0,0,0,2.979-2.624,11.177,11.177,0,0,0,2.374-4.886c.351-1.813-.082-3.669-1.894-4.479" transform="translate(-8.69 -13.07)" fill="#01265a"/>
    <path id="Trazado_664672" data-name="Trazado 664672" d="M101.329,119.79c9.7-3.064,17.813,6.65,18.683,15.516a101.544,101.544,0,0,1,0,17.576l-7.362.531.552,9.5,9.581,1.84-10.292,11.4-23.433-16.7,11,.4.475-9.422s-9.975-5.066-10.846-14.329,7.125-14.883,11.638-16.308" transform="translate(-11.747 -15.724)" fill="#ad693b"/>
    <path id="Trazado_664673" data-name="Trazado 664673" d="M115.544,158.524,111,157.967c.822,3.687,2.363,6.372,4.958,7.59Z" transform="translate(-14.64 -20.835)" fill="#875532"/>
    <path id="Trazado_664674" data-name="Trazado 664674" d="M122.871,144.838a1.05,1.05,0,0,0-.525-.736,4.332,4.332,0,0,0-2.847.11l-2.035-4.994-.749.306,2.324,5.7.365-.131a4.368,4.368,0,0,1,2.54-.291.244.244,0,0,1,.132.182c.105.563-1.528,1.622-3.118,2.261l.3.751c.654-.262,3.9-1.644,3.612-3.161" transform="translate(-15.394 -18.362)" fill="#875532"/>
    <path id="Trazado_664675" data-name="Trazado 664675" d="M114.536,151.447c.634-1.991,3.534.277,4.953,0s1.34-1.385,2.053-1.03.356,3.049-2.217,3.563-5.343-.792-4.789-2.533" transform="translate(-15.098 -19.83)" fill="#fff"/>
    <path id="Trazado_664676" data-name="Trazado 664676" d="M104.287,141.41l.24.773a18.784,18.784,0,0,1,7.517-.776l.084-.8a19.536,19.536,0,0,0-7.841.807" transform="translate(-13.755 -18.532)" fill="#01265a"/>
    <path id="Trazado_664677" data-name="Trazado 664677" d="M122.778,135.024a9.271,9.271,0,0,0-4.808,3.1l.628.512A8.375,8.375,0,0,1,123,135.8Z" transform="translate(-15.56 -17.809)" fill="#01265a"/>
    <path id="Trazado_664678" data-name="Trazado 664678" d="M109.4,144.283a5.418,5.418,0,0,0-2.961,1.924l.667.46a4.687,4.687,0,0,1,2.5-1.6,3.916,3.916,0,0,1,2.281-.152l.378-.715c-.087-.045-.91-.435-2.866.085" transform="translate(-14.038 -18.995)" fill="#01265a"/>
    <path id="Trazado_664679" data-name="Trazado 664679" d="M110.663,144.556s.914,2.195,0,2.485-2.181-1.77-2.181-1.77Z" transform="translate(-14.308 -19.067)" fill="#01265a"/>
    <path id="Trazado_664680" data-name="Trazado 664680" d="M121.257,139.48a4.692,4.692,0,0,0-1.906,2.367l.764.267a3.922,3.922,0,0,1,1.524-1.92,1.482,1.482,0,0,1,1.567-.037l.5-.64a2.269,2.269,0,0,0-2.445-.037" transform="translate(-15.742 -18.354)" fill="#01265a"/>
    <path id="Trazado_664681" data-name="Trazado 664681" d="M122.464,139.619s.227,2.111-.376,2.423-1.32-1.431-1.32-1.431Z" transform="translate(-15.929 -18.415)" fill="#01265a"/>
    <path id="Trazado_664682" data-name="Trazado 664682" d="M126.455,125.546a4.6,4.6,0,0,0-3.654-4.31,4.483,4.483,0,0,0-.983-.038,10.367,10.367,0,0,0-.38-3.849,7.1,7.1,0,0,0-6.66-5.348,10.458,10.458,0,0,0-4.992.521,6.053,6.053,0,0,0-1.874,1.214,4.894,4.894,0,0,0-3.646-1.8c-1.872-.061-3.97,1.132-4.131,3.147A7.007,7.007,0,0,0,94.3,114.8a4.969,4.969,0,0,0-3.18,5.334,4.866,4.866,0,0,0,.234.839,6.465,6.465,0,0,0-1.333.3,6.062,6.062,0,0,0-2.532,1.666,5.01,5.01,0,0,0-1.315,3.132,3.888,3.888,0,0,0,.422,1.865,7.582,7.582,0,0,0-4.765,4.086c-1.144,2.432-.782,5.7,1.7,7.111-.129.2-.253.409-.362.624a4.459,4.459,0,0,0-.482,2.721,2.973,2.973,0,0,0,1.5,2.171,3.1,3.1,0,0,0,1.375.384,2.538,2.538,0,0,0,.021,1.421,2.923,2.923,0,0,0,4.035,1.625,3.044,3.044,0,0,0,.565-.375,3.416,3.416,0,0,0,2.262.407,3.318,3.318,0,0,0,2.009-1.164,3.077,3.077,0,0,0,.711-2.108,3.432,3.432,0,0,0-.214-1,5.45,5.45,0,0,0,2.366-.654,4.705,4.705,0,0,0,2.375-4.545,5,5,0,0,0-.353-1.458,3.992,3.992,0,0,0-.251-.474,3.882,3.882,0,0,0,3.584-2.265,4.509,4.509,0,0,0-.774-4.694,9.781,9.781,0,0,0,1.408-.066,7.871,7.871,0,0,0,3.392-1.237,7,7,0,0,0,2.158-2.371,4.706,4.706,0,0,0,3.21,2.178,4.069,4.069,0,0,0,2.629-.525c.005.01.009.019.014.03a2.117,2.117,0,0,0,.931.819,2.355,2.355,0,0,0,.951.2,2.869,2.869,0,0,0,.888,1.262,4.123,4.123,0,0,0,2.482.942,4.19,4.19,0,0,0,2.471-.676,3.3,3.3,0,0,0,.931-.858c.041-.061.085-.129.128-.2a2.375,2.375,0,0,0,.819,0,2.415,2.415,0,0,0,1.354-.736,3.775,3.775,0,0,0,.788-2.961" transform="translate(-10.712 -14.762)" fill="#01265a"/>
    <path id="Trazado_664683" data-name="Trazado 664683" d="M101.741,153.012a7.452,7.452,0,0,1-7.006-.792c-3.523-2.414-5.33-6.55-3.008-8.629,4.156-3.721,8.867,2.533,8.867,2.533Z" transform="translate(-11.961 -18.783)" fill="#ad693b"/>
    <path id="Trazado_664684" data-name="Trazado 664684" d="M98.961,147.711c-1.823-2.155-5.919-2.678-6.091-2.7l-.1.8a12.732,12.732,0,0,1,4.52,1.528,2.906,2.906,0,0,0-1.7,1.693,2.824,2.824,0,0,0,.6,2.728l.583-.561a2,2,0,0,1-.416-1.918,2.435,2.435,0,0,1,1.68-1.361,3.857,3.857,0,0,1,.3.311,6.323,6.323,0,0,1,1.7,3.263l.809-.03a6.88,6.88,0,0,0-1.89-3.756" transform="translate(-12.236 -19.127)" fill="#875532"/>
    <path id="Trazado_664685" data-name="Trazado 664685" d="M130.554,167.755a107.7,107.7,0,0,1,8.5,13.564c3.273,6.544,11.083,24.594,11.083,24.594l1.689,12.245a38.675,38.675,0,0,1-14.989-5.806,41.474,41.474,0,0,1-11.295-11.4l-2.77-23.117Z" transform="translate(-16.193 -22.126)" fill="#ed4082"/>
    <path id="Trazado_664686" data-name="Trazado 664686" d="M143.312,203.8c.95,6.017,7.618,12.048,7.618,12.048l1.509-7.947c-1.216-2.8-5.183-11.894-8.252-18.558-.53,2.912-1.608,9.814-.874,14.457" transform="translate(-18.87 -24.974)" fill="#ba2b7a"/>
    <path id="Trazado_664687" data-name="Trazado 664687" d="M136.254,205.177s4.591-8.075,3.8-14.25-6.175-11.875-6.175-11.875l-3.113-7.277-5.705,3.623-2.291,2.967,2.77,23.117a41.474,41.474,0,0,0,11.295,11.4c.56.374,1.122.716,1.683,1.045Z" transform="translate(-16.193 -22.657)" fill="#ba2b7a"/>
    <path id="Trazado_664688" data-name="Trazado 664688" d="M154.818,218.02a29.018,29.018,0,0,0,13.88-8.6,79.459,79.459,0,0,0-7.863-22.958l-3.22-16.309.951-3.44H145.854l1.153,3.124s-2.465,21.533-1.153,30.083,8.964,18.1,8.964,18.1" transform="translate(-19.187 -21.989)" fill="#ed4082"/>
    <path id="Trazado_664689" data-name="Trazado 664689" d="M145.854,202.447a29.846,29.846,0,0,0,2.82,8.314,49.277,49.277,0,0,0,13.058,3.086c1.646.149,3.257.214,4.788.22.732-.657,1.458-1.359,2.178-2.121a79.5,79.5,0,0,0-7.864-22.958l-.612-3.1-14.441.714c-.352,5.838-.5,12.093.072,15.846" transform="translate(-19.187 -24.518)" fill="#ba2b7a"/>
    <path id="Trazado_664690" data-name="Trazado 664690" d="M110.144,174.564,97.429,162.953H81.7l.633,21.533,7.178,22.694-1.425,16.15,1.413,2.85,24.342,6.017,11.77-7.758-2.217-7.125,4.433-10.291.792-8.3a17.063,17.063,0,0,0,3.952-9.629,4.56,4.56,0,0,0-.544-2.838,49.507,49.507,0,0,0-6.257-8.688l-.634-10.449-10.752.633Z" transform="translate(-10.776 -21.493)" fill="#ed4082"/>
    <path id="Trazado_664691" data-name="Trazado 664691" d="M99.98,228.04c-3.563-2.692-9.738-3.484-9.738-3.484s8.55-12.113,6.413-18.366-11.4-21.929-11.4-21.929L82.431,187.3l7.177,22.695L88.184,226.14l1.413,2.85,13.059,3.228a9.233,9.233,0,0,0-2.676-4.177" transform="translate(-10.872 -24.304)" fill="#ba2b7a"/>
    <path id="Trazado_664692" data-name="Trazado 664692" d="M131.536,213.7a154.9,154.9,0,0,0-14.644,7.456c-6.046,3.695-7.1,6.122-7.1,6.122l18.487.509-1.177-3.781,4.433-10.291Z" transform="translate(-14.481 -28.187)" fill="#ba2b7a"/>
    <path id="Trazado_664693" data-name="Trazado 664693" d="M95.5,162.9l18,18.5,5.864-13.882-3.172-.447-4.228,7.441L99.2,162.587Z" transform="translate(-12.596 -21.445)" fill="#ffe67b"/>
    <path id="Trazado_664694" data-name="Trazado 664694" d="M76.777,235.8l5.542,5.172s1,3.061,3.589,2.533,6.861-4.222,6.861-4.222,4.328,2.85,6.914,3.589,3.906-.211,3.906-.211l-3.22-2.978s.211.339,2.058.5,4.08-2.058,4.08-2.058-6.032-4.8-7.511-6.861-3.589-5.752-3.589-5.752l-9.236,6.6-4.75-3.8Z" transform="translate(-10.127 -29.744)" fill="#ad693b"/>
    <path id="Trazado_664695" data-name="Trazado 664695" d="M86.225,232.5l-.054.038-4.75-3.8-4.644,7.494,5.542,5.172a5.034,5.034,0,0,0,1.019,1.682Z" transform="translate(-10.127 -30.169)" fill="#875532"/>
    <path id="Trazado_664696" data-name="Trazado 664696" d="M75.407,162.952,33.977,199.58c5.631,11.855,16.742,20.411,31.914,25.967l9.091,7.6L81.16,222.38s-4.75-2.85-4.75-3.325-4.433-12.508-6.809-15.516-7.924-3.167-7.924-3.167L76.04,184.485Z" transform="translate(-4.481 -21.493)" fill="#ed4082"/>
    <path id="Trazado_664697" data-name="Trazado 664697" d="M68.723,234.1l1.131.945a36.453,36.453,0,0,0,7.8-5.4l-22.208-1.82A76.472,76.472,0,0,0,68.723,234.1" transform="translate(-7.314 -30.05)" fill="#ba2b7a"/>
    <path id="Trazado_664698" data-name="Trazado 664698" d="M53.675,207.6s7.441.975,12.824-.5c1.109-.3,2.131-.636,3.064-.972a15.639,15.639,0,0,0-5.288-1.218l6.868-7.6Z" transform="translate(-7.08 -26.024)" fill="#ba2b7a"/>
    <path id="Trazado_664699" data-name="Trazado 664699" d="M131.753,153.915l.851,28.324-1.145,19.938,34.389,4.762,1.583-25.439,1.689-26.435a127.1,127.1,0,0,1-37.367-1.149" transform="translate(-17.339 -20.301)" fill="#e9f5ff"/>
    <path id="Trazado_664700" data-name="Trazado 664700" d="M140.346,159.183v2.74l21.924-.018v-1.772Z" transform="translate(-18.511 -20.996)" fill="#01265a"/>
    <path id="Trazado_664701" data-name="Trazado 664701" d="M135.841,203.914v1.436l27.471,2.417.4-1.556Z" transform="translate(-17.917 -26.896)" fill="#01265a"/>
    <path id="Trazado_664702" data-name="Trazado 664702" d="M136.571,199.9v1.2l26.521,2.28v-1.741Z" transform="translate(-18.013 -26.366)" fill="#01265a"/>
    <path id="Trazado_664703" data-name="Trazado 664703" d="M136.571,194.773v1.845l15.011,1.089V196.24Z" transform="translate(-18.013 -25.69)" fill="#01265a"/>
    <path id="Trazado_664704" data-name="Trazado 664704" d="M155.448,196.463v1.014l10.133,1.142V196.84Z" transform="translate(-20.503 -25.913)" fill="#01265a"/>
    <path id="Trazado_664705" data-name="Trazado 664705" d="M137.027,190.794v1.583l21.058.612v-1.1Z" transform="translate(-18.073 -25.165)" fill="#01265a"/>
    <path id="Trazado_664706" data-name="Trazado 664706" d="M142.1,187.962v1.109l21.611,1.108v-1.724Z" transform="translate(-18.743 -24.792)" fill="#01265a"/>
    <path id="Trazado_664707" data-name="Trazado 664707" d="M131.459,208.8l34.389,4.762a36.047,36.047,0,0,0-1.9-9.4S150.875,207.39,144.006,208s-12.547.806-12.547.806" transform="translate(-17.339 -26.928)" fill="#c4e3ff"/>
    <path id="Trazado_664708" data-name="Trazado 664708" d="M150.665,148.893,144.579,146l-3.114,5.644,1.206,9.28a6.857,6.857,0,0,0,1.855-2.164,5.278,5.278,0,0,0,.834-2.691l.7,4.327,6.052,3.579a18.159,18.159,0,0,0,4.933-6.059,6.017,6.017,0,0,0,1.725,1.478c1.109.634,1.636.37,1.636.37l-1.688-8.119-2.8-5.644Z" transform="translate(-18.659 -19.257)" fill="#ad693b"/>
  </g>
</svg>
