<svg xmlns="http://www.w3.org/2000/svg" width="46.953" height="47.023" viewBox="0 0 46.953 47.023">
  <g id="Grupo_972366" data-name="Grupo 972366" transform="translate(-82.236 -62.808)">
    <path id="Trazado_661256" data-name="Trazado 661256" d="M319.067,236.3l-2.43,1.414a1.727,1.727,0,0,0-.625,2.356l.537.923c.633,1.088.356,1.58.159,1.756-.54.484-1.041,1.01-1.543,1.533-.149.154-.618.679-1.853-.039l-.85-.491a1.727,1.727,0,0,0-2.355.622l-1.414,2.431a1.732,1.732,0,0,0,.623,2.358l.842.487c1.157.673,1.129,1.019.981,1.51-.2.674-.419,1.35-.565,2.047-.131.623-.073,1.067-1.649,1.067h-.965a1.727,1.727,0,0,0-1.725,1.723V258.8a1.728,1.728,0,0,0,1.725,1.723h.965c1.576,0,1.518.444,1.649,1.065.146.7.363,1.374.565,2.047.149.492.176.837-.981,1.512l-.842.488a1.729,1.729,0,0,0-.623,2.355l1.414,2.431a1.726,1.726,0,0,0,2.355.624l.85-.492c1.235-.719,1.7-.193,1.853-.039.5.524,1,1.049,1.543,1.533.2.176.474.668-.159,1.757l-.537.922a1.726,1.726,0,0,0,.625,2.356l2.43,1.414a1.728,1.728,0,0,0,2.355-.624l.534-.92c.643-1.1,1.276-1.06,1.543-.976.774.246,1.49.406,2.289.614.292.077.794.289.794,1.606v.986a1.726,1.726,0,0,0,1.722,1.723h2.811a1.727,1.727,0,0,0,1.724-1.723V278.2c0-1.317.5-1.529.792-1.606.8-.208,1.517-.368,2.292-.614.267-.084.9-.128,1.543.976l.534.92a1.728,1.728,0,0,0,2.355.624l2.43-1.414a1.728,1.728,0,0,0,.625-2.356l-.537-.922c-.633-1.089-.358-1.581-.161-1.757.542-.484,1.041-1.009,1.545-1.533.149-.154.618-.68,1.853.039l.847.492a1.729,1.729,0,0,0,2.357-.624l1.412-2.431a1.725,1.725,0,0,0-.623-2.355l-.84-.488c-1.157-.675-1.129-1.02-.981-1.512.2-.673.416-1.349.565-2.047.131-.621.073-1.065,1.649-1.065h.965a1.727,1.727,0,0,0,1.722-1.723v-2.812a1.726,1.726,0,0,0-1.722-1.723H350.5c-1.576,0-1.518-.444-1.649-1.067-.149-.7-.366-1.373-.565-2.047-.149-.492-.176-.837.981-1.51l.84-.487a1.728,1.728,0,0,0,.623-2.358l-1.412-2.431a1.729,1.729,0,0,0-2.357-.622l-.847.491c-1.235.719-1.7.193-1.853.039-.5-.523-1-1.049-1.545-1.533-.2-.176-.472-.668.161-1.756l.537-.923a1.729,1.729,0,0,0-.625-2.356l-2.43-1.414a1.729,1.729,0,0,0-2.355.624l-.534.92c-.643,1.1-1.276,1.061-1.543.976-.774-.247-1.493-.406-2.292-.615-.29-.076-.792-.287-.792-1.6v-.987a1.727,1.727,0,0,0-1.724-1.723h-2.811a1.726,1.726,0,0,0-1.722,1.723v.987c0,1.316-.5,1.528-.794,1.6-.8.209-1.515.368-2.289.615-.267.086-.9.129-1.543-.976l-.534-.92a1.729,1.729,0,0,0-2.355-.624m10.645,7.313A13.79,13.79,0,1,1,315.921,257.4a13.79,13.79,0,0,1,13.791-13.789" transform="translate(-223.998 -171.078)" fill="#25ffff" fill-rule="evenodd"/>
  </g>
</svg>
