<svg xmlns="http://www.w3.org/2000/svg" width="682" height="383" viewBox="0 0 682 383">
  <g id="Grupo_985250" data-name="Grupo 985250" transform="translate(3905 10812)">
    <rect id="Rectángulo_338709" data-name="Rectángulo 338709" width="682" height="383" rx="19" transform="translate(-3905 -10812)" fill="#fff"/>
    <g id="Grupo_971968" data-name="Grupo 971968" transform="translate(-3761.532 -10800.537)">
      <text id="ECONOMÍA_LINEAL" data-name="ECONOMÍA LINEAL" transform="translate(115.886 15.716)" fill="#1767b9" font-size="14" font-family="Roboto-Bold, Roboto" font-weight="700"><tspan x="0" y="0">ECONOMÍA LINEAL</tspan></text>
      <path id="Trazado_663862" data-name="Trazado 663862" d="M249.124,398.771h-50.27v44.854h50.27l-.107,13.931L271.35,421.2,249.016,384.84Z" transform="translate(-116.725 -343.345)" fill="#eee"/>
      <path id="Trazado_663863" data-name="Trazado 663863" d="M329.564,398.771H279.295v44.854h50.269l-.107,13.931L351.788,421.2,329.456,384.84Z" transform="translate(-113.384 -343.345)" fill="#eee"/>
      <path id="Trazado_663864" data-name="Trazado 663864" d="M411.764,398.771H361.5v44.854h50.269l-.107,13.931L433.99,421.2,411.657,384.84Z" transform="translate(-109.969 -343.345)" fill="#eee"/>
      <path id="Trazado_663865" data-name="Trazado 663865" d="M184.8,404.247a18.981,18.981,0,1,1-18.98-18.98,18.981,18.981,0,0,1,18.98,18.98" transform="translate(-118.885 -343.327)" fill="#fff"/>
      <path id="Trazado_663866" data-name="Trazado 663866" d="M168.476,385.517a18.978,18.978,0,0,1-10.392,36.254,18.98,18.98,0,1,0,10.392-36.254" transform="translate(-118.418 -343.318)" fill="#f1f1f1"/>
      <path id="Trazado_663867" data-name="Trazado 663867" d="M165.842,423.69a19.425,19.425,0,1,1,19.425-19.426,19.447,19.447,0,0,1-19.425,19.426m0-37.96a18.535,18.535,0,1,0,18.534,18.534,18.557,18.557,0,0,0-18.534-18.534" transform="translate(-118.903 -343.346)" fill="#1767b9"/>
      <path id="Trazado_663868" data-name="Trazado 663868" d="M160.015,401.234c0,3.175-3.359,4.687-4.388,4.687s-4.387-1.512-4.387-4.687,4.387-8.792,4.387-8.792,4.388,5.617,4.388,8.792" transform="translate(-118.702 -343.03)" fill="#f1f1f1"/>
      <path id="Trazado_663869" data-name="Trazado 663869" d="M157.124,400.246c.292,1.975.222,3.831-1.5,5.556-1.029,0-4.386-1.512-4.386-4.688,0-2.586,2.309-5.774,2.309-5.774a6.748,6.748,0,0,1,3.575,4.907" transform="translate(-118.702 -342.909)" fill="#fff"/>
      <path id="Trazado_663870" data-name="Trazado 663870" d="M155.645,406.384c-1.125,0-4.832-1.6-4.832-5.132,0-3.29,4.3-8.832,4.481-9.067a.462.462,0,0,1,.7,0c.182.234,4.483,5.776,4.483,9.067,0,3.533-3.709,5.132-4.834,5.132m0-13.184c-1.024,1.394-3.943,5.579-3.943,8.052,0,2.927,3.135,4.241,3.943,4.241s3.943-1.314,3.943-4.241c0-2.473-2.917-6.659-3.943-8.052" transform="translate(-118.72 -343.047)" fill="#1767b9"/>
      <path id="Trazado_663871" data-name="Trazado 663871" d="M155.47,409.3a.444.444,0,0,1-.445-.445v-9.3a.445.445,0,1,1,.889,0v9.3a.444.444,0,0,1-.445.445" transform="translate(-118.545 -342.753)" fill="#1767b9"/>
      <path id="Trazado_663872" data-name="Trazado 663872" d="M167.542,401.136c0,3.693-3.689,4.528-4.82,4.528s-4.821-.834-4.821-4.528,4.821-10.231,4.821-10.231,4.82,6.536,4.82,10.231" transform="translate(-118.426 -343.094)" fill="#f1f1f1"/>
      <path id="Trazado_663873" data-name="Trazado 663873" d="M164.187,399.109c.353,2.886.159,4.7-1.465,6.438-1.133,0-4.82-.834-4.82-4.527,0-3.137,2.873-7.285,2.873-7.285a7.6,7.6,0,0,1,3.413,5.374" transform="translate(-118.426 -342.975)" fill="#fff"/>
      <path id="Trazado_663874" data-name="Trazado 663874" d="M162.739,406.127c-1.72,0-5.267-1.215-5.267-4.973,0-3.8,4.708-10.223,4.908-10.493a.461.461,0,0,1,.716,0c.2.271,4.907,6.7,4.907,10.493,0,3.758-3.545,4.973-5.263,4.973m0-14.436c-1.1,1.585-4.377,6.534-4.377,9.462,0,3.391,3.452,4.083,4.377,4.083s4.374-.692,4.374-4.083c0-2.929-3.273-7.877-4.374-9.462" transform="translate(-118.443 -343.111)" fill="#1767b9"/>
      <path id="Trazado_663875" data-name="Trazado 663875" d="M162.547,410.074a.444.444,0,0,1-.445-.445V397.9a.444.444,0,1,1,.888,0V409.63a.446.446,0,0,1-.444.445" transform="translate(-118.251 -342.822)" fill="#1767b9"/>
      <path id="Trazado_663876" data-name="Trazado 663876" d="M177.978,402.4c0,2.934-3,3.8-3.915,3.8s-3.915-.869-3.915-3.8,3.915-11.3,3.915-11.3,3.915,8.367,3.915,11.3" transform="translate(-117.917 -343.085)" fill="#f1f1f1"/>
      <path id="Trazado_663877" data-name="Trazado 663877" d="M175.819,401.8c0,2.933-.837,4.306-1.756,4.306s-3.915-.868-3.915-3.8,2.834-8.867,2.834-8.867,2.837,5.189,2.837,8.364" transform="translate(-117.917 -342.988)" fill="#fff"/>
      <path id="Trazado_663878" data-name="Trazado 663878" d="M174.081,406.663c-1.118,0-4.36-1.047-4.36-4.247,0-3,3.8-11.142,3.958-11.488a.461.461,0,0,1,.8,0c.161.346,3.958,8.49,3.958,11.488,0,3.2-3.242,4.247-4.36,4.247m0-14.473c-.992,2.215-3.469,7.973-3.469,10.226,0,2.737,2.93,3.357,3.469,3.357s3.469-.62,3.469-3.357c0-2.253-2.478-8.01-3.469-10.226" transform="translate(-117.935 -343.102)" fill="#1767b9"/>
      <path id="Trazado_663879" data-name="Trazado 663879" d="M173.925,409.512a.444.444,0,0,1-.445-.445v-8.854a.445.445,0,1,1,.889,0v8.854a.446.446,0,0,1-.445.445" transform="translate(-117.779 -342.725)" fill="#1767b9"/>
      <path id="Trazado_663880" data-name="Trazado 663880" d="M157.407,412.047c0,2.225,13.611-.1,13.611,3.22,0,3.436-9.106,4.108-15.529,4.157a18.979,18.979,0,0,0,27.831-9.7c-9.162-1.894-25.912-1.557-25.912,2.324" transform="translate(-118.526 -342.358)" fill="#f1f1f1"/>
      <path id="Trazado_663881" data-name="Trazado 663881" d="M164.249,411.089c0,.939,10.327-.421,10.327,4.135,0,3.434-7.805,7.257-19.088,4.158a18.982,18.982,0,0,0,27.831-9.7c-.545,1.346-19.069.231-19.069,1.411" transform="translate(-118.526 -342.314)" fill="#fff"/>
      <path id="Trazado_663882" data-name="Trazado 663882" d="M165.482,422.719a19.37,19.37,0,0,1-10.21-2.9A.445.445,0,0,1,155.5,419c9.588-.073,15.087-1.426,15.087-3.712,0-1.394-4.27-1.518-7.389-1.608-3.61-.1-6.222-.178-6.222-1.611a2.064,2.064,0,0,1,.871-1.612c3.6-2.927,17.995-2.716,25.579-1.15a.444.444,0,0,1,.3.22.439.439,0,0,1,.031.367,19.479,19.479,0,0,1-18.275,12.829m-8.317-2.857a18.544,18.544,0,0,0,25.572-9.787c-8.273-1.594-21.313-1.385-24.326,1.071a1.2,1.2,0,0,0-.542.921c0,.569,3.485.669,5.359.723,4.058.117,8.252.239,8.252,2.5,0,2.814-4.815,4.352-14.315,4.576" transform="translate(-118.544 -342.376)" fill="#1767b9"/>
      <path id="Trazado_663883" data-name="Trazado 663883" d="M147.387,407.895a19.021,19.021,0,0,0,8.436,11.561c6.425-.049,15.531-.722,15.531-4.158,0-3.322-13.611-1-13.611-3.219,0-1.071,1.277-1.872,3.314-2.429a46.584,46.584,0,0,0-13.671-1.755" transform="translate(-118.863 -342.389)" fill="#fff"/>
      <path id="Trazado_663884" data-name="Trazado 663884" d="M151.567,407.993a39.191,39.191,0,0,0-4.18-.1,19.018,19.018,0,0,0,8.439,11.561c1.251-.011,3.1-.075,6.255-.295-8.142-3.2-9.306-6.417-10.514-11.168" transform="translate(-118.863 -342.389)" fill="#f1f1f1"/>
      <path id="Trazado_663885" data-name="Trazado 663885" d="M155.842,419.917a.442.442,0,0,1-.233-.067,19.319,19.319,0,0,1-8.635-11.831.442.442,0,0,1,.416-.551,47.038,47.038,0,0,1,13.807,1.77.445.445,0,0,1,0,.857c-1.926.528-2.987,1.239-2.987,2,0,.569,3.485.669,5.358.723,4.059.117,8.253.239,8.253,2.5,0,2.973-5.373,4.522-15.973,4.6Zm-7.863-11.575a18.436,18.436,0,0,0,7.986,10.684c9.51-.083,14.961-1.435,14.961-3.711,0-1.394-4.271-1.518-7.39-1.608-3.612-.1-6.222-.178-6.222-1.611,0-.962.745-1.757,2.215-2.375a46.211,46.211,0,0,0-11.551-1.379" transform="translate(-118.88 -342.406)" fill="#1767b9"/>
      <path id="Trazado_663886" data-name="Trazado 663886" d="M150.926,388.163a1.186,1.186,0,1,1-1.185-1.187,1.185,1.185,0,0,1,1.185,1.187" transform="translate(-118.814 -343.256)" fill="#fff"/>
      <path id="Trazado_663887" data-name="Trazado 663887" d="M149.757,389.811a1.632,1.632,0,1,1,1.631-1.631,1.632,1.632,0,0,1-1.631,1.631m0-2.373a.742.742,0,1,0,.742.742.742.742,0,0,0-.742-.742" transform="translate(-118.832 -343.274)" fill="#1767b9"/>
      <path id="Trazado_663888" data-name="Trazado 663888" d="M179.968,386.454a1.186,1.186,0,1,1-1.185-1.185,1.185,1.185,0,0,1,1.185,1.185" transform="translate(-117.608 -343.327)" fill="#fff"/>
      <path id="Trazado_663889" data-name="Trazado 663889" d="M178.8,388.1a1.632,1.632,0,1,1,1.631-1.631A1.634,1.634,0,0,1,178.8,388.1m0-2.373a.741.741,0,1,0,.742.742.742.742,0,0,0-.742-.742" transform="translate(-117.626 -343.346)" fill="#1767b9"/>
      <path id="Trazado_663890" data-name="Trazado 663890" d="M183.385,390.44a1.186,1.186,0,1,1-1.185-1.185,1.185,1.185,0,0,1,1.185,1.185" transform="translate(-117.466 -343.162)" fill="#fff"/>
      <path id="Trazado_663891" data-name="Trazado 663891" d="M182.217,392.09a1.632,1.632,0,1,1,1.631-1.631,1.632,1.632,0,0,1-1.631,1.631m0-2.373a.742.742,0,1,0,.742.742.742.742,0,0,0-.742-.742" transform="translate(-117.483 -343.18)" fill="#1767b9"/>
      <path id="Trazado_663892" data-name="Trazado 663892" d="M149.217,417.2a1.186,1.186,0,1,1-1.185-1.185,1.187,1.187,0,0,1,1.185,1.185" transform="translate(-118.885 -342.051)" fill="#fff"/>
      <path id="Trazado_663893" data-name="Trazado 663893" d="M148.048,418.854a1.632,1.632,0,1,1,1.631-1.631,1.632,1.632,0,0,1-1.631,1.631m0-2.373a.742.742,0,1,0,.742.742.742.742,0,0,0-.742-.742" transform="translate(-118.903 -342.068)" fill="#1767b9"/>
      <path id="Trazado_663894" data-name="Trazado 663894" d="M153.773,420.621a1.186,1.186,0,1,1-1.185-1.185,1.187,1.187,0,0,1,1.185,1.185" transform="translate(-118.696 -341.909)" fill="#fff"/>
      <path id="Trazado_663895" data-name="Trazado 663895" d="M152.6,422.271a1.631,1.631,0,1,1,1.631-1.631,1.632,1.632,0,0,1-1.631,1.631m0-2.373a.742.742,0,1,0,.742.742.742.742,0,0,0-.742-.742" transform="translate(-118.714 -341.926)" fill="#1767b9"/>
      <path id="Trazado_663896" data-name="Trazado 663896" d="M182.816,417.774a1.186,1.186,0,1,1-1.185-1.185,1.187,1.187,0,0,1,1.185,1.185" transform="translate(-117.49 -342.027)" fill="#fff"/>
      <path id="Trazado_663897" data-name="Trazado 663897" d="M181.647,419.424a1.632,1.632,0,1,1,1.631-1.631,1.632,1.632,0,0,1-1.631,1.631m0-2.373a.741.741,0,1,0,.742.742.742.742,0,0,0-.742-.742" transform="translate(-117.507 -342.044)" fill="#1767b9"/>
      <text id="RECURSOS" transform="translate(14.465 96.729)" fill="#1767b9" font-size="9" font-family="Roboto-Bold, Roboto" font-weight="700"><tspan x="0" y="0">RECURSOS</tspan></text>
      <text id="N" transform="translate(13.164 109.73)" fill="#1767b9" font-size="9" font-family="Roboto-Bold, Roboto" font-weight="700"><tspan x="0" y="0">N</tspan></text>
      <text id="A" transform="translate(20.814 109.73)" fill="#1767b9" font-size="9" font-family="Roboto-Bold, Roboto" font-weight="700"><tspan x="0" y="0">A</tspan></text>
      <text id="TURALES" transform="translate(27.12 109.73)" fill="#1767b9" font-size="9" font-family="Roboto-Bold, Roboto" font-weight="700"><tspan x="0" y="0">TURALES</tspan></text>
      <path id="Trazado_663898" data-name="Trazado 663898" d="M211.085,411.716a4.962,4.962,0,0,0-.926,1.615l26.484,2c-13.272-14.819-22.412-7.262-25.558-3.611" transform="translate(-116.255 -342.445)" fill="#f1f1f1"/>
      <path id="Trazado_663899" data-name="Trazado 663899" d="M210.159,413.192l26.485,2c-14.529-10.263-26.282-2.582-26.485-2" transform="translate(-116.255 -342.305)" fill="#fff"/>
      <path id="Trazado_663900" data-name="Trazado 663900" d="M240.076,416.207l-3.419-1.153-26.484-1.993a5.026,5.026,0,0,0-.282,1.657v5.811a2.013,2.013,0,0,0,1.533,1.955l2.56.631h24.688l2.373-.692a1.51,1.51,0,0,0,1.089-1.45v-1.9a3.024,3.024,0,0,0-2.057-2.865" transform="translate(-116.266 -342.173)" fill="#fff"/>
      <path id="Trazado_663901" data-name="Trazado 663901" d="M240.076,416.141l-2.429-.819a3.013,3.013,0,0,1,1.961,2.766c0-.019.005-.038.005-.056v.115c0-.019-.005-.04-.005-.058a1.51,1.51,0,0,1-1.084,1.4l-1.655.48a5.188,5.188,0,0,1-1.463.209H215.68a14.019,14.019,0,0,1-3.344-.4l-.912-.226a2.015,2.015,0,0,1-1.533-1.955v2.872a2.013,2.013,0,0,0,1.533,1.955l2.56.631h24.688l2.373-.692a1.51,1.51,0,0,0,1.089-1.45v-1.9a3.024,3.024,0,0,0-2.057-2.865" transform="translate(-116.266 -342.107)" fill="#f1f1f1"/>
      <path id="Trazado_663902" data-name="Trazado 663902" d="M238.686,423.779H214a.361.361,0,0,1-.091-.011l-2.56-.629a2.388,2.388,0,0,1-1.821-2.324V415a5.382,5.382,0,0,1,1.3-3.52c1.695-1.967,5.313-5.277,10.485-5.326h.12c4.969,0,10.17,2.979,15.455,8.859l3.326,1.122a3.4,3.4,0,0,1,2.312,3.221v1.9a1.9,1.9,0,0,1-1.36,1.815l-2.373.69a.4.4,0,0,1-.105.015m-24.642-.755h24.59l2.318-.675a1.141,1.141,0,0,0,.817-1.089v-1.9a2.643,2.643,0,0,0-1.8-2.506L236.55,415.7a.374.374,0,0,1-.159-.106c-5.161-5.759-10.193-8.68-14.96-8.68h-.112c-4.873.047-8.307,3.194-9.921,5.065A4.633,4.633,0,0,0,210.283,415v5.811a1.632,1.632,0,0,0,1.246,1.589Z" transform="translate(-116.281 -342.46)" fill="#1767b9"/>
      <path id="Trazado_663903" data-name="Trazado 663903" d="M236.66,415.448a.158.158,0,0,1-.03,0l-26.488-1.993a.377.377,0,0,1-.348-.405.385.385,0,0,1,.406-.348l26.488,1.994a.378.378,0,0,1-.028.755" transform="translate(-116.27 -342.188)" fill="#1767b9"/>
      <path id="Trazado_663904" data-name="Trazado 663904" d="M225.5,414.906a.377.377,0,0,1-.37-.306l-1.472-7.6a.378.378,0,0,1,.743-.143l1.471,7.6a.378.378,0,0,1-.3.442.347.347,0,0,1-.073.007" transform="translate(-115.695 -342.443)" fill="#1767b9"/>
      <path id="Trazado_663905" data-name="Trazado 663905" d="M217.636,414.267a.377.377,0,0,1-.37-.306l-1.238-6.4a.378.378,0,0,1,.742-.145l1.238,6.4a.378.378,0,0,1-.3.442.347.347,0,0,1-.073.007" transform="translate(-116.012 -342.42)" fill="#1767b9"/>
      <path id="Trazado_663906" data-name="Trazado 663906" d="M229.317,417.313h-.03l-2.157-.164a.378.378,0,0,1,.058-.753l2.157.161a.378.378,0,0,1-.028.755" transform="translate(-115.565 -342.035)" fill="#1767b9"/>
      <path id="Trazado_663907" data-name="Trazado 663907" d="M220.8,416.671h-.03l-1.924-.145a.376.376,0,0,1-.348-.406.385.385,0,0,1,.4-.349l1.926.147a.377.377,0,0,1-.028.753" transform="translate(-115.909 -342.06)" fill="#1767b9"/>
      <path id="Trazado_663908" data-name="Trazado 663908" d="M219.865,422.835a3.023,3.023,0,1,0-3.023,3.023,3.021,3.021,0,0,0,3.023-3.023" transform="translate(-116.103 -341.893)" fill="#fff"/>
      <path id="Trazado_663909" data-name="Trazado 663909" d="M217.659,419.928a3.021,3.021,0,0,1-2.354,4.916,2.977,2.977,0,0,1-.844-.122,3.021,3.021,0,1,0,3.2-4.794" transform="translate(-116.076 -341.888)" fill="#f1f1f1"/>
      <path id="Trazado_663910" data-name="Trazado 663910" d="M216.858,426.25a3.4,3.4,0,1,1,3.4-3.4,3.4,3.4,0,0,1-3.4,3.4m0-6.045a2.644,2.644,0,1,0,2.645,2.646,2.648,2.648,0,0,0-2.645-2.646" transform="translate(-116.118 -341.907)" fill="#1767b9"/>
      <path id="Trazado_663911" data-name="Trazado 663911" d="M217.245,422.734a.5.5,0,1,0-.5.5.5.5,0,0,0,.5-.5" transform="translate(-116.003 -341.793)" fill="#1767b9"/>
      <path id="Trazado_663912" data-name="Trazado 663912" d="M237.764,422.835a3.023,3.023,0,1,0-3.023,3.023,3.022,3.022,0,0,0,3.023-3.023" transform="translate(-115.359 -341.893)" fill="#fff"/>
      <path id="Trazado_663913" data-name="Trazado 663913" d="M235.559,419.928a3.023,3.023,0,0,1-2.354,4.916,2.966,2.966,0,0,1-.844-.122,3.021,3.021,0,1,0,3.2-4.794" transform="translate(-115.333 -341.888)" fill="#f1f1f1"/>
      <path id="Trazado_663914" data-name="Trazado 663914" d="M234.757,426.25a3.4,3.4,0,1,1,3.4-3.4,3.4,3.4,0,0,1-3.4,3.4m0-6.045a2.644,2.644,0,1,0,2.645,2.646,2.648,2.648,0,0,0-2.645-2.646" transform="translate(-115.375 -341.907)" fill="#1767b9"/>
      <path id="Trazado_663915" data-name="Trazado 663915" d="M235.145,422.734a.5.5,0,1,0-.5.5.5.5,0,0,0,.5-.5" transform="translate(-115.259 -341.793)" fill="#1767b9"/>
      <path id="Trazado_663916" data-name="Trazado 663916" d="M215.914,415.583a.71.71,0,1,1-1-.113.709.709,0,0,1,1,.113" transform="translate(-116.069 -342.079)" fill="#1767b9"/>
      <path id="Trazado_663917" data-name="Trazado 663917" d="M217.918,402.91h-.7a.378.378,0,1,1,0-.755h.7a.378.378,0,1,1,0,.755" transform="translate(-115.978 -342.626)" fill="#1767b9"/>
      <path id="Trazado_663918" data-name="Trazado 663918" d="M220.151,402.91h-.7a.378.378,0,1,1,0-.755h.7a.378.378,0,1,1,0,.755" transform="translate(-115.885 -342.626)" fill="#1767b9"/>
      <path id="Trazado_663919" data-name="Trazado 663919" d="M218.671,404.39a.378.378,0,0,1-.378-.378v-.7a.378.378,0,0,1,.756,0v.7a.378.378,0,0,1-.378.378" transform="translate(-115.917 -342.594)" fill="#1767b9"/>
      <path id="Trazado_663920" data-name="Trazado 663920" d="M218.671,402.157a.378.378,0,0,1-.378-.378v-.7a.378.378,0,0,1,.756,0v.7a.378.378,0,0,1-.378.378" transform="translate(-115.917 -342.687)" fill="#1767b9"/>
      <path id="Trazado_663921" data-name="Trazado 663921" d="M230.339,405.515h-.7a.378.378,0,1,1,0-.755h.7a.378.378,0,1,1,0,.755" transform="translate(-115.462 -342.518)" fill="#1767b9"/>
      <path id="Trazado_663922" data-name="Trazado 663922" d="M232.571,405.515h-.7a.378.378,0,1,1,0-.755h.7a.378.378,0,1,1,0,.755" transform="translate(-115.369 -342.518)" fill="#1767b9"/>
      <path id="Trazado_663923" data-name="Trazado 663923" d="M231.092,406.994a.378.378,0,0,1-.378-.378v-.7a.378.378,0,0,1,.756,0v.7a.378.378,0,0,1-.378.378" transform="translate(-115.401 -342.485)" fill="#1767b9"/>
      <path id="Trazado_663924" data-name="Trazado 663924" d="M231.092,404.761a.378.378,0,0,1-.378-.378v-.7a.378.378,0,0,1,.756,0v.7a.378.378,0,0,1-.378.378" transform="translate(-115.401 -342.578)" fill="#1767b9"/>
      <text id="TOMAR" transform="translate(90.599 94.527)" fill="#1767b9" font-size="9" font-family="Roboto-Bold, Roboto" font-weight="700"><tspan x="0" y="0">TOMAR</tspan></text>
      <path id="Trazado_663925" data-name="Trazado 663925" d="M295.53,426.87c3.25-6.81,3.594-19.192,3.594-19.192h8.166s.342,12.383,3.594,19.192Z" transform="translate(-112.709 -342.396)" fill="#f1f1f1"/>
      <path id="Trazado_663926" data-name="Trazado 663926" d="M295.53,426.87c3.25-6.81,3.594-19.192,3.594-19.192h5.225a71.818,71.818,0,0,0,2.613,19.192Z" transform="translate(-112.709 -342.396)" fill="#fff"/>
      <path id="Trazado_663927" data-name="Trazado 663927" d="M310.9,427.2H295.542a.317.317,0,0,1-.287-.456c3.183-6.671,3.558-18.94,3.562-19.064a.32.32,0,0,1,.32-.311H307.3a.323.323,0,0,1,.322.311c0,.124.377,12.393,3.562,19.064a.319.319,0,0,1-.29.456m-14.854-.638H310.4c-2.773-6.254-3.324-16.629-3.4-18.553h-7.551c-.078,1.924-.629,12.3-3.4,18.553" transform="translate(-112.722 -342.409)" fill="#1767b9"/>
      <path id="Trazado_663928" data-name="Trazado 663928" d="M307.34,410.634h-8.523c-.051.652-.117,1.384-.2,2.174h8.917c-.079-.789-.145-1.522-.2-2.174" transform="translate(-112.581 -342.274)" fill="#fff"/>
      <path id="Trazado_663929" data-name="Trazado 663929" d="M307.548,413.138h-8.916a.323.323,0,0,1-.32-.351c.083-.785.147-1.516.2-2.166a.319.319,0,0,1,.319-.295h8.524a.322.322,0,0,1,.319.295c.049.65.115,1.381.2,2.166a.32.32,0,0,1-.32.351m-8.562-.638H307.2c-.054-.543-.1-1.057-.138-1.533h-7.932c-.039.476-.085.99-.139,1.533" transform="translate(-112.594 -342.286)" fill="#1767b9"/>
      <path id="Trazado_663930" data-name="Trazado 663930" d="M285.74,427.007c3.793-8.022,4.193-22.605,4.193-22.605h9.528s.4,14.584,4.193,22.605Z" transform="translate(-113.116 -342.533)" fill="#f1f1f1"/>
      <path id="Trazado_663931" data-name="Trazado 663931" d="M285.74,427.007c3.793-8.022,4.193-22.605,4.193-22.605h6.1a85.318,85.318,0,0,0,3.049,22.605Z" transform="translate(-113.116 -342.533)" fill="#fff"/>
      <path id="Trazado_663932" data-name="Trazado 663932" d="M303.666,427.339H285.752a.315.315,0,0,1-.269-.148.321.321,0,0,1-.019-.308c3.72-7.868,4.158-22.332,4.161-22.476a.322.322,0,0,1,.32-.311h9.528a.32.32,0,0,1,.32.311c0,.145.444,14.609,4.163,22.476a.319.319,0,0,1-.29.456m-17.414-.638h16.917c-3.289-7.407-3.918-19.844-4-21.965h-8.912c-.084,2.121-.715,14.558-4,21.965" transform="translate(-113.129 -342.545)" fill="#1767b9"/>
      <path id="Trazado_663933" data-name="Trazado 663933" d="M299.521,407.883h-9.947c-.06.767-.135,1.631-.229,2.559h10.4c-.1-.928-.17-1.792-.228-2.559" transform="translate(-112.966 -342.388)" fill="#fff"/>
      <path id="Trazado_663934" data-name="Trazado 663934" d="M299.763,410.774h-10.4a.315.315,0,0,1-.236-.105.312.312,0,0,1-.081-.246c.087-.868.164-1.727.227-2.551a.32.32,0,0,1,.32-.3h9.947a.318.318,0,0,1,.317.3c.066.833.143,1.693.229,2.551a.32.32,0,0,1-.317.351m-10.051-.638h9.7c-.064-.645-.121-1.288-.173-1.919h-9.354c-.049.626-.107,1.269-.17,1.919" transform="translate(-112.979 -342.401)" fill="#1767b9"/>
      <path id="Trazado_663935" data-name="Trazado 663935" d="M312.23,426.439h-27.3a.32.32,0,0,1,0-.64h27.3a.32.32,0,0,1,0,.64" transform="translate(-113.162 -341.644)" fill="#1767b9"/>
      <path id="Trazado_663936" data-name="Trazado 663936" d="M297.151,403.609a.319.319,0,0,1-.32-.32,2.242,2.242,0,0,0-2.239-2.239h-.853a.32.32,0,0,1,0-.641h.853a2.883,2.883,0,0,1,2.879,2.88.319.319,0,0,1-.32.32" transform="translate(-112.797 -342.699)" fill="#1767b9"/>
      <path id="Trazado_663937" data-name="Trazado 663937" d="M286,400.229h-1.066a.319.319,0,1,1,0-.638H286a.319.319,0,1,1,0,.638" transform="translate(-113.163 -342.732)" fill="#1767b9"/>
      <path id="Trazado_663938" data-name="Trazado 663938" d="M289.787,401.868h-3.626a.319.319,0,1,1,0-.638h3.626a.319.319,0,1,1,0,.638" transform="translate(-113.111 -342.665)" fill="#1767b9"/>
      <path id="Trazado_663939" data-name="Trazado 663939" d="M302.892,403.1h-3.626a.319.319,0,1,1,0-.638h3.626a.319.319,0,1,1,0,.638" transform="translate(-112.567 -342.613)" fill="#1767b9"/>
      <path id="Trazado_663940" data-name="Trazado 663940" d="M300.81,401.458h-2.773a.319.319,0,1,1,0-.638h2.773a.319.319,0,1,1,0,.638" transform="translate(-112.619 -342.682)" fill="#1767b9"/>
      <path id="Trazado_663941" data-name="Trazado 663941" d="M293.141,403.643a.319.319,0,0,1-.32-.32,3.1,3.1,0,0,0-3.092-3.092h-2.135a.32.32,0,0,1,0-.641h2.135a3.736,3.736,0,0,1,3.732,3.733.319.319,0,0,1-.32.32" transform="translate(-113.052 -342.732)" fill="#1767b9"/>
      <path id="Trazado_663942" data-name="Trazado 663942" d="M305.457,406.868a.319.319,0,0,1-.32-.32,1.815,1.815,0,0,0-1.812-1.812h-2.844a.32.32,0,0,1,0-.641h2.844a2.456,2.456,0,0,1,2.452,2.453.319.319,0,0,1-.32.32" transform="translate(-112.517 -342.545)" fill="#1767b9"/>
      <path id="Trazado_663943" data-name="Trazado 663943" d="M289.492,421.569a.37.37,0,0,1-.058-.005.319.319,0,0,1-.255-.374c.358-1.914.671-4.086.93-6.459a.32.32,0,1,1,.636.069c-.261,2.388-.577,4.577-.939,6.508a.318.318,0,0,1-.314.261" transform="translate(-112.973 -342.116)" fill="#1767b9"/>
      <path id="Trazado_663944" data-name="Trazado 663944" d="M288.828,424.392a.3.3,0,0,1-.08-.009.32.32,0,0,1-.23-.389c.113-.444.221-.9.324-1.362a.32.32,0,1,1,.624.141c-.1.47-.211.93-.328,1.381a.319.319,0,0,1-.309.239" transform="translate(-113.001 -341.786)" fill="#1767b9"/>
      <text id="PRODUCIR" transform="translate(157.331 95.687)" fill="#1767b9" font-size="9" font-family="Roboto-Bold, Roboto" font-weight="700"><tspan x="0" y="0">PRODUCIR</tspan></text>
      <path id="Trazado_663945" data-name="Trazado 663945" d="M365.684,415.39a.237.237,0,0,1-.236-.236V410.5a.236.236,0,1,1,.473,0v4.649a.238.238,0,0,1-.236.236" transform="translate(-109.805 -342.289)" fill="#1767b9"/>
      <path id="Trazado_663946" data-name="Trazado 663946" d="M365.686,415.439a.284.284,0,0,1-.283-.284v-4.647a.283.283,0,1,1,.567,0v4.647a.284.284,0,0,1-.283.284m0-5.123a.191.191,0,0,0-.192.192v4.647a.191.191,0,0,0,.381,0v-4.647a.189.189,0,0,0-.19-.192" transform="translate(-109.807 -342.291)" fill="#1767b9"/>
      <path id="Trazado_663947" data-name="Trazado 663947" d="M365.684,409.556a.237.237,0,0,1-.236-.236v-.727a.236.236,0,1,1,.473,0v.727a.238.238,0,0,1-.236.236" transform="translate(-109.805 -342.368)" fill="#1767b9"/>
      <path id="Trazado_663948" data-name="Trazado 663948" d="M365.686,409.6a.284.284,0,0,1-.283-.283v-.727a.283.283,0,1,1,.567,0v.727a.284.284,0,0,1-.283.283m0-1.2a.191.191,0,0,0-.192.192v.727a.191.191,0,0,0,.381,0v-.727a.189.189,0,0,0-.19-.192" transform="translate(-109.807 -342.371)" fill="#1767b9"/>
      <path id="Trazado_663949" data-name="Trazado 663949" d="M382.991,419.6a.237.237,0,0,1-.236-.236v-3.7a.236.236,0,1,1,.473,0v3.7a.238.238,0,0,1-.236.236" transform="translate(-109.086 -342.074)" fill="#1767b9"/>
      <path id="Trazado_663950" data-name="Trazado 663950" d="M382.993,419.652a.284.284,0,0,1-.283-.284v-3.7a.283.283,0,1,1,.567,0v3.7a.284.284,0,0,1-.283.284m0-4.174a.191.191,0,0,0-.192.192v3.7a.191.191,0,1,0,.381,0v-3.7a.189.189,0,0,0-.19-.192" transform="translate(-109.088 -342.077)" fill="#1767b9"/>
      <path id="Trazado_663951" data-name="Trazado 663951" d="M382.991,414.718a.237.237,0,0,1-.236-.236v-.727a.236.236,0,1,1,.473,0v.727a.238.238,0,0,1-.236.236" transform="translate(-109.086 -342.154)" fill="#1767b9"/>
      <path id="Trazado_663952" data-name="Trazado 663952" d="M382.993,414.767a.284.284,0,0,1-.283-.283v-.727a.283.283,0,1,1,.567,0v.727a.284.284,0,0,1-.283.283m0-1.2a.191.191,0,0,0-.192.192v.727a.191.191,0,0,0,.381,0v-.727a.189.189,0,0,0-.19-.192" transform="translate(-109.088 -342.156)" fill="#1767b9"/>
      <path id="Trazado_663953" data-name="Trazado 663953" d="M380.594,421.992H369.021a1.266,1.266,0,0,1-1.262-1.169l-1.174-15.277H383.03l-1.176,15.277a1.263,1.263,0,0,1-1.26,1.169" transform="translate(-109.758 -342.486)" fill="#fff"/>
      <path id="Trazado_663954" data-name="Trazado 663954" d="M380.6,422.041H369.024a1.318,1.318,0,0,1-1.308-1.212L366.537,405.5h16.547l0,.051L381.9,420.828a1.316,1.316,0,0,1-1.307,1.212m-13.959-16.446,1.173,15.226a1.221,1.221,0,0,0,1.213,1.125H380.6a1.225,1.225,0,0,0,1.215-1.125l1.17-15.226Z" transform="translate(-109.76 -342.487)" fill="#1767b9"/>
      <path id="Trazado_663955" data-name="Trazado 663955" d="M381.552,405.546,380.524,418.9a.948.948,0,0,1-.945.875H367.714c-.026,0-.053-.005-.077-.007l.08,1.054a1.267,1.267,0,0,0,1.261,1.169h11.573a1.266,1.266,0,0,0,1.262-1.169l1.174-15.277Z" transform="translate(-109.714 -342.486)" fill="#f1f1f1"/>
      <path id="Trazado_663956" data-name="Trazado 663956" d="M380.6,422.239H369.032a1.514,1.514,0,0,1-1.5-1.388l-1.175-15.277a.233.233,0,0,1,.063-.178.239.239,0,0,1,.175-.077H383.04a.231.231,0,0,1,.173.077.238.238,0,0,1,.065.178L382.1,420.85a1.51,1.51,0,0,1-1.5,1.388m-13.754-16.446,1.155,15.021a1.033,1.033,0,0,0,1.026.949H380.6a1.034,1.034,0,0,0,1.024-.949l1.155-15.021Z" transform="translate(-109.767 -342.495)" fill="#1767b9"/>
      <path id="Trazado_663957" data-name="Trazado 663957" d="M380.605,422.288H369.033a1.557,1.557,0,0,1-1.544-1.432l-1.176-15.277a.287.287,0,0,1,.283-.306h16.446a.287.287,0,0,1,.208.093.29.29,0,0,1,.075.214l-1.176,15.277a1.559,1.559,0,0,1-1.545,1.432M366.6,405.367a.192.192,0,0,0-.19.2l1.174,15.277a1.465,1.465,0,0,0,1.452,1.345h11.573a1.462,1.462,0,0,0,1.451-1.345l1.176-15.277a.194.194,0,0,0-.051-.143.186.186,0,0,0-.139-.061Zm14.009,16.445H369.033a1.078,1.078,0,0,1-1.072-.992L366.8,405.748h16.033l0,.051-1.156,15.021a1.078,1.078,0,0,1-1.071.992m-13.7-15.97,1.152,14.971a.985.985,0,0,0,.978.905h11.573a.985.985,0,0,0,.977-.905l1.154-14.971Z" transform="translate(-109.769 -342.497)" fill="#1767b9"/>
      <path id="Trazado_663958" data-name="Trazado 663958" d="M384.662,403.8H365.371v-1.264A.633.633,0,0,1,366,401.9h17.4a1.266,1.266,0,0,1,1.264,1.264Z" transform="translate(-109.808 -342.637)" fill="#f1f1f1"/>
      <path id="Trazado_663959" data-name="Trazado 663959" d="M384.711,403.848H365.326v-1.311a.68.68,0,0,1,.68-.68H383.4a1.312,1.312,0,0,1,1.311,1.311Zm-19.291-.094h19.2v-.586a1.22,1.22,0,0,0-1.218-1.218H366.006a.588.588,0,0,0-.586.586Z" transform="translate(-109.81 -342.638)" fill="#1767b9"/>
      <path id="Trazado_663960" data-name="Trazado 663960" d="M382.448,403.8H365.371v-1.264A.634.634,0,0,1,366,401.9h15.181a1.265,1.265,0,0,1,1.264,1.264Z" transform="translate(-109.808 -342.637)" fill="#fff"/>
      <path id="Trazado_663961" data-name="Trazado 663961" d="M382.5,403.848H365.326v-1.311a.68.68,0,0,1,.68-.68h15.179a1.313,1.313,0,0,1,1.311,1.311Zm-17.077-.094H382.4v-.586a1.22,1.22,0,0,0-1.219-1.218H366.006a.588.588,0,0,0-.586.586Z" transform="translate(-109.81 -342.638)" fill="#1767b9"/>
      <path id="Trazado_663962" data-name="Trazado 663962" d="M384.673,404.047H365.382a.237.237,0,0,1-.239-.237v-1.264a.871.871,0,0,1,.87-.87h17.394a1.5,1.5,0,0,1,1.5,1.5v.631a.237.237,0,0,1-.236.237m-19.055-.474h18.816v-.395a1.03,1.03,0,0,0-1.028-1.029H366.013a.4.4,0,0,0-.395.4Z" transform="translate(-109.818 -342.646)" fill="#1767b9"/>
      <path id="Trazado_663963" data-name="Trazado 663963" d="M384.675,404.1H365.383a.286.286,0,0,1-.286-.284v-1.264a.917.917,0,0,1,.918-.917h17.394a1.551,1.551,0,0,1,1.55,1.549v.632a.284.284,0,0,1-.283.284m-18.66-2.372a.823.823,0,0,0-.823.823v1.264a.19.19,0,0,0,.192.191h19.291a.191.191,0,0,0,.19-.191v-.632a1.457,1.457,0,0,0-1.456-1.455Zm18.469,1.9h-18.91v-1.075a.443.443,0,0,1,.442-.443h17.394a1.076,1.076,0,0,1,1.075,1.075Zm-18.816-.094h18.723v-.349a.981.981,0,0,0-.981-.981H366.015a.349.349,0,0,0-.348.349Z" transform="translate(-109.82 -342.648)" fill="#1767b9"/>
      <path id="Trazado_663964" data-name="Trazado 663964" d="M383.4,405.622H366a.633.633,0,0,1-.632-.633v-1.264h19.291v.633a1.265,1.265,0,0,1-1.264,1.264" transform="translate(-109.808 -342.561)" fill="#f1f1f1"/>
      <path id="Trazado_663965" data-name="Trazado 663965" d="M383.4,405.67H366.006a.68.68,0,0,1-.68-.68v-1.311h19.385v.68a1.312,1.312,0,0,1-1.311,1.311m-17.98-1.9v1.218a.588.588,0,0,0,.586.586H383.4a1.22,1.22,0,0,0,1.218-1.218v-.586Z" transform="translate(-109.81 -342.563)" fill="#1767b9"/>
      <path id="Trazado_663966" data-name="Trazado 663966" d="M381.5,405.622H366a.632.632,0,0,1-.631-.633v-1.264h17.393v.633a1.265,1.265,0,0,1-1.264,1.264" transform="translate(-109.808 -342.561)" fill="#fff"/>
      <path id="Trazado_663967" data-name="Trazado 663967" d="M381.5,405.67h-15.5a.68.68,0,0,1-.68-.68v-1.311h17.488v.68a1.313,1.313,0,0,1-1.311,1.311m-16.083-1.9v1.218a.588.588,0,0,0,.586.586h15.5a1.219,1.219,0,0,0,1.216-1.218v-.586Z" transform="translate(-109.81 -342.563)" fill="#1767b9"/>
      <path id="Trazado_663968" data-name="Trazado 663968" d="M383.406,405.869H366.013a.871.871,0,0,1-.87-.87v-1.264a.237.237,0,0,1,.239-.237h19.291a.237.237,0,0,1,.236.237v.631a1.5,1.5,0,0,1-1.5,1.5m-17.788-1.9V405a.394.394,0,0,0,.395.394h17.394a1.028,1.028,0,0,0,1.028-1.027v-.395Z" transform="translate(-109.818 -342.57)" fill="#1767b9"/>
      <path id="Trazado_663969" data-name="Trazado 663969" d="M383.408,405.917H366.015A.917.917,0,0,1,365.1,405v-1.264a.286.286,0,0,1,.286-.284h19.291a.284.284,0,0,1,.283.284v.633a1.551,1.551,0,0,1-1.55,1.548m-18.025-2.372a.19.19,0,0,0-.192.191V405a.823.823,0,0,0,.823.823h17.394a1.457,1.457,0,0,0,1.456-1.454v-.633a.191.191,0,0,0-.19-.191Zm18.025,1.9H366.015a.442.442,0,0,1-.442-.441v-1.075h18.91v.444a1.073,1.073,0,0,1-1.075,1.072m-17.742-1.422V405a.349.349,0,0,0,.348.349h17.394a.983.983,0,0,0,.981-.98v-.35Z" transform="translate(-109.82 -342.572)" fill="#1767b9"/>
      <path id="Trazado_663970" data-name="Trazado 663970" d="M366.357,403.762a.949.949,0,1,1-.949-.949.949.949,0,0,1,.949.949" transform="translate(-109.846 -342.599)" fill="#f1f1f1"/>
      <path id="Trazado_663971" data-name="Trazado 663971" d="M365.411,404.759a1,1,0,1,1,1-1,1,1,0,0,1-1,1m0-1.9a.9.9,0,1,0,.9.9.9.9,0,0,0-.9-.9" transform="translate(-109.848 -342.601)" fill="#1767b9"/>
      <path id="Trazado_663972" data-name="Trazado 663972" d="M365.418,404.958a1.186,1.186,0,1,1,1.185-1.187,1.187,1.187,0,0,1-1.185,1.187m0-1.9a.711.711,0,1,0,.712.71.713.713,0,0,0-.712-.71" transform="translate(-109.856 -342.608)" fill="#1767b9"/>
      <path id="Trazado_663973" data-name="Trazado 663973" d="M365.42,405.006a1.234,1.234,0,1,1,1.232-1.232,1.234,1.234,0,0,1-1.232,1.232m0-2.373a1.139,1.139,0,1,0,1.138,1.141,1.14,1.14,0,0,0-1.138-1.141m0,1.9a.758.758,0,1,1,.759-.756.759.759,0,0,1-.759.756m0-1.422a.665.665,0,1,0,.666.666.667.667,0,0,0-.666-.666" transform="translate(-109.857 -342.61)" fill="#1767b9"/>
      <path id="Trazado_663974" data-name="Trazado 663974" d="M379.742,413.643a5.06,5.06,0,1,0-5.059,5.059,5.06,5.06,0,0,0,5.059-5.059" transform="translate(-109.632 -342.359)" fill="#fff"/>
      <path id="Trazado_663975" data-name="Trazado 663975" d="M374.684,418.751a5.107,5.107,0,1,1,5.106-5.107,5.111,5.111,0,0,1-5.106,5.107m0-10.121a5.013,5.013,0,1,0,5.012,5.014,5.018,5.018,0,0,0-5.012-5.014" transform="translate(-109.633 -342.361)" fill="#1767b9"/>
      <path id="Trazado_663976" data-name="Trazado 663976" d="M377.879,409.7a5.056,5.056,0,0,1-7.557,6.5,5.057,5.057,0,1,0,7.557-6.5" transform="translate(-109.603 -342.313)" fill="#f1f1f1"/>
      <path id="Trazado_663977" data-name="Trazado 663977" d="M374.691,418.95a5.3,5.3,0,1,1,5.3-5.3,5.3,5.3,0,0,1-5.3,5.3m0-10.121a4.823,4.823,0,1,0,4.822,4.822,4.828,4.828,0,0,0-4.822-4.822" transform="translate(-109.641 -342.368)" fill="#1767b9"/>
      <path id="Trazado_663978" data-name="Trazado 663978" d="M374.693,419a5.344,5.344,0,1,1,5.345-5.345A5.351,5.351,0,0,1,374.693,419m0-10.595a5.25,5.25,0,1,0,5.25,5.249,5.256,5.256,0,0,0-5.25-5.249m0,10.121a4.87,4.87,0,1,1,4.869-4.871,4.876,4.876,0,0,1-4.869,4.871m0-9.647a4.776,4.776,0,1,0,4.775,4.775,4.781,4.781,0,0,0-4.775-4.775" transform="translate(-109.643 -342.37)" fill="#1767b9"/>
      <path id="Trazado_663979" data-name="Trazado 663979" d="M394.989,420.718a3.014,3.014,0,0,1-.68-1.879,10.627,10.627,0,0,0-4.642-8.583,3.869,3.869,0,0,1-4.4,0,10.627,10.627,0,0,0-4.643,8.583,3.02,3.02,0,0,1-.68,1.879,2.027,2.027,0,0,0-.418,1.281c0,.472.848.423,1.608.285a4.88,4.88,0,0,1,2.373.18,13.607,13.607,0,0,0,7.917,0,4.87,4.87,0,0,1,2.371-.18c.761.137,1.61.186,1.61-.285a2.021,2.021,0,0,0-.419-1.281" transform="translate(-109.22 -342.29)" fill="#fff"/>
      <path id="Trazado_663980" data-name="Trazado 663980" d="M387.176,423.107a12.064,12.064,0,0,1-3.679-.6,4.863,4.863,0,0,0-2.349-.178q-1.2.219-1.54-.06a.342.342,0,0,1-.124-.273,2.081,2.081,0,0,1,.428-1.307,2.976,2.976,0,0,0,.67-1.851c-.072-5.577,4.617-8.593,4.664-8.623l.032-.02.026.026a3.826,3.826,0,0,0,4.331,0l.026-.026.032.02c.047.03,4.736,3.046,4.664,8.623a2.981,2.981,0,0,0,.669,1.851,2.065,2.065,0,0,1,.429,1.307.342.342,0,0,1-.124.273c-.222.186-.738.206-1.541.06a4.863,4.863,0,0,0-2.348.178,12.062,12.062,0,0,1-3.681.6c-.1,0-.195,0-.293,0s-.2,0-.293,0m.293-.1c.1,0,.2,0,.292,0a11.954,11.954,0,0,0,3.654-.591,4.907,4.907,0,0,1,2.393-.182c.76.138,1.268.124,1.463-.04a.246.246,0,0,0,.092-.2,1.989,1.989,0,0,0-.409-1.251,3.044,3.044,0,0,1-.689-1.908c.066-5.289-4.187-8.253-4.591-8.522a3.975,3.975,0,0,1-4.406,0c-.4.269-4.657,3.233-4.591,8.522a3.04,3.04,0,0,1-.69,1.908,1.993,1.993,0,0,0-.408,1.251.244.244,0,0,0,.093.2c.195.164.7.177,1.461.04a4.918,4.918,0,0,1,2.4.182,11.93,11.93,0,0,0,3.65.591c.1,0,.194,0,.292,0" transform="translate(-109.222 -342.292)" fill="#1767b9"/>
      <path id="Trazado_663981" data-name="Trazado 663981" d="M384.067,419.9c-.04-3.182,1.456-6.618,2.761-9a2.812,2.812,0,0,1-1.559-.641,10.631,10.631,0,0,0-4.642,8.584,3.019,3.019,0,0,1-.68,1.878,2.036,2.036,0,0,0-.419,1.281c0,.472.848.423,1.61.286a4.816,4.816,0,0,1,1.945.061,1.987,1.987,0,0,1,.3-.571,3.009,3.009,0,0,0,.68-1.879" transform="translate(-109.22 -342.29)" fill="#f1f1f1"/>
      <path id="Trazado_663982" data-name="Trazado 663982" d="M387.767,423.263c-.1,0-.2,0-.3,0a12.217,12.217,0,0,1-4.013-.6,4.681,4.681,0,0,0-2.275-.175c-.858.156-1.4.126-1.664-.092a.5.5,0,0,1-.18-.388,2.238,2.238,0,0,1,.46-1.4,2.805,2.805,0,0,0,.638-1.755c-.072-5.66,4.687-8.722,4.736-8.752a.2.2,0,0,1,.245.024,3.691,3.691,0,0,0,4.119,0,.2.2,0,0,1,.243-.024c.049.03,4.807,3.092,4.736,8.752a2.805,2.805,0,0,0,.638,1.755,2.243,2.243,0,0,1,.458,1.4.493.493,0,0,1-.178.388c-.261.218-.806.248-1.662.092a4.707,4.707,0,0,0-2.276.175,12.228,12.228,0,0,1-3.729.6m-.3-.4a11.76,11.76,0,0,0,3.9-.579,5.1,5.1,0,0,1,2.468-.187c1.014.184,1.282.042,1.339-.007a.09.09,0,0,0,.036-.082,1.838,1.838,0,0,0-.376-1.159,3.2,3.2,0,0,1-.722-2,10.441,10.441,0,0,0-4.43-8.33,4.168,4.168,0,0,1-4.425,0,10.461,10.461,0,0,0-4.43,8.33,3.2,3.2,0,0,1-.722,2,1.838,1.838,0,0,0-.376,1.159.1.1,0,0,0,.035.082c.058.049.325.192,1.339.007a5.1,5.1,0,0,1,2.469.188,11.759,11.759,0,0,0,3.89.579" transform="translate(-109.228 -342.297)" fill="#1767b9"/>
      <path id="Trazado_663983" data-name="Trazado 663983" d="M387.178,423.311a12.23,12.23,0,0,1-3.735-.6,4.617,4.617,0,0,0-2.253-.173c-.875.157-1.429.126-1.7-.1a.536.536,0,0,1-.195-.424,2.284,2.284,0,0,1,.468-1.432,2.759,2.759,0,0,0,.629-1.726c-.072-5.663,4.71-8.765,4.759-8.795a.246.246,0,0,1,.3.032,3.635,3.635,0,0,0,4.055,0,.237.237,0,0,1,.3-.032c.049.03,4.832,3.076,4.759,8.795a2.765,2.765,0,0,0,.628,1.726,2.275,2.275,0,0,1,.469,1.432.536.536,0,0,1-.195.424c-.274.228-.83.261-1.7.1a4.665,4.665,0,0,0-2.253.173,12.263,12.263,0,0,1-4.039.6c-.1,0-.2,0-.293,0m-5.219-.937a4.935,4.935,0,0,1,1.514.244,11.945,11.945,0,0,0,4,.6c.1,0,.2,0,.3,0a12.185,12.185,0,0,0,3.714-.6,4.717,4.717,0,0,1,2.3-.173c.846.152,1.375.126,1.625-.082a.455.455,0,0,0,.164-.353,2.188,2.188,0,0,0-.451-1.376,2.847,2.847,0,0,1-.648-1.784c.071-5.666-4.667-8.683-4.714-8.713a.147.147,0,0,0-.185.021,3.759,3.759,0,0,1-4.186,0,.149.149,0,0,0-.185-.019c-.047.028-4.785,3.1-4.714,8.711a2.855,2.855,0,0,1-.648,1.784,2.2,2.2,0,0,0-.451,1.376.455.455,0,0,0,.164.353c.252.206.783.232,1.627.082a4.346,4.346,0,0,1,.783-.071m5.219.543a11.839,11.839,0,0,1-3.613-.586,5.034,5.034,0,0,0-2.443-.185c-1.009.183-1.3.048-1.379-.018a.139.139,0,0,1-.053-.118,1.873,1.873,0,0,1,.387-1.187,3.162,3.162,0,0,0,.71-1.977,10.5,10.5,0,0,1,4.449-8.369l.029-.019.028.021a4.114,4.114,0,0,0,4.367,0l.026-.021.029.019a10.483,10.483,0,0,1,4.451,8.369,3.167,3.167,0,0,0,.709,1.977,1.873,1.873,0,0,1,.387,1.187.144.144,0,0,1-.054.12c-.076.064-.371.2-1.376.016a5.042,5.042,0,0,0-2.446.185,11.863,11.863,0,0,1-3.628.586c-.1,0-.192,0-.29,0s-.2,0-.293,0m-5.219-.94a5.276,5.276,0,0,1,1.636.265,11.734,11.734,0,0,0,3.583.581c.1,0,.193,0,.293,0h0c.1,0,.194,0,.287,0a11.758,11.758,0,0,0,3.6-.581,5.119,5.119,0,0,1,2.492-.187c1.026.184,1.261.033,1.3,0a.048.048,0,0,0,.021-.047,1.8,1.8,0,0,0-.367-1.131,3.252,3.252,0,0,1-.731-2.033,10.371,10.371,0,0,0-4.381-8.271,4.251,4.251,0,0,1-4.43,0,10.388,10.388,0,0,0-4.381,8.271,3.252,3.252,0,0,1-.731,2.033,1.8,1.8,0,0,0-.367,1.131.051.051,0,0,0,.021.047c.038.031.28.184,1.3,0a4.583,4.583,0,0,1,.855-.077" transform="translate(-109.23 -342.3)" fill="#1767b9"/>
      <path id="Trazado_663984" data-name="Trazado 663984" d="M387.07,411.083a3.348,3.348,0,0,0,2.283-.684l1.835-3.6a5.37,5.37,0,0,1-4.118,1.065Z" transform="translate(-108.907 -342.433)" fill="#fff"/>
      <path id="Trazado_663985" data-name="Trazado 663985" d="M387.158,411.131h-.086l-.047,0V407.8l.056.011a4.6,4.6,0,0,0,.846.078,5.553,5.553,0,0,0,3.233-1.134l.071.056-1.842,3.618a3.331,3.331,0,0,1-2.23.7m-.04-.094h.04a3.25,3.25,0,0,0,2.157-.666l1.741-3.416a5.414,5.414,0,0,1-3.938.961Z" transform="translate(-108.909 -342.434)" fill="#1767b9"/>
      <path id="Trazado_663986" data-name="Trazado 663986" d="M387.165,411.29h-.091a.2.2,0,0,1-.2-.2v-3.224a.2.2,0,0,1,.072-.153.2.2,0,0,1,.164-.041,5.224,5.224,0,0,0,3.955-1.022.193.193,0,0,1,.25,0,.2.2,0,0,1,.052.244l-1.833,3.606a.228.228,0,0,1-.04.052,3.431,3.431,0,0,1-2.333.741m.11-3.188v2.789a3.051,3.051,0,0,0,1.922-.6l1.475-2.893a5.414,5.414,0,0,1-3.4.708" transform="translate(-108.915 -342.441)" fill="#1767b9"/>
      <path id="Trazado_663987" data-name="Trazado 663987" d="M387.168,411.339h-.094a.245.245,0,0,1-.241-.245v-3.224a.235.235,0,0,1,.091-.187.254.254,0,0,1,.2-.053,5.216,5.216,0,0,0,3.913-1.012.245.245,0,0,1,.376.3l-1.834,3.6a.185.185,0,0,1-.05.066,3.482,3.482,0,0,1-2.362.753m-.09-3.619a.153.153,0,0,0-.151.15v3.224a.152.152,0,0,0,.149.152h.092a3.389,3.389,0,0,0,2.3-.727.14.14,0,0,0,.032-.041l1.833-3.606a.151.151,0,0,0-.231-.183,5.368,5.368,0,0,1-3.156,1.111,4.5,4.5,0,0,1-.835-.078.15.15,0,0,0-.03,0m.152,3.221v-2.891l.054.007a5.308,5.308,0,0,0,3.366-.7l.135-.079-.071.14-1.482,2.908a3.1,3.1,0,0,1-1.954.618Zm.094-2.784v2.688a2.986,2.986,0,0,0,1.839-.586l1.4-2.749a5.4,5.4,0,0,1-3.237.647" transform="translate(-108.917 -342.444)" fill="#1767b9"/>
      <path id="Trazado_663988" data-name="Trazado 663988" d="M387.04,407.265a5.014,5.014,0,0,1-3.8-.47l1.879,3.6a3.231,3.231,0,0,0,2.113.684v0c.084-2.057,3.588-5.074-.19-3.817" transform="translate(-109.066 -342.433)" fill="#fff"/>
      <path id="Trazado_663989" data-name="Trazado 663989" d="M387.233,411.136a3.261,3.261,0,0,1-2.146-.7l-.007-.011-1.957-3.756.143.086a4.965,4.965,0,0,0,3.764.466c1.011-.335,1.552-.386,1.738-.159.225.273-.109.872-.533,1.629a6.128,6.128,0,0,0-.955,2.4v.047Zm-2.074-.759a3.158,3.158,0,0,0,2.031.666,6.354,6.354,0,0,1,.961-2.4c.391-.7.727-1.3.544-1.522-.154-.189-.689-.126-1.636.19l-.016-.045.016.045a5.044,5.044,0,0,1-3.7-.4Z" transform="translate(-109.071 -342.439)" fill="#1767b9"/>
      <path id="Trazado_663990" data-name="Trazado 663990" d="M383.236,406.794l1.879,3.6a2.751,2.751,0,0,0,1.471.628,5.879,5.879,0,0,1-.511-3.574,5.326,5.326,0,0,1-2.838-.659" transform="translate(-109.066 -342.433)" fill="#f1f1f1"/>
      <path id="Trazado_663991" data-name="Trazado 663991" d="M386.679,411.094l-.1-.015a2.8,2.8,0,0,1-1.5-.641l-.007-.011-1.957-3.756.143.086a5.394,5.394,0,0,0,2.5.663c.1,0,.206,0,.309-.011l.065,0-.014.063a5.816,5.816,0,0,0,.505,3.541Zm-1.52-.718a2.633,2.633,0,0,0,1.345.594,6.02,6.02,0,0,1-.482-3.46c-.086,0-.171.007-.255.007a5.53,5.53,0,0,1-2.412-.6Z" transform="translate(-109.071 -342.439)" fill="#1767b9"/>
      <path id="Trazado_663992" data-name="Trazado 663992" d="M387.238,411.289h0a3.421,3.421,0,0,1-2.249-.738.2.2,0,0,1-.037-.05l-1.879-3.608a.2.2,0,0,1,.278-.26,4.842,4.842,0,0,0,3.637.452c1.114-.37,1.664-.4,1.9-.112.291.352-.048.958-.519,1.8a6.06,6.06,0,0,0-.934,2.33.2.2,0,0,1-.2.19m-1.954-1a2.921,2.921,0,0,0,1.772.6,7.068,7.068,0,0,1,.968-2.31c.271-.481.676-1.208.557-1.351-.026-.032-.225-.177-1.471.238a4.955,4.955,0,0,1-3.411-.216Z" transform="translate(-109.074 -342.441)" fill="#1767b9"/>
      <path id="Trazado_663993" data-name="Trazado 663993" d="M387.24,411.339h0a3.461,3.461,0,0,1-2.281-.753.214.214,0,0,1-.047-.062l-1.878-3.6a.245.245,0,0,1,.342-.325,4.823,4.823,0,0,0,3.6.449c1.131-.378,1.7-.407,1.954-.1.311.38-.034,1-.513,1.853a5.983,5.983,0,0,0-.928,2.307.244.244,0,0,1-.244.236m-3.992-4.685a.145.145,0,0,0-.105.041.149.149,0,0,0-.03.179l1.879,3.607a.328.328,0,0,0,.028.037,3.365,3.365,0,0,0,2.216.727l0,.047v-.047a.151.151,0,0,0,.15-.147,6.06,6.06,0,0,1,.939-2.35c.462-.823.795-1.417.524-1.744-.223-.273-.76-.236-1.852.126a4.9,4.9,0,0,1-3.677-.456.141.141,0,0,0-.077-.021m3.852,4.283-.044,0a2.971,2.971,0,0,1-1.8-.612l-.009-.013-1.646-3.155.121.051a4.945,4.945,0,0,0,3.378.212c1.207-.4,1.469-.29,1.524-.222.127.156-.175.727-.555,1.4a7.059,7.059,0,0,0-.961,2.295Zm-1.776-.678a2.866,2.866,0,0,0,1.695.58,7.243,7.243,0,0,1,.965-2.284c.2-.353.663-1.18.563-1.3,0,0-.161-.168-1.422.251a4.992,4.992,0,0,1-3.324-.169Z" transform="translate(-109.076 -342.444)" fill="#1767b9"/>
      <path id="Trazado_663994" data-name="Trazado 663994" d="M387.247,411.149a3.469,3.469,0,0,1-2.335-.744.2.2,0,1,1,.276-.284,3.7,3.7,0,0,0,4.12,0,.2.2,0,1,1,.274.284,3.469,3.469,0,0,1-2.335.744" transform="translate(-108.999 -342.297)" fill="#1767b9"/>
      <path id="Trazado_663995" data-name="Trazado 663995" d="M387.248,411.2a3.5,3.5,0,0,1-2.368-.755.246.246,0,0,1-.006-.348.255.255,0,0,1,.173-.075h0a.242.242,0,0,1,.171.07,3.637,3.637,0,0,0,4.055,0,.244.244,0,0,1,.347.005.248.248,0,0,1-.005.348,3.5,3.5,0,0,1-2.37.755m-2.2-1.084h0a.148.148,0,0,0-.107.047.152.152,0,0,0-.043.107.161.161,0,0,0,.047.107,4,4,0,0,0,4.607,0,.15.15,0,0,0,.045-.107.143.143,0,0,0-.042-.107.144.144,0,0,0-.107-.047h0a.147.147,0,0,0-.105.043,3.755,3.755,0,0,1-4.186,0,.147.147,0,0,0-.105-.043" transform="translate(-109.001 -342.299)" fill="#1767b9"/>
      <path id="Trazado_663996" data-name="Trazado 663996" d="M395.83,411.1a.2.2,0,0,1-.141-.058l-.795-.795a.2.2,0,0,1,.281-.28l.795.794a.2.2,0,0,1,0,.281.2.2,0,0,1-.141.058" transform="translate(-108.584 -342.304)" fill="#1767b9"/>
      <path id="Trazado_663997" data-name="Trazado 663997" d="M395.831,411.146a.242.242,0,0,1-.175-.072l-.793-.795a.246.246,0,0,1,.173-.419.239.239,0,0,1,.173.073l.795.793a.246.246,0,0,1-.173.42m-.795-1.192a.152.152,0,0,0-.107.259l.795.795a.151.151,0,0,0,.212,0,.154.154,0,0,0,0-.217l-.795-.793a.151.151,0,0,0-.107-.045" transform="translate(-108.586 -342.306)" fill="#1767b9"/>
      <path id="Trazado_663998" data-name="Trazado 663998" d="M395.035,411.1a.2.2,0,0,1-.141-.058.2.2,0,0,1,0-.281l.795-.794a.2.2,0,0,1,.281.28l-.795.795a.2.2,0,0,1-.141.058" transform="translate(-108.584 -342.304)" fill="#1767b9"/>
      <path id="Trazado_663999" data-name="Trazado 663999" d="M395.037,411.146a.241.241,0,0,1-.173-.072.247.247,0,0,1,0-.348l.795-.793a.239.239,0,0,1,.173-.073.246.246,0,0,1,.173.419l-.795.795a.236.236,0,0,1-.173.072m.795-1.192h0a.15.15,0,0,0-.107.045l-.795.793a.152.152,0,0,0,.215.217l.795-.795a.152.152,0,0,0-.107-.259" transform="translate(-108.586 -342.306)" fill="#1767b9"/>
      <path id="Trazado_664000" data-name="Trazado 664000" d="M393.289,408.811a.2.2,0,0,1-.141-.058l-.795-.795a.2.2,0,0,1,.281-.28l.795.795a.2.2,0,0,1,0,.28.2.2,0,0,1-.141.058" transform="translate(-108.69 -342.399)" fill="#1767b9"/>
      <path id="Trazado_664001" data-name="Trazado 664001" d="M393.29,408.86a.246.246,0,0,1-.173-.072l-.795-.795a.245.245,0,1,1,.346-.348l.795.795a.246.246,0,0,1,0,.348.241.241,0,0,1-.173.072m-.795-1.191a.152.152,0,0,0-.107.043.156.156,0,0,0,0,.217l.795.795a.155.155,0,0,0,.215,0,.153.153,0,0,0,0-.215l-.795-.795a.152.152,0,0,0-.107-.043" transform="translate(-108.692 -342.401)" fill="#1767b9"/>
      <path id="Trazado_664002" data-name="Trazado 664002" d="M392.494,408.811a.2.2,0,0,1-.141-.058.2.2,0,0,1,0-.28l.795-.795a.2.2,0,1,1,.281.28l-.795.795a.2.2,0,0,1-.141.058" transform="translate(-108.69 -342.399)" fill="#1767b9"/>
      <path id="Trazado_664003" data-name="Trazado 664003" d="M392.5,408.86a.241.241,0,0,1-.173-.072.246.246,0,0,1,0-.348l.795-.795a.245.245,0,1,1,.346.348l-.795.795a.246.246,0,0,1-.173.072m.795-1.191a.152.152,0,0,0-.107.043l-.795.795a.152.152,0,0,0,.215.217l.795-.795a.151.151,0,0,0-.107-.259" transform="translate(-108.692 -342.401)" fill="#1767b9"/>
      <text id="DESECHAR" transform="translate(241.923 93.516)" fill="#1767b9" font-size="9" font-family="Roboto-Bold, Roboto" font-weight="700"><tspan x="0" y="0">DESECHAR</tspan></text>
      <text id="BASURA" transform="translate(327.376 79.865)" fill="#4d4d4d" font-size="9" font-family="Roboto-Bold, Roboto" font-weight="700"><tspan x="0" y="0">BASURA</tspan></text>
      <text id="ENERGÍA_DE_RECURSOS_FINITOS" data-name="ENERGÍA DE RECURSOS FINITOS" transform="translate(1.913 142.277)" fill="#4d4d4d" font-size="9" font-family="Roboto-Bold, Roboto" font-weight="700"><tspan x="0" y="0">ENERGÍA DE RECURSOS FINITOS</tspan></text>
      <text id="M" transform="translate(1.913 130.385)" fill="#4d4d4d" font-size="9" font-family="Roboto-Bold, Roboto" font-weight="700"><tspan x="0" y="0">M</tspan></text>
      <text id="A-2" data-name="A" transform="translate(11.787 130.385)" fill="#4d4d4d" font-size="9" font-family="Roboto-Bold, Roboto" font-weight="700"><tspan x="0" y="0">A</tspan></text>
      <text id="TERIALES_TÉCNICOS_Y_BIOLÓGICOS_MEZCLADOS" data-name="TERIALES TÉCNICOS Y BIOLÓGICOS MEZCLADOS" transform="translate(18.336 130.385)" fill="#4d4d4d" font-size="9" font-family="Roboto-Bold, Roboto" font-weight="700"><tspan x="0" y="0">TERIALES TÉCNICOS Y BIOLÓGICOS MEZCLADOS</tspan></text>
      <text id="M-2" data-name="M" transform="translate(23.296 221.607)" fill="#4d4d4d" font-size="9" font-family="Roboto-Bold, Roboto" font-weight="700"><tspan x="0" y="0">M</tspan></text>
      <text id="A-3" data-name="A" transform="translate(33.17 221.607)" fill="#4d4d4d" font-size="9" font-family="Roboto-Bold, Roboto" font-weight="700"><tspan x="0" y="0">A</tspan></text>
      <text id="TERIALES_BIOLÓGICOS_" data-name="TERIALES  BIOLÓGICOS " transform="translate(39.719 221.607)" fill="#4d4d4d" font-size="9" font-family="Roboto-Bold, Roboto" font-weight="700"><tspan x="0" y="0" xml:space="preserve">TERIALES  BIOLÓGICOS </tspan></text>
      <path id="Trazado_664004" data-name="Trazado 664004" d="M187.92,623.716a19.027,19.027,0,1,1-19.027-19.025,19.027,19.027,0,0,1,19.027,19.025" transform="translate(-118.76 -334.213)" fill="#fff"/>
      <path id="Trazado_664005" data-name="Trazado 664005" d="M171.552,604.94a19.028,19.028,0,0,1-10.418,36.344,19.028,19.028,0,1,0,10.418-36.344" transform="translate(-118.291 -334.204)" fill="#f1f1f1"/>
      <path id="Trazado_664006" data-name="Trazado 664006" d="M168.911,643.205a19.472,19.472,0,1,1,19.472-19.471,19.491,19.491,0,0,1-19.472,19.471m0-38.051a18.58,18.58,0,1,0,18.582,18.58,18.6,18.6,0,0,0-18.582-18.58" transform="translate(-118.777 -334.231)" fill="#1767b9"/>
      <path id="Trazado_664007" data-name="Trazado 664007" d="M163.07,620.7c0,3.182-3.366,4.7-4.4,4.7s-4.4-1.516-4.4-4.7,4.4-8.815,4.4-8.815,4.4,5.633,4.4,8.815" transform="translate(-118.576 -333.915)" fill="#f1f1f1"/>
      <path id="Trazado_664008" data-name="Trazado 664008" d="M160.171,619.7c.292,1.98.224,3.84-1.5,5.568-1.033,0-4.4-1.515-4.4-4.7,0-2.592,2.316-5.788,2.316-5.788a6.765,6.765,0,0,1,3.583,4.918" transform="translate(-118.576 -333.794)" fill="#fff"/>
      <path id="Trazado_664009" data-name="Trazado 664009" d="M158.688,625.857c-1.129,0-4.843-1.6-4.843-5.143,0-3.3,4.31-8.856,4.492-9.091a.462.462,0,0,1,.7,0c.184.235,4.494,5.792,4.494,9.091,0,3.541-3.716,5.143-4.845,5.143m0-13.216c-1.028,1.4-3.953,5.593-3.953,8.073,0,2.932,3.141,4.253,3.953,4.253s3.953-1.321,3.953-4.253c0-2.48-2.925-6.675-3.953-8.073" transform="translate(-118.594 -333.932)" fill="#1767b9"/>
      <path id="Trazado_664010" data-name="Trazado 664010" d="M158.513,628.78a.444.444,0,0,1-.445-.445v-9.324a.445.445,0,1,1,.889,0v9.324a.444.444,0,0,1-.445.445" transform="translate(-118.419 -333.637)" fill="#1767b9"/>
      <path id="Trazado_664011" data-name="Trazado 664011" d="M170.613,620.6c0,3.7-3.7,4.539-4.832,4.539s-4.834-.836-4.834-4.539,4.834-10.255,4.834-10.255,4.832,6.552,4.832,10.255" transform="translate(-118.299 -333.978)" fill="#f1f1f1"/>
      <path id="Trazado_664012" data-name="Trazado 664012" d="M167.252,618.565c.353,2.891.159,4.706-1.471,6.453-1.135,0-4.832-.836-4.832-4.539,0-3.144,2.88-7.3,2.88-7.3a7.621,7.621,0,0,1,3.423,5.388" transform="translate(-118.299 -333.861)" fill="#fff"/>
      <path id="Trazado_664013" data-name="Trazado 664013" d="M165.8,625.6c-1.721,0-5.279-1.22-5.279-4.986,0-3.806,4.718-10.248,4.921-10.521a.462.462,0,0,1,.717,0c.2.273,4.919,6.715,4.919,10.521,0,3.766-3.556,4.986-5.279,4.986m0-14.471c-1.106,1.589-4.387,6.549-4.387,9.485,0,3.4,3.461,4.093,4.387,4.093s4.387-.695,4.387-4.093c0-2.936-3.281-7.9-4.387-9.485" transform="translate(-118.317 -333.996)" fill="#1767b9"/>
      <path id="Trazado_664014" data-name="Trazado 664014" d="M165.607,629.556a.444.444,0,0,1-.445-.445V617.351a.445.445,0,1,1,.889,0v11.761a.444.444,0,0,1-.445.445" transform="translate(-118.124 -333.706)" fill="#1767b9"/>
      <path id="Trazado_664015" data-name="Trazado 664015" d="M181.078,621.863c0,2.94-3.006,3.81-3.927,3.81s-3.924-.87-3.924-3.81,3.924-11.328,3.924-11.328,3.927,8.388,3.927,11.328" transform="translate(-117.789 -333.971)" fill="#f1f1f1"/>
      <path id="Trazado_664016" data-name="Trazado 664016" d="M178.914,621.259c0,2.94-.839,4.315-1.76,4.315s-3.924-.87-3.924-3.81,2.838-8.889,2.838-8.889,2.847,5.2,2.847,8.384" transform="translate(-117.789 -333.873)" fill="#fff"/>
      <path id="Trazado_664017" data-name="Trazado 664017" d="M177.17,626.135c-1.12,0-4.369-1.046-4.369-4.255,0-3.006,3.8-11.172,3.965-11.518a.465.465,0,0,1,.808,0c.164.346,3.967,8.512,3.967,11.518,0,3.209-3.25,4.255-4.371,4.255m0-14.506c-.994,2.221-3.479,7.994-3.479,10.252,0,2.742,2.938,3.364,3.479,3.364s3.481-.622,3.481-3.364c0-2.258-2.487-8.031-3.481-10.252" transform="translate(-117.807 -333.988)" fill="#1767b9"/>
      <path id="Trazado_664018" data-name="Trazado 664018" d="M177.014,628.993a.445.445,0,0,1-.445-.445v-8.877a.445.445,0,1,1,.889,0v8.877a.445.445,0,0,1-.445.445" transform="translate(-117.65 -333.61)" fill="#1767b9"/>
      <path id="Trazado_664019" data-name="Trazado 664019" d="M160.455,631.536c0,2.23,13.644-.1,13.644,3.228,0,3.443-9.128,4.118-15.566,4.166a19.026,19.026,0,0,0,27.9-9.725c-9.184-1.9-25.976-1.561-25.976,2.331" transform="translate(-118.399 -333.242)" fill="#f1f1f1"/>
      <path id="Trazado_664020" data-name="Trazado 664020" d="M167.314,630.573c0,.942,10.353-.421,10.353,4.144,0,3.445-7.826,7.278-19.135,4.167a19.026,19.026,0,0,0,27.9-9.724c-.546,1.347-19.117.23-19.117,1.412" transform="translate(-118.399 -333.197)" fill="#fff"/>
      <path id="Trazado_664021" data-name="Trazado 664021" d="M168.55,642.235a19.427,19.427,0,0,1-10.235-2.907.44.44,0,0,1-.193-.5.444.444,0,0,1,.424-.326c9.611-.073,15.125-1.429,15.125-3.721,0-1.4-4.28-1.52-7.405-1.611-3.622-.1-6.24-.18-6.24-1.615a2.073,2.073,0,0,1,.872-1.617c3.6-2.936,18.04-2.724,25.644-1.153a.448.448,0,0,1,.327.59,19.525,19.525,0,0,1-18.319,12.86m-8.337-2.865a18.587,18.587,0,0,0,25.635-9.812c-8.3-1.6-21.365-1.386-24.387,1.073a1.218,1.218,0,0,0-.543.925c0,.569,3.494.67,5.371.725,4.067.117,8.274.239,8.274,2.5,0,2.823-4.826,4.363-14.351,4.588" transform="translate(-118.417 -333.26)" fill="#1767b9"/>
      <path id="Trazado_664022" data-name="Trazado 664022" d="M150.41,627.372a19.052,19.052,0,0,0,8.459,11.587c6.44-.047,15.567-.721,15.567-4.166,0-3.328-13.645-1-13.645-3.228,0-1.073,1.281-1.875,3.326-2.435a46.8,46.8,0,0,0-13.707-1.758" transform="translate(-118.737 -333.273)" fill="#fff"/>
      <path id="Trazado_664023" data-name="Trazado 664023" d="M154.6,627.47a39.407,39.407,0,0,0-4.19-.1,19.046,19.046,0,0,0,8.457,11.587c1.255-.009,3.109-.073,6.271-.293-8.16-3.212-9.328-6.432-10.538-11.2" transform="translate(-118.737 -333.273)" fill="#f1f1f1"/>
      <path id="Trazado_664024" data-name="Trazado 664024" d="M158.887,639.426a.449.449,0,0,1-.234-.068A19.371,19.371,0,0,1,150,627.5a.443.443,0,0,1,.075-.376.449.449,0,0,1,.343-.178,47.153,47.153,0,0,1,13.84,1.775.446.446,0,0,1,0,.86c-1.933.53-3,1.243-3,2.005,0,.569,3.494.671,5.371.725,4.067.117,8.273.239,8.273,2.5,0,2.981-5.386,4.533-16.009,4.614ZM151,627.821a18.48,18.48,0,0,0,8.008,10.71c9.532-.082,14.995-1.437,14.995-3.719,0-1.4-4.279-1.521-7.405-1.612-3.621-.1-6.239-.178-6.239-1.615,0-.963.746-1.762,2.221-2.382A46.478,46.478,0,0,0,151,627.821" transform="translate(-118.754 -333.29)" fill="#1767b9"/>
      <path id="Trazado_664025" data-name="Trazado 664025" d="M153.958,607.591a1.189,1.189,0,1,1-1.189-1.189,1.188,1.188,0,0,1,1.189,1.189" transform="translate(-118.688 -334.142)" fill="#fff"/>
      <path id="Trazado_664026" data-name="Trazado 664026" d="M152.786,609.245a1.636,1.636,0,1,1,1.634-1.635,1.637,1.637,0,0,1-1.634,1.635m0-2.379a.744.744,0,1,0,.744.744.744.744,0,0,0-.744-.744" transform="translate(-118.706 -334.161)" fill="#1767b9"/>
      <path id="Trazado_664027" data-name="Trazado 664027" d="M183.071,605.879a1.189,1.189,0,1,1-1.189-1.189,1.188,1.188,0,0,1,1.189,1.189" transform="translate(-117.479 -334.213)" fill="#fff"/>
      <path id="Trazado_664028" data-name="Trazado 664028" d="M181.9,607.532a1.636,1.636,0,1,1,1.636-1.635,1.638,1.638,0,0,1-1.636,1.635m0-2.379a.743.743,0,1,0,.744.744.744.744,0,0,0-.744-.744" transform="translate(-117.497 -334.231)" fill="#1767b9"/>
      <path id="Trazado_664029" data-name="Trazado 664029" d="M186.5,609.874a1.189,1.189,0,1,1-1.189-1.189,1.188,1.188,0,0,1,1.189,1.189" transform="translate(-117.337 -334.048)" fill="#fff"/>
      <path id="Trazado_664030" data-name="Trazado 664030" d="M185.325,611.528a1.636,1.636,0,1,1,1.634-1.635,1.637,1.637,0,0,1-1.634,1.635m0-2.379a.744.744,0,1,0,.744.744.745.745,0,0,0-.744-.744" transform="translate(-117.355 -334.065)" fill="#1767b9"/>
      <path id="Trazado_664031" data-name="Trazado 664031" d="M152.246,636.706a1.19,1.19,0,1,1-1.189-1.19,1.188,1.188,0,0,1,1.189,1.19" transform="translate(-118.76 -332.933)" fill="#fff"/>
      <path id="Trazado_664032" data-name="Trazado 664032" d="M151.074,638.359a1.636,1.636,0,1,1,1.634-1.635,1.639,1.639,0,0,1-1.634,1.635m0-2.379a.744.744,0,1,0,.744.744.743.743,0,0,0-.744-.744" transform="translate(-118.777 -332.951)" fill="#1767b9"/>
      <path id="Trazado_664033" data-name="Trazado 664033" d="M156.813,640.131a1.19,1.19,0,1,1-1.189-1.189,1.188,1.188,0,0,1,1.189,1.189" transform="translate(-118.57 -332.791)" fill="#fff"/>
      <path id="Trazado_664034" data-name="Trazado 664034" d="M155.642,641.784a1.636,1.636,0,1,1,1.634-1.635,1.639,1.639,0,0,1-1.634,1.635m0-2.379a.743.743,0,1,0,.744.744.743.743,0,0,0-.744-.744" transform="translate(-118.588 -332.809)" fill="#1767b9"/>
      <path id="Trazado_664035" data-name="Trazado 664035" d="M185.926,637.276a1.189,1.189,0,1,1-1.189-1.19,1.188,1.188,0,0,1,1.189,1.19" transform="translate(-117.361 -332.91)" fill="#fff"/>
      <path id="Trazado_664036" data-name="Trazado 664036" d="M184.755,638.928a1.635,1.635,0,1,1,1.634-1.634,1.636,1.636,0,0,1-1.634,1.634m0-2.378a.744.744,0,1,0,.744.744.745.745,0,0,0-.744-.744" transform="translate(-117.378 -332.927)" fill="#1767b9"/>
      <path id="Trazado_664037" data-name="Trazado 664037" d="M219.5,601.842c3.718-7.789,4.111-21.951,4.111-21.951h9.34s.393,14.163,4.11,21.951Z" transform="translate(-115.867 -335.244)" fill="#f1f1f1"/>
      <path id="Trazado_664038" data-name="Trazado 664038" d="M219.5,601.842c3.718-7.789,4.111-21.951,4.111-21.951h5.977a82.146,82.146,0,0,0,2.99,21.951Z" transform="translate(-115.867 -335.244)" fill="#fff"/>
      <path id="Trazado_664039" data-name="Trazado 664039" d="M237.078,602.223h-17.56a.366.366,0,0,1-.33-.524c3.641-7.629,4.07-21.662,4.072-21.8a.369.369,0,0,1,.37-.356h9.338a.365.365,0,0,1,.366.356c.005.142.435,14.174,4.074,21.8a.365.365,0,0,1-.33.524m-16.99-.732h16.418c-3.167-7.152-3.8-19.019-3.89-21.219h-8.635c-.093,2.2-.723,14.067-3.892,21.219" transform="translate(-115.882 -335.258)" fill="#1767b9"/>
      <path id="Trazado_664040" data-name="Trazado 664040" d="M233.011,583.271h-9.748c-.058.744-.134,1.584-.226,2.485h10.2c-.094-.9-.167-1.741-.225-2.485" transform="translate(-115.72 -335.103)" fill="#fff"/>
      <path id="Trazado_664041" data-name="Trazado 664041" d="M233.251,586.137h-10.2a.355.355,0,0,1-.27-.122.365.365,0,0,1-.095-.281c.095-.9.168-1.734.224-2.477a.367.367,0,0,1,.365-.337h9.75a.367.367,0,0,1,.365.337c.058.743.131,1.578.224,2.477a.349.349,0,0,1-.093.281.362.362,0,0,1-.27.122m-9.8-.732h9.389c-.06-.622-.115-1.21-.158-1.753h-9.073c-.044.543-.1,1.131-.158,1.753" transform="translate(-115.735 -335.117)" fill="#1767b9"/>
      <path id="Trazado_664042" data-name="Trazado 664042" d="M208.307,602c4.338-9.175,4.8-25.854,4.8-25.854H224s.456,16.679,4.792,25.854Z" transform="translate(-116.332 -335.399)" fill="#f1f1f1"/>
      <path id="Trazado_664043" data-name="Trazado 664043" d="M208.307,602c4.338-9.175,4.8-25.854,4.8-25.854h6.973A97.6,97.6,0,0,0,223.563,602Z" transform="translate(-116.332 -335.399)" fill="#fff"/>
      <path id="Trazado_664044" data-name="Trazado 664044" d="M228.81,602.378H208.322a.373.373,0,0,1-.31-.171.36.36,0,0,1-.019-.351c4.254-9,4.755-25.542,4.761-25.709a.364.364,0,0,1,.365-.355h10.9a.366.366,0,0,1,.365.355c0,.168.507,16.708,4.76,25.709a.363.363,0,0,1-.02.351.373.373,0,0,1-.31.171m-19.917-.732H228.24c-3.761-8.471-4.482-22.7-4.58-25.123H213.471c-.1,2.427-.818,16.652-4.579,25.123" transform="translate(-116.347 -335.414)" fill="#1767b9"/>
      <path id="Trazado_664045" data-name="Trazado 664045" d="M224.067,580.125H212.692c-.068.877-.154,1.865-.261,2.927h11.9c-.109-1.061-.2-2.05-.264-2.927" transform="translate(-116.161 -335.234)" fill="#fff"/>
      <path id="Trazado_664046" data-name="Trazado 664046" d="M224.344,583.433h-11.9a.362.362,0,0,1-.271-.122.371.371,0,0,1-.094-.281c.1-.992.189-1.973.261-2.918a.366.366,0,0,1,.367-.338h11.373a.366.366,0,0,1,.365.338c.075.955.161,1.935.261,2.918a.365.365,0,0,1-.362.4m-11.5-.732h11.089c-.071-.738-.136-1.473-.195-2.195h-10.7c-.057.716-.123,1.451-.2,2.195" transform="translate(-116.176 -335.249)" fill="#1767b9"/>
      <path id="Trazado_664047" data-name="Trazado 664047" d="M238.6,601.346H207.385a.366.366,0,0,1,0-.731H238.6a.366.366,0,1,1,0,.731" transform="translate(-116.386 -334.383)" fill="#1767b9"/>
      <path id="Trazado_664048" data-name="Trazado 664048" d="M221.357,575.236a.365.365,0,0,1-.365-.367,2.565,2.565,0,0,0-2.562-2.56h-.975a.367.367,0,0,1,0-.733h.975a3.3,3.3,0,0,1,3.293,3.293.367.367,0,0,1-.367.367" transform="translate(-115.967 -335.589)" fill="#1767b9"/>
      <path id="Trazado_664049" data-name="Trazado 664049" d="M208.6,571.372h-1.221a.366.366,0,0,1,0-.731H208.6a.366.366,0,0,1,0,.731" transform="translate(-116.385 -335.628)" fill="#1767b9"/>
      <path id="Trazado_664050" data-name="Trazado 664050" d="M212.935,573.246h-4.146a.366.366,0,0,1,0-.732h4.146a.366.366,0,1,1,0,.732" transform="translate(-116.327 -335.55)" fill="#1767b9"/>
      <path id="Trazado_664051" data-name="Trazado 664051" d="M227.924,574.651h-4.146a.366.366,0,0,1,0-.731h4.146a.366.366,0,0,1,0,.731" transform="translate(-115.705 -335.492)" fill="#1767b9"/>
      <path id="Trazado_664052" data-name="Trazado 664052" d="M225.543,572.777h-3.169a.366.366,0,1,1,0-.732h3.169a.366.366,0,1,1,0,.732" transform="translate(-115.763 -335.569)" fill="#1767b9"/>
      <path id="Trazado_664053" data-name="Trazado 664053" d="M216.771,575.275a.365.365,0,0,1-.365-.367,3.542,3.542,0,0,0-3.537-3.537h-2.44a.366.366,0,1,1,0-.731h2.44a4.273,4.273,0,0,1,4.268,4.268.367.367,0,0,1-.367.367" transform="translate(-116.259 -335.628)" fill="#1767b9"/>
      <path id="Trazado_664054" data-name="Trazado 664054" d="M230.857,578.963a.365.365,0,0,1-.365-.367,2.075,2.075,0,0,0-2.074-2.072h-3.252a.366.366,0,1,1,0-.731h3.252a2.807,2.807,0,0,1,2.8,2.8.367.367,0,0,1-.367.367" transform="translate(-115.647 -335.414)" fill="#1767b9"/>
      <path id="Trazado_664055" data-name="Trazado 664055" d="M212.6,595.778a.453.453,0,0,1-.066-.005.365.365,0,0,1-.294-.427c.41-2.19.771-4.675,1.065-7.389a.366.366,0,0,1,.727.079c-.3,2.732-.659,5.236-1.074,7.443a.365.365,0,0,1-.359.3" transform="translate(-116.169 -334.922)" fill="#1767b9"/>
      <path id="Trazado_664056" data-name="Trazado 664056" d="M211.838,599.007a.309.309,0,0,1-.092-.011.364.364,0,0,1-.261-.445q.194-.761.372-1.556a.364.364,0,0,1,.435-.278.368.368,0,0,1,.278.439c-.12.536-.246,1.064-.379,1.578a.363.363,0,0,1-.353.274" transform="translate(-116.201 -334.545)" fill="#1767b9"/>
      <path id="Trazado_664057" data-name="Trazado 664057" d="M225.7,653.128a2.907,2.907,0,1,0-2.906,2.908,2.908,2.908,0,0,0,2.906-2.908" transform="translate(-115.851 -332.323)" fill="#dce1e6"/>
      <path id="Trazado_664058" data-name="Trazado 664058" d="M235.086,652.8c-.329-.622-2.036-3.849-3.242-6.37a5.1,5.1,0,0,0-3.791-2.975,8.821,8.821,0,0,1-4.069-2.087.191.191,0,0,0-.105-.057,22.375,22.375,0,0,0-7.4,0,.2.2,0,0,0-.105.057,8.8,8.8,0,0,1-4.068,2.087,5.106,5.106,0,0,0-3.791,2.975c-1.2,2.521-2.912,5.748-3.242,6.37a.367.367,0,0,0,.045.409,7.548,7.548,0,0,0,5,2.4.246.246,0,0,0,.04,0,.364.364,0,0,0,.321-.192l1.106-1.984a105.716,105.716,0,0,1-.2,11.353c-.216,2.207-.443,3.427-.529,3.887a.464.464,0,0,0,.269.513c.691.31,3.378,1.325,8.861,1.325s8.17-1.014,8.863-1.325a.466.466,0,0,0,.269-.513l-.016-.077a75.911,75.911,0,0,1-.727-15.151l1.117,1.971a.366.366,0,0,0,.358.192,7.556,7.556,0,0,0,5-2.4.366.366,0,0,0,.044-.409" transform="translate(-116.46 -332.705)" fill="#fff"/>
      <path id="Trazado_664059" data-name="Trazado 664059" d="M215.765,641.8c0,.994,2.253,1.994,3.976,1.994s3.973-1,3.973-1.994c0,0-.7-.629-3.973-.629-3.4,0-3.976.629-3.976.629" transform="translate(-116.022 -332.698)" fill="#f1f1f1"/>
      <path id="Trazado_664060" data-name="Trazado 664060" d="M219.95,670.239c-5.5,0-8.2-1.019-8.9-1.332a.563.563,0,0,1-.325-.62c.086-.46.316-1.681.53-3.878a118.149,118.149,0,0,0,.1-14.037.279.279,0,0,1,.266-.3.292.292,0,0,1,.3.267,118.963,118.963,0,0,1-.1,14.123c-.218,2.218-.449,3.459-.537,3.924.671.3,3.28,1.285,8.672,1.285s8-.981,8.672-1.281l-.014-.081c-1-5.316-.888-12.707-.62-17.971a.281.281,0,1,1,.561.03c-.267,5.232-.377,12.573.612,17.835l.016.079a.567.567,0,0,1-.325.62c-.7.313-3.4,1.332-8.9,1.332" transform="translate(-116.232 -332.328)" fill="#1767b9"/>
      <path id="Trazado_664061" data-name="Trazado 664061" d="M219.754,644.116c-1.7,0-4.319-.99-4.319-2.307a.283.283,0,0,1,.566,0c0,.767,2.1,1.744,3.754,1.744s3.756-.977,3.756-1.744a.282.282,0,0,1,.564,0c0,1.317-2.622,2.307-4.32,2.307" transform="translate(-116.036 -332.684)" fill="#1767b9"/>
      <path id="Trazado_664062" data-name="Trazado 664062" d="M210.354,655.72l-.045,0a7.662,7.662,0,0,1-5.065-2.436.464.464,0,0,1-.053-.525c.465-.873,2.076-3.934,3.237-6.361a5.2,5.2,0,0,1,3.857-3.027,8.72,8.72,0,0,0,4.02-2.059.3.3,0,0,1,.159-.086,22.492,22.492,0,0,1,7.436,0,.3.3,0,0,1,.16.086,8.689,8.689,0,0,0,4.021,2.059,5.2,5.2,0,0,1,3.854,3.027c1.113,2.33,2.639,5.229,3.242,6.367a.468.468,0,0,1-.054.517,7.667,7.667,0,0,1-5.067,2.438.477.477,0,0,1-.454-.245l-1.435-2.536a.281.281,0,1,1,.49-.276l1.409,2.487a7.1,7.1,0,0,0,4.582-2.182c-.625-1.18-2.121-4.029-3.221-6.326a4.676,4.676,0,0,0-3.485-2.724,9.442,9.442,0,0,1-4.224-2.151,21.865,21.865,0,0,0-7.068,0,9.442,9.442,0,0,1-4.224,2.151,4.684,4.684,0,0,0-3.487,2.723c-1.14,2.385-2.713,5.374-3.22,6.327a7.106,7.106,0,0,0,4.581,2.182l1.412-2.532a.278.278,0,0,1,.383-.109.283.283,0,0,1,.109.383l-1.444,2.587a.459.459,0,0,1-.405.243m-.089-.515h0Zm19.829-.008,0,0,0,0m-24.405-2.174,0,0,0,0m-.017-.11v0Z" transform="translate(-116.464 -332.709)" fill="#1767b9"/>
      <path id="Trazado_664063" data-name="Trazado 664063" d="M218.388,657.369a3.348,3.348,0,0,1,2.985,2.983,3.348,3.348,0,0,1,2.983-2.983,3.348,3.348,0,0,1-2.983-2.985,3.349,3.349,0,0,1-2.985,2.985" transform="translate(-115.913 -332.15)" fill="#f1f1f1"/>
      <path id="Trazado_664064" data-name="Trazado 664064" d="M221.385,660.646a.284.284,0,0,1-.284-.282,3.058,3.058,0,0,0-2.7-2.7.282.282,0,1,1,0-.564,3.061,3.061,0,0,0,2.7-2.7.283.283,0,0,1,.566,0,3.062,3.062,0,0,0,2.7,2.7.282.282,0,1,1,0,.564,3.06,3.06,0,0,0-2.7,2.7.281.281,0,0,1-.281.282m-1.839-3.265a4.059,4.059,0,0,1,1.839,1.837,4.045,4.045,0,0,1,1.837-1.837,4.045,4.045,0,0,1-1.837-1.837,4.059,4.059,0,0,1-1.839,1.837" transform="translate(-115.925 -332.16)" fill="#1767b9"/>
      <path id="Trazado_664065" data-name="Trazado 664065" d="M214.181,652.464a2.433,2.433,0,0,1,2.17,2.172,2.171,2.171,0,1,0,0-4.341,2.432,2.432,0,0,1-2.17,2.169" transform="translate(-116.088 -332.32)" fill="#f1f1f1"/>
      <path id="Trazado_664066" data-name="Trazado 664066" d="M216.362,654.927a.282.282,0,0,1-.281-.282,2.174,2.174,0,0,0-1.888-1.887.282.282,0,1,1,0-.565,2.174,2.174,0,0,0,1.888-1.887.283.283,0,0,1,.566,0,2.174,2.174,0,0,0,1.887,1.887.282.282,0,1,1,0,.565,2.173,2.173,0,0,0-1.887,1.887.284.284,0,0,1-.284.282m-1.155-2.452a2.988,2.988,0,0,1,1.155,1.155,1.155,1.155,0,1,0,0-2.31,2.989,2.989,0,0,1-1.155,1.155" transform="translate(-116.099 -332.33)" fill="#1767b9"/>
      <path id="Trazado_664067" data-name="Trazado 664067" d="M209.6,661.774a4.52,4.52,0,0,1,4.032,4.03,4.518,4.518,0,0,1,4.028-4.03,4.518,4.518,0,0,1-4.028-4.03,4.52,4.52,0,0,1-4.032,4.03" transform="translate(-116.279 -332.01)" fill="#f1f1f1"/>
      <path id="Trazado_664068" data-name="Trazado 664068" d="M213.637,666.1a.282.282,0,0,1-.281-.282,4.246,4.246,0,0,0-3.746-3.747.282.282,0,1,1,0-.565,4.246,4.246,0,0,0,3.746-3.747.283.283,0,0,1,.566,0,4.243,4.243,0,0,0,3.747,3.747.282.282,0,0,1,0,.565,4.243,4.243,0,0,0-3.747,3.747.284.284,0,0,1-.284.282m-2.714-4.312a5.3,5.3,0,0,1,2.714,2.716,5.314,5.314,0,0,1,2.718-2.716,5.314,5.314,0,0,1-2.718-2.716,5.3,5.3,0,0,1-2.714,2.716" transform="translate(-116.29 -332.021)" fill="#1767b9"/>
      <path id="Trazado_664069" data-name="Trazado 664069" d="M250.265,651.04H236.816v15.691a.449.449,0,0,0,.449.447h12.552a.449.449,0,0,0,.449-.447Z" transform="translate(-115.148 -332.289)" fill="#fff"/>
      <path id="Trazado_664070" data-name="Trazado 664070" d="M250.158,653.622h0A10.761,10.761,0,0,0,239.4,664.381v2.69h10.312a.449.449,0,0,0,.449-.449Z" transform="translate(-115.041 -332.181)" fill="#f1f1f1"/>
      <path id="Trazado_664071" data-name="Trazado 664071" d="M250.749,648.457H236.4a.447.447,0,0,0-.447.449V650.7a.447.447,0,0,0,.447.449h14.345a.447.447,0,0,0,.447-.449v-1.792a.447.447,0,0,0-.447-.449" transform="translate(-115.184 -332.396)" fill="#fff"/>
      <path id="Trazado_664072" data-name="Trazado 664072" d="M250.749,648.457h-2.69v.9a.449.449,0,0,1-.449.449H235.957v.9a.447.447,0,0,0,.447.449h14.345a.447.447,0,0,0,.447-.449v-1.792a.447.447,0,0,0-.447-.449" transform="translate(-115.184 -332.396)" fill="#f1f1f1"/>
      <path id="Trazado_664073" data-name="Trazado 664073" d="M249.829,667.527H237.279a.785.785,0,0,1-.785-.785V651.053a.337.337,0,0,1,.334-.336h13.449a.336.336,0,0,1,.336.336v15.689a.785.785,0,0,1-.785.785M237.167,651.39v15.352a.111.111,0,0,0,.112.112h12.549a.114.114,0,0,0,.115-.112V651.39Z" transform="translate(-115.161 -332.301)" fill="#1767b9"/>
      <path id="Trazado_664074" data-name="Trazado 664074" d="M250.762,651.5H236.417a.786.786,0,0,1-.785-.785v-1.792a.787.787,0,0,1,.785-.785h14.345a.787.787,0,0,1,.785.785v1.792a.786.786,0,0,1-.785.785m-14.345-2.69a.113.113,0,0,0-.112.112v1.792a.113.113,0,0,0,.112.112h14.345a.112.112,0,0,0,.111-.112v-1.792a.112.112,0,0,0-.111-.112Z" transform="translate(-115.197 -332.409)" fill="#1767b9"/>
      <path id="Trazado_664075" data-name="Trazado 664075" d="M247.934,658.966a4.482,4.482,0,1,0-4.484,4.483,4.482,4.482,0,0,0,4.484-4.483" transform="translate(-115.059 -332.145)" fill="#fff"/>
      <path id="Trazado_664076" data-name="Trazado 664076" d="M243.465,663.8a4.819,4.819,0,1,1,4.817-4.818,4.823,4.823,0,0,1-4.817,4.818m0-8.964a4.147,4.147,0,1,0,4.146,4.146,4.152,4.152,0,0,0-4.146-4.146" transform="translate(-115.072 -332.159)" fill="#1767b9"/>
      <path id="Trazado_664077" data-name="Trazado 664077" d="M248.006,642.037a.9.9,0,1,0,.9-.9.9.9,0,0,0-.9.9" transform="translate(-114.683 -332.699)" fill="#fff"/>
      <path id="Trazado_664078" data-name="Trazado 664078" d="M245.855,645.48a.9.9,0,1,0,.9-.9.9.9,0,0,0-.9.9" transform="translate(-114.773 -332.557)" fill="#fff"/>
      <path id="Trazado_664079" data-name="Trazado 664079" d="M243.7,639.885a.9.9,0,1,0,.9-.9.9.9,0,0,0-.9.9" transform="translate(-114.862 -332.789)" fill="#fff"/>
      <path id="Trazado_664080" data-name="Trazado 664080" d="M244.612,641.132a1.234,1.234,0,1,1,1.231-1.234,1.235,1.235,0,0,1-1.231,1.234m0-1.795a.56.56,0,1,0,.56.56.562.562,0,0,0-.56-.56" transform="translate(-114.875 -332.802)" fill="#1767b9"/>
      <path id="Trazado_664081" data-name="Trazado 664081" d="M246.764,646.727A1.234,1.234,0,1,1,248,645.492a1.237,1.237,0,0,1-1.232,1.235m0-1.795a.561.561,0,1,0,.561.559.562.562,0,0,0-.561-.559" transform="translate(-114.786 -332.57)" fill="#1767b9"/>
      <path id="Trazado_664082" data-name="Trazado 664082" d="M248.917,643.284a1.234,1.234,0,1,1,1.232-1.234,1.236,1.236,0,0,1-1.232,1.234m0-1.794a.561.561,0,1,0,.561.56.562.562,0,0,0-.561-.56" transform="translate(-114.697 -332.713)" fill="#1767b9"/>
      <path id="Trazado_664083" data-name="Trazado 664083" d="M242.24,670.986H225.083a1.56,1.56,0,0,1-1.559-1.559v-1.171a.391.391,0,0,1,.391-.388h19.494a.39.39,0,0,1,.391.388v1.171a1.56,1.56,0,0,1-1.559,1.559" transform="translate(-115.7 -331.589)" fill="#fff"/>
      <path id="Trazado_664084" data-name="Trazado 664084" d="M241.233,667.945H225.248a.975.975,0,0,1,0-1.95h15.985a.975.975,0,1,1,0,1.95" transform="translate(-115.669 -331.667)" fill="#fff"/>
      <path id="Trazado_664085" data-name="Trazado 664085" d="M241.218,666.1H226.012a1.365,1.365,0,0,1,0-2.73h15.205a1.365,1.365,0,1,1,0,2.73" transform="translate(-115.653 -331.776)" fill="#fff"/>
      <path id="Trazado_664086" data-name="Trazado 664086" d="M243.409,663.646H223.915a.391.391,0,0,1-.391-.391,5.069,5.069,0,0,1,5.068-5.069h10.139a5.069,5.069,0,0,1,5.068,5.069.391.391,0,0,1-.391.391" transform="translate(-115.7 -331.991)" fill="#fff"/>
      <path id="Trazado_664087" data-name="Trazado 664087" d="M243.129,667.867h-11.7a.389.389,0,0,1,.39.391v1.169a1.558,1.558,0,0,1-1.559,1.559h11.7a1.559,1.559,0,0,0,1.559-1.559v-1.169a.391.391,0,0,0-.391-.391" transform="translate(-115.42 -331.589)" fill="#f1f1f1"/>
      <path id="Trazado_664088" data-name="Trazado 664088" d="M232.321,666a.975.975,0,1,1,0,1.95H240.9a.975.975,0,1,0,0-1.95h-8.578Z" transform="translate(-115.334 -331.667)" fill="#f1f1f1"/>
      <path id="Trazado_664089" data-name="Trazado 664089" d="M233.82,663.375a1.365,1.365,0,1,1,0,2.73h7.017a1.365,1.365,0,1,0,0-2.73H233.82Z" transform="translate(-115.272 -331.776)" fill="#f1f1f1"/>
      <path id="Trazado_664090" data-name="Trazado 664090" d="M239.075,663.256a.391.391,0,0,1-.391.391h4.289a.391.391,0,0,0,.391-.391,5.068,5.068,0,0,0-5.069-5.068h-4.288a5.068,5.068,0,0,1,5.068,5.068" transform="translate(-115.265 -331.991)" fill="#f1f1f1"/>
      <path id="Trazado_664091" data-name="Trazado 664091" d="M242.252,671.29H225.1a1.854,1.854,0,0,1-1.853-1.852v-1.169a.685.685,0,0,1,.682-.684h19.5a.683.683,0,0,1,.68.684v1.169a1.852,1.852,0,0,1-1.851,1.852m-18.326-3.118a.1.1,0,0,0-.1.1v1.169a1.27,1.27,0,0,0,1.269,1.268h17.155a1.27,1.27,0,0,0,1.269-1.268v-1.169a.1.1,0,0,0-.1-.1Z" transform="translate(-115.712 -331.601)" fill="#1767b9"/>
      <path id="Trazado_664092" data-name="Trazado 664092" d="M241.248,668.249H225.261a1.268,1.268,0,0,1,0-2.536h15.988a1.268,1.268,0,0,1,0,2.536m-15.988-1.95a.683.683,0,0,0,0,1.365h15.988a.683.683,0,0,0,0-1.365Z" transform="translate(-115.681 -331.679)" fill="#1767b9"/>
      <path id="Trazado_664093" data-name="Trazado 664093" d="M241.232,666.409H226.024a1.658,1.658,0,0,1,0-3.316h15.207a1.658,1.658,0,0,1,0,3.316m-15.207-2.73a1.072,1.072,0,0,0,0,2.143h15.207a1.072,1.072,0,0,0,0-2.143Z" transform="translate(-115.665 -331.788)" fill="#1767b9"/>
      <path id="Trazado_664094" data-name="Trazado 664094" d="M243.424,663.951h-19.5a.685.685,0,0,1-.684-.684,5.368,5.368,0,0,1,5.362-5.36h10.137a5.366,5.366,0,0,1,5.362,5.36.683.683,0,0,1-.68.684m-14.819-5.46a4.782,4.782,0,0,0-4.775,4.775.1.1,0,0,0,.1.1h19.5a.1.1,0,0,0,.1-.1,4.782,4.782,0,0,0-4.778-4.775Z" transform="translate(-115.712 -332.003)" fill="#1767b9"/>
      <path id="Trazado_664095" data-name="Trazado 664095" d="M227,663.376l2.779,3.443,6.176-3.443Z" transform="translate(-115.556 -331.776)" fill="#fff"/>
      <path id="Trazado_664096" data-name="Trazado 664096" d="M231.959,663.376l-2.292,3.443,6.177-3.443Z" transform="translate(-115.445 -331.776)" fill="#f1f1f1"/>
      <path id="Trazado_664097" data-name="Trazado 664097" d="M229.79,667.125a.29.29,0,0,1-.228-.109l-2.776-3.445a.29.29,0,0,1,.227-.475h8.953a.291.291,0,0,1,.143.547l-6.176,3.445a.28.28,0,0,1-.143.037m-2.166-3.445,2.239,2.779,4.981-2.779Z" transform="translate(-115.567 -331.788)" fill="#1767b9"/>
      <path id="Trazado_664098" data-name="Trazado 664098" d="M229.371,661.044a.39.39,0,1,1-.389-.391.39.39,0,0,1,.389.391" transform="translate(-115.489 -331.889)" fill="#1767b9"/>
      <path id="Trazado_664099" data-name="Trazado 664099" d="M226.775,660.225a.39.39,0,1,1-.391-.391.391.391,0,0,1,.391.391" transform="translate(-115.597 -331.923)" fill="#1767b9"/>
      <path id="Trazado_664100" data-name="Trazado 664100" d="M227.781,662.26a.39.39,0,1,1-.391-.391.391.391,0,0,1,.391.391" transform="translate(-115.556 -331.838)" fill="#1767b9"/>
      <path id="Trazado_664101" data-name="Trazado 664101" d="M231.548,659.85a.391.391,0,1,1-.391-.391.392.392,0,0,1,.391.391" transform="translate(-115.399 -331.939)" fill="#1767b9"/>
      <path id="Trazado_664102" data-name="Trazado 664102" d="M233.419,661.675a.39.39,0,1,1-.389-.391.39.39,0,0,1,.389.391" transform="translate(-115.321 -331.863)" fill="#1767b9"/>
      <path id="Trazado_664103" data-name="Trazado 664103" d="M235.536,660.45a.39.39,0,1,1-.391-.391.391.391,0,0,1,.391.391" transform="translate(-115.233 -331.914)" fill="#1767b9"/>
      <path id="Trazado_664104" data-name="Trazado 664104" d="M237.689,662.26a.39.39,0,1,1-.391-.391.391.391,0,0,1,.391.391" transform="translate(-115.144 -331.838)" fill="#1767b9"/>
      <path id="Trazado_664105" data-name="Trazado 664105" d="M239.234,659.7a.39.39,0,1,1-.391-.391.393.393,0,0,1,.391.391" transform="translate(-115.08 -331.945)" fill="#1767b9"/>
      <path id="Trazado_664106" data-name="Trazado 664106" d="M240.333,661.418a.39.39,0,1,1-.391-.391.391.391,0,0,1,.391.391" transform="translate(-115.034 -331.874)" fill="#1767b9"/>
      <path id="Trazado_664107" data-name="Trazado 664107" d="M225.408,669.841a.285.285,0,0,1-.206-.086.292.292,0,0,1,0-.414l1.667-1.668a.292.292,0,0,1,.414.412l-1.67,1.669a.282.282,0,0,1-.205.086" transform="translate(-115.634 -331.601)" fill="#1767b9"/>
      <path id="Trazado_664108" data-name="Trazado 664108" d="M228.028,669.841a.286.286,0,0,1-.205-.086.292.292,0,0,1,0-.414l1.666-1.668a.294.294,0,0,1,.416,0,.29.29,0,0,1,0,.412l-1.671,1.669a.285.285,0,0,1-.206.086" transform="translate(-115.525 -331.601)" fill="#1767b9"/>
      <path id="Trazado_664109" data-name="Trazado 664109" d="M230.649,669.841a.282.282,0,0,1-.205-.086.29.29,0,0,1,0-.414l1.666-1.668a.294.294,0,0,1,.416,0,.29.29,0,0,1,0,.412l-1.671,1.669a.285.285,0,0,1-.206.086" transform="translate(-115.416 -331.601)" fill="#1767b9"/>
      <path id="Trazado_664110" data-name="Trazado 664110" d="M233.27,669.841a.284.284,0,0,1-.205-.086.29.29,0,0,1,0-.414l1.666-1.668a.292.292,0,0,1,.413,0,.287.287,0,0,1,0,.412l-1.669,1.669a.284.284,0,0,1-.206.086" transform="translate(-115.307 -331.601)" fill="#1767b9"/>
      <path id="Trazado_664111" data-name="Trazado 664111" d="M177.9,643.229a38.124,38.124,0,0,0,28.86,15.327" transform="translate(-117.595 -332.612)" fill="none" stroke="#4d4d4d" stroke-miterlimit="10" stroke-width="1.19"/>
      <path id="Trazado_664112" data-name="Trazado 664112" d="M176.772,644.836l-.348-3.742,3.417,1.571Z" transform="translate(-117.657 -332.702)" fill="#4d4d4d"/>
      <path id="Trazado_664113" data-name="Trazado 664113" d="M204.128,584.927a38.17,38.17,0,0,0-27.7,17.334" transform="translate(-117.656 -335.034)" fill="none" stroke="#4d4d4d" stroke-miterlimit="10" stroke-width="1.19"/>
      <path id="Trazado_664114" data-name="Trazado 664114" d="M202.336,583.2l3.411,1.576-3.069,2.168Z" transform="translate(-116.58 -335.106)" fill="#4d4d4d"/>
      <path id="Trazado_664115" data-name="Trazado 664115" d="M240.727,637.851a38.25,38.25,0,0,0-1.208-34.007" transform="translate(-115.035 -334.249)" fill="none" stroke="#4d4d4d" stroke-miterlimit="10" stroke-width="1.19"/>
      <path id="Trazado_664116" data-name="Trazado 664116" d="M242.644,636.861l-3.113,2.108-.27-3.752Z" transform="translate(-115.046 -332.946)" fill="#4d4d4d"/>
      <rect id="Rectángulo_338809" data-name="Rectángulo 338809" width="393.711" height="358.363" transform="translate(0 1.042)" fill="none"/>
      <text id="PRODUCIR-2" data-name="PRODUCIR" transform="translate(7.331 255.37)" fill="#1767b9" font-size="9" font-family="Roboto-Bold, Roboto" font-weight="700"><tspan x="0" y="0">PRODUCIR</tspan></text>
      <text id="RECIRCULAR" transform="translate(1.318 332.763)" fill="#1767b9" font-size="9" font-family="Roboto-Bold, Roboto" font-weight="700"><tspan x="0" y="0">RECIRCULAR</tspan></text>
      <text id="CONSUMIR" transform="translate(138.161 292.935)" fill="#1767b9" font-size="9" font-family="Roboto-Bold, Roboto" font-weight="700"><tspan x="0" y="0">CONSUMIR</tspan></text>
      <text id="M-3" data-name="M" transform="translate(244.413 221.611)" fill="#4d4d4d" font-size="9" font-family="Roboto-Bold, Roboto" font-weight="700"><tspan x="0" y="0">M</tspan></text>
      <text id="A-4" data-name="A" transform="translate(254.287 221.611)" fill="#4d4d4d" font-size="9" font-family="Roboto-Bold, Roboto" font-weight="700"><tspan x="0" y="0">A</tspan></text>
      <text id="TERIALES_TÉCNICOS" data-name="TERIALES  TÉCNICOS" transform="translate(260.836 221.611)" fill="#4d4d4d" font-size="9" font-family="Roboto-Bold, Roboto" font-weight="700"><tspan x="0" y="0" xml:space="preserve">TERIALES  TÉCNICOS</tspan></text>
      <path id="Trazado_664117" data-name="Trazado 664117" d="M434.214,595.8c3.718-7.791,4.111-21.951,4.111-21.951h9.338s.393,14.161,4.112,21.951Z" transform="translate(-106.949 -335.494)" fill="#f1f1f1"/>
      <path id="Trazado_664118" data-name="Trazado 664118" d="M434.214,595.8c3.718-7.791,4.111-21.951,4.111-21.951H444.3a82.124,82.124,0,0,0,2.991,21.951Z" transform="translate(-106.949 -335.494)" fill="#fff"/>
      <path id="Trazado_664119" data-name="Trazado 664119" d="M451.79,596.186H434.229a.368.368,0,0,1-.31-.171.359.359,0,0,1-.019-.353c3.639-7.63,4.069-21.662,4.073-21.8a.365.365,0,0,1,.366-.355h9.338a.368.368,0,0,1,.369.355c0,.143.432,14.174,4.074,21.8a.368.368,0,0,1-.33.524m-16.991-.732h16.418c-3.169-7.152-3.8-19.02-3.891-21.219h-8.635c-.093,2.2-.722,14.067-3.891,21.219" transform="translate(-106.964 -335.509)" fill="#1767b9"/>
      <path id="Trazado_664120" data-name="Trazado 664120" d="M447.721,577.234h-9.747c-.059.744-.135,1.583-.227,2.485h10.2c-.092-.9-.167-1.741-.225-2.485" transform="translate(-106.802 -335.354)" fill="#fff"/>
      <path id="Trazado_664121" data-name="Trazado 664121" d="M447.961,580.1h-10.2a.366.366,0,0,1-.362-.4c.092-.9.166-1.734.224-2.477a.364.364,0,0,1,.365-.337h9.748a.364.364,0,0,1,.365.337c.058.743.131,1.578.224,2.477a.353.353,0,0,1-.093.281.359.359,0,0,1-.27.122m-9.8-.732h9.392c-.062-.622-.115-1.21-.16-1.753h-9.072c-.043.543-.1,1.131-.159,1.753" transform="translate(-106.817 -335.369)" fill="#1767b9"/>
      <path id="Trazado_664122" data-name="Trazado 664122" d="M423.017,595.96c4.338-9.175,4.8-25.854,4.8-25.854h10.9s.456,16.679,4.794,25.854Z" transform="translate(-107.414 -335.65)" fill="#f1f1f1"/>
      <path id="Trazado_664123" data-name="Trazado 664123" d="M423.017,595.96c4.338-9.175,4.8-25.854,4.8-25.854h6.975a97.5,97.5,0,0,0,3.487,25.854Z" transform="translate(-107.414 -335.65)" fill="#fff"/>
      <path id="Trazado_664124" data-name="Trazado 664124" d="M443.522,596.341h-20.49a.366.366,0,0,1-.329-.524c4.254-9,4.755-25.539,4.761-25.707a.365.365,0,0,1,.365-.355h10.9a.366.366,0,0,1,.365.355c.005.168.507,16.708,4.76,25.707a.364.364,0,0,1-.02.353.372.372,0,0,1-.308.171m-19.919-.732H442.95c-3.761-8.473-4.482-22.7-4.58-25.123H428.181c-.1,2.426-.818,16.65-4.579,25.123" transform="translate(-107.429 -335.665)" fill="#1767b9"/>
      <path id="Trazado_664125" data-name="Trazado 664125" d="M438.777,574.088H427.4c-.068.876-.154,1.865-.261,2.927h11.9c-.109-1.061-.2-2.051-.264-2.927" transform="translate(-107.243 -335.485)" fill="#fff"/>
      <path id="Trazado_664126" data-name="Trazado 664126" d="M439.054,577.395h-11.9a.366.366,0,0,1-.362-.4c.1-.993.187-1.973.259-2.918a.367.367,0,0,1,.367-.337h11.373a.367.367,0,0,1,.367.337c.073.955.161,1.935.259,2.918a.363.363,0,0,1-.362.4m-11.5-.731h11.089c-.071-.738-.136-1.473-.195-2.195h-10.7c-.057.714-.123,1.451-.2,2.195" transform="translate(-107.257 -335.499)" fill="#1767b9"/>
      <path id="Trazado_664127" data-name="Trazado 664127" d="M453.314,595.309H422.095a.366.366,0,0,1,0-.732h31.219a.366.366,0,1,1,0,.732" transform="translate(-107.467 -334.633)" fill="#1767b9"/>
      <path id="Trazado_664128" data-name="Trazado 664128" d="M436.067,569.2a.365.365,0,0,1-.365-.365,2.566,2.566,0,0,0-2.562-2.562h-.975a.366.366,0,0,1,0-.731h.975a3.3,3.3,0,0,1,3.293,3.293.365.365,0,0,1-.367.365" transform="translate(-107.049 -335.84)" fill="#1767b9"/>
      <path id="Trazado_664129" data-name="Trazado 664129" d="M423.312,565.334h-1.218a.366.366,0,1,1,0-.731h1.218a.366.366,0,1,1,0,.731" transform="translate(-107.467 -335.879)" fill="#1767b9"/>
      <path id="Trazado_664130" data-name="Trazado 664130" d="M427.646,567.209H423.5a.366.366,0,1,1,0-.732h4.146a.366.366,0,0,1,0,.732" transform="translate(-107.409 -335.8)" fill="#1767b9"/>
      <path id="Trazado_664131" data-name="Trazado 664131" d="M442.634,568.613h-4.146a.366.366,0,1,1,0-.732h4.146a.366.366,0,1,1,0,.732" transform="translate(-106.787 -335.742)" fill="#1767b9"/>
      <path id="Trazado_664132" data-name="Trazado 664132" d="M440.253,566.74h-3.169a.366.366,0,1,1,0-.732h3.169a.366.366,0,1,1,0,.732" transform="translate(-106.845 -335.82)" fill="#1767b9"/>
      <path id="Trazado_664133" data-name="Trazado 664133" d="M431.483,569.237a.365.365,0,0,1-.367-.365,3.542,3.542,0,0,0-3.537-3.537h-2.44a.366.366,0,1,1,0-.731h2.44a4.273,4.273,0,0,1,4.268,4.268.365.365,0,0,1-.365.365" transform="translate(-107.341 -335.879)" fill="#1767b9"/>
      <path id="Trazado_664134" data-name="Trazado 664134" d="M445.569,572.925a.366.366,0,0,1-.367-.367,2.075,2.075,0,0,0-2.074-2.072h-3.252a.367.367,0,1,1,0-.733h3.252a2.809,2.809,0,0,1,2.8,2.8.365.365,0,0,1-.365.367" transform="translate(-106.729 -335.665)" fill="#1767b9"/>
      <path id="Trazado_664135" data-name="Trazado 664135" d="M427.309,589.741a.486.486,0,0,1-.068-.005.366.366,0,0,1-.293-.427c.411-2.19.77-4.675,1.064-7.389a.366.366,0,1,1,.727.079c-.3,2.732-.659,5.236-1.072,7.443a.365.365,0,0,1-.359.3" transform="translate(-107.251 -335.173)" fill="#1767b9"/>
      <path id="Trazado_664136" data-name="Trazado 664136" d="M426.548,592.97a.384.384,0,0,1-.091-.011.366.366,0,0,1-.262-.445q.194-.761.372-1.556a.366.366,0,1,1,.713.16c-.12.536-.244,1.064-.379,1.578a.363.363,0,0,1-.353.274" transform="translate(-107.282 -334.795)" fill="#1767b9"/>
      <path id="Trazado_664137" data-name="Trazado 664137" d="M397.876,605.154l-.37.556a15.586,15.586,0,0,1-4.278,29.583l-.205.308a15.61,15.61,0,0,0,4.853-30.447" transform="translate(-108.66 -334.194)" fill="#f1f1f1"/>
      <path id="Trazado_664138" data-name="Trazado 664138" d="M397.5,605.688l-1.91,2.861a11.706,11.706,0,0,1,2.307,22.063v-2.351l-4.673,7.012a15.783,15.783,0,0,0,2.59-.607,15.6,15.6,0,0,0,1.686-28.978" transform="translate(-108.652 -334.172)" fill="#fff"/>
      <path id="Trazado_664139" data-name="Trazado 664139" d="M393.038,635.982a.365.365,0,0,1-.3-.569l4.876-7.318a.367.367,0,0,1,.671.2v1.762a11.34,11.34,0,0,0-2.75-21.117.366.366,0,0,1-.261-.22.379.379,0,0,1,.035-.341l2.279-3.417a.365.365,0,0,1,.418-.145,15.976,15.976,0,0,1-4.966,31.161m4.513-6.475-3.817,5.727a15.244,15.244,0,0,0,4.306-29.63l-1.835,2.753a12.073,12.073,0,0,1,1.865,22.624.37.37,0,0,1-.35-.025.364.364,0,0,1-.169-.307Z" transform="translate(-108.674 -334.209)" fill="#1767b9"/>
      <path id="Trazado_664140" data-name="Trazado 664140" d="M379.987,620.175a15.545,15.545,0,0,1,13.451-15.45l.208-.311a15.61,15.61,0,0,0-4.853,30.447l.328-.495a15.6,15.6,0,0,1-9.135-14.191" transform="translate(-109.282 -334.225)" fill="#fff"/>
      <path id="Trazado_664141" data-name="Trazado 664141" d="M381.862,620.01a11.706,11.706,0,0,1,6.828-10.642v2.35l4.669-7.005a15.6,15.6,0,0,0-4.315,29.641L391,631.431a11.708,11.708,0,0,1-9.133-11.42" transform="translate(-109.204 -334.212)" fill="#f1f1f1"/>
      <path id="Trazado_664142" data-name="Trazado 664142" d="M388.809,635.24a.385.385,0,0,1-.112-.019,15.976,15.976,0,0,1,4.964-31.161.366.366,0,0,1,.3.57l-4.878,7.317a.366.366,0,0,1-.671-.2v-1.762a11.34,11.34,0,0,0,2.751,21.118.372.372,0,0,1,.261.22.377.377,0,0,1-.035.34l-2.279,3.417a.367.367,0,0,1-.305.163m4.158-30.432a15.243,15.243,0,0,0-4.306,29.628l1.833-2.75a12.073,12.073,0,0,1-1.865-22.624.367.367,0,0,1,.521.332v1.141Z" transform="translate(-109.297 -334.24)" fill="#1767b9"/>
      <path id="Trazado_664143" data-name="Trazado 664143" d="M381.393,606.794a.975.975,0,1,1-.977-.977.974.974,0,0,1,.977.977" transform="translate(-109.224 -334.167)" fill="#fff"/>
      <path id="Trazado_664144" data-name="Trazado 664144" d="M380.431,608.15a1.342,1.342,0,1,1,1.344-1.342,1.342,1.342,0,0,1-1.344,1.342m0-1.952a.61.61,0,1,0,.61.61.609.609,0,0,0-.61-.61" transform="translate(-109.239 -334.182)" fill="#1767b9"/>
      <path id="Trazado_664145" data-name="Trazado 664145" d="M405.278,605.388a.975.975,0,1,1-.975-.975.976.976,0,0,1,.975.975" transform="translate(-108.232 -334.225)" fill="#fff"/>
      <path id="Trazado_664146" data-name="Trazado 664146" d="M404.319,606.745a1.342,1.342,0,1,1,1.341-1.344,1.345,1.345,0,0,1-1.341,1.344m0-1.952a.61.61,0,1,0,.608.608.609.609,0,0,0-.608-.608" transform="translate(-108.246 -334.24)" fill="#1767b9"/>
      <path id="Trazado_664147" data-name="Trazado 664147" d="M408.089,608.667a.976.976,0,1,1-.977-.975.976.976,0,0,1,.977.975" transform="translate(-108.115 -334.089)" fill="#fff"/>
      <path id="Trazado_664148" data-name="Trazado 664148" d="M407.127,610.024a1.342,1.342,0,1,1,1.342-1.344,1.344,1.344,0,0,1-1.342,1.344m0-1.952a.61.61,0,1,0,.61.608.609.609,0,0,0-.61-.608" transform="translate(-108.13 -334.103)" fill="#1767b9"/>
      <path id="Trazado_664149" data-name="Trazado 664149" d="M379.987,630.68a.975.975,0,1,1-.975-.977.973.973,0,0,1,.975.977" transform="translate(-109.282 -333.175)" fill="#fff"/>
      <path id="Trazado_664150" data-name="Trazado 664150" d="M379.028,632.036a1.342,1.342,0,1,1,1.341-1.342,1.344,1.344,0,0,1-1.341,1.342m0-1.952a.61.61,0,1,0,.608.61.61.61,0,0,0-.608-.61" transform="translate(-109.297 -333.189)" fill="#1767b9"/>
      <path id="Trazado_664151" data-name="Trazado 664151" d="M383.736,633.49a.976.976,0,1,1-.977-.977.974.974,0,0,1,.977.977" transform="translate(-109.127 -333.058)" fill="#fff"/>
      <path id="Trazado_664152" data-name="Trazado 664152" d="M382.775,634.846a1.342,1.342,0,1,1,1.342-1.342,1.343,1.343,0,0,1-1.342,1.342m0-1.952a.61.61,0,1,0,.608.61.609.609,0,0,0-.608-.61" transform="translate(-109.141 -333.073)" fill="#1767b9"/>
      <path id="Trazado_664153" data-name="Trazado 664153" d="M407.621,631.148a.976.976,0,1,1-.977-.977.974.974,0,0,1,.977.977" transform="translate(-108.134 -333.155)" fill="#fff"/>
      <path id="Trazado_664154" data-name="Trazado 664154" d="M406.659,632.5A1.342,1.342,0,1,1,408,631.163a1.343,1.343,0,0,1-1.344,1.341m0-1.952a.61.61,0,1,0,.61.61.609.609,0,0,0-.61-.61" transform="translate(-108.149 -333.17)" fill="#1767b9"/>
      <path id="Trazado_664155" data-name="Trazado 664155" d="M388.458,613.994a1.235,1.235,0,0,0-.278-.316,1.347,1.347,0,0,0-.381-.212,1.282,1.282,0,0,0-.442-.075,1.467,1.467,0,0,0-.72.164,1.359,1.359,0,0,0-.479.439,1.928,1.928,0,0,0-.267.627,3.093,3.093,0,0,0-.084.727,2.89,2.89,0,0,0,.084.7,1.889,1.889,0,0,0,.267.611,1.358,1.358,0,0,0,.479.435,1.469,1.469,0,0,0,.72.163,1.159,1.159,0,0,0,.9-.351,1.632,1.632,0,0,0,.4-.926h1.213a2.977,2.977,0,0,1-.248.965,2.3,2.3,0,0,1-.528.734,2.21,2.21,0,0,1-.767.464,2.786,2.786,0,0,1-.965.16,2.961,2.961,0,0,1-1.18-.228,2.538,2.538,0,0,1-.882-.627,2.8,2.8,0,0,1-.551-.939,3.426,3.426,0,0,1-.19-1.161,3.561,3.561,0,0,1,.19-1.186,2.893,2.893,0,0,1,.551-.955,2.553,2.553,0,0,1,.882-.638,2.909,2.909,0,0,1,1.18-.231,2.877,2.877,0,0,1,.891.135,2.455,2.455,0,0,1,.75.395,2.173,2.173,0,0,1,.548.644,2.328,2.328,0,0,1,.271.878H388.6a1.049,1.049,0,0,0-.145-.395" transform="translate(-109.012 -333.896)" fill="#1767b9"/>
      <path id="Trazado_664156" data-name="Trazado 664156" d="M393.154,618.108v-.575h-.024a1.282,1.282,0,0,1-.56.519,1.636,1.636,0,0,1-.7.159,1.966,1.966,0,0,1-.746-.12,1.058,1.058,0,0,1-.458-.339,1.324,1.324,0,0,1-.236-.535,3.228,3.228,0,0,1-.068-.7v-2.54h1.133v2.332a1.431,1.431,0,0,0,.161.762.615.615,0,0,0,.568.252.786.786,0,0,0,.669-.275,1.517,1.517,0,0,0,.208-.907v-2.164h1.134v4.13Z" transform="translate(-108.77 -333.828)" fill="#1767b9"/>
      <path id="Trazado_664157" data-name="Trazado 664157" d="M394.715,621.23H391.9v-1.056h4.489v.993l-3.058,3.657h3.139v1.056h-4.811v-.992Z" transform="translate(-108.717 -333.57)" fill="#1767b9"/>
      <path id="Trazado_664158" data-name="Trazado 664158" d="M397.942,621.69v.575h.024a1.289,1.289,0,0,1,.56-.522,1.579,1.579,0,0,1,.7-.166,1.906,1.906,0,0,1,.746.124,1.093,1.093,0,0,1,.458.344,1.288,1.288,0,0,1,.234.535,3.219,3.219,0,0,1,.07.7v2.54H399.6v-2.332a1.468,1.468,0,0,0-.159-.764.621.621,0,0,0-.568-.25.786.786,0,0,0-.67.274,1.529,1.529,0,0,0-.209.908v2.164h-1.132v-4.13Z" transform="translate(-108.5 -333.512)" fill="#1767b9"/>
      <rect id="Rectángulo_338810" data-name="Rectángulo 338810" width="14.447" height="3.333" transform="translate(332.03 331.326)" fill="#f1f1f1"/>
      <rect id="Rectángulo_338811" data-name="Rectángulo 338811" width="11.112" height="3.333" transform="translate(332.028 331.326)" fill="#fff"/>
      <path id="Trazado_664159" data-name="Trazado 664159" d="M453.252,666.878H438.8a.417.417,0,0,1-.419-.417v-3.333a.417.417,0,0,1,.419-.417h14.448a.416.416,0,0,1,.416.417v3.333a.416.416,0,0,1-.416.417m-14.032-.834h13.615v-2.5H439.22Z" transform="translate(-106.776 -331.803)" fill="#1767b9"/>
      <path id="Trazado_664160" data-name="Trazado 664160" d="M457.3,666.746H435.068a.417.417,0,1,1,0-.834H457.3a.417.417,0,0,1,0,.834" transform="translate(-106.931 -331.671)" fill="#1767b9"/>
      <path id="Trazado_664161" data-name="Trazado 664161" d="M463.1,663.245h-33.34a1.112,1.112,0,0,1-1.112-1.112V659.91h35.564v2.223a1.114,1.114,0,0,1-1.112,1.112" transform="translate(-107.18 -331.92)" fill="#f1f1f1"/>
      <path id="Trazado_664162" data-name="Trazado 664162" d="M460.322,663.245H429.76a1.11,1.11,0,0,1-1.11-1.112V659.91h32.784v2.223a1.112,1.112,0,0,1-1.112,1.112" transform="translate(-107.18 -331.92)" fill="#fff"/>
      <path id="Trazado_664163" data-name="Trazado 664163" d="M463.118,663.677H429.778a1.527,1.527,0,0,1-1.527-1.528v-2.222a.415.415,0,0,1,.416-.418h35.564a.417.417,0,0,1,.417.418v2.222a1.53,1.53,0,0,1-1.529,1.528m-34.035-3.333v1.805a.7.7,0,0,0,.695.7h33.341a.694.694,0,0,0,.693-.7v-1.805Z" transform="translate(-107.197 -331.937)" fill="#1767b9"/>
      <path id="Trazado_664164" data-name="Trazado 664164" d="M464.214,660.885H428.649V637.547a1.113,1.113,0,0,1,1.112-1.112H463.1a1.114,1.114,0,0,1,1.113,1.112Z" transform="translate(-107.18 -332.895)" fill="#f1f1f1"/>
      <path id="Trazado_664165" data-name="Trazado 664165" d="M460.878,658.107H428.65v-20.56a1.112,1.112,0,0,1,1.112-1.112h31.672v21.116a.557.557,0,0,1-.556.556" transform="translate(-107.18 -332.895)" fill="#fff"/>
      <path id="Trazado_664166" data-name="Trazado 664166" d="M464.231,661.319H428.667a.416.416,0,0,1-.416-.418V637.564a1.528,1.528,0,0,1,1.527-1.529h33.341a1.531,1.531,0,0,1,1.529,1.529V660.9a.419.419,0,0,1-.417.418m-35.148-.834h34.728V637.564a.693.693,0,0,0-.693-.695H429.778a.7.7,0,0,0-.695.695Z" transform="translate(-107.197 -332.911)" fill="#1767b9"/>
      <path id="Trazado_664167" data-name="Trazado 664167" d="M431.334,656.36a.418.418,0,0,1-.417-.417v-7.1a.417.417,0,1,1,.833,0v7.1a.417.417,0,0,1-.417.417" transform="translate(-107.086 -332.397)" fill="#1767b9"/>
      <path id="Trazado_664168" data-name="Trazado 664168" d="M431.334,647.17a.418.418,0,0,1-.417-.417v-1.231a.417.417,0,0,1,.833,0v1.231a.417.417,0,0,1-.417.417" transform="translate(-107.086 -332.534)" fill="#1767b9"/>
      <path id="Trazado_664169" data-name="Trazado 664169" d="M460.147,650.957a.419.419,0,0,1-.419-.417V645.1a.418.418,0,1,1,.835,0v5.437a.417.417,0,0,1-.417.417" transform="translate(-105.889 -332.552)" fill="#1767b9"/>
      <path id="Trazado_664170" data-name="Trazado 664170" d="M460.147,643.435a.42.42,0,0,1-.419-.417v-1.231a.418.418,0,0,1,.835,0v1.231a.418.418,0,0,1-.417.417" transform="translate(-105.889 -332.69)" fill="#1767b9"/>
      <rect id="Rectángulo_338812" data-name="Rectángulo 338812" width="390.586" height="358.363" transform="translate(1.041 0)" fill="none"/>
      <text id="PRODUCIR-3" data-name="PRODUCIR" transform="translate(232.664 251.681)" fill="#1767b9" font-size="9" font-family="Roboto-Bold, Roboto" font-weight="700"><tspan x="0" y="0">PRODUCIR</tspan></text>
      <text id="USAR" transform="translate(362.053 285.194)" fill="#1767b9" font-size="9" font-family="Roboto-Bold, Roboto" font-weight="700"><tspan x="0" y="0">USAR</tspan></text>
      <text id="REGENERAR" transform="translate(228.156 325.25)" fill="#1767b9" font-size="9" font-family="Roboto-Bold, Roboto" font-weight="700"><tspan x="0" y="0">REGENERAR</tspan></text>
      <path id="Trazado_664171" data-name="Trazado 664171" d="M395.507,637.982a38.124,38.124,0,0,0,28.86,15.327" transform="translate(-108.557 -332.831)" fill="none" stroke="#4d4d4d" stroke-miterlimit="10" stroke-width="1.19"/>
      <path id="Trazado_664172" data-name="Trazado 664172" d="M394.376,639.59l-.349-3.744,3.416,1.573Z" transform="translate(-108.618 -332.919)" fill="#4d4d4d"/>
      <path id="Trazado_664173" data-name="Trazado 664173" d="M421.73,579.681a38.174,38.174,0,0,0-27.7,17.334" transform="translate(-108.618 -335.253)" fill="none" stroke="#4d4d4d" stroke-miterlimit="10" stroke-width="1.19"/>
      <path id="Trazado_664174" data-name="Trazado 664174" d="M419.938,577.958l3.413,1.576L420.28,581.7Z" transform="translate(-107.542 -335.324)" fill="#4d4d4d"/>
      <path id="Trazado_664175" data-name="Trazado 664175" d="M458.331,632.6a38.26,38.26,0,0,0-1.21-34.007" transform="translate(-105.997 -334.467)" fill="none" stroke="#4d4d4d" stroke-miterlimit="10" stroke-width="1.19"/>
      <path id="Trazado_664176" data-name="Trazado 664176" d="M460.246,631.615l-3.111,2.108-.271-3.752Z" transform="translate(-106.008 -333.163)" fill="#4d4d4d"/>
      <text id="ENERGÍA_RENO" data-name="ENERGÍA RENO" transform="translate(136.505 353.984)" fill="#4d4d4d" font-size="9" font-family="Roboto-Bold, Roboto" font-weight="700"><tspan x="0" y="0">ENERGÍA RENO</tspan></text>
      <text id="V" transform="translate(214.955 353.984)" fill="#4d4d4d" font-size="9" font-family="Roboto-Bold, Roboto" font-weight="700"><tspan x="0" y="0">V</tspan></text>
      <text id="ABLE" transform="translate(221.719 353.984)" fill="#4d4d4d" font-size="9" font-family="Roboto-Bold, Roboto" font-weight="700"><tspan x="0" y="0">ABLE</tspan></text>
      <text id="ECONOMÍA_CIRCULAR" data-name="ECONOMÍA CIRCULAR" transform="translate(112.986 192.552)" fill="#1767b9" font-size="14" font-family="Roboto-Bold, Roboto" font-weight="700"><tspan x="0" y="0">ECONOMÍA CIRCULAR</tspan></text>
    </g>
  </g>
</svg>
