<svg xmlns="http://www.w3.org/2000/svg" xmlns:xlink="http://www.w3.org/1999/xlink" width="1030" height="892.825" viewBox="0 0 1030 892.825"><defs><clipPath id="a"><rect width="1030" height="892.825" fill="none"/></clipPath></defs><g clip-path="url(#a)"><text transform="translate(0.292 11.912)" font-size="13" font-family="Roboto-Regular, Roboto"><tspan x="0" y="0">Diagrama de indicadores de resultado de crecimiento verde</tspan></text></g><path d="M198.921.25H0v-.5H198.921Z" transform="translate(246.018 60.786)" fill="#575756"/><path d="M152.116.25H0v-.5H152.116Z" transform="translate(444.939 60.786)" fill="#575756"/><path d="M152.116.25H0v-.5H152.116Z" transform="translate(597.055 60.786)" fill="#575756"/><path d="M183.856.25H0v-.5H183.856Z" transform="translate(749.171 60.786)" fill="#575756"/><g clip-path="url(#a)"><path d="M96.973.25H0v-.5H96.973Z" transform="translate(933.027 60.786)" fill="#575756"/></g><path d="M198.921.25H0v-.5H198.921Z" transform="translate(246.018 114.405)" fill="#575756"/><path d="M152.116.25H0v-.5H152.116Z" transform="translate(444.939 114.405)" fill="#575756"/><path d="M152.116.25H0v-.5H152.116Z" transform="translate(597.055 114.405)" fill="#575756"/><path d="M183.856.25H0v-.5H183.856Z" transform="translate(749.171 114.405)" fill="#575756"/><g clip-path="url(#a)"><path d="M96.973.25H0v-.5H96.973Z" transform="translate(933.027 114.405)" fill="#575756"/></g><path d="M198.921.25H0v-.5H198.921Z" transform="translate(246.018 168.024)" fill="#575756"/><path d="M152.116.25H0v-.5H152.116Z" transform="translate(444.939 168.024)" fill="#575756"/><path d="M152.116.25H0v-.5H152.116Z" transform="translate(597.055 168.024)" fill="#575756"/><path d="M183.856.25H0v-.5H183.856Z" transform="translate(749.171 168.024)" fill="#575756"/><g clip-path="url(#a)"><path d="M96.973.25H0v-.5H96.973Z" transform="translate(933.027 168.024)" fill="#575756"/></g><path d="M198.921.25H0v-.5H198.921Z" transform="translate(246.018 221.642)" fill="#575756"/><path d="M152.116.25H0v-.5H152.116Z" transform="translate(444.939 221.642)" fill="#575756"/><path d="M152.116.25H0v-.5H152.116Z" transform="translate(597.055 221.642)" fill="#575756"/><path d="M183.856.25H0v-.5H183.856Z" transform="translate(749.171 221.642)" fill="#575756"/><g clip-path="url(#a)"><path d="M96.973.25H0v-.5H96.973Z" transform="translate(933.027 221.642)" fill="#575756"/></g><path d="M198.921.25H0v-.5H198.921Z" transform="translate(246.018 275.261)" fill="#575756"/><path d="M152.116.25H0v-.5H152.116Z" transform="translate(444.939 275.261)" fill="#575756"/><path d="M152.116.25H0v-.5H152.116Z" transform="translate(597.055 275.261)" fill="#575756"/><path d="M183.856.25H0v-.5H183.856Z" transform="translate(749.171 275.261)" fill="#575756"/><g clip-path="url(#a)"><path d="M96.973.25H0v-.5H96.973Z" transform="translate(933.027 275.261)" fill="#575756"/></g><path d="M198.921.25H0v-.5H198.921Z" transform="translate(246.018 348.694)" fill="#575756"/><path d="M152.116.25H0v-.5H152.116Z" transform="translate(444.939 348.694)" fill="#575756"/><path d="M152.116.25H0v-.5H152.116Z" transform="translate(597.055 348.694)" fill="#575756"/><path d="M183.856.25H0v-.5H183.856Z" transform="translate(749.171 348.694)" fill="#575756"/><g clip-path="url(#a)"><path d="M96.973.25H0v-.5H96.973Z" transform="translate(933.027 348.694)" fill="#575756"/></g><path d="M198.921.25H0v-.5H198.921Z" transform="translate(246.018 422.127)" fill="#575756"/><path d="M152.116.25H0v-.5H152.116Z" transform="translate(444.939 422.127)" fill="#575756"/><path d="M152.116.25H0v-.5H152.116Z" transform="translate(597.055 422.127)" fill="#575756"/><path d="M183.856.25H0v-.5H183.856Z" transform="translate(749.171 422.127)" fill="#575756"/><g clip-path="url(#a)"><path d="M96.973.25H0v-.5H96.973Z" transform="translate(933.027 422.127)" fill="#575756"/></g><path d="M198.921.25H0v-.5H198.921Z" transform="translate(246.018 475.746)" fill="#575756"/><path d="M152.116.25H0v-.5H152.116Z" transform="translate(444.939 475.746)" fill="#575756"/><path d="M152.116.25H0v-.5H152.116Z" transform="translate(597.055 475.746)" fill="#575756"/><path d="M183.856.25H0v-.5H183.856Z" transform="translate(749.171 475.746)" fill="#575756"/><g clip-path="url(#a)"><path d="M96.973.25H0v-.5H96.973Z" transform="translate(933.027 475.746)" fill="#575756"/></g><path d="M198.921.25H0v-.5H198.921Z" transform="translate(246.018 529.364)" fill="#575756"/><path d="M152.116.25H0v-.5H152.116Z" transform="translate(444.939 529.364)" fill="#575756"/><path d="M152.116.25H0v-.5H152.116Z" transform="translate(597.055 529.364)" fill="#575756"/><path d="M183.856.25H0v-.5H183.856Z" transform="translate(749.171 529.364)" fill="#575756"/><g clip-path="url(#a)"><path d="M96.973.25H0v-.5H96.973Z" transform="translate(933.027 529.364)" fill="#575756"/></g><path d="M198.921.25H0v-.5H198.921Z" transform="translate(246.018 582.983)" fill="#575756"/><path d="M152.116.25H0v-.5H152.116Z" transform="translate(444.939 582.983)" fill="#575756"/><path d="M152.116.25H0v-.5H152.116Z" transform="translate(597.055 582.983)" fill="#575756"/><path d="M183.856.25H0v-.5H183.856Z" transform="translate(749.171 582.983)" fill="#575756"/><g clip-path="url(#a)"><path d="M96.973.25H0v-.5H96.973Z" transform="translate(933.027 582.983)" fill="#575756"/><path d="M245.726.25H0v-.5H245.726Z" transform="translate(0.292 26.981)" fill="#575756"/></g><path d="M198.921.25H0v-.5H198.921Z" transform="translate(246.018 26.981)" fill="#575756"/><path d="M152.116.25H0v-.5H152.116Z" transform="translate(444.939 26.981)" fill="#575756"/><path d="M152.116.25H0v-.5H152.116Z" transform="translate(597.055 26.981)" fill="#575756"/><path d="M183.856.25H0v-.5H183.856Z" transform="translate(749.171 26.981)" fill="#575756"/><g clip-path="url(#a)"><path d="M96.973.25H0v-.5H96.973Z" transform="translate(933.027 26.981)" fill="#575756"/><path d="M245.726.25H0v-.5H245.726Z" transform="translate(0.292 60.786)" fill="#575756"/><path d="M245.726.25H0v-.5H245.726Z" transform="translate(0.292 275.261)" fill="#575756"/><path d="M245.726.25H0v-.5H245.726Z" transform="translate(0.292 582.983)" fill="#575756"/></g><text transform="translate(8.548 48.638)" font-size="13" font-family="Roboto-Regular, Roboto"><tspan x="0" y="0">Objetivo</tspan></text><text transform="translate(254.276 48.638)" font-size="13" font-family="Roboto-Regular, Roboto"><tspan x="0" y="0">Nombre del indicador</tspan></text><text transform="translate(453.178 48.638)" font-size="13" font-family="Roboto-Regular, Roboto"><tspan x="0" y="0">Meta ODS</tspan></text><text transform="translate(605.299 48.638)" font-size="13" font-family="Roboto-Regular, Roboto"><tspan x="0" y="0">Unidad de medida</tspan></text><text transform="translate(757.419 48.638)" font-size="13" font-family="Roboto-Regular, Roboto"><tspan x="0" y="0">Línea base</tspan></text><text transform="translate(941.282 48.638)" font-size="13" font-family="Roboto-Regular, Roboto"><tspan x="0" y="0">Meta 2030</tspan></text><text transform="translate(8.548 82.431)" font-size="13" font-family="Roboto-Regular, Roboto"><tspan x="0" y="0">Generar condiciones que promuevan </tspan></text><text transform="translate(8.548 102.239)" font-size="13" font-family="Roboto-Regular, Roboto"><tspan x="0" y="0">nuevas oportunidades económicas</tspan></text><text transform="translate(8.548 122.062)" font-size="13" font-family="Roboto-Regular, Roboto"><tspan x="0" y="0">basadas en la riqueza del </tspan></text><text transform="translate(174.697 122.062)" font-size="13" font-family="Roboto-Regular, Roboto"><tspan x="0" y="0">c</tspan></text><text transform="translate(182.138 122.062)" font-size="13" font-family="Roboto-Regular, Roboto"><tspan x="0" y="0">apital </tspan></text><text transform="translate(8.534 141.869)" font-size="13" font-family="Roboto-Regular, Roboto"><tspan x="0" y="0">natural.</tspan></text><text transform="translate(254.261 82.431)" font-size="13" font-family="Roboto-Regular, Roboto"><tspan x="0" y="0">P</tspan></text><text transform="translate(263.103 82.431)" font-size="13" font-family="Roboto-Regular, Roboto"><tspan x="0" y="0">a</tspan></text><text transform="translate(270.963 82.431)" font-size="13" font-family="Roboto-Regular, Roboto"><tspan x="0" y="0">r</tspan></text><text transform="translate(276.309 82.431)" font-size="13" font-family="Roboto-Regular, Roboto"><tspan x="0" y="0">ticipación de la economía </tspan></text><text transform="translate(254.261 102.239)" font-size="13" font-family="Roboto-Regular, Roboto"><tspan x="0" y="0">forestal en el PIB</tspan></text><text transform="translate(453.178 82.431)" font-size="13" font-family="Roboto-Regular, Roboto"><tspan x="0" y="0">Se incorporará a meta </tspan></text><text transform="translate(453.178 102.239)" font-size="13" font-family="Roboto-Regular, Roboto"><tspan x="0" y="0">ODS 8.4</tspan></text><text transform="translate(605.299 82.431)" font-size="13" font-family="Roboto-Regular, Roboto"><tspan x="0" y="0">P</tspan></text><text transform="translate(614.141 82.431)" font-size="13" font-family="Roboto-Regular, Roboto"><tspan x="0" y="0">orcentaje</tspan></text><text transform="translate(757.419 82.431)" font-size="13" font-family="Roboto-Regular, Roboto"><tspan x="0" y="0">0,79</tspan></text><text transform="translate(757.419 102.239)" font-size="13" font-family="Roboto-Regular, Roboto"><tspan x="0" y="0">(2017)</tspan></text><text transform="translate(941.282 82.431)" font-size="13" font-family="Roboto-Regular, Roboto"><tspan x="0" y="0">1,5</tspan></text><text transform="translate(254.276 136.047)" font-size="13" font-family="Roboto-Regular, Roboto"><tspan x="0" y="0">Pérdida</tspan></text><text transform="translate(303.601 136.047)" font-size="13" font-family="Roboto-Regular, Roboto"><tspan x="0" y="0"> </tspan></text><text transform="translate(307.14 136.047)" font-size="13" font-family="Roboto-Regular, Roboto"><tspan x="0" y="0">anualizada</tspan></text><text transform="translate(376.836 136.047)" font-size="13" font-family="Roboto-Regular, Roboto"><tspan x="0" y="0"> </tspan></text><text transform="translate(380.391 136.047)" font-size="13" font-family="Roboto-Regular, Roboto"><tspan x="0" y="0">de</tspan></text><text transform="translate(396.196 136.047)" font-size="13" font-family="Roboto-Regular, Roboto"><tspan x="0" y="0"> </tspan></text><text transform="translate(399.736 136.047)" font-size="13" font-family="Roboto-Regular, Roboto"><tspan x="0" y="0">bosque </tspan></text><text transform="translate(254.276 155.869)" font-size="13" font-family="Roboto-Regular, Roboto"><tspan x="0" y="0">natural</tspan></text><text transform="translate(453.193 136.047)" font-size="13" font-family="Roboto-Regular, Roboto"><tspan x="0" y="0">Meta ODS</tspan><tspan y="0" letter-spacing="-0.001em"> </tspan><tspan y="0">15.2</tspan></text><text transform="translate(605.313 136.047)" font-size="13" font-family="Roboto-Regular, Roboto"><tspan x="0" y="0">Hectáreas</tspan></text><text transform="translate(757.434 136.047)" font-size="13" font-family="Roboto-Regular, Roboto"><tspan x="0" y="0">276</tspan><tspan y="0" letter-spacing="-0.001em">.</tspan><tspan y="0">669</tspan></text><text transform="translate(757.434 155.869)" font-size="13" font-family="Roboto-Regular, Roboto"><tspan x="0" y="0">(</tspan></text><text transform="translate(762.376 155.869)" font-size="13" font-family="Roboto-Regular, Roboto"><tspan x="0" y="0">P</tspan></text><text transform="translate(771.289 155.869)" font-size="13" font-family="Roboto-Regular, Roboto"><tspan x="0" y="0">romedio 2000</tspan><tspan y="0" letter-spacing="-0.001em">-</tspan><tspan y="0">2012)</tspan></text><text transform="translate(941.296 136.047)" font-size="13" font-family="Roboto-Regular, Roboto"><tspan x="0" y="0">0</tspan></text><text transform="translate(254.29 189.663)" font-size="13" font-family="Roboto-Regular, Roboto"><tspan x="0" y="0">Número de bioproductos</tspan></text><text transform="translate(453.207 189.663)" font-size="13" font-family="Roboto-Regular, Roboto"><tspan x="0" y="0">Se incorporará a meta </tspan></text><text transform="translate(453.207 209.47)" font-size="13" font-family="Roboto-Regular, Roboto"><tspan x="0" y="0">ODS 8.4</tspan></text><text transform="translate(605.327 189.663)" font-size="13" font-family="Roboto-Regular, Roboto"><tspan x="0" y="0">Número de bioproduc-</tspan></text><text transform="translate(605.327 209.47)" font-size="13" font-family="Roboto-Regular, Roboto"><tspan x="0" y="0">tos registrados</tspan></text><text transform="translate(757.448 189.663)" font-size="13" font-family="Roboto-Regular, Roboto"><tspan x="0" y="0">84</tspan></text><text transform="translate(757.448 209.47)" font-size="13" font-family="Roboto-Regular, Roboto"><tspan x="0" y="0">(2018)</tspan></text><text transform="translate(941.31 189.663)" font-size="13" font-family="Roboto-Regular, Roboto"><tspan x="0" y="0">500</tspan></text><text transform="translate(254.305 243.278)" font-size="13" font-family="Roboto-Regular, Roboto"><tspan x="0" y="0">Negocios verdes verificados</tspan></text><text transform="translate(453.257 243.277)" font-size="13" font-family="Roboto-Regular, Roboto"><tspan x="0" y="0">Meta ODS</tspan><tspan y="0" letter-spacing="-0.001em"> </tspan><tspan y="0">12.b</tspan></text><text transform="translate(605.377 243.277)" font-size="13" font-family="Roboto-Regular, Roboto"><tspan x="0" y="0">Número de negocios </tspan></text><text transform="translate(605.377 263.086)" font-size="13" font-family="Roboto-Regular, Roboto"><tspan x="0" y="0">verdes veri</tspan></text><g clip-path="url(#a)"><path d="M329.365,127.65h-1.189c-.116,0-.165.05-.165.165v5.15c0,.116-.049.165-.165.165h-.958c-.116,0-.165-.049-.165-.165v-5.15c0-.116-.05-.165-.163-.165h-.429c-.116,0-.165-.05-.165-.163v-.793c0-.116.049-.165.165-.165h.429c.113,0,.163-.05.163-.165v-.875a2.874,2.874,0,0,1,1.139-2.31,3.4,3.4,0,0,1,1.486-.594c.116-.017.182.033.182.165v.809a.161.161,0,0,1-.132.165,1.633,1.633,0,0,0-1.387,1.6v1.04c0,.116.05.165.165.165h1.189c.116,0,.165.05.165.165v.793c0,.113-.049.163-.165.163m2.343-3.449a.816.816,0,1,1,.826-.824.828.828,0,0,1-.826.824m.5,8.929h-.974c-.116,0-.165-.049-.165-.165v-7.03c0-.116.05-.165.165-.165h.974c.116,0,.165.05.165.165v7.03c0,.116-.049.165-.165.165" transform="translate(346.817 130.409)"/></g><text transform="translate(680.279 263.091)" font-size="13" font-family="Roboto-Regular, Roboto"><tspan x="0" y="0">c</tspan></text><text transform="translate(687.718 263.091)" font-size="13" font-family="Roboto-Regular, Roboto"><tspan x="0" y="0">ados</tspan></text><text transform="translate(757.5 243.282)" font-size="13" font-family="Roboto-Regular, Roboto"><tspan x="0" y="0">90</tspan></text><text transform="translate(757.5 263.091)" font-size="13" font-family="Roboto-Regular, Roboto"><tspan x="0" y="0">(2015)</tspan></text><text transform="translate(941.362 243.282)" font-size="13" font-family="Roboto-Regular, Roboto"><tspan x="0" y="0">12.630</tspan></text><text transform="translate(8.63 296.898)" font-size="13" font-family="Roboto-Regular, Roboto"><tspan x="0" y="0">Fortalecer los mecanismos y los </tspan></text><text transform="translate(8.63 316.721)" font-size="13" font-family="Roboto-Regular, Roboto"><tspan x="0" y="0">instrumentos para optimizar el uso de </tspan></text><text transform="translate(8.63 336.529)" font-size="13" font-family="Roboto-Regular, Roboto"><tspan x="0" y="0">los recursos naturales y energía en la </tspan></text><text transform="translate(8.63 356.351)" font-size="13" font-family="Roboto-Regular, Roboto"><tspan x="0" y="0">producción y consumo</tspan></text><text transform="translate(254.358 296.913)" font-size="13" font-family="Roboto-Regular, Roboto"><tspan x="0" y="0">Productividad hídrica</tspan></text><text transform="translate(453.289 296.913)" font-size="13" font-family="Roboto-Regular, Roboto"><tspan x="0" y="0">Meta OD</tspan><tspan y="0" letter-spacing="-0.001em">S</tspan><tspan y="0" xml:space="preserve"> 6.4</tspan></text><text transform="translate(605.409 296.913)" font-size="13" font-family="Roboto-Regular, Roboto"><tspan x="0" y="0">P</tspan></text><text transform="translate(614.252 296.913)" font-size="13" font-family="Roboto-Regular, Roboto"><tspan x="0" y="0">esos de valor agre</tspan></text><text transform="translate(722.465 296.913)" font-size="13" font-family="Roboto-Regular, Roboto"><tspan x="0" y="0">-</tspan></text><text transform="translate(605.409 316.736)" font-size="13" font-family="Roboto-Regular, Roboto"><tspan x="0" y="0">g</tspan></text><text transform="translate(613.413 316.736)" font-size="13" font-family="Roboto-Regular, Roboto"><tspan x="0" y="0">ado / m</tspan></text><text transform="translate(657.565 311.259)" font-size="13" font-family="Roboto-Regular, Roboto"><tspan x="0" y="0">3</tspan></text><text transform="translate(662.392 316.764)" font-size="13" font-family="Roboto-Regular, Roboto"><tspan x="0" y="0" xml:space="preserve"> de agua </tspan></text><text transform="translate(605.309 336.572)" font-size="13" font-family="Roboto-Regular, Roboto"><tspan x="0" y="0">extraída [$</tspan></text><text transform="translate(672.7 336.572)" font-size="13" font-family="Roboto-Regular, Roboto"><tspan x="0" y="0">/</tspan></text><text transform="translate(678.068 336.572)" font-size="13" font-family="Roboto-Regular, Roboto"><tspan x="0" y="0">m</tspan></text><text transform="translate(687.343 331.068)" font-size="13" font-family="Roboto-Regular, Roboto"><tspan x="0" y="0">3</tspan></text><text transform="translate(692.169 336.572)" font-size="13" font-family="Roboto-Regular, Roboto"><tspan x="0" y="0">]</tspan></text><text transform="translate(757.43 296.942)" font-size="13" font-family="Roboto-Regular, Roboto"><tspan x="0" y="0">3.334</tspan></text><text transform="translate(757.43 316.764)" font-size="13" font-family="Roboto-Regular, Roboto"><tspan x="0" y="0">(2015)</tspan></text><text transform="translate(941.292 296.942)" font-size="13" font-family="Roboto-Regular, Roboto"><tspan x="0" y="0">4.400</tspan></text><text transform="translate(254.285 370.366)" font-size="13" font-family="Roboto-Regular, Roboto"><tspan x="0" y="0">P</tspan></text><text transform="translate(263.128 370.366)" font-size="13" font-family="Roboto-Regular, Roboto"><tspan x="0" y="0">a</tspan></text><text transform="translate(270.987 370.366)" font-size="13" font-family="Roboto-Regular, Roboto"><tspan x="0" y="0">r</tspan></text><text transform="translate(276.333 370.366)" font-size="13" font-family="Roboto-Regular, Roboto"><tspan x="0" y="0">ticipación de la producción </tspan></text><text transform="translate(254.285 390.188)" font-size="13" font-family="Roboto-Regular, Roboto"><tspan x="0" y="0">agrícola que cumple con crite</tspan></text><text transform="translate(431.631 390.188)" font-size="13" font-family="Roboto-Regular, Roboto"><tspan x="0" y="0">-</tspan></text><text transform="translate(254.285 409.995)" font-size="13" font-family="Roboto-Regular, Roboto"><tspan x="0" y="0">rios de crecimiento verde</tspan></text><text transform="translate(453.198 370.28)" font-size="15" font-family="Roboto-Regular, Roboto"><tspan x="0" y="0">Se incorporará a meta </tspan></text><text transform="translate(453.198 390.16)" font-size="13" font-family="Roboto-Regular, Roboto"><tspan x="0" y="0">ODS 2.4</tspan></text><text transform="translate(605.319 370.337)" font-size="13" font-family="Roboto-Regular, Roboto"><tspan x="0" y="0">P</tspan></text><text transform="translate(614.161 370.337)" font-size="13" font-family="Roboto-Regular, Roboto"><tspan x="0" y="0">orcentaje</tspan></text><text transform="translate(757.44 370.337)" font-size="13" font-family="Roboto-Regular, Roboto"><tspan x="0" y="0">0,49</tspan></text><text transform="translate(757.44 390.16)" font-size="13" font-family="Roboto-Regular, Roboto"><tspan x="0" y="0">(2016)</tspan></text><text transform="translate(941.302 370.337)" font-size="13" font-family="Roboto-Regular, Roboto"><tspan x="0" y="0">10</tspan></text><text transform="translate(254.295 443.76)" font-size="13" font-family="Roboto-Regular, Roboto"><tspan x="0" y="0">Intensidad energética</tspan></text><text transform="translate(453.212 443.76)" font-size="13" font-family="Roboto-Regular, Roboto"><tspan x="0" y="0">Meta OD</tspan><tspan y="0" letter-spacing="-0.001em">S</tspan><tspan y="0" xml:space="preserve"> 7.3</tspan></text><text transform="translate(605.333 443.76)" font-size="13" font-family="Roboto-Regular, Roboto"><tspan x="0" y="0">T</tspan></text><text transform="translate(613.323 443.76)" font-size="13" font-family="Roboto-Regular, Roboto"><tspan x="0" y="0">erajulios / mil millo</tspan></text><text transform="translate(725.234 443.76)" font-size="13" font-family="Roboto-Regular, Roboto"><tspan x="0" y="0">-</tspan></text><text transform="translate(605.347 463.57)" font-size="13" font-family="Roboto-Regular, Roboto"><tspan x="0" y="0">nes de pesos 2005</tspan></text><text transform="translate(757.468 443.76)" font-size="13" font-family="Roboto-Regular, Roboto"><tspan x="0" y="0">3,7</tspan></text><text transform="translate(757.468 463.57)" font-size="13" font-family="Roboto-Regular, Roboto"><tspan x="0" y="0">(2015)</tspan></text><text transform="translate(941.33 443.76)" font-size="13" font-family="Roboto-Regular, Roboto"><tspan x="0" y="0">2,9</tspan></text><text transform="translate(254.324 497.377)" font-size="13" font-family="Roboto-Regular, Roboto"><tspan x="0" y="0">Número de vehículos eléctricos</tspan></text><text transform="translate(453.241 497.377)" font-size="13" font-family="Roboto-Regular, Roboto"><tspan x="0" y="0">Se incorporará a meta </tspan></text><text transform="translate(453.241 517.198)" font-size="13" font-family="Roboto-Regular, Roboto"><tspan x="0" y="0">ODS 8.4</tspan></text><text transform="translate(605.361 497.377)" font-size="13" font-family="Roboto-Regular, Roboto"><tspan x="0" y="0">Número de vehículos</tspan></text><text transform="translate(757.482 497.377)" font-size="13" font-family="Roboto-Regular, Roboto"><tspan x="0" y="0">1.695</tspan></text><text transform="translate(757.482 517.198)" font-size="13" font-family="Roboto-Regular, Roboto"><tspan x="0" y="0">(2016)</tspan></text><text transform="translate(941.344 497.377)" font-size="13" font-family="Roboto-Regular, Roboto"><tspan x="0" y="0">600</tspan><tspan y="0" letter-spacing="-0.001em">.</tspan><tspan y="0">000</tspan></text><text transform="translate(254.339 550.992)" font-size="13" font-family="Roboto-Regular, Roboto"><tspan x="0" y="0">Tasa de reciclaje y nueva utiliza-</tspan><tspan x="0" y="16">ción de residuos sólidos</tspan></text><text transform="translate(453.271 550.992)" font-size="13" font-family="Roboto-Regular, Roboto"><tspan x="0" y="0">Meta OD</tspan><tspan y="0" letter-spacing="-0.001em">S</tspan><tspan y="0" xml:space="preserve"> 11.2</tspan></text><text transform="translate(605.391 550.992)" font-size="13" font-family="Roboto-Regular, Roboto"><tspan x="0" y="0">P</tspan></text><text transform="translate(614.234 550.992)" font-size="13" font-family="Roboto-Regular, Roboto"><tspan x="0" y="0">orcentaje</tspan></text><text transform="translate(757.512 550.992)" font-size="13" font-family="Roboto-Regular, Roboto"><tspan x="0" y="0">8,6</tspan></text><text transform="translate(757.512 570.799)" font-size="13" font-family="Roboto-Regular, Roboto"><tspan x="0" y="0">(2015)</tspan></text><text transform="translate(941.375 550.992)" font-size="13" font-family="Roboto-Regular, Roboto"><tspan x="0" y="0">17,9</tspan></text><g clip-path="url(#a)"><path d="M198.921.25H0v-.5H198.921Z" transform="translate(245.726 617.682)" fill="#575756"/><path d="M152.116.25H0v-.5H152.116Z" transform="translate(444.647 617.682)" fill="#575756"/><path d="M152.116.25H0v-.5H152.116Z" transform="translate(596.763 617.682)" fill="#575756"/><path d="M183.856.25H0v-.5H183.856Z" transform="translate(748.879 617.682)" fill="#575756"/><path d="M96.973.25H0v-.5H96.973Z" transform="translate(932.734 617.682)" fill="#575756"/><path d="M198.921.25H0v-.5H198.921Z" transform="translate(245.726 691.115)" fill="#575756"/><path d="M152.116.25H0v-.5H152.116Z" transform="translate(444.647 691.115)" fill="#575756"/><path d="M152.116.25H0v-.5H152.116Z" transform="translate(596.763 691.115)" fill="#575756"/><path d="M183.856.25H0v-.5H183.856Z" transform="translate(748.879 691.115)" fill="#575756"/><path d="M96.973.25H0v-.5H96.973Z" transform="translate(932.734 691.115)" fill="#575756"/><path d="M198.921.25H0v-.5H198.921Z" transform="translate(245.726 784.362)" fill="#575756"/><path d="M152.116.25H0v-.5H152.116Z" transform="translate(444.647 784.362)" fill="#575756"/><path d="M152.116.25H0v-.5H152.116Z" transform="translate(596.763 784.362)" fill="#575756"/><path d="M183.856.25H0v-.5H183.856Z" transform="translate(748.879 784.362)" fill="#575756"/><path d="M96.973.25H0v-.5H96.973Z" transform="translate(932.734 784.362)" fill="#575756"/><path d="M245.726.25H0v-.5H245.726Z" transform="translate(0 857.795)" fill="#575756"/><path d="M198.921.25H0v-.5H198.921Z" transform="translate(245.726 857.795)" fill="#575756"/><path d="M152.116.25H0v-.5H152.116Z" transform="translate(444.647 857.795)" fill="#575756"/><path d="M152.116.25H0v-.5H152.116Z" transform="translate(596.763 857.795)" fill="#575756"/><path d="M183.856.25H0v-.5H183.856Z" transform="translate(748.879 857.795)" fill="#575756"/><path d="M96.973.25H0v-.5H96.973Z" transform="translate(932.734 857.795)" fill="#575756"/><path d="M245.726.25H0v-.5H245.726Z" transform="translate(0 617.682)" fill="#575756"/><path d="M245.726.25H0v-.5H245.726Z" transform="translate(0 784.362)" fill="#575756"/></g><text transform="translate(8.256 605.532)" font-size="13" font-family="Roboto-Regular, Roboto"><tspan x="0" y="0">Objetivo</tspan></text><text transform="translate(253.984 605.532)" font-size="13" font-family="Roboto-Regular, Roboto"><tspan x="0" y="0">Nombre del indicador</tspan></text><text transform="translate(452.886 605.532)" font-size="13" font-family="Roboto-Regular, Roboto"><tspan x="0" y="0">Meta ODS</tspan></text><text transform="translate(605.006 605.532)" font-size="13" font-family="Roboto-Regular, Roboto"><tspan x="0" y="0">Unidad de medida</tspan></text><text transform="translate(757.127 605.532)" font-size="13" font-family="Roboto-Regular, Roboto"><tspan x="0" y="0">Línea base</tspan></text><text transform="translate(940.99 605.532)" font-size="13" font-family="Roboto-Regular, Roboto"><tspan x="0" y="0">Meta 2030</tspan></text><text transform="translate(8.256 639.325)" font-size="13" font-family="Roboto-Regular, Roboto"><tspan x="0" y="0">F</tspan></text><text transform="translate(15.812 639.325)" font-size="13" font-family="Roboto-Regular, Roboto"><tspan x="0" y="0">o</tspan></text><text transform="translate(24.047 639.325)" font-size="13" font-family="Roboto-Regular, Roboto"><tspan x="0" y="0">r</tspan></text><text transform="translate(29.407 639.325)" font-size="13" font-family="Roboto-Regular, Roboto"><tspan x="0" y="0">talecer los me</tspan></text><text transform="translate(119.923 639.325)" font-size="13" font-family="Roboto-Regular, Roboto"><tspan x="0" y="0">c</tspan></text><text transform="translate(127.363 639.325)" font-size="13" font-family="Roboto-Regular, Roboto"><tspan x="0" y="0">anismos y los </tspan></text><text transform="translate(8.256 659.134)" font-size="13" font-family="Roboto-Regular, Roboto"><tspan x="0" y="0">instrumentos para optimizar el uso de </tspan></text><text transform="translate(8.256 678.942)" font-size="13" font-family="Roboto-Regular, Roboto"><tspan x="0" y="0">los recursos naturales y energía en la </tspan></text><text transform="translate(8.256 698.749)" font-size="13" font-family="Roboto-Regular, Roboto"><tspan x="0" y="0">producción y consumo</tspan></text><text transform="translate(253.984 639.311)" font-size="13" font-family="Roboto-Regular, Roboto"><tspan x="0" y="0">P</tspan></text><text transform="translate(262.825 639.311)" font-size="13" font-family="Roboto-Regular, Roboto"><tspan x="0" y="0">orcentaje de residuos </tspan></text><text transform="translate(253.984 659.12)" font-size="13" font-family="Roboto-Regular, Roboto"><tspan x="0" y="0">sólidos efectivamente apro</tspan></text><text transform="translate(418.674 659.12)" font-size="13" font-family="Roboto-Regular, Roboto"><tspan x="0" y="0">-</tspan></text><text transform="translate(253.984 678.928)" font-size="13" font-family="Roboto-Regular, Roboto"><tspan x="0" y="0">vechados</tspan></text><text transform="translate(452.901 639.297)" font-size="13" font-family="Roboto-Regular, Roboto"><tspan x="0" y="0">Meta OD</tspan><tspan y="0" letter-spacing="-0.001em">S</tspan><tspan y="0" xml:space="preserve"> 8.4</tspan></text><text transform="translate(605.02 639.297)" font-size="13" font-family="Roboto-Regular, Roboto"><tspan x="0" y="0">P</tspan></text><text transform="translate(613.863 639.297)" font-size="13" font-family="Roboto-Regular, Roboto"><tspan x="0" y="0">orcentaje</tspan></text><text transform="translate(757.141 639.297)" font-size="13" font-family="Roboto-Regular, Roboto"><tspan x="0" y="0">17</tspan></text><text transform="translate(757.141 659.104)" font-size="13" font-family="Roboto-Regular, Roboto"><tspan x="0" y="0">(2015)</tspan></text><text transform="translate(941.004 639.297)" font-size="13" font-family="Roboto-Regular, Roboto"><tspan x="0" y="0">30</tspan></text><text transform="translate(253.998 712.721)" font-size="13" font-family="Roboto-Regular, Roboto"><tspan x="0" y="0">Reducción de emisiones </tspan></text><text transform="translate(253.998 732.528)" font-size="13" font-family="Roboto-Regular, Roboto"><tspan x="0" y="0">totales de </tspan></text><text transform="translate(321.108 732.528)" font-size="13" font-family="Roboto-Regular, Roboto"><tspan x="0" y="0">g</tspan></text><text transform="translate(329.098 732.528)" font-size="13" font-family="Roboto-Regular, Roboto"><tspan x="0" y="0">ases efecto inver</tspan></text><text transform="translate(427.227 732.528)" font-size="13" font-family="Roboto-Regular, Roboto"><tspan x="0" y="0">-</tspan></text><text transform="translate(253.998 752.338)" font-size="13" font-family="Roboto-Regular, Roboto"><tspan x="0" y="0">nadero respecto a proyección </tspan></text><text transform="translate(253.998 772.145)" font-size="13" font-family="Roboto-Regular, Roboto"><tspan x="0" y="0">a 2030</tspan></text><text transform="translate(452.915 712.707)" font-size="13" font-family="Roboto-Regular, Roboto"><tspan x="0" y="0">Meta ODS</tspan><tspan y="0" letter-spacing="-0.001em"> </tspan><tspan y="0">13.2</tspan></text><text transform="translate(605.035 712.707)" font-size="13" font-family="Roboto-Regular, Roboto"><tspan x="0" y="0">P</tspan></text><text transform="translate(613.877 712.707)" font-size="13" font-family="Roboto-Regular, Roboto"><tspan x="0" y="0">orcentaje</tspan></text><text transform="translate(757.155 712.707)" font-size="13" font-family="Roboto-Regular, Roboto"><tspan x="0" y="0">0</tspan></text><text transform="translate(757.155 732.514)" font-size="13" font-family="Roboto-Regular, Roboto"><tspan x="0" y="0">(2010)</tspan></text><text transform="translate(941.018 712.707)" font-size="13" font-family="Roboto-Regular, Roboto"><tspan x="0" y="0">20</tspan></text><text transform="translate(8.285 805.952)" font-size="13" font-family="Roboto-Regular, Roboto"><tspan x="0" y="0">F</tspan></text><text transform="translate(15.841 805.952)" font-size="13" font-family="Roboto-Regular, Roboto"><tspan x="0" y="0">o</tspan></text><text transform="translate(24.076 805.952)" font-size="13" font-family="Roboto-Regular, Roboto"><tspan x="0" y="0">r</tspan></text><text transform="translate(29.437 805.952)" font-size="13" font-family="Roboto-Regular, Roboto"><tspan x="0" y="0">talecer </tspan></text><text transform="translate(76.854 805.952)" font-size="13" font-family="Roboto-Regular, Roboto"><tspan x="0" y="0">c</tspan></text><text transform="translate(84.294 805.952)" font-size="13" font-family="Roboto-Regular, Roboto"><tspan x="0" y="0">apacidades</tspan></text><text transform="translate(254.012 805.952)" font-size="13" font-family="Roboto-Regular, Roboto"><tspan x="0" y="0">Inversión pública en I+D de </tspan></text><text transform="translate(254.012 825.76)" font-size="13" font-family="Roboto-Regular, Roboto"><tspan x="0" y="0">impo</tspan></text><text transform="translate(286.521 825.76)" font-size="13" font-family="Roboto-Regular, Roboto"><tspan x="0" y="0">r</tspan></text><text transform="translate(291.88 825.76)" font-size="13" font-family="Roboto-Regular, Roboto"><tspan x="0" y="0">tancia para el creci</tspan></text><text transform="translate(403.186 825.76)" font-size="13" font-family="Roboto-Regular, Roboto"><tspan x="0" y="0">-</tspan></text><text transform="translate(254.012 845.569)" font-size="13" font-family="Roboto-Regular, Roboto"><tspan x="0" y="0">miento</tspan></text><text transform="translate(452.929 805.938)" font-size="13" font-family="Roboto-Regular, Roboto"><tspan x="0" y="0">Se incorporará a meta </tspan></text><text transform="translate(452.929 825.745)" font-size="13" font-family="Roboto-Regular, Roboto"><tspan x="0" y="0">ODS 9.5</tspan></text><text transform="translate(605.051 805.938)" font-size="13" font-family="Roboto-Regular, Roboto"><tspan x="0" y="0">P</tspan></text><text transform="translate(613.891 805.938)" font-size="13" font-family="Roboto-Regular, Roboto"><tspan x="0" y="0">orcentaje</tspan></text><text transform="translate(757.169 805.938)" font-size="13" font-family="Roboto-Regular, Roboto"><tspan x="0" y="0">0,02</tspan></text><text transform="translate(757.169 825.745)" font-size="13" font-family="Roboto-Regular, Roboto"><tspan x="0" y="0">(2016)</tspan></text><text transform="translate(941.032 805.938)" font-size="13" font-family="Roboto-Regular, Roboto"><tspan x="0" y="0">0,08</tspan></text><g clip-path="url(#a)"><text transform="translate(911.1 888.461)" fill="#575756" font-size="13" font-family="Roboto-Regular, Roboto"><tspan x="0" y="0">F</tspan></text><text transform="translate(919.8 888.461)" fill="#575756" font-size="13" font-family="Roboto-Regular, Roboto"><tspan x="0" y="0">u</tspan></text><text transform="translate(929.204 888.461)" fill="#575756" font-size="13" font-family="Roboto-Regular, Roboto"><tspan x="0" y="0">e</tspan></text><text transform="translate(938.293 888.461)" fill="#575756" font-size="13" font-family="Roboto-Regular, Roboto"><tspan x="0" y="0">n</tspan></text><text transform="translate(947.712 888.461)" fill="#575756" font-size="13" font-family="Roboto-Regular, Roboto"><tspan x="0" y="0">t</tspan></text><text transform="translate(953.781 888.461)" fill="#575756" font-size="13" font-family="Roboto-Regular, Roboto"><tspan x="0" y="0">e</tspan></text><text transform="translate(962.883 888.461)" fill="#575756" font-size="13" font-family="Roboto-Regular, Roboto"><tspan x="0" y="0"> </tspan></text><text transform="translate(967.896 888.461)" fill="#575756" font-size="13" font-family="Roboto-Regular, Roboto"><tspan x="0" y="0">:</tspan></text><text transform="translate(972.836 888.461)" fill="#575756" font-size="13" font-family="Roboto-Regular, Roboto"><tspan x="0" y="0" letter-spacing="0.098em"> </tspan><tspan y="0">D</tspan></text><text transform="translate(988.743 888.461)" fill="#575756" font-size="13" font-family="Roboto-Regular, Roboto"><tspan x="0" y="0">N</tspan></text><text transform="translate(1000.49 888.461)" fill="#575756" font-size="13" font-family="Roboto-Regular, Roboto"><tspan x="0" y="0">P</tspan></text></g></svg>