<svg xmlns="http://www.w3.org/2000/svg" xmlns:xlink="http://www.w3.org/1999/xlink" width="550" height="342.832" viewBox="0 0 550 342.832">
  <defs>
    <clipPath id="clip-path">
      <rect id="Rectángulo_338219" data-name="Rectángulo 338219" width="550" height="342.832" fill="none"/>
    </clipPath>
  </defs>
  <g id="Grupo_970709" data-name="Grupo 970709" transform="translate(0 -0.002)">
    <g id="Grupo_970717" data-name="Grupo 970717" transform="translate(0 0.002)">
      <g id="Grupo_970716" data-name="Grupo 970716" clip-path="url(#clip-path)">
        <path id="Trazado_661138" data-name="Trazado 661138" d="M576.746,16.888a8.444,8.444,0,1,1,8.444-8.444,8.444,8.444,0,0,1-8.444,8.444M218.2,219.344H173.083a44.147,44.147,0,0,0,0,88.295H554.564a71.488,71.488,0,1,0,0-142.976,30.226,30.226,0,0,1,0-60.453h36.38a31.426,31.426,0,0,0,0-62.853h-46a12.234,12.234,0,0,1,0-24.469h8.111a8.444,8.444,0,0,0,0-16.887H499.84c-11.2,0-12.453,13.238-40.759,13.238H393.443a11.018,11.018,0,1,0,0,22.036h10.582a16.013,16.013,0,0,1,15.965,15.964h0a16.014,16.014,0,0,1-15.965,15.965H372.178c-43,0-49.074,11.237-56.6,33.588s-46.646,24.153-46.646,24.153H215.446a24.058,24.058,0,1,0,0,48.116H218.2a23.141,23.141,0,0,1,0,46.282" transform="translate(-94.311 -0.001)" fill="#eaeff8" fill-rule="evenodd"/>
        <path id="Trazado_661139" data-name="Trazado 661139" d="M327.753,1158.595c147.361,0,266.818,7.095,266.818,15.851S475.113,1190.3,327.753,1190.3s-266.819-7.1-266.819-15.852,119.458-15.851,266.819-15.851" transform="translate(-44.571 -847.465)" fill="#d2dfee" fill-rule="evenodd"/>
        <path id="Trazado_661140" data-name="Trazado 661140" d="M687.595,254.525,708.5,313.067a2.112,2.112,0,0,1,.116.532l8.195,93.348L755.1,516.786a2.12,2.12,0,0,1-3.772,1.863L708.98,457.482H662.205l-42.37,61.206a2.122,2.122,0,0,1-3.734-1.946l38.271-109.8,8.2-93.348a2.047,2.047,0,0,1,.133-.588l20.889-58.486a2.126,2.126,0,0,1,4,0m16.812,59.712L685.593,261.56l-18.814,52.678-8.192,93.319h0a2.207,2.207,0,0,1-.111.514l-33.246,95.38,34.032-49.157a2.124,2.124,0,0,1,1.843-1.064h48.983v.008a2.121,2.121,0,0,1,1.745.915l34.131,49.3-33.19-95.218a2.088,2.088,0,0,1-.172-.675Z" transform="translate(-450.557 -185.142)" fill="#61a0e0" fill-rule="evenodd"/>
        <path id="Trazado_661141" data-name="Trazado 661141" d="M705.978,766.456h77.179l-38.588-24.7Zm84.437,4.253h-91.7V770.7a2.122,2.122,0,0,1-1.147-3.908l43.061-27.558-26.249-16.8a2.1,2.1,0,0,1-.7-.65,2.123,2.123,0,0,1,.575-2.947l26.514-17.909-23.256-15.708a2.124,2.124,0,0,1,1.19-3.885v0h51.727a2.127,2.127,0,0,1,1.1,3.946l-23.171,15.65,26.431,17.851a2.126,2.126,0,0,1-.078,3.681L748.5,739.239l42.935,27.482a2.125,2.125,0,0,1-1.024,3.989M722.7,722.724l21.865,14,21.864-14Zm-.315-4.251h44.357l-22.177-14.981Zm3.26-32.882,18.92,12.775,18.919-12.775Z" transform="translate(-509.533 -498.369)" fill="#61a0e0" fill-rule="evenodd"/>
        <path id="Trazado_661142" data-name="Trazado 661142" d="M551.346,583.457H722.192a2.128,2.128,0,0,1,.686,4.141l-61.721,26.222a2.124,2.124,0,0,1-.832.171V614H613.213a2.094,2.094,0,0,1-.971-.237l-61.728-26.224a2.122,2.122,0,0,1,.832-4.075Zm160.416,4.255H561.776l51.858,22.029H659.9Z" transform="translate(-401.733 -426.775)" fill="#61a0e0" fill-rule="evenodd"/>
        <path id="Trazado_661143" data-name="Trazado 661143" d="M551.342,373.233H722.188a2.127,2.127,0,0,1,.7,4.135l-64.421,26.246a2.115,2.115,0,0,1-.8.155v0H615.859a2.1,2.1,0,0,1-.9-.2l-64.416-26.242a2.125,2.125,0,0,1,.8-4.094Zm160,4.253H562.191l54.078,22.032h40.993Z" transform="translate(-401.73 -273.005)" fill="#61a0e0" fill-rule="evenodd"/>
        <path id="Trazado_661144" data-name="Trazado 661144" d="M774.731,501.655l20.972-14.23L777.379,474.99l-5.716-3.879H827.29l-5.718,3.879-18.325,12.435,20.972,14.23-2.375,3.506-22.369-15.178-22.369,15.178Zm24.744-16.79,14-9.5h-28Z" transform="translate(-564.44 -344.599)" fill="#61a0e0" fill-rule="evenodd"/>
        <path id="Trazado_661145" data-name="Trazado 661145" d="M717.9,507h8.661v5.076H717.9Zm-163.83,0h8.66v5.076h-8.66Zm0,8.96h8.66v5.076h-8.66Zm163.83,0h8.661v5.076H717.9Z" transform="translate(-405.279 -370.847)" fill="#61a0e0" fill-rule="evenodd"/>
        <path id="Trazado_661146" data-name="Trazado 661146" d="M717.9,294.856h8.661v5.078H717.9Zm-163.83,0h8.66v5.078h-8.66Zm0,8.962h8.66v5.077h-8.66Zm163.83,0h8.661v5.077H717.9Z" transform="translate(-405.279 -215.676)" fill="#61a0e0" fill-rule="evenodd"/>
        <path id="Trazado_661147" data-name="Trazado 661147" d="M445.728,804.047h.267a3.5,3.5,0,0,1,3.485,3.484v6.7h-7.5V807.8a3.762,3.762,0,0,1,3.752-3.752" transform="translate(-323.287 -588.128)" fill="#8bbae9" fill-rule="evenodd"/>
        <path id="Trazado_661148" data-name="Trazado 661148" d="M414.917,810.539c-.476.24-.95.479-1.414.719a3.75,3.75,0,0,0-1.392,2.912V820.6c3.26-1.71,5.955-2.955,7.5-3.716.189-.094.366-.094.519-.167v-6.432a3.745,3.745,0,0,1,1.306-2.839c-1.921.873-4.271,1.969-6.52,3.094" transform="translate(-301.442 -590.614)" fill="#c3dffa" fill-rule="evenodd"/>
        <path id="Trazado_661149" data-name="Trazado 661149" d="M412.111,845.851h7.244c.086-.043.171-.088.257-.134,3.893-2.017,6.888-3.275,8.023-3.749h-7.5c-1.281.156-6.646,3.164-8.02,3.883" transform="translate(-301.442 -615.866)" fill="#61a0e0" fill-rule="evenodd"/>
        <path id="Trazado_661150" data-name="Trazado 661150" d="M434.175,847.188c1,0,1.8.363,1.8.809,0,28.433-.169,57.041-.169,85.542h-3.333c0-28.508-.1-57.067-.1-85.542,0-.446.807-.809,1.8-.809" transform="translate(-316.262 -619.684)" fill="#8bbae9" fill-rule="evenodd"/>
        <path id="Trazado_661151" data-name="Trazado 661151" d="M434.175,847.188a3.733,3.733,0,0,1,.456.028c-.774.091-1.344.406-1.344.781,0,28.475.1,57.034.1,85.542h-.913c0-28.508-.1-57.067-.1-85.542,0-.446.807-.809,1.8-.809" transform="translate(-316.262 -619.684)" fill="#61a0e0" fill-rule="evenodd"/>
        <path id="Trazado_661152" data-name="Trazado 661152" d="M292.046,821.918,286,823.6l-3.684,4.866-48.943,3.966-2.09-1.182,60.967-11.679Z" transform="translate(-169.175 -599.486)" fill="#a4d0fc" fill-rule="evenodd"/>
        <path id="Trazado_661153" data-name="Trazado 661153" d="M455.951,822.515l3.974,4.566,5.761,1.192,23.72,40.986-.161,2.307-35.419-48.257Z" transform="translate(-331.955 -601.637)" fill="#a4d0fc" fill-rule="evenodd"/>
        <path id="Trazado_661154" data-name="Trazado 661154" d="M454.821,681.405l2.148-5.547-1.606-5.552L480.1,630.919l2.08-.917-25.694,52.882Z" transform="translate(-332.683 -460.822)" fill="#a4d0fc" fill-rule="evenodd"/>
        <path id="Trazado_661155" data-name="Trazado 661155" d="M290.5,678.656v0a3.117,3.117,0,0,1,.918.595l24.013-49.422-1.46.642-24.646,39.245,1.578,5.456-.007.144-1.21,3.129a3.037,3.037,0,0,1,.815.214m-3.474,4.831-3.666,1.021-3.635,4.808-.061.078-.1.01-48.945,3.964-.131-.028-2.088-1.18.066-.416L286.38,680.65a3.424,3.424,0,0,1,.124-.353,3.048,3.048,0,0,1,2.71-1.876l1.238-3.2-1.586-5.479-.028-.1.053-.086,24.736-39.387.1-.086,2.083-.915.292.3L291.74,679.607a3,3,0,0,1,.408.706,3.051,3.051,0,0,1,0,2.337v0l-.025.055,2.373,2.728,5.688,1.175.1.02.05.088,23.72,40.986.03.128-.164,2.307-.4.119-33.6-45.786a3.017,3.017,0,0,1-1.762-.179,3.054,3.054,0,0,1-1.122-.807m-3.858.61,3.57-1a3.243,3.243,0,0,1-.24-.464,3.015,3.015,0,0,1-.209-1.513l-57.137,10.945,1.5.847,48.776-3.951,3.623-4.785Zm11.033,1.692-2.309-2.658a3.072,3.072,0,0,1-1.407,1.17c-.035.015-.076.03-.114.043l33.14,45.158.116-1.634L299.99,687.032l-5.663-1.172Z" transform="translate(-167.066 -460.213)" fill="#61a0e0" fill-rule="evenodd"/>
        <path id="Trazado_661156" data-name="Trazado 661156" d="M440.318,687.365l23.7,40.948-.1,1.884.408.555.161-2.307-23.72-40.985Zm-20.142,2.441,3.656-4.828-.5.139-3.573,4.725Zm14.709-3.674-2.4-2.761a2.829,2.829,0,0,0,.089-2.347,2.873,2.873,0,0,0-.464-.762L456.529,630l-.539.237-24.166,49.736-.116.24a3.047,3.047,0,0,1,.484,2.819,2.954,2.954,0,0,1-.106.283l.26.3,2.113,2.428Z" transform="translate(-307.033 -460.821)" fill="#1e77d1" fill-rule="evenodd"/>
        <path id="Trazado_661157" data-name="Trazado 661157" d="M338.9,738.945h.318a4.149,4.149,0,0,1,4.14,4.14v7.967h-8.92V743.4a4.473,4.473,0,0,1,4.463-4.458" transform="translate(-244.628 -540.509)" fill="#8bbae9" fill-rule="evenodd"/>
        <path id="Trazado_661158" data-name="Trazado 661158" d="M302.257,746.658c-.567.287-1.132.57-1.682.857a4.452,4.452,0,0,0-1.657,3.462v7.647c3.878-2.035,7.082-3.515,8.92-4.422.225-.111.434-.106.618-.2v-7.649a4.449,4.449,0,0,1,1.553-3.374c-2.284,1.039-5.078,2.34-7.753,3.676" transform="translate(-218.647 -543.461)" fill="#c3dffa" fill-rule="evenodd"/>
        <path id="Trazado_661159" data-name="Trazado 661159" d="M298.92,788.649h8.615c.1-.055.207-.106.307-.159,4.629-2.4,8.192-3.9,9.535-4.46h-8.92c-1.523.187-7.9,3.762-9.538,4.619" transform="translate(-218.648 -573.486)" fill="#61a0e0" fill-rule="evenodd"/>
        <path id="Trazado_661160" data-name="Trazado 661160" d="M325.164,790.246c1.185,0,2.143.429,2.143.961,0,33.813-.2,67.835-.2,101.726h-3.966c0-33.9-.121-67.862-.121-101.726,0-.532.958-.961,2.143-.961" transform="translate(-236.277 -578.033)" fill="#8bbae9" fill-rule="evenodd"/>
        <path id="Trazado_661161" data-name="Trazado 661161" d="M325.164,790.246a4.783,4.783,0,0,1,.545.03c-.923.109-1.6.484-1.6.93,0,33.863.121,67.825.121,101.726h-1.087c0-33.9-.121-67.862-.121-101.726,0-.532.958-.961,2.143-.961" transform="translate(-236.277 -578.033)" fill="#61a0e0" fill-rule="evenodd"/>
        <path id="Trazado_661162" data-name="Trazado 661162" d="M156.141,760.19l-7.193,2-4.377,5.789L86.363,772.7l-2.483-1.4,72.5-13.89Z" transform="translate(-61.354 -554.011)" fill="#a4d0fc" fill-rule="evenodd"/>
        <path id="Trazado_661163" data-name="Trazado 661163" d="M351.066,760.9l4.725,5.431,6.853,1.417,28.208,48.741-.194,2.746-42.118-57.392Z" transform="translate(-254.942 -556.565)" fill="#a4d0fc" fill-rule="evenodd"/>
        <path id="Trazado_661164" data-name="Trazado 661164" d="M349.713,593.086l2.554-6.593-1.911-6.6,29.418-46.84,2.474-1.089-30.555,62.888Z" transform="translate(-255.801 -389.108)" fill="#a4d0fc" fill-rule="evenodd"/>
        <path id="Trazado_661165" data-name="Trazado 661165" d="M154.3,589.821v0a3.649,3.649,0,0,1,1.089.706l28.558-58.771-1.735.764L152.9,579.188l1.876,6.485-.005.171-1.442,3.722a3.632,3.632,0,0,1,.968.255m-4.132,5.746-4.357,1.215-4.324,5.716-.071.1-.118.01L83.09,607.316l-.154-.03-2.483-1.407.081-.494L149.4,592.193a3.416,3.416,0,0,1,.146-.418,3.638,3.638,0,0,1,3.22-2.234l1.475-3.8-1.886-6.515-.033-.116.063-.1,29.416-46.84.118-.1,2.476-1.088.345.359-28.967,59.619a3.557,3.557,0,0,1,.484.837,3.625,3.625,0,0,1-.005,2.781l0,0-.028.066,2.821,3.247,6.765,1.4.116.025.06.1L194.2,648.15l.035.151-.192,2.748-.481.139L153.6,596.741a3.65,3.65,0,0,1-2.1-.214v0a3.6,3.6,0,0,1-1.336-.958m-4.586.726,4.246-1.185a3.705,3.705,0,0,1-.285-.552,3.609,3.609,0,0,1-.249-1.8L81.345,605.773l1.785,1.009,58-4.7,4.306-5.693Zm13.123,2.009-2.751-3.159a3.6,3.6,0,0,1-1.669,1.389,1.422,1.422,0,0,1-.136.053l39.41,53.7.136-1.942-28.107-48.565-6.737-1.392Z" transform="translate(-58.848 -388.386)" fill="#61a0e0" fill-rule="evenodd"/>
        <path id="Trazado_661166" data-name="Trazado 661166" d="M332.471,600.176l28.18,48.7-.121,2.239.487.663.194-2.746L333,600.287Zm-23.952,2.9,4.344-5.744-.6.166-4.249,5.617Zm17.49-4.37-2.854-3.283a3.362,3.362,0,0,0,.1-2.791,3.307,3.307,0,0,0-.552-.908l29.042-59.769-.64.281L322.371,591.39l-.139.285a3.451,3.451,0,0,1,.29.436,3.612,3.612,0,0,1,.285,2.917c-.038.111-.081.225-.126.333l.307.358,2.514,2.89Z" transform="translate(-225.302 -389.108)" fill="#1e77d1" fill-rule="evenodd"/>
        <path id="Trazado_661167" data-name="Trazado 661167" d="M382.039,1193.986l8.4-.633v11.883h-8.4Z" transform="translate(-279.446 -872.89)" fill="#bbdbfa" fill-rule="evenodd"/>
        <rect id="Rectángulo_338209" data-name="Rectángulo 338209" width="20.006" height="2.113" transform="translate(96.789 332.346)" fill="#bbdbfa"/>
        <path id="Trazado_661168" data-name="Trazado 661168" d="M224,1000.057l76.157-1.7,20.017,46.4-76.38,4.957Z" transform="translate(-163.845 -730.258)" fill="#eff9fc" fill-rule="evenodd"/>
        <path id="Trazado_661169" data-name="Trazado 661169" d="M240.466,1011.346q5.533-.118,11.093-.245,1.237,3.135,2.489,6.245c.835,2.077,1.684,4.15,2.524,6.22q-5.578.189-11.136.386c-.835-2.1-1.674-4.193-2.491-6.288s-1.662-4.208-2.478-6.318m12.4,31.238c3.709-.2,7.428-.393,11.134-.585.824,2.04,1.659,4.079,2.476,6.111s1.644,4.064,2.483,6.084l-11.129.724c-.832-2.047-1.669-4.1-2.486-6.152s-1.656-4.119-2.478-6.182m58.826-3.1q5.563-.291,11.134-.588c.809,1.924,1.629,3.848,2.44,5.761s1.639,3.825,2.471,5.723l-11.136.726c-.832-1.924-1.652-3.865-2.466-5.8s-1.636-3.88-2.443-5.827m-14.709.777c.809,1.972,1.634,3.951,2.448,5.917s1.654,3.923,2.478,5.882l11.129-.724c-.832-1.931-1.654-3.878-2.468-5.819s-1.634-3.893-2.453-5.844c-3.706.2-7.425.391-11.134.587m-14.7.772q5.548-.288,11.124-.588c.812,1.982,1.644,3.966,2.458,5.94s1.646,3.944,2.483,5.905q-5.575.363-11.139.721-1.241-2.98-2.466-5.975c-.817-1.995-1.649-3.994-2.461-6m-14.709.774c.822,2.037,1.654,4.069,2.474,6.1s1.644,4.044,2.473,6.061q5.56-.363,11.136-.721c-.837-1.992-1.672-4-2.486-6s-1.652-4.014-2.463-6.026q-5.575.294-11.134.585m-20.914-14.757,11.144-.416c.832,2.06,1.669,4.125,2.488,6.177s1.654,4.11,2.483,6.152q-5.578.273-11.136.55c-.832-2.065-1.679-4.137-2.5-6.212s-1.657-4.163-2.481-6.25m58.854-2.208q5.567-.208,11.137-.421c.849,1.949,1.7,3.893,2.511,5.824s1.651,3.868,2.466,5.794q-5.575.28-11.147.552c-.817-1.944-1.644-3.9-2.461-5.862s-1.661-3.921-2.506-5.887m-14.719.554c.845,1.995,1.687,3.991,2.5,5.975s1.657,3.976,2.476,5.95l11.137-.55c-.817-1.959-1.649-3.926-2.463-5.885s-1.662-3.938-2.5-5.912q-5.578.2-11.151.421m-14.7.547,11.144-.416c.837,2,1.679,4.011,2.5,6s1.649,3.989,2.468,5.973q-5.578.268-11.139.552c-.83-2.007-1.661-4.026-2.478-6.041s-1.659-4.042-2.491-6.071m-14.711.555c.832,2.055,1.667,4.112,2.486,6.16s1.654,4.094,2.483,6.129q5.567-.275,11.147-.557c-.83-2.015-1.672-4.034-2.489-6.056s-1.661-4.059-2.491-6.094c-3.721.141-7.425.28-11.136.418m37.746-16.456q5.548-.129,11.1-.25,1.241,2.95,2.524,5.89c.855,1.954,1.747,3.908,2.625,5.854q-5.582.193-11.136.383c-.872-1.972-1.745-3.946-2.594-5.92s-1.692-3.969-2.519-5.958m-14.674.323c.822,2.019,1.664,4.039,2.508,6.053s1.717,4.009,2.572,6.011q5.567-.2,11.129-.383c-.862-1.982-1.737-3.961-2.584-5.945s-1.684-3.984-2.511-5.981l-11.114.245m-14.664.328,11.111-.244q1.233,3.041,2.5,6.064c.845,2.02,1.712,4.031,2.567,6.038q-5.571.2-11.129.389c-.847-2.035-1.719-4.069-2.551-6.1s-1.672-4.092-2.5-6.142m-14.661.325q1.237,3.127,2.481,6.233c.827,2.067,1.682,4.13,2.521,6.195,3.7-.129,7.425-.255,11.136-.386-.847-2.038-1.709-4.085-2.541-6.132s-1.674-4.1-2.5-6.154q-5.559.121-11.1.245" transform="translate(-175.891 -738.623)" fill="#c3dffa" fill-rule="evenodd"/>
        <path id="Trazado_661170" data-name="Trazado 661170" d="M320.171,1049.387l-76.379,4.957L224,1004.685v6.9l18.085,46.233,78.089-5.877Z" transform="translate(-163.845 -734.887)" fill="#c3dffa" fill-rule="evenodd"/>
        <path id="Trazado_661171" data-name="Trazado 661171" d="M209.163,1177.328l11.117-.837v15.725H209.163Z" transform="translate(-152.994 -860.556)" fill="#61a0e0" fill-rule="evenodd"/>
        <rect id="Rectángulo_338210" data-name="Rectángulo 338210" width="26.474" height="2.798" transform="translate(48.492 331.66)" fill="#61a0e0"/>
        <path id="Trazado_661172" data-name="Trazado 661172" d="M0,920.67l100.793-2.249,26.491,61.411L26.2,986.392Z" transform="translate(0 -671.788)" fill="#c3dffa" fill-rule="evenodd"/>
        <path id="Trazado_661173" data-name="Trazado 661173" d="M21.8,935.613q7.322-.159,14.681-.323,1.638,4.141,3.3,8.262c1.1,2.751,2.226,5.494,3.341,8.232q-7.39.253-14.742.512c-1.1-2.776-2.214-5.549-3.3-8.323s-2.2-5.567-3.278-8.36m16.413,41.344q7.363-.393,14.737-.776c1.089,2.7,2.193,5.4,3.275,8.088s2.176,5.378,3.285,8.053q-7.375.477-14.727.958c-1.1-2.711-2.211-5.431-3.29-8.141s-2.191-5.453-3.28-8.182m77.854-4.1q7.363-.378,14.737-.774c1.069,2.544,2.153,5.09,3.23,7.622s2.168,5.063,3.27,7.576q-7.375.48-14.737.961c-1.1-2.546-2.189-5.113-3.268-7.669s-2.163-5.138-3.232-7.715M96.6,973.881c1.071,2.612,2.161,5.229,3.24,7.831s2.189,5.194,3.283,7.786q7.36-.48,14.729-.958c-1.1-2.556-2.194-5.133-3.268-7.7s-2.163-5.153-3.247-7.735q-7.363.393-14.737.776M77.145,974.9q7.348-.382,14.727-.776c1.074,2.622,2.173,5.247,3.253,7.859S97.3,987.2,98.409,989.8q-7.375.484-14.739.955-1.645-3.945-3.268-7.907c-1.079-2.64-2.183-5.29-3.257-7.947m-19.467,1.026c1.089,2.693,2.193,5.383,3.275,8.066s2.176,5.355,3.272,8.023q7.36-.48,14.739-.953c-1.107-2.64-2.211-5.29-3.29-7.935s-2.184-5.312-3.257-7.977q-7.379.393-14.739.776M30,956.4q7.367-.28,14.75-.555c1.1,2.728,2.208,5.461,3.29,8.177s2.191,5.438,3.29,8.141q-7.382.363-14.742.729c-1.1-2.733-2.219-5.474-3.305-8.222S31.091,959.159,30,956.4m77.892-2.925q7.367-.276,14.737-.555c1.127,2.577,2.249,5.151,3.323,7.7s2.186,5.118,3.265,7.67l-14.749.728c-1.084-2.574-2.181-5.163-3.26-7.758s-2.2-5.189-3.315-7.791m-19.482.734c1.12,2.637,2.234,5.282,3.31,7.909s2.194,5.259,3.278,7.877q7.363-.367,14.739-.731c-1.084-2.592-2.184-5.194-3.26-7.786s-2.2-5.214-3.308-7.826q-7.386.272-14.76.557m-19.459.724q7.352-.272,14.749-.55c1.107,2.647,2.221,5.3,3.3,7.942s2.183,5.28,3.268,7.907q-7.383.355-14.739.731c-1.1-2.657-2.2-5.33-3.283-8s-2.2-5.347-3.3-8.035m-19.472.734c1.1,2.72,2.208,5.444,3.293,8.151s2.188,5.421,3.287,8.113q7.364-.367,14.75-.736c-1.1-2.667-2.214-5.34-3.293-8.018s-2.2-5.37-3.3-8.063l-14.739.552m49.956-21.779q7.34-.17,14.694-.33,1.641,3.9,3.338,7.8c1.132,2.584,2.312,5.169,3.474,7.745q-7.39.258-14.742.512c-1.152-2.614-2.3-5.226-3.431-7.839s-2.236-5.252-3.333-7.884m-19.419.426q1.633,4.012,3.318,8.01c1.112,2.652,2.274,5.307,3.4,7.957q7.371-.257,14.729-.509c-1.139-2.62-2.3-5.239-3.424-7.869s-2.224-5.269-3.323-7.912q-7.356.159-14.7.323m-19.406.433q7.341-.159,14.7-.323,1.63,4.024,3.305,8.025c1.12,2.675,2.264,5.332,3.4,7.992q-7.371.261-14.729.512c-1.122-2.693-2.272-5.383-3.376-8.078s-2.211-5.411-3.3-8.129m-19.406.434q1.634,4.138,3.283,8.247c1.094,2.736,2.226,5.464,3.338,8.2,4.9-.171,9.828-.338,14.739-.509-1.122-2.7-2.262-5.406-3.366-8.113s-2.211-5.423-3.3-8.146q-7.36.162-14.694.325" transform="translate(-15.946 -682.859)" fill="#61a0e0" fill-rule="evenodd"/>
        <path id="Trazado_661174" data-name="Trazado 661174" d="M127.284,985.957,26.2,992.517,0,926.8v9.13l23.937,61.189,103.347-7.781Z" transform="translate(0 -677.913)" fill="#8bbae9" fill-rule="evenodd"/>
        <path id="Trazado_661175" data-name="Trazado 661175" d="M1497.715,1062.255a286.112,286.112,0,0,0,71.937-3.742q-9.73-11.134-19.456-22.268c-4.074-5.239-8.764-10.32-13.113-15.99-1.868-2.431-4.821-7.14-7.249-8.151-.091.729-.663,5.232-2.173,6.207a.852.852,0,0,1-.486.164c-1.125-.025-1.886-2.849-2.118-3.58-.646-2.032-2.622-4.75-8.494-7.751a18.7,18.7,0,0,0-7.128,6.288c-1.324,1.911-2.206,2.2-2.766,2.113-1.051-.169-1.238-1.714-2.6-3.091a7.424,7.424,0,0,0-4.39-1.977c-.325.126-7.619,2.993-11.636,5.726a34.389,34.389,0,0,0-3.146,2.423,29.6,29.6,0,0,0-2.468,2.471c-4.773,3.586-9.674,7.478-14.656,11.7-8.242,6.991-15.6,13.958-22.132,20.669a286.178,286.178,0,0,0,52.079,8.789" transform="translate(-1057.424 -736.686)" fill="#a4d0fc" fill-rule="evenodd"/>
        <path id="Trazado_661176" data-name="Trazado 661176" d="M1062.54,997.053a457.13,457.13,0,0,0,114.869-5.98q-15.536-17.775-31.067-35.555c-6.5-8.366-14-16.474-20.942-25.53-2.975-3.883-7.695-11.4-11.575-13.02-.141,1.165-1.057,8.358-3.467,9.916a1.349,1.349,0,0,1-.782.26c-1.8-.04-3.005-4.553-3.373-5.718-1.036-3.242-4.2-7.589-13.572-12.374a30.23,30.23,0,0,0-7.218,5.1,29.771,29.771,0,0,0-4.16,4.937c-2.115,3.056-3.522,3.525-4.417,3.381-1.681-.27-1.979-2.738-4.16-4.939a11.859,11.859,0,0,0-7.009-3.156c-4.382-1.1-15,7.241-18.58,9.142a48.987,48.987,0,0,0-5.726,2.494c-.958.547-1.717,1.051-2.209,1.4q-12.238,11.289-24.431,22.608-17.707,16.455-35.341,33.006a456.244,456.244,0,0,0,83.159,14.036" transform="translate(-716.377 -664.934)" fill="#c3dffa" fill-rule="evenodd"/>
        <path id="Trazado_661177" data-name="Trazado 661177" d="M1263.563,833.865c.769.053,1.5-.842,1.739-1.135a5.054,5.054,0,0,0,.953-3.318c-.084-4.311,3.706-15.168,9.154-16.534a4.322,4.322,0,0,1,2.34,0c2.834.857,3.777,4.871,4.5,7.09,2.834,8.658,10.69,15.5,12.354,14.553,1.188-.678,1.314-3.371-.444-8.5-1.873-5.461-2.607-4.765-.471-9.19-3.184-3.933-5.63-7.251-7.243-9.5-1.674-2.34-4.5-6.389-14.532-22.558-1.77-2.851-3.212-5.194-4.15-6.719q-2.174,2.424-4.349,4.841c-.9,1.218-2.282,3.073-3.951,5.332-9.838,13.358-11.938,16.6-15.38,21.017a87.348,87.348,0,0,1-15.612,15.407c4.8-.464,15.932-11.258,20.657-9.026,3.724,1.757.6,7.458-.592,10.741-1.265,3.5-3.277,8.386-3.419,12.311a46.236,46.236,0,0,0,5.565-4.319c5.211-4.732,6.837-8.406,8.671-7.942,2.359.595,2.145,7.312,4.208,7.443" transform="translate(-898.578 -569.12)" fill="#fff" fill-rule="evenodd"/>
        <path id="Trazado_661178" data-name="Trazado 661178" d="M1273.3,916.962a6.9,6.9,0,0,1,1.815-3.956,5.1,5.1,0,0,1,1.472-.925,29.41,29.41,0,0,0-1.989-3.235,28.9,28.9,0,0,0-4.16-4.677,2.649,2.649,0,0,1,.519,1.82c-.212,1.508-2.168,2.67-3.764,2.763-2.645.161-3.82-2.143-8.514-6.086a10.966,10.966,0,0,0-6.369-2.638c-2.443-.08-4.3,1.568-5.935,3.2a9.914,9.914,0,0,0-2.982,5.809c-.4,2.392-.429,4.823-1.069,7.175a1.566,1.566,0,0,1-2.6.683c-.37-.393-.812-1.168-1.3-1.432a2.7,2.7,0,0,0-1.931.128,36.969,36.969,0,0,1-4.329,1.455,1.583,1.583,0,0,1-1.972-1.5c-.041-2.822.545-5.66.242-8.477a7.192,7.192,0,0,0-1.611-4.042c-1.064-1.21-2.466-1.036-3.926-.878-2.37.257-4.745.424-7.08.91-.265.058-.527.111-.794.171-3.8,3.744-16.986,15.526-18.438,18.2,5.744-.56,19.053-13.464,24.7-10.8,2.615,1.23,1.432,8.474-.7,12.848-1.331,2.718-2.746,3.646-3.86,7.186-.839,2.655-1.538,6.878-.232,7.536,1.132.572,3.462-1.848,6.654-5.166,3.369-3.5,4.415-5.41,7.851-8.446a41.906,41.906,0,0,1,3.29-2.634,24.856,24.856,0,0,1,2.372,3.82,25.538,25.538,0,0,1,2.5,8.3,21.646,21.646,0,0,0,1.47-2.99,15.215,15.215,0,0,0,1.139-3.966c-.1-5.007,4.145-22.767,9.515-23.478,1.473-.194,2.726.93,4.286,2.332,3.979,3.573,4.818,8.643,5.068,9.883.93,4.65,4.773,11.52,17.77,21.116-5.03-9.617-7.511-17.311-7.113-20.019" transform="translate(-876.713 -658.333)" fill="#fff" fill-rule="evenodd"/>
        <path id="Trazado_661179" data-name="Trazado 661179" d="M1232.343,1096.477c2.814-3.116,6.631-7.881,9.439-11,2.219-7.9,3.432-14.145,5.648-22.039q-7.228,10.654-8.5,9.987-1.656-.877,6.85-21.075a62.048,62.048,0,0,0-8.164,10.405c-3.709,5.94-4.591,9.611-7.38,15.148-2.06,4.092-4.482,10.067-10.211,16.328a25.864,25.864,0,0,1,6.656.532,35.9,35.9,0,0,1,5.663,1.712" transform="translate(-892.398 -769.754)" fill="#a4d0fc" fill-rule="evenodd"/>
        <path id="Trazado_661180" data-name="Trazado 661180" d="M1239.223,953.282a110.835,110.835,0,0,1-13.04,20.152c-3.421,4.185-8.234,9.417-7.9,9.747.408.4,7.559-7.574,9.485-6.324,2.378,1.546-4.871,16.081-4.084,16.464.406.2,2.781-3.449,9.22-15.279a96.625,96.625,0,0,0,6.321-24.761" transform="translate(-891.111 -697.287)" fill="#a4d0fc" fill-rule="evenodd"/>
        <path id="Trazado_661181" data-name="Trazado 661181" d="M1407.65,1145.759a58.47,58.47,0,0,1,18.045-3.689,60.617,60.617,0,0,1,32.794,8.3q-6.059-6.195-12.117-12.384a54.81,54.81,0,0,0-38.721,7.773" transform="translate(-1029.638 -831.811)" fill="#a4d0fc" fill-rule="evenodd"/>
        <path id="Trazado_661182" data-name="Trazado 661182" d="M1077.689,949.787c-4.437,3.984-7.344,7.017-8,7.7a90.009,90.009,0,0,0-12.445,15.609c-1.432,2.315-2.486,4.3-3.161,5.63q3.109,1.138,6.223,2.272a10.263,10.263,0,0,0-6.52,3.162,9.769,9.769,0,0,0-2.108,3.719l11.986,2.11-13.633,3.358q-4.591,3.46-9.187,6.913c-2.088-5.045-6.75-8.189-11.457-7.9a11.414,11.414,0,0,0-7.609,3.951c-.164-1.218-.325-2.436-.492-3.656q23.69-21.878,47.38-43.759c3.941-4.311,11.9-11.605,21.8-11.131.646.033,1.3.1,1.977.2a167.518,167.518,0,0,0-14.752,11.82" transform="translate(-747.027 -685.923)" fill="#a4d0fc" fill-rule="evenodd"/>
        <path id="Trazado_661183" data-name="Trazado 661183" d="M1388.516,914.98a12.489,12.489,0,0,1,6.654,2.634,12.912,12.912,0,0,1,3.621,5.4c2.04,4.745,4.478,8.038,9.351,14.623a58.023,58.023,0,0,0,9.351,9.878q.068-2.572.134-5.138a111.29,111.29,0,0,1-18.7-25.815,15.105,15.105,0,0,0-2.831-2.635,14.724,14.724,0,0,0-3.492-1.843,4.2,4.2,0,0,0-1.845.4,4.556,4.556,0,0,0-2.239,2.5" transform="translate(-1015.643 -667.152)" fill="#a4d0fc" fill-rule="evenodd"/>
        <path id="Trazado_661184" data-name="Trazado 661184" d="M1373.641,922.419c-.693.865-1.661,2.11-2.763,3.653-2.761,3.855-4.14,5.786-4.745,7.506-1.5,4.306.179,6.288-1.876,10.569a14.507,14.507,0,0,1-1.974,3.063c.045-.675.111-1.667.2-2.864.57-8,.867-12.052,1.482-14.026a19.533,19.533,0,0,1,5.925-8.792q1.88.442,3.754.89" transform="translate(-996.454 -674.061)" fill="#a4d0fc" fill-rule="evenodd"/>
        <path id="Trazado_661185" data-name="Trazado 661185" d="M1248.6,930.656c-2.947,8.512-3.512,10.614-3.361,10.673.227.083,1.4-4.652,5.237-8.2a17.88,17.88,0,0,1,8.792-4.248q-5.333.892-10.668,1.775" transform="translate(-910.824 -679.439)" fill="#fff" fill-rule="evenodd"/>
        <path id="Trazado_661186" data-name="Trazado 661186" d="M1209.256,828.322c6.623-7.269,11.709-13.4,15.08-17.586,6.845-8.5,9.551-12.631,15.839-19.857,5.446-6.253,10.241-10.993,13.337-13.928-3.635,4.438-6.848,8.741-9.682,12.844-10.9,15.773-13.073,23.9-22.719,31.612a47.9,47.9,0,0,1-11.855,6.916" transform="translate(-884.521 -568.308)" fill="#a4d0fc" fill-rule="evenodd"/>
        <path id="Trazado_661187" data-name="Trazado 661187" d="M1373.324,777.327c3.671,7.2,7.95,14.863,12.939,22.82,5.456,8.7,10.975,16.5,16.3,23.41q1.381-.295,2.766-.595-5.129-6.263-10.274-13.136a376.733,376.733,0,0,1-21.731-32.5" transform="translate(-1004.53 -568.583)" fill="#a4d0fc" fill-rule="evenodd"/>
        <path id="Trazado_661188" data-name="Trazado 661188" d="M1629.347,964.007c.464.03.9-.5,1.046-.683a3.028,3.028,0,0,0,.572-1.994c-.048-2.6,2.229-9.124,5.506-9.947a2.575,2.575,0,0,1,1.407,0c1.7.517,2.274,2.927,2.71,4.266,1.707,5.209,6.432,9.321,7.43,8.751.714-.409.792-2.027-.267-5.113-1.124-3.283-1.568-2.859-.282-5.524-1.916-2.368-3.386-4.362-4.354-5.711-1.011-1.412-2.716-3.845-8.746-13.572-1.061-1.717-1.931-3.124-2.494-4.042q-1.312,1.456-2.617,2.915c-.544.731-1.374,1.848-2.375,3.207-5.92,8.033-7.181,9.984-9.253,12.637a52.312,52.312,0,0,1-9.389,9.271c2.889-.28,9.583-6.77,12.428-5.428,2.239,1.056.358,4.488-.358,6.459-.762,2.1-1.974,5.045-2.057,7.4a27.117,27.117,0,0,0,3.346-2.594c3.139-2.846,4.115-5.055,5.216-4.778,1.417.358,1.291,4.4,2.531,4.478" transform="translate(-1176.363 -680.579)" fill="#fff" fill-rule="evenodd"/>
        <path id="Trazado_661189" data-name="Trazado 661189" d="M1635.194,1013.991a4.159,4.159,0,0,1,1.094-2.377,3,3,0,0,1,.883-.557,17.33,17.33,0,0,0-1.2-1.946,17.593,17.593,0,0,0-2.5-2.814,1.616,1.616,0,0,1,.313,1.1c-.126.908-1.306,1.606-2.264,1.664-1.594.093-2.3-1.288-5.123-3.664a6.592,6.592,0,0,0-3.83-1.586c-1.467-.048-2.584.943-3.57,1.924a6,6,0,0,0-1.795,3.495,43.628,43.628,0,0,1-.641,4.316.946.946,0,0,1-1.565.414c-.219-.237-.487-.7-.779-.867a1.643,1.643,0,0,0-1.165.083,23.219,23.219,0,0,1-2.6.875.954.954,0,0,1-1.185-.9c-.023-1.7.328-3.4.146-5.1a4.361,4.361,0,0,0-.971-2.43c-.638-.729-1.483-.623-2.363-.527-1.422.156-2.849.255-4.256.55-.159.033-.318.066-.479.1-2.284,2.251-10.216,9.339-11.091,10.95,3.454-.335,11.464-8.1,14.863-6.495,1.571.741.86,5.1-.426,7.727-.8,1.639-1.651,2.193-2.322,4.324-.5,1.6-.923,4.137-.136,4.531.681.343,2.08-1.109,4-3.106,2.027-2.107,2.655-3.255,4.722-5.083.8-.706,1.511-1.243,1.982-1.581a14.883,14.883,0,0,1,1.425,2.3,15.337,15.337,0,0,1,1.508,4.992,12.913,12.913,0,0,0,.883-1.8,8.946,8.946,0,0,0,.686-2.385c-.06-3.013,2.493-13.7,5.723-14.122.885-.118,1.641.56,2.579,1.4a10.557,10.557,0,0,1,3.048,5.94c.56,2.8,2.871,6.931,10.69,12.7-3.025-5.786-4.521-10.416-4.281-12.044" transform="translate(-1163.204 -734.243)" fill="#fff" fill-rule="evenodd"/>
        <path id="Trazado_661190" data-name="Trazado 661190" d="M1596.674,960.678c3.986-4.369,7.047-8.058,9.074-10.577,4.117-5.113,5.741-7.6,9.526-11.941,3.277-3.764,6.159-6.613,8.02-8.378-2.186,2.668-4.117,5.254-5.822,7.725-6.558,9.485-7.861,14.371-13.668,19.013a28.672,28.672,0,0,1-7.13,4.158" transform="translate(-1167.902 -680.098)" fill="#a4d0fc" fill-rule="evenodd"/>
        <path id="Trazado_661191" data-name="Trazado 661191" d="M1695.359,930c2.209,4.332,4.783,8.94,7.786,13.726,3.283,5.234,6.6,9.924,9.8,14.084.555-.118,1.11-.24,1.662-.358q-3.079-3.767-6.177-7.9A226.5,226.5,0,0,1,1695.359,930" transform="translate(-1240.086 -680.256)" fill="#a4d0fc" fill-rule="evenodd"/>
        <path id="Trazado_661192" data-name="Trazado 661192" d="M1639.25,1147.95q-6.573-7.488-6.916-7.211-.359.287,6.026,8.988-6.721.889-13.436,1.777a61.184,61.184,0,0,1,14.619,2.572,59.587,59.587,0,0,1,6.227,2.271q-3.264-4.2-6.52-8.4" transform="translate(-1188.565 -834.398)" fill="#a4d0fc" fill-rule="evenodd"/>
        <path id="Trazado_661193" data-name="Trazado 661193" d="M1380.686,895.4q3.85,14.027,7.7,28.057V897.576q-3.853-1.09-7.7-2.176" transform="translate(-1009.915 -654.949)" fill="#fff" fill-rule="evenodd"/>
        <rect id="Rectángulo_338211" data-name="Rectángulo 338211" width="111.786" height="80.388" transform="translate(249.908 253.486)" fill="#4f8ecc"/>
        <path id="Trazado_661194" data-name="Trazado 661194" d="M873.989,916.9h16.724l5.28,88.018h-28.46Z" transform="translate(-634.564 -670.675)" fill="#61a0e0" fill-rule="evenodd"/>
        <path id="Trazado_661195" data-name="Trazado 661195" d="M1297.89,916.9h16.726l5.28,88.018h-28.46Z" transform="translate(-944.632 -670.675)" fill="#61a0e0" fill-rule="evenodd"/>
        <path id="Trazado_661196" data-name="Trazado 661196" d="M997.4,1020.721a13.484,13.484,0,0,1,9.538,23.019l-.005,0a13.485,13.485,0,1,1-19.071-19.071h0l0-.005a13.452,13.452,0,0,1,9.533-3.948m7.576,5.91a10.72,10.72,0,0,0-15.153-.005l-.008.005a10.722,10.722,0,1,0,15.16,0" transform="translate(-719.688 -746.616)" fill="#61a0e0" fill-rule="evenodd"/>
        <path id="Trazado_661197" data-name="Trazado 661197" d="M976.161,1050.857c-7.357,11.7-7.914,23.533-7.6,38.253l-22.782.4c-.307-14.6,2.3-27.58,7.145-37.564a49.692,49.692,0,0,1,6-9.556,36.077,36.077,0,0,1,12.551-10.113,10.578,10.578,0,0,1,7.965,13.958,52.579,52.579,0,0,0-3.275,4.621" transform="translate(-691.78 -755.07)" fill="#a4d0fc" fill-rule="evenodd"/>
        <path id="Trazado_661198" data-name="Trazado 661198" d="M1105.553,1020.721a13.483,13.483,0,0,1,9.538,23.019l-.005,0a13.485,13.485,0,1,1-19.071-19.071h0l0-.005a13.457,13.457,0,0,1,9.533-3.948m7.579,5.91a10.722,10.722,0,0,0-15.155-.005l-.005.005a10.719,10.719,0,1,0,15.16,0" transform="translate(-798.801 -746.616)" fill="#61a0e0" fill-rule="evenodd"/>
        <path id="Trazado_661199" data-name="Trazado 661199" d="M1084.323,1050.857c-7.357,11.7-7.914,23.533-7.6,38.253l-22.782.4c-.308-14.6,2.3-27.58,7.148-37.564a49.575,49.575,0,0,1,6-9.556,36.1,36.1,0,0,1,12.551-10.113,10.572,10.572,0,0,1,7.965,13.958,52.391,52.391,0,0,0-3.273,4.621" transform="translate(-770.893 -755.07)" fill="#a4d0fc" fill-rule="evenodd"/>
        <path id="Trazado_661200" data-name="Trazado 661200" d="M1213.715,1020.721a13.483,13.483,0,0,1,9.538,23.019l-.005,0a13.486,13.486,0,1,1-19.073-19.071h.005l0-.005a13.449,13.449,0,0,1,9.533-3.948m7.577,5.91a10.723,10.723,0,0,0-15.156-.005l0,.005a10.719,10.719,0,1,0,15.16,0" transform="translate(-877.915 -746.616)" fill="#61a0e0" fill-rule="evenodd"/>
        <path id="Trazado_661201" data-name="Trazado 661201" d="M1192.487,1050.857c-7.357,11.7-7.914,23.533-7.6,38.253l-22.78.4c-.31-14.6,2.3-27.58,7.146-37.564a49.671,49.671,0,0,1,6-9.556,36.068,36.068,0,0,1,12.548-10.113,10.578,10.578,0,0,1,7.967,13.958,51.918,51.918,0,0,0-3.275,4.621" transform="translate(-850.012 -755.07)" fill="#a4d0fc" fill-rule="evenodd"/>
        <path id="Trazado_661202" data-name="Trazado 661202" d="M883.268,1223.572a21,21,0,0,1,2.214.111,6.474,6.474,0,0,1,4.864-1.946,6.747,6.747,0,0,1,4.468,1.548,6.547,6.547,0,0,1,4.518-1.659c2.847,0,5.2,1.558,5.648,3.6a5,5,0,0,1,1.961-.388,5.309,5.309,0,0,1,1.112.119,5.059,5.059,0,0,1,7.6-.726c1.019-1.858,3.487-3.167,6.371-3.167a8.648,8.648,0,0,1,3.825.857,8.521,8.521,0,0,1,4.14-1.021c2.884,0,5.353,1.308,6.371,3.164a5.059,5.059,0,0,1,7.594.729,5.165,5.165,0,0,1,1.114-.121,5.007,5.007,0,0,1,1.961.391c.444-2.039,2.8-3.6,5.645-3.6a6.527,6.527,0,0,1,4.518,1.659,6.737,6.737,0,0,1,4.435-1.548,7.89,7.89,0,0,1,5.5-2.035c2.885,0,5.356,1.311,6.374,3.167a5.061,5.061,0,0,1,7.594.726,5.307,5.307,0,0,1,1.112-.116,5,5,0,0,1,1.961.388c.444-2.04,2.8-3.6,5.648-3.6a6.544,6.544,0,0,1,4.518,1.659,6.752,6.752,0,0,1,4.47-1.548,6.475,6.475,0,0,1,4.861,1.944,21.716,21.716,0,0,1,2.214-.111c5.305,0,9.609,1.873,9.609,4.18a1.585,1.585,0,0,1-.023.27H874.095c1.221-1.7,4.866-2.93,9.173-2.93" transform="translate(-639.365 -892.043)" fill="#a4d0fc" fill-rule="evenodd"/>
        <path id="Trazado_661203" data-name="Trazado 661203" d="M971.5,1108.7a.278.278,0,0,1-.277-.277,65.634,65.634,0,0,1,14.7-42.249.278.278,0,0,1,.434.348,65.082,65.082,0,0,0-14.58,41.9.279.279,0,0,1-.277.28" transform="translate(-710.408 -779.786)" fill="#dfedfa"/>
        <path id="Trazado_661204" data-name="Trazado 661204" d="M993.517,1117.011a.317.317,0,0,1-.048-.005.277.277,0,0,1-.224-.323c.5-2.791,3.081-8.476,5.8-11.908a.277.277,0,1,1,.434.345c-2.622,3.313-5.209,8.991-5.686,11.661a.278.278,0,0,1-.272.229" transform="translate(-726.514 -808.021)" fill="#dfedfa"/>
        <path id="Trazado_661205" data-name="Trazado 661205" d="M999.751,1168.875a.278.278,0,0,1-.275-.234,43.793,43.793,0,0,1,1.77-19.341.273.273,0,0,1,.345-.186.279.279,0,0,1,.184.348,43.243,43.243,0,0,0-1.75,19.094.276.276,0,0,1-.232.315.126.126,0,0,1-.043.005" transform="translate(-730.769 -840.522)" fill="#dfedfa"/>
        <path id="Trazado_661206" data-name="Trazado 661206" d="M1076.334,1108.7a.278.278,0,0,1-.277-.277,65.628,65.628,0,0,1,14.7-42.249.278.278,0,0,1,.433.348,65.083,65.083,0,0,0-14.578,41.9.279.279,0,0,1-.277.28" transform="translate(-787.091 -779.786)" fill="#dfedfa"/>
        <path id="Trazado_661207" data-name="Trazado 661207" d="M1100.53,1116.62a.162.162,0,0,1-.048,0,.277.277,0,0,1-.224-.323c.522-2.94,2.627-10.5,5.118-14.628a.277.277,0,1,1,.474.287c-2.453,4.069-4.531,11.532-5.048,14.442a.278.278,0,0,1-.272.227" transform="translate(-804.79 -805.725)" fill="#dfedfa"/>
        <path id="Trazado_661208" data-name="Trazado 661208" d="M1105.1,1120.926a.278.278,0,0,1-.275-.234c-.772-4.9.031-15.294,8.23-36.962a.278.278,0,1,1,.519.2c-8.156,21.554-8.96,31.841-8.2,36.68a.276.276,0,0,1-.232.315.123.123,0,0,1-.043.005" transform="translate(-807.967 -792.574)" fill="#dfedfa"/>
        <path id="Trazado_661209" data-name="Trazado 661209" d="M1181.16,1108.7a.278.278,0,0,1-.277-.277,65.632,65.632,0,0,1,14.7-42.249.278.278,0,0,1,.434.348,65.084,65.084,0,0,0-14.581,41.9.279.279,0,0,1-.277.28" transform="translate(-863.767 -779.786)" fill="#dfedfa"/>
        <path id="Trazado_661210" data-name="Trazado 661210" d="M1197.986,1126.837a.145.145,0,0,1-.048-.005.276.276,0,0,1-.224-.323c.035-.2,3.774-20.1,7.287-21.814a.278.278,0,0,1,.371.128.275.275,0,0,1-.129.371c-2.652,1.3-6.046,16.151-6.984,21.416a.278.278,0,0,1-.272.227" transform="translate(-876.075 -808.02)" fill="#dfedfa"/>
        <path id="Trazado_661211" data-name="Trazado 661211" d="M1209.416,1168.875a.278.278,0,0,1-.275-.234,43.878,43.878,0,0,1,1.77-19.341.276.276,0,0,1,.346-.186.279.279,0,0,1,.184.348,43.3,43.3,0,0,0-1.75,19.094.277.277,0,0,1-.232.315.124.124,0,0,1-.043.005" transform="translate(-884.131 -840.522)" fill="#dfedfa"/>
        <path id="Trazado_661212" data-name="Trazado 661212" d="M683.794,982.866l3.4,30.3s-1.661,6.4-1.463,8.237c.2,1.808,3.7,25.7,3.7,25.7l-.159,1.314-.086,3.88,13.068.1a57.914,57.914,0,0,1-6.608-3.666,2.614,2.614,0,0,1-1.1-1.893c-1.034-7.355,1-31.9,1-31.9l1.6-31.967Z" transform="translate(-500.167 -718.927)" fill="#ffb27d" fill-rule="evenodd"/>
        <path id="Trazado_661213" data-name="Trazado 661213" d="M621.434,1003.662c-.731.181-1.858,26.189-2.466,27.348-3.85,7.307-4.763,29.519-4.763,29.519l-1.589,3.111.363,2.99s2.872,1.652,4.889.542l-.313-3-.237-4.014,9.707-27.676,5.31-28.226Z" transform="translate(-448.104 -734.138)" fill="#ffb27d" fill-rule="evenodd"/>
        <path id="Trazado_661214" data-name="Trazado 661214" d="M663.727,937.773l.464-17.941c.078-5.078-1.614-9.939-3.7-14.555l-4.4-7.392c-1.417.446-2.2-3.739-3.691-3.568-1.125.118-1.9.383-2.94.444-1.966.121-3.162,3.956-5.27,3.716-.01.121-.419,1.094-.449,1.18-1.011,2.713-4.483,5.125-5.857,13.168-1.561,9.14-1.553,24.852-1.356,25.924,14.905.653,18.455,1.17,27.2-.976" transform="translate(-465.528 -654.152)" fill="#4567c6" fill-rule="evenodd"/>
        <path id="Trazado_661215" data-name="Trazado 661215" d="M721.862,678.349s-.106.857-.172,1.145c-.07.33-.353,1.3-.353,1.3s-1.155,3.341-1.389,3.22-.361-.807-.366-1.039-.022-.507-.025-.739a.488.488,0,0,0-.456-.466c-.285-.025-.492.908-.487,1.236a36.822,36.822,0,0,0,.547,4.17c.053.353-3.01,5.738-3.91,7.67-1.566,3.116-3.333,6.235-3.5,6.566l-10.3,10.7,2.524,5.471s11.6-11.7,12.112-12.359c.245-.313,3.321-7.841,3.318-7.841,1.281-3.815,2.4-7.176,2.63-7.811,0,0,1.22-1.712,2.052-2.748a11.392,11.392,0,0,0,1.369-2.675,8.331,8.331,0,0,0,1.056-2.736c.28-1.374-.61-.214-.61-.214s-.978,2.448-1.154,2.327c-.136-.091.471-1.389.792-2.9.075-.383.161-.777.232-1.129.179-.928-.333-1.326-.686-.383a9.644,9.644,0,0,0-.4,1.3,7.806,7.806,0,0,1-.439,1.2,9.408,9.408,0,0,1-.472,1.235c-.03-.038-.182.063-.1-.353.091-.5.509-1.515.587-2.261.041-.426.189-1.313.189-1.313a8.492,8.492,0,0,0-.018-1.473c-.431-.151-.784.87-.761,1.453a6.335,6.335,0,0,0-.3,1.306s-.678,1.818-.933,1.717c-.219-.076.542-4.758.1-4.881-.371-.091-.665,1.306-.665,1.306" transform="translate(-513.078 -495.227)" fill="#ffb27d" fill-rule="evenodd"/>
        <path id="Trazado_661216" data-name="Trazado 661216" d="M693.879,782.374a45.157,45.157,0,0,1-4.221-5.348c.114.1-6.011,3.716-8.028,5.388-3.3,2.736-3.868,9.089-5.345,12.331-.908,2-1.041,3.533-.469,4.77.025.058,5.958-4.783,10.766-9.046a78.09,78.09,0,0,0,7.3-8.1" transform="translate(-494.081 -568.363)" fill="#f06a30" fill-rule="evenodd"/>
        <path id="Trazado_661217" data-name="Trazado 661217" d="M641.952,802.073c-.383-1.374-1.233-3.172-1.719-4.425-.822-2.11-1.069-4.077-1.8-4.922-.393-.456-5.426-.383-6.046-.444-.252-.038-1.26.035-2.234.1v-.013a69.7,69.7,0,0,0-7.064.854c-4.085,3.956-6.061,9.263-9.132,15.075,0,0,2.3,1.3,4.132,2.12.8.35,2.327.93,2.327.93s1.934-3.328,3.03-4.788l.509-1.1c.04-.025.222-.219.277-.1.081.206,3.527,18.476,3.527,18.476s9.619.89,12.08-.277c0,0,.451-12.228,1.356-15.809.333-1.326,1.362-3.474.751-5.68" transform="translate(-449.087 -579.515)" fill="#f57a44" fill-rule="evenodd"/>
        <path id="Trazado_661218" data-name="Trazado 661218" d="M650.957,719.746a39.1,39.1,0,0,0-.1,8.605c.262,1.969.381,3.568,1.868,4.622,0,0-2.975.918-4.178.287a2.886,2.886,0,0,0,.509.514s-3.368.817-4.987.045-4.881-24.209,4.944-24.194c0,0,9.255-2.728,10.4,6.666,2.4,10.947,3.772,14.094,4.9,15.854-.935.824-1.379.676-1.876-.136-.436-.716-.777-1.586-.9-1.8a22.465,22.465,0,0,0,1.064,2.715s-3.9.348-5.776-.55-5.937-10.63-5.862-12.632" transform="translate(-469.761 -518.794)" fill="#284191" fill-rule="evenodd"/>
        <path id="Trazado_661219" data-name="Trazado 661219" d="M672.039,767.549a29.257,29.257,0,0,1,.537,5.433c-.157,1.689.6,7.115,3.994,7.125s1.086-5.63.769-7.282-.751-7.5-.751-7.5Z" transform="translate(-491.569 -559.807)" fill="#ffb27d" fill-rule="evenodd"/>
        <path id="Trazado_661220" data-name="Trazado 661220" d="M676.471,765.584a15,15,0,0,0-.308-2.509l-4.452,2.314s.159.88.32,1.992a4.173,4.173,0,0,0,4.44-1.8" transform="translate(-491.329 -558.159)" fill="#f08261" fill-rule="evenodd"/>
        <path id="Trazado_661221" data-name="Trazado 661221" d="M654.927,723.49a20.6,20.6,0,0,1-3.878-5.239c-.8-1.838-1.545-9.19,5.854-9.894a9.956,9.956,0,0,1,4.4.55c1.805.673,4.594,2.4,3.585,9.21l-.144,2.257Z" transform="translate(-475.859 -518.097)" fill="#284191" fill-rule="evenodd"/>
        <path id="Trazado_661222" data-name="Trazado 661222" d="M661.466,725.058a5.834,5.834,0,0,0-2.952,2.728c-1.041,2.047-1.384,7.8,2.811,10.007s6.964-1.868,6.7-5.509c-.26-3.656-1.422-8.431-6.558-7.226" transform="translate(-481.182 -530.212)" fill="#ffb27d" fill-rule="evenodd"/>
        <path id="Trazado_661223" data-name="Trazado 661223" d="M662.025,711.552s-1.019,6.444-4.279,8.03-4.944.973-4.944.973a9.943,9.943,0,0,0,2.009-6.409s4.941-5.1,7.213-2.594" transform="translate(-477.498 -519.966)" fill="#284191" fill-rule="evenodd"/>
        <path id="Trazado_661224" data-name="Trazado 661224" d="M652.483,720.194a3.216,3.216,0,0,1-1.054-.136l-.373-.136.255-.305a9.744,9.744,0,0,0,1.946-6.215l-.008-.121.086-.086c.133-.139,3.3-3.373,5.817-3.373a2.339,2.339,0,0,1,1.8.782l.091.1-.023.131c-.043.27-1.079,6.606-4.432,8.24a9.537,9.537,0,0,1-4.107,1.12m-.469-.585a8.049,8.049,0,0,0,4.334-1.036c2.839-1.382,3.933-6.765,4.1-7.687a1.766,1.766,0,0,0-1.3-.5c-2.075,0-4.821,2.609-5.332,3.116a10.236,10.236,0,0,1-1.805,6.111" transform="translate(-476.221 -519.206)" fill="#284191"/>
        <path id="Trazado_661225" data-name="Trazado 661225" d="M685.709,714.5c5.073,1.53,4.1,3.643,5.824,5.731,0,0,.227-4.9-2.466-6.918-2.859-2.143-3.358,1.188-3.358,1.188" transform="translate(-501.568 -521.231)" fill="#284191" fill-rule="evenodd"/>
        <path id="Trazado_661226" data-name="Trazado 661226" d="M677.938,722.568s-.875,3.853-3.495,5.146c0,0,2.589-2.421,2.748-4.952s.747-.194.747-.194" transform="translate(-493.327 -527.81)" fill="#284191" fill-rule="evenodd"/>
        <path id="Trazado_661227" data-name="Trazado 661227" d="M688.744,717.085q-.983-.2-1.185.466a2.927,2.927,0,0,0,1.81,1.753,3.752,3.752,0,0,1-.625-2.219" transform="translate(-502.921 -524.485)" fill="#284191" fill-rule="evenodd"/>
        <path id="Trazado_661228" data-name="Trazado 661228" d="M659.287,711.448q1.089-.609.734-1.4a3.629,3.629,0,0,0-3.116-.177,4.649,4.649,0,0,1,2.383,1.578" transform="translate(-480.498 -519.042)" fill="#284191" fill-rule="evenodd"/>
        <path id="Trazado_661229" data-name="Trazado 661229" d="M665.184,708.853q-.582.511-.968.139a2.241,2.241,0,0,1,.542-1.856,2.866,2.866,0,0,0,.426,1.717" transform="translate(-485.831 -517.242)" fill="#284191" fill-rule="evenodd"/>
        <path id="Trazado_661230" data-name="Trazado 661230" d="M636.681,1064.1h0Z" transform="translate(-465.706 -778.344)" fill="#f37960" fill-rule="evenodd"/>
        <path id="Trazado_661231" data-name="Trazado 661231" d="M703.238,1231.848H716.73c.5-.051.62-.459.446-.711-.356-.507-1.931-.893-3.7-1.714-3.1.328-9.6-1.747-10.087-2.458-.283,1.435-.424,4.823-.149,4.884" transform="translate(-514.282 -897.474)" fill="#284191" fill-rule="evenodd"/>
        <path id="Trazado_661232" data-name="Trazado 661232" d="M611.64,1226.964s1.2,3.4,2.494,3.29,2.43-2.761,2.43-2.761a11.96,11.96,0,0,1,.26,3.484c-.227,1.243-2.072,2.521-3.336,1.954-1.266-.542-2.98-3.424-1.848-5.968" transform="translate(-447.119 -897.474)" fill="#284191" fill-rule="evenodd"/>
        <path id="Trazado_661233" data-name="Trazado 661233" d="M694.586,741.494c.111.951-.227,1.76-.756,1.808s-1.044-.676-1.155-1.629c-.111-.938.224-1.747.756-1.8s1.046.676,1.155,1.616" transform="translate(-506.647 -541.189)" fill="#ffb27d" fill-rule="evenodd"/>
        <path id="Trazado_661234" data-name="Trazado 661234" d="M655.45,749.861c.368.918.187,1.881-.414,2.148s-1.374-.255-1.742-1.17-.187-1.871.409-2.148,1.377.255,1.747,1.17" transform="translate(-477.718 -547.587)" fill="#ffb27d" fill-rule="evenodd"/>
        <path id="Trazado_661235" data-name="Trazado 661235" d="M635.912,844.119l-.194.267a1.479,1.479,0,0,1-1.188,1.674L624.1,860.749l12.544,8.645a1.6,1.6,0,0,0,2.2-.375l10.065-14.18a1.421,1.421,0,0,0-.358-2Z" transform="translate(-456.504 -617.439)" fill="#1e77d1" fill-rule="evenodd"/>
        <path id="Trazado_661236" data-name="Trazado 661236" d="M662.941,846.788h0l12,8.275c.693.482,1.523.494,1.853.035a.9.9,0,0,0,.05-.857,1.956,1.956,0,0,0-.719-.857l-12-8.27a1.515,1.515,0,0,1-1.187,1.674" transform="translate(-484.914 -618.167)" fill="#eff8f7" fill-rule="evenodd"/>
        <path id="Trazado_661237" data-name="Trazado 661237" d="M606.959,853.695c.839.456,2.143,1.145,3.265,1.649.537.232,1.392.567,1.9.761-1.23,2.289-2.4,4.654-2.249,5.136.136.436,11.147,8.537,11.147,8.537l2.2-.29s3.878.433,3.966.892c.093.434-1.634.328-1.866.388a2.149,2.149,0,0,0-.6.265c.348.156.809.373,1.25.542a5.864,5.864,0,0,0-2.662,3.136,12.947,12.947,0,0,1-4.46-2.209c-2.564-1.266-15.451-8.512-15.645-9.888-.111-.82,1.853-5.063,3.752-8.92" transform="translate(-441.218 -624.443)" fill="#ffb27d" fill-rule="evenodd"/>
        <path id="Trazado_661238" data-name="Trazado 661238" d="M680.169,916.863a2.9,2.9,0,0,1,.33,1.629c-.164.7-.338.893-.517,1.518a1.968,1.968,0,0,1-.842,1.341c-.645.555-3.749-.64-3.749-.64l2.136-3.472,1.228.457a2.336,2.336,0,0,0,.983-.3c.212-.229.431-.532.431-.532" transform="translate(-494.021 -670.648)" fill="#ffb27d" fill-rule="evenodd"/>
        <path id="Trazado_661239" data-name="Trazado 661239" d="M673.461,794.291a9.826,9.826,0,0,0,1.667,4.291,2.732,2.732,0,0,0,2.524,1.226,1.886,1.886,0,0,0,.439-.086,1.347,1.347,0,0,0,.827-.832,4.132,4.132,0,0,0,.172-1.81,29.5,29.5,0,0,0-.963-4.571l.35.008a17.891,17.891,0,0,1,.958,4.535,4.428,4.428,0,0,1-.194,1.969,1.67,1.67,0,0,1-1.036,1.029h0a2.13,2.13,0,0,1-.524.106,3.061,3.061,0,0,1-2.829-1.366,10.31,10.31,0,0,1-1.644-4.463Z" transform="translate(-492.421 -579.688)" fill="#f06a30" fill-rule="evenodd"/>
        <path id="Trazado_661240" data-name="Trazado 661240" d="M683.558,821.771a.173.173,0,0,1-.189-.157.169.169,0,0,1,.154-.189c.721-.078,1.359-.118,1.909-.123a7.768,7.768,0,0,1,1.4.093.174.174,0,0,1,.141.2.176.176,0,0,1-.2.144,7.34,7.34,0,0,0-1.344-.091q-.809.007-1.876.121" transform="translate(-499.856 -600.749)" fill="#f06a30" fill-rule="evenodd"/>
        <path id="Trazado_661241" data-name="Trazado 661241" d="M684.484,823.63a.162.162,0,0,1-.167-.156.169.169,0,0,1,.136-.189,15.514,15.514,0,0,1,1.659-.124,5.928,5.928,0,0,1,1.225.1.176.176,0,0,1,.124.2.158.158,0,0,1-.176.141,5.557,5.557,0,0,0-1.17-.091,14.987,14.987,0,0,0-1.631.121" transform="translate(-500.55 -602.109)" fill="#f06a30" fill-rule="evenodd"/>
        <path id="Trazado_661242" data-name="Trazado 661242" d="M653.907,834.133q-1.558-3.147-.307-8.126l-1.727,4a.068.068,0,0,1,.1.03c.028.073.474,2.39,1.041,5.36Z" transform="translate(-476.818 -604.191)" fill="#f06a30" fill-rule="evenodd"/>
        <path id="Trazado_661243" data-name="Trazado 661243" d="M661.654,745c-2.178-.489-1.893-.426-3.641.4a2.672,2.672,0,0,1,2.821-1c.537.1.633.078.819.6" transform="translate(-481.31 -544.455)" fill="#125aa3" fill-rule="evenodd"/>
        <path id="Trazado_661244" data-name="Trazado 661244" d="M664.3,748.153a.628.628,0,1,1,.482-.749.624.624,0,0,1-.482.749" transform="translate(-485.348 -546.335)" fill="#125aa3" fill-rule="evenodd"/>
        <path id="Trazado_661245" data-name="Trazado 661245" d="M665.314,748.867a.225.225,0,0,1-.265-.171.221.221,0,0,1,.169-.262.227.227,0,0,1,.267.169.223.223,0,0,1-.172.265" transform="translate(-486.453 -547.446)" fill="#bbdbfa" fill-rule="evenodd"/>
        <path id="Trazado_661246" data-name="Trazado 661246" d="M665.64,747.65a.061.061,0,0,1-.073-.045.062.062,0,0,1,.048-.073.392.392,0,0,1,.464.3.065.065,0,0,1-.048.073.062.062,0,0,1-.073-.045.268.268,0,0,0-.318-.207" transform="translate(-486.834 -546.783)" fill="#bbdbfa" fill-rule="evenodd"/>
        <path id="Trazado_661247" data-name="Trazado 661247" d="M679.1,738.011c1.586-1.573,1.379-1.367,3.3-1.588a2.671,2.671,0,0,0-2.925.646c-.406.363-.5.4-.378.943" transform="translate(-496.699 -538.516)" fill="#125aa3" fill-rule="evenodd"/>
        <path id="Trazado_661248" data-name="Trazado 661248" d="M683.858,740.824a.628.628,0,1,0-.8-.378.624.624,0,0,0,.8.378" transform="translate(-499.601 -540.99)" fill="#125aa3" fill-rule="evenodd"/>
        <path id="Trazado_661249" data-name="Trazado 661249" d="M684.828,741.551a.225.225,0,0,0,.136-.285.222.222,0,1,0-.136.285" transform="translate(-500.707 -542.098)" fill="#bbdbfa" fill-rule="evenodd"/>
        <path id="Trazado_661250" data-name="Trazado 661250" d="M683.905,740.54a.06.06,0,1,0-.04-.114.388.388,0,0,0-.237.5.061.061,0,0,0,.078.038.058.058,0,0,0,.035-.078.271.271,0,0,1,.164-.343" transform="translate(-500.029 -541.59)" fill="#bbdbfa" fill-rule="evenodd"/>
        <path id="Trazado_661251" data-name="Trazado 661251" d="M677.508,749.6l-.1-.008a.1.1,0,0,1-.088-.114.1.1,0,0,1,.114-.086l.073.01c.424-.053.683-.154.749-.3.091-.2-.161-.557-.426-.938a3.366,3.366,0,0,1-.769-1.712.1.1,0,0,1,.1-.1h0a.1.1,0,0,1,.1.1,3.189,3.189,0,0,0,.731,1.6c.325.464.582.832.446,1.135-.1.222-.4.353-.933.414" transform="translate(-495.243 -545.928)" fill="#fc9774"/>
        <path id="Trazado_661252" data-name="Trazado 661252" d="M678.513,761.772c-1.447.676-3.868.1-1.571-.212a4.548,4.548,0,0,0,1.626-.625c.762-.419.343.653-.055.837" transform="translate(-494.462 -556.523)" fill="#fff" fill-rule="evenodd"/>
        <path id="Trazado_661258" data-name="Trazado 661258" d="M936.686,43.532a5.239,5.239,0,0,1,.723-5.915,5.086,5.086,0,0,1,.721-.676,5.285,5.285,0,0,1,1.442-.792,5.35,5.35,0,0,1,.721-.2,5.118,5.118,0,0,1,.721-.1c.111-.006.217-.01.328-.01.134,0,.265.006.393.015a5.422,5.422,0,0,1,.724.1,5.29,5.29,0,0,1,.721.212,5.179,5.179,0,0,1,1.444.821,5.245,5.245,0,0,1,.721.7,5.308,5.308,0,0,1,.721,1.1,5.265,5.265,0,0,1,0,4.6,5.353,5.353,0,0,1-.721,1.1,5.245,5.245,0,0,1-.721.7,5.31,5.31,0,0,1-.721.485,5.4,5.4,0,0,1-.723.335,5.29,5.29,0,0,1-.721.212,5.378,5.378,0,0,1-.724.1c-.129.011-.26.015-.393.015-.111,0-.217,0-.328-.01a5.116,5.116,0,0,1-.721-.095,5.019,5.019,0,0,1-.721-.2,5.21,5.21,0,0,1-1.442-.792,5.165,5.165,0,0,1-.721-.676,5.238,5.238,0,0,1-.723-1.045" transform="translate(-684.711 -26.218)" fill="#eaeff8" fill-rule="evenodd"/>
        <path id="Trazado_661259" data-name="Trazado 661259" d="M908.56,112.863a5.162,5.162,0,0,1,0-1.731,5.211,5.211,0,0,1,.721-1.909,5.208,5.208,0,0,1,1.445-1.525,5.435,5.435,0,0,1,.721-.427,5.26,5.26,0,0,1,.721-.286,5.186,5.186,0,0,1,.721-.173,5.516,5.516,0,0,1,.721-.067l.133,0a5.341,5.341,0,0,1,.588.034,4.979,4.979,0,0,1,.724.133,5.058,5.058,0,0,1,.721.242,5.456,5.456,0,0,1,.721.373,5.251,5.251,0,0,1,.723.535,5.4,5.4,0,0,1,.721.78,5.342,5.342,0,0,1,.721,1.31,5.265,5.265,0,0,1,0,3.7,5.33,5.33,0,0,1-.721,1.311,5.391,5.391,0,0,1-.721.779,5.26,5.26,0,0,1-.723.536,5.432,5.432,0,0,1-.721.369,4.806,4.806,0,0,1-.721.243,4.675,4.675,0,0,1-.724.132,5.035,5.035,0,0,1-.588.033h-.133a5.258,5.258,0,0,1-.721-.068,5.34,5.34,0,0,1-.721-.17,5.269,5.269,0,0,1-.721-.288,5.421,5.421,0,0,1-.721-.425,5.265,5.265,0,0,1-.724-.611,5.411,5.411,0,0,1-.721-.914,5.208,5.208,0,0,1-.721-1.909" transform="translate(-664.521 -78.079)" fill="#eaeff8" fill-rule="evenodd"/>
        <path id="Trazado_661260" data-name="Trazado 661260" d="M762.411,43.238a5.253,5.253,0,0,1,0-4.284,5.161,5.161,0,0,1,.721-1.168,5.255,5.255,0,0,1,.721-.73A5.184,5.184,0,0,1,765.3,36.2a5.261,5.261,0,0,1,1.445-.338c.154-.013.31-.021.469-.021h31.523c.162,0,.323.009.479.023a5.19,5.19,0,0,1,2.166.691,5.376,5.376,0,0,1,.721.507,5.219,5.219,0,0,1,.721.732,5.338,5.338,0,0,1,.724,1.184,5.234,5.234,0,0,1-.724,5.416,5.271,5.271,0,0,1-1.442,1.24,5.115,5.115,0,0,1-1.445.576,5.141,5.141,0,0,1-.721.116c-.156.015-.318.023-.479.023H767.21q-.238,0-.469-.021a5.134,5.134,0,0,1-1.445-.338,5.461,5.461,0,0,1-.721-.348,5.392,5.392,0,0,1-.721-.5,5.535,5.535,0,0,1-.721-.73,5.232,5.232,0,0,1-.721-1.171" transform="translate(-557.339 -26.218)" fill="#eaeff8" fill-rule="evenodd"/>
        <path id="Trazado_661261" data-name="Trazado 661261" d="M596.74,113.081a5.268,5.268,0,0,1,0-2.15,5.272,5.272,0,0,1,.721-1.765,5.424,5.424,0,0,1,.721-.891,5.288,5.288,0,0,1,2.166-1.3,5.238,5.238,0,0,1,1.445-.227l.091,0h52.278a2.869,2.869,0,0,1,.31.023l.174.02h9.273c.161-.015.32-.043.487-.043a1.45,1.45,0,0,1,.167.013c.083.009.164.024.247.03H668.5c.136,0,.272.005.408.016a5.278,5.278,0,0,1,.721.108,5.234,5.234,0,0,1,2.163,1.058,5.319,5.319,0,0,1,.721.719,5.229,5.229,0,0,1-1.442,7.844,5.344,5.344,0,0,1-.721.34,4.917,4.917,0,0,1-.721.219,5.475,5.475,0,0,1-.721.108q-.2.015-.408.015h-3.717c-.07.005-.139.016-.207.025s-.111.01-.167.01c-.149,0-.292-.024-.439-.035H654.6l-.129.013a2.525,2.525,0,0,1-.31.023H601.792a5.259,5.259,0,0,1-.724-.062,5.18,5.18,0,0,1-.721-.165,5.308,5.308,0,0,1-1.442-.7,5.168,5.168,0,0,1-.724-.6,5.35,5.35,0,0,1-.721-.889,5.217,5.217,0,0,1-.721-1.756" transform="translate(-436.41 -78.079)" fill="#eaeff8" fill-rule="evenodd"/>
        <path id="Trazado_661262" data-name="Trazado 661262" d="M1883.056,734.806a5.241,5.241,0,0,1,.721-5.915,5.567,5.567,0,0,1,.721-.678,5.878,5.878,0,0,1,.721-.469,5.143,5.143,0,0,1,.724-.32,5.261,5.261,0,0,1,.721-.2,4.889,4.889,0,0,1,.721-.1c.109,0,.217-.01.328-.01q.2,0,.393.015a5.63,5.63,0,0,1,.721.1,5.474,5.474,0,0,1,.724.212,5.137,5.137,0,0,1,.721.335,5,5,0,0,1,.721.486,5.147,5.147,0,0,1,.724.7,5.471,5.471,0,0,1,.721,1.1,5.265,5.265,0,0,1,0,4.6,5.476,5.476,0,0,1-.721,1.1,5.15,5.15,0,0,1-.724.7,5.009,5.009,0,0,1-.721.487,5.563,5.563,0,0,1-.721.335,5.419,5.419,0,0,1-.724.209,5.609,5.609,0,0,1-.721.106q-.2.015-.393.015c-.111,0-.219,0-.328-.01a5.267,5.267,0,0,1-.721-.1,5.242,5.242,0,0,1-1.445-.524,5.251,5.251,0,0,1-1.442-1.145,5.257,5.257,0,0,1-.721-1.044" transform="translate(-1376.941 -531.856)" fill="#fff" fill-rule="evenodd"/>
        <path id="Trazado_661263" data-name="Trazado 661263" d="M1854.927,804.138a5.458,5.458,0,0,1-.071-.865,5.4,5.4,0,0,1,.071-.864,5.224,5.224,0,0,1,.723-1.911,5.425,5.425,0,0,1,.721-.915,5.737,5.737,0,0,1,.721-.61,5.619,5.619,0,0,1,.721-.426,4.986,4.986,0,0,1,.724-.285,4.851,4.851,0,0,1,.721-.174,5.662,5.662,0,0,1,.721-.068h.131a5.67,5.67,0,0,1,.59.033,4.921,4.921,0,0,1,.721.134,4.684,4.684,0,0,1,.721.242,5.128,5.128,0,0,1,1.444.908,5.234,5.234,0,0,1,1.777,3.938,5.268,5.268,0,0,1-1.777,3.938,5.305,5.305,0,0,1-2.166,1.15,4.869,4.869,0,0,1-.721.131,5.029,5.029,0,0,1-.59.033l-.131,0a5.65,5.65,0,0,1-.721-.066,5.136,5.136,0,0,1-.721-.172,5.992,5.992,0,0,1-.724-.287,5.626,5.626,0,0,1-.721-.426,5.376,5.376,0,0,1-.721-.61,5.32,5.32,0,0,1-.721-.916,5.21,5.21,0,0,1-.723-1.908" transform="translate(-1356.751 -583.719)" fill="#fff" fill-rule="evenodd"/>
        <path id="Trazado_661264" data-name="Trazado 661264" d="M1708.773,734.511a5.256,5.256,0,0,1,0-4.284,5.3,5.3,0,0,1,.721-1.17,5.207,5.207,0,0,1,.724-.729,4.984,4.984,0,0,1,.721-.506,5.532,5.532,0,0,1,.721-.346,4.692,4.692,0,0,1,.721-.224,5.25,5.25,0,0,1,.721-.116c.156-.01.313-.02.469-.02h31.523c.164,0,.323.01.481.023a4.959,4.959,0,0,1,.721.116,5.393,5.393,0,0,1,.721.224,5.306,5.306,0,0,1,1.445.857,5.272,5.272,0,0,1,1.442,1.916,5.255,5.255,0,0,1-1.442,6.149,4.819,4.819,0,0,1-.723.507,5.186,5.186,0,0,1-.721.353,5.347,5.347,0,0,1-1.442.338c-.159.015-.318.025-.481.025h-31.523c-.156,0-.313-.01-.469-.023a4.875,4.875,0,0,1-.721-.114,4.972,4.972,0,0,1-.721-.225,5.28,5.28,0,0,1-.721-.348,5.015,5.015,0,0,1-.721-.5,5.229,5.229,0,0,1-1.445-1.9" transform="translate(-1249.564 -531.856)" fill="#fff" fill-rule="evenodd"/>
        <path id="Trazado_661265" data-name="Trazado 661265" d="M1543.107,804.358a5.249,5.249,0,0,1,.723-3.916,5.253,5.253,0,0,1,.721-.892,5.693,5.693,0,0,1,.721-.6,5.581,5.581,0,0,1,.721-.419,5.468,5.468,0,0,1,.724-.282,5.126,5.126,0,0,1,.721-.164,5.212,5.212,0,0,1,.721-.063h52.369a2.522,2.522,0,0,1,.31.023l.177.017h9.271c.164-.015.32-.04.489-.04a1.281,1.281,0,0,1,.166.012c.081.008.161.023.247.028h3.674c.139,0,.275,0,.408.017a5.673,5.673,0,0,1,.721.109,5.152,5.152,0,0,1,.721.217,5.564,5.564,0,0,1,.724.343,5.429,5.429,0,0,1,.721.5,5.365,5.365,0,0,1,.721.716,5.3,5.3,0,0,1,.721,1.147,5.19,5.19,0,0,1,0,4.334,5.3,5.3,0,0,1-.721,1.148,5.26,5.26,0,0,1-1.442,1.215,5.309,5.309,0,0,1-1.445.562,5.659,5.659,0,0,1-.721.106q-.2.015-.408.015h-3.717c-.071,0-.138.017-.2.025a1.23,1.23,0,0,1-.166.013c-.151,0-.292-.025-.441-.038h-9.367l-.129.015c-.1.01-.2.023-.31.023h-52.276l-.093,0a4.861,4.861,0,0,1-.721-.061,4.788,4.788,0,0,1-.721-.167,5.1,5.1,0,0,1-.724-.28,5.267,5.267,0,0,1-2.887-3.658" transform="translate(-1128.641 -583.72)" fill="#fff" fill-rule="evenodd"/>
        <path id="Trazado_661266" data-name="Trazado 661266" d="M1796.3,408.789,1779.642,422l7.1,5.126Z" transform="translate(-1301.736 -299.013)" fill="#a4d0fc" fill-rule="evenodd"/>
        <path id="Trazado_661267" data-name="Trazado 661267" d="M1750.251,420.218l19.658-10.65-25.568,9.464Z" transform="translate(-1275.914 -299.583)" fill="#a4d0fc" fill-rule="evenodd"/>
        <path id="Trazado_661268" data-name="Trazado 661268" d="M1766.349,419.647l3.008,8.557.562-6.2,16.653-13.212-.565.209Z" transform="translate(-1292.012 -299.012)" fill="#71afed" fill-rule="evenodd"/>
        <path id="Trazado_661269" data-name="Trazado 661269" d="M1777.549,464.191l3.709-3.934-3.147-2.271Z" transform="translate(-1300.204 -334.999)" fill="#4f8ecc" fill-rule="evenodd"/>
        <path id="Trazado_661270" data-name="Trazado 661270" d="M1731.746,468.24a.38.38,0,0,1,.4.647c-.212.131-.421.265-.63.4a.379.379,0,0,1-.416-.634c.212-.141.428-.28.648-.415m21.665,39.3a.379.379,0,0,1-.734-.189c.063-.24.119-.48.172-.723a.38.38,0,0,1,.744.159c-.056.254-.116.5-.182.754m.5-3.066a.38.38,0,0,1-.759-.039c.013-.246.023-.49.023-.737a.379.379,0,0,1,.759,0c0,.261-.01.519-.023.78m-.192-3.114a.38.38,0,0,1-.746.144c-.043-.238-.1-.48-.159-.715a.38.38,0,0,1,.734-.2c.065.252.123.512.171.767m-.988-2.969a.379.379,0,0,1-.678.339c-.1-.205-.224-.456-.345-.648a.38.38,0,0,1,.656-.383c.131.216.257.465.368.692m-1.72-2.606a.38.38,0,0,1-.574.5c-.162-.187-.323-.368-.494-.547a.381.381,0,0,1,.547-.529c.179.191.351.382.522.58m-2.254-2.137a.38.38,0,0,1-.464.6c-.194-.151-.4-.3-.595-.441a.379.379,0,0,1,.434-.621c.212.15.418.3.625.461m-2.6-1.679a.379.379,0,0,1-.356.669c-.219-.119-.442-.231-.663-.342a.38.38,0,0,1,.335-.682c.23.116.457.232.684.354m-2.809-1.269a.379.379,0,0,1-.264.711l-.7-.251a.379.379,0,0,1,.242-.718c.242.083.484.17.726.258m-2.942-.905a.38.38,0,0,1-.179.738l-.728-.169a.379.379,0,0,1,.156-.742Zm-3.023-.569a.379.379,0,0,1-.1.753l-.746-.088a.38.38,0,0,1,.081-.755c.254.028.506.057.761.091m-3.051-.246a.379.379,0,0,1-.045.758c-.255-.015-.509-.029-.761-.05a.378.378,0,0,1,.055-.755Zm-2.995-.272a.379.379,0,0,1-.1.752c-.255-.033-.507-.069-.759-.106a.379.379,0,0,1,.114-.75c.25.037.5.072.744.1m-2.942-.532a.379.379,0,0,1-.184.736c-.25-.062-.5-.124-.749-.2a.38.38,0,0,1,.212-.729c.234.071.484.13.721.188m-2.811-.934a.38.38,0,0,1-.313.692c-.242-.109-.474-.226-.708-.347a.38.38,0,0,1,.366-.667c.2.116.444.227.656.321m-2.411-1.577a.379.379,0,0,1-.539.532,6.134,6.134,0,0,1-.54-.605.38.38,0,0,1,.608-.455,5.538,5.538,0,0,0,.471.528m-1.351-2.423a.378.378,0,0,1-.741.15,5.835,5.835,0,0,1-.106-.808.38.38,0,0,1,.759-.039,5.388,5.388,0,0,0,.088.7m.171-2.824a.38.38,0,0,1-.731-.207c.071-.253.154-.5.244-.75a.379.379,0,0,1,.711.263c-.084.228-.162.46-.225.693m1.18-2.685a.38.38,0,0,1-.658-.382c.1-.208.28-.461.406-.663a.38.38,0,0,1,.638.415,5.811,5.811,0,0,0-.386.63m1.7-2.439a.38.38,0,0,1-.59-.478c.159-.2.328-.4.494-.593a.38.38,0,0,1,.575.5c-.164.188-.323.379-.479.574m2.01-2.216a.379.379,0,0,1-.532-.541c.177-.176.365-.369.549-.533a.38.38,0,0,1,.522.552c-.182.171-.363.345-.54.522m2.226-2.008a.379.379,0,0,1-.479-.589l.6-.479a.379.379,0,0,1,.464.6c-.194.144-.4.315-.585.469" transform="translate(-1258.821 -342.455)" fill="#71afed" fill-rule="evenodd"/>
        <path id="Trazado_661271" data-name="Trazado 661271" d="M1088.554,37.866,1108.384,46l-5.446,6.955Z" transform="translate(-796.232 -27.698)" fill="#a4d0fc" fill-rule="evenodd"/>
        <path id="Trazado_661272" data-name="Trazado 661272" d="M1112.83,42.838l-22.024-4.807,27.414,2Z" transform="translate(-797.88 -27.819)" fill="#a4d0fc" fill-rule="evenodd"/>
        <path id="Trazado_661273" data-name="Trazado 661273" d="M1111.182,42.717l-.515,9.13-2.284-5.852-19.83-8.129.6.044Z" transform="translate(-796.232 -27.698)" fill="#71afed" fill-rule="evenodd"/>
        <path id="Trazado_661274" data-name="Trazado 661274" d="M1158.108,73.987l-4.7-2.771,2.413-3.081Z" transform="translate(-843.673 -49.839)" fill="#4f8ecc" fill-rule="evenodd"/>
        <path id="Trazado_661275" data-name="Trazado 661275" d="M1188.739,84.826a.476.476,0,0,1,.1-.947l.951.1a.476.476,0,0,1-.108.946Zm32.514,37.807a.476.476,0,0,1,.343.8.471.471,0,0,1-.343.149l-.615,0a.475.475,0,0,1,.01-.951Zm-3.437-.086a.475.475,0,0,1-.053.949l-.958-.061a.475.475,0,0,1,.071-.948Zm-3.741-.357a.476.476,0,0,1-.144.94Zm-3.634-.8a.476.476,0,0,1-.3.9q-.468-.149-.925-.328a.476.476,0,0,1,.355-.884c.283.113.575.214.867.307m-3.227-1.624a.476.476,0,0,1-.6.74,6.588,6.588,0,0,1-.749-.706.475.475,0,0,1,.712-.63,5.738,5.738,0,0,0,.635.6m-1.78-2.883a.476.476,0,0,1-.938.161,7.532,7.532,0,0,1-.111-1.014.477.477,0,0,1,.953-.023,5.647,5.647,0,0,0,.1.875m.257-3.556a.476.476,0,0,1-.917-.251c.083-.313.176-.635.282-.938a.475.475,0,0,1,.9.305c-.1.29-.187.588-.265.884m1.311-3.484a.476.476,0,0,1-.865-.4c.134-.29.27-.584.411-.87a.477.477,0,0,1,.858.418c-.139.28-.272.565-.4.849m1.7-3.375a.475.475,0,0,1-.84-.445l.446-.841a.476.476,0,0,1,.84.446c-.154.274-.3.562-.446.84m1.772-3.379a.476.476,0,0,1-.852-.426l.416-.846a.477.477,0,0,1,.86.411Zm1.543-3.551a.475.475,0,0,1-.9-.3c.1-.294.181-.58.26-.88a.476.476,0,0,1,.923.233c-.083.32-.177.629-.28.943m.477-3.948a.475.475,0,0,1-.943.118,6.492,6.492,0,0,0-.162-.876.475.475,0,0,1,.92-.237,7.383,7.383,0,0,1,.184.995m-1.463-3.725a.476.476,0,0,1-.769.561,8.929,8.929,0,0,0-.562-.7.474.474,0,0,1,.7-.637,7.976,7.976,0,0,1,.628.779m-2.872-2.71a.475.475,0,0,1-.532.788q-.382-.259-.779-.494a.475.475,0,0,1,.484-.818c.282.168.554.341.827.524m-3.437-1.826a.476.476,0,0,1-.368.878c-.288-.122-.577-.236-.867-.348a.474.474,0,0,1,.335-.888c.3.115.6.232.9.358m-3.646-1.268a.475.475,0,0,1-.26.914l-.908-.25a.476.476,0,0,1,.242-.92Zm-3.729-.911a.476.476,0,0,1-.192.932l-.925-.184a.475.475,0,0,1,.177-.934Zm-3.772-.669a.476.476,0,0,1-.141.94l-.936-.136a.476.476,0,0,1,.134-.943Z" transform="translate(-869.205 -61.352)" fill="#71afed" fill-rule="evenodd"/>
        <path id="Trazado_661276" data-name="Trazado 661276" d="M1089.127,704.874l16.585,6.8-4.553,5.814Z" transform="translate(-796.652 -515.587)" fill="#a4d0fc" fill-rule="evenodd"/>
        <path id="Trazado_661277" data-name="Trazado 661277" d="M1109.424,709.033,1091,705.014l22.929,1.674Z" transform="translate(-798.024 -515.69)" fill="#a4d0fc" fill-rule="evenodd"/>
        <path id="Trazado_661278" data-name="Trazado 661278" d="M1108.051,708.93l-.431,7.637-1.909-4.894-16.585-6.8.5.038Z" transform="translate(-796.652 -515.586)" fill="#71afed" fill-rule="evenodd"/>
        <path id="Trazado_661279" data-name="Trazado 661279" d="M1147.3,735.088l-3.926-2.317,2.017-2.577Z" transform="translate(-836.332 -534.108)" fill="#4f8ecc" fill-rule="evenodd"/>
        <path id="Trazado_661280" data-name="Trazado 661280" d="M1168.259,734.742a.306.306,0,0,0-.066.608l.605.07a.3.3,0,0,0,.071-.6Zm34.6,39.176a.306.306,0,1,0-.265-.552c-.179.086-.361.169-.542.25a.306.306,0,0,0,.239.562Zm-2.329.9a.307.307,0,0,0-.167-.59c-.194.053-.386.1-.58.151a.306.306,0,0,0,.139.6c.2-.048.4-.1.608-.156m-2.469.444a.306.306,0,0,0-.04-.61c-.2.01-.394.02-.593.023a.306.306,0,0,0,0,.613c.209-.013.421-.013.63-.025m-2.514-.131a.305.305,0,1,0,.111-.6c-.194-.035-.386-.081-.58-.126a.305.305,0,0,0-.146.593c.2.05.409.1.615.133m-2.4-.786a.307.307,0,0,0,.272-.55c-.179-.086-.348-.182-.522-.277a.305.305,0,0,0-.308.527c.182.1.368.209.557.3m-2.087-1.417a.305.305,0,0,0,.408-.454,5.861,5.861,0,0,1-.426-.408.306.306,0,0,0-.438.426c.149.149.3.295.456.436m-1.649-1.9a.306.306,0,0,0,.507-.343c-.111-.164-.217-.33-.323-.5a.3.3,0,0,0-.522.315c.106.179.219.355.338.53m-1.17-2.221a.3.3,0,0,0,.567-.222c-.073-.187-.141-.373-.207-.562a.307.307,0,0,0-.58.2c.071.2.141.393.219.585m-.744-2.37a.306.306,0,0,0,.6-.146l-.141-.59a.3.3,0,0,0-.595.131Zm-.506-2.413a.306.306,0,0,0,.6-.111l-.111-.6a.306.306,0,0,0-.6.108Zm-.431-2.41a.306.306,0,0,0,.6-.108l-.113-.605a.306.306,0,1,0-.6.116Zm-.494-2.378a.306.306,0,0,0,.595-.146c-.048-.2-.1-.4-.154-.6a.306.306,0,0,0-.59.164c.058.182.1.4.149.583m-.608-2.158a.307.307,0,0,0,.464-.363c-.05-.129-.106-.257-.161-.384a.3.3,0,0,0-.194-.325.311.311,0,0,0-.462.353c-.048.128-.093.259-.146.388a.306.306,0,0,0,.5.33m-1.228-2.214a.306.306,0,0,0,.492-.363c-.124-.171-.259-.338-.4-.5a.306.306,0,0,0-.461.4c.129.149.25.3.365.459m-1.674-1.614a.305.305,0,0,0,.333-.512c-.182-.118-.36-.224-.547-.33a.307.307,0,0,0-.29.542c.174.093.34.194.5.3m-2.138-.951a.306.306,0,0,0,.156-.592c-.2-.053-.409-.1-.615-.146a.306.306,0,0,0-.118.6c.194.04.385.086.577.139m-2.358-.375a.306.306,0,0,0,.043-.61c-.207-.015-.413-.025-.623-.033a.307.307,0,0,0-.018.613q.3.008.6.03m-2.38.045a.305.305,0,0,0-.081-.605c-.209.025-.416.061-.623.1a.306.306,0,0,0,.116.6c.2-.038.391-.068.587-.093m-2.266.615a.308.308,0,0,0-.255-.56c-.2.091-.381.187-.573.293a.305.305,0,0,0,.307.527l-.307-.527.307.527c.172-.094.341-.182.52-.26m-1.861,1.347a.306.306,0,0,0-.464-.4,4.585,4.585,0,0,0-.393.517.306.306,0,0,0,.512.335,4.651,4.651,0,0,1,.345-.453m-1,2.027a.305.305,0,1,0-.6-.111,4.959,4.959,0,0,0-.086.643.306.306,0,0,0,.61.038,4.858,4.858,0,0,1,.076-.57m.126,2.272a.307.307,0,0,0-.585.184c.066.207.138.4.222.6a.306.306,0,0,0,.562-.244c-.075-.179-.141-.356-.2-.542m1.13,2a.3.3,0,0,0-.456.4,6.037,6.037,0,0,0,.446.464.306.306,0,0,0,.416-.449,5.81,5.81,0,0,1-.406-.419m1.828,1.442a.305.305,0,0,0-.29.537c.186.1.375.2.57.282a.306.306,0,0,0,.247-.56c-.182-.081-.353-.169-.527-.26m2.2.825a.3.3,0,0,0-.124.6c.209.046.414.086.623.116a.305.305,0,0,0,.081-.605c-.2-.035-.383-.066-.58-.108m2.34.151a.305.305,0,0,0,.063.608,6.027,6.027,0,0,0,.635-.094.3.3,0,0,0-.124-.6c-.187.035-.388.066-.575.083m2.239-.638a.307.307,0,0,0,.267.552c.192-.091.381-.194.565-.3a.306.306,0,0,0-.315-.525c-.167.1-.343.192-.517.272m1.931-1.331a.306.306,0,0,0,.419.446c.154-.144.308-.295.449-.446a.305.305,0,0,0-.449-.413c-.134.141-.277.282-.419.413m1.515-1.818a.306.306,0,0,0,.514.333c.114-.174.224-.353.331-.535a.306.306,0,0,0-.53-.3c-.1.172-.2.34-.315.507m1.777-4.4a.306.306,0,0,0,.6.118c.04-.2.081-.411.113-.615a.3.3,0,0,0-.6-.093c-.038.2-.07.393-.111.59m.292-2.378a.305.305,0,0,0,.61.018c.007-.207.012-.414.012-.62a.306.306,0,0,0-.612,0c0,.2,0,.4-.01.6m-.1-2.392a.306.306,0,0,0,.607-.078c-.025-.207-.053-.414-.086-.62a.306.306,0,0,0-.6.1c.035.186.06.4.081.595m-.474-2.35a.3.3,0,0,0,.585-.171c-.056-.2-.119-.4-.184-.6a.306.306,0,0,0-.58.194c.063.189.124.381.179.572m-.852-2.234a.307.307,0,0,0,.55-.272c-.091-.187-.182-.373-.28-.555a.3.3,0,0,0-.537.287c.093.179.181.358.267.539m-1.205-2.07a.305.305,0,0,0,.5-.355c-.119-.169-.239-.338-.368-.5a.305.305,0,0,0-.482.375c.121.159.237.32.353.484m-1.528-1.848a.306.306,0,0,0,.436-.428c-.144-.146-.292-.293-.441-.436a.307.307,0,0,0-.424.443c.146.139.29.28.428.421m-1.795-1.588a.305.305,0,0,0,.365-.489c-.166-.126-.333-.25-.5-.368a.305.305,0,0,0-.348.5q.242.174.484.356m-2.01-1.321a.306.306,0,0,0,.3-.534c-.182-.1-.363-.2-.547-.3a.305.305,0,0,0-.278.544c.177.091.353.192.527.287m-2.166-1.056a.305.305,0,0,0,.232-.565c-.189-.08-.383-.159-.575-.232a.306.306,0,0,0-.217.572c.186.071.375.146.56.224m-2.274-.809a.307.307,0,0,0,.172-.59l-.593-.172a.307.307,0,0,0-.159.593Zm-2.347-.592a.305.305,0,0,0,.124-.6c-.2-.045-.4-.081-.607-.121a.306.306,0,0,0-.109.6c.2.038.4.073.592.116" transform="translate(-854.288 -537.432)" fill="#71afed" fill-rule="evenodd"/>
        <path id="Trazado_661281" data-name="Trazado 661281" d="M1112.916,305.247a2.458,2.458,0,0,1,.872,0c5.429.975,7.779,15.194,9.844,15.94,1.986.718-.807-10.91,3.748-8.4s.495,15.489,4.07,14.514-.823-7.023,5.964-5.207c4.829,1.291,3.681,14.42,2.7,21.471a5.657,5.657,0,0,1-5.13,4.819c-3.949.352-9.152.813-9.387.829-4.728.318-21.634-11.44-20.786-17.723.916-6.79,8.51,4.366,10.756,2.912s-12.761-15.975-7.788-17.682,7.717,8.679,10.446,7.555-11.233-17.97-5.306-19.026" transform="translate(-808.099 -223.248)" fill="#468c84"/>
        <path id="Trazado_661282" data-name="Trazado 661282" d="M1162.356,365.156a.139.139,0,0,0,.041-.01.132.132,0,0,0,.074-.173l-13.213-31.753a.136.136,0,0,0-.176-.072.132.132,0,0,0-.074.173l13.213,31.753a.135.135,0,0,0,.135.082" transform="translate(-840.445 -243.677)" fill="#bcd8d1"/>
        <path id="Trazado_661283" data-name="Trazado 661283" d="M1149.2,370.726l2.441-13.637a.132.132,0,0,0-.109-.153.135.135,0,0,0-.156.108l-2.366,13.217-11.11-7.994a.137.137,0,0,0-.189.029.131.131,0,0,0,.029.185Z" transform="translate(-832.167 -261.083)" fill="#bcd8d1"/>
        <path id="Trazado_661284" data-name="Trazado 661284" d="M1150.432,407.676l.055-.069,9.014-11.285a.131.131,0,0,0-.023-.186.137.137,0,0,0-.189.023l-8.959,11.216-15.3-3.926a.136.136,0,0,0-.165.095.132.132,0,0,0,.1.162Z" transform="translate(-830.104 -289.738)" fill="#bcd8d1"/>
        <path id="Trazado_661285" data-name="Trazado 661285" d="M1105.079,457.829a9.119,9.119,0,0,1-9.1-1.454c-5.209-4.4-13.415-11.962-13.568-16.043-.225-5.987-1.854-8.069-3.851-10.775-5.162-6.994-8.534-12.738-1.535-14.451s15.82,7.963,17.852,9.152c3.591,2.1,8.449-.374,13.513,5.291,4.189,4.687,8.181,17.35,9.436,21.586a1.642,1.642,0,0,1-1.06,1.991Z" transform="translate(-784.898 -303.485)" fill="#4baaa5"/>
        <path id="Trazado_661286" data-name="Trazado 661286" d="M1125.767,449.005a.325.325,0,0,0-.331.114l-4.682,7.223a80.379,80.379,0,0,0-5.559-7.1l.115-9.8c0-.1-.109-.164-.245-.15s-.248.1-.25.2l-.108,9.2q-.417-.465-.85-.931c-2.3-2.47-5.2-5.433-8.061-8.3l-.615-4.531c-.013-.095-.133-.152-.27-.129s-.236.118-.223.213l.524,3.865c-5.6-5.593-10.887-10.658-10.968-10.736a.308.308,0,0,0-.343-.014c-.114.065-.145.176-.069.248s5.529,5.3,11.225,10.993l-7.077.053a.278.278,0,0,0-.278.178c-.018.1.077.175.212.174l7.492-.056c2.851,2.854,5.739,5.8,8.025,8.263q.55.592,1.073,1.181l-10.417.658c-.136.009-.253.094-.261.191s.1.168.233.16l10.736-.678a80.1,80.1,0,0,1,5.546,7.093l-12.8.586a.266.266,0,0,0-.267.187c-.011.1.091.171.227.164l13.071-.6a63.706,63.706,0,0,1,3.678,5.929.262.262,0,0,0,.315.075l.025-.01c.112-.049.169-.147.127-.227a64.064,64.064,0,0,0-3.7-5.97l4.861-7.5c.06-.093.009-.192-.114-.221" transform="translate(-800.065 -313.129)" fill="#bcd8d1"/>
        <path id="Trazado_661287" data-name="Trazado 661287" d="M1415.316,349.5s1.842-11.5,7.179-11.919,5.631,11.845,1.709,17.689a4.576,4.576,0,0,1,5.786,1.906c2.17,3.535-10.236,16.981-10.746,22.438s-10.09,3.194-9.217-8.17-6.412-19.428-3.344-23.787c2.488-3.535,8.634,1.844,8.634,1.844" transform="translate(-1028.375 -246.921)" fill="#71d1ca"/>
        <path id="Trazado_661288" data-name="Trazado 661288" d="M1418.9,376.66c.38-2.551.879-5.544,1.532-8.914l11.973-10.66c-.058-.082-.117-.159-.176-.236l-11.7,10.421c.022-.111.043-.221.065-.332,1-5.067,2.229-11.262,3.32-16.763l5.461-2.465c.012-.115.023-.23.033-.346l-5.422,2.447c1.006-5.068,1.887-9.5,2.355-11.86-.083-.029-.168-.054-.255-.075-.263,1.324-.656,3.3-1.127,5.675l-3.229-3.684q-.085.105-.167.214l3.331,3.8c-1.037,5.223-2.432,12.255-3.669,18.5l-11.525-14.96c-.063.06-.124.125-.184.194l11.641,15.111-.814,4.119q-.521,2.637-.923,4.972l-7.111-6.8q.038.221.073.444l6.983,6.674c-.3,1.722-.547,3.309-.759,4.752a.153.153,0,0,0,0,.02c-.329,2.235-.564,4.119-.731,5.61.086.023.171.043.256.061.165-1.474.4-3.333.721-5.538l5.956-3.754q.174-.286.354-.576Z" transform="translate(-1031.004 -247.145)" fill="#fff"/>
        <path id="Trazado_661289" data-name="Trazado 661289" d="M1427.856,410.881c-.551-3.878,22.282-16.114,11.682-21.823s-18.955,15.293-22.57,13.052-3.166-8.523-9.407-4.408c-3.392,2.236-5.923,10.279-7.562,17.413a17.079,17.079,0,0,0,.629,10.049,12.508,12.508,0,0,0,9.464,7.674l5.833,1.052a18.309,18.309,0,0,0,18.127-7.276c2.448-3.407,3.949-7.2,3.281-10.754-1.341-7.14-8.925-1.1-9.476-4.978" transform="translate(-1023.698 -283.858)" fill="#4baaa5"/>
        <path id="Trazado_661290" data-name="Trazado 661290" d="M1430.02,418.535a.267.267,0,0,1,.359.207l2.259,11.395q.465-.726.971-1.51a93.79,93.79,0,0,1,10.11-12.377l.934-5.541a.355.355,0,0,1,.354-.3.282.282,0,0,1,.244.347l-.8,4.72c6.071-6.378,11.854-11.513,11.95-11.6a.281.281,0,0,1,.423.024.355.355,0,0,1-.072.462c-.1.085-5.952,5.286-12.046,11.7l3.584.086a.279.279,0,0,1,.259.334.359.359,0,0,1-.343.32l-4.106-.1a92.92,92.92,0,0,0-10.009,12.253q-.523.811-1,1.559l12.188-1.827a.271.271,0,0,1,.31.278.368.368,0,0,1-.3.369l-12.661,1.9c-5.453,8.54-6.469,10.667-6.479,10.688a.325.325,0,0,1-.41.187l-.021-.01a.313.313,0,0,1-.106-.413c.043-.091,1.029-2.17,6.536-10.789l-2.368-11.947a.373.373,0,0,1,.236-.413" transform="translate(-1042.755 -295.356)" fill="#bcd8d1"/>
        <path id="Trazado_661291" data-name="Trazado 661291" d="M1376.738,504.826s18-35.354,38.587-38.188,19.693,16.349,9.239,26.859c-9.1,9.154-30,15.037-35.246,16.4a3.4,3.4,0,0,1-2.315-.217Z" transform="translate(-1007.028 -341.12)" fill="#468c84"/>
        <path id="Trazado_661292" data-name="Trazado 661292" d="M1407.535,513.845c1.358-1.464,2.747-2.878,4.209-4.277l3.924-15.5a.705.705,0,0,1,.6-.556c.253,0,.4.252.317.561l-3.635,14.358c2.869-2.658,6.044-5.3,9.813-8.175l5.578-16.653a.667.667,0,0,1,.628-.5c.245.031.359.306.256.613l-5.226,15.6.657-.491c2.4-1.792,5.894-4.081,9.513-6.358l3.232-9.919a.673.673,0,0,1,.625-.5c.245.028.363.3.263.607l-2.962,9.091c2.8-1.745,5.613-3.45,8.01-4.884l2.418-5.846a.629.629,0,0,1,.649-.438c.233.06.321.354.2.657l-2.021,4.886c3.08-1.832,5.219-3.07,5.28-3.105a.354.354,0,0,1,.57.217.768.768,0,0,1-.368.759c-.061.036-2.241,1.3-5.365,3.156l3.786,2.3a.536.536,0,0,1,.055.734.587.587,0,0,1-.591.325.318.318,0,0,1-.085-.036l-4.329-2.634c-2.351,1.406-5.1,3.073-7.841,4.779l8.274,2.8c.226.076.3.381.161.679a.619.619,0,0,1-.636.409l-.023-.007-9.073-3.065c-3.586,2.256-7.037,4.52-9.411,6.29q-.446.332-.88.66l10.967,5.591c.211.108.252.429.091.718a.6.6,0,0,1-.608.353.315.315,0,0,1-.065-.024l-11.445-5.835c-3.828,2.923-7.033,5.6-9.926,8.3l11.7,3.66c.229.071.306.372.172.672a.622.622,0,0,1-.64.418l-.016,0-12.2-3.816c-1.413,1.355-2.757,2.724-4.07,4.14a.524.524,0,0,1-.493.192.313.313,0,0,1-.173-.117.659.659,0,0,1,.134-.786" transform="translate(-1029.398 -351.517)" fill="#68b39a"/>
        <path id="Trazado_661293" data-name="Trazado 661293" d="M1203.655,292.2l-16.041,16.041v79.77h64.741V292.2Z" transform="translate(-868.691 -213.733)" fill="#ffd45c"/>
        <path id="Trazado_661294" data-name="Trazado 661294" d="M1187.614,308.241l15.083-.931.958-15.11Z" transform="translate(-868.691 -213.733)" fill="#f4b442"/>
        <path id="Trazado_661295" data-name="Trazado 661295" d="M1200.636,305.576l3.019-13.376-16.041,16.041Z" transform="translate(-868.691 -213.733)" fill="#fff385"/>
        <path id="Trazado_661296" data-name="Trazado 661296" d="M1232.677,472.092a4.313,4.313,0,1,1,4.313-4.313,4.318,4.318,0,0,1-4.313,4.313m0-7.182a2.869,2.869,0,1,0,2.869,2.869,2.872,2.872,0,0,0-2.869-2.869" transform="translate(-898.498 -339.007)" fill="#f4b442"/>
        <rect id="Rectángulo_338212" data-name="Rectángulo 338212" width="31.021" height="2.301" transform="translate(340.978 125.731)" fill="#f4b442"/>
        <rect id="Rectángulo_338213" data-name="Rectángulo 338213" width="20.903" height="2.301" transform="translate(340.978 129.512)" fill="#f4b442"/>
        <path id="Trazado_661297" data-name="Trazado 661297" d="M1232.677,522.769a4.313,4.313,0,1,1,4.313-4.313,4.318,4.318,0,0,1-4.313,4.313m0-7.182a2.869,2.869,0,1,0,2.869,2.869,2.872,2.872,0,0,0-2.869-2.869" transform="translate(-898.498 -376.074)" fill="#f4b442"/>
        <rect id="Rectángulo_338214" data-name="Rectángulo 338214" width="20.182" height="2.301" transform="translate(340.978 139.34)" fill="#f4b442"/>
        <rect id="Rectángulo_338215" data-name="Rectángulo 338215" width="8.428" height="2.301" transform="translate(340.978 143.12)" fill="#f4b442"/>
        <rect id="Rectángulo_338216" data-name="Rectángulo 338216" width="18.886" height="2.301" transform="translate(351.718 143.12)" fill="#f4b442"/>
        <path id="Trazado_661298" data-name="Trazado 661298" d="M1232.677,572.039a4.313,4.313,0,1,1,4.313-4.313,4.318,4.318,0,0,1-4.313,4.313m0-7.182a2.869,2.869,0,1,0,2.869,2.869,2.872,2.872,0,0,0-2.869-2.869" transform="translate(-898.498 -412.114)" fill="#f4b442"/>
        <rect id="Rectángulo_338217" data-name="Rectángulo 338217" width="31.021" height="2.301" transform="translate(340.978 154.461)" fill="#f4b442"/>
        <path id="Trazado_661299" data-name="Trazado 661299" d="M1358.661,271.83h-.441a.3.3,0,0,1-.282-.228l-2.572-11.117a.262.262,0,0,1,0-.1l.333-1.827h-3.813l.839,1.812a.271.271,0,0,1,.026.112l.112,11.117a.228.228,0,0,1-.233.234h-.394a.3.3,0,0,1-.288-.259.229.229,0,0,1,.232-.259h.159l-.108-10.825-.974-2.1a.253.253,0,0,1,.007-.236.229.229,0,0,1,.2-.11h4.526a.292.292,0,0,1,.219.1.278.278,0,0,1,.067.228l-.384,2.107,2.506,10.836h.212a.3.3,0,0,1,.288.259.228.228,0,0,1-.231.259" transform="translate(-988.367 -188.743)" fill="#cad8d8"/>
        <path id="Trazado_661300" data-name="Trazado 661300" d="M1351.858,297.135l10.208.551a.744.744,0,0,0,.784-.743V292.2h-6.407Z" transform="translate(-988.829 -213.733)" fill="#f4b442"/>
        <path id="Trazado_661301" data-name="Trazado 661301" d="M1357.95,289.312v-5.424a.778.778,0,0,0-.778-.778h-10.007a.778.778,0,0,0-.778.778v5.81a.788.788,0,0,0,.788.788h10.776a.544.544,0,0,0,.543-.544v-.086a.543.543,0,0,0-.543-.544" transform="translate(-984.826 -207.084)" fill="#434a59"/>
        <path id="Trazado_661302" data-name="Trazado 661302" d="M1362.743,271.83h-.441a.227.227,0,0,1-.233-.228l-.152-11.117a.272.272,0,0,1,.02-.1l.73-1.827h-3.813l.444,1.812a.256.256,0,0,1,0,.112l-2.308,11.117a.3.3,0,0,1-.284.234h-.395a.228.228,0,0,1-.231-.259.3.3,0,0,1,.288-.259h.159l2.247-10.825-.516-2.1a.274.274,0,0,1,.058-.236.294.294,0,0,1,.224-.11h4.526a.229.229,0,0,1,.2.1.249.249,0,0,1,.017.228l-.842,2.107.148,10.836h.211a.228.228,0,0,1,.231.259.3.3,0,0,1-.288.259" transform="translate(-991.919 -188.743)" fill="#e7f2f2"/>
        <path id="Trazado_661303" data-name="Trazado 661303" d="M1294.75,651.2h0a.145.145,0,0,0-.018-.021c-1.126-1.381-4.949-1.892-4.949-1.892l-13.486.242-13.485-.242s-3.824.529-4.961,1.9a.1.1,0,0,0-.027.067c0,.67,8.271,1.213,18.473,1.213s18.473-.543,18.473-1.213a.1.1,0,0,0-.02-.056" transform="translate(-920.047 -474.927)" fill="#7f635d"/>
        <path id="Trazado_661304" data-name="Trazado 661304" d="M1302.521,647.689c0,.507-6.257.918-13.976.918s-13.976-.411-13.976-.918,6.257-.918,13.976-.918,13.976.411,13.976.918" transform="translate(-932.296 -473.087)" fill="#93726d"/>
        <path id="Trazado_661305" data-name="Trazado 661305" d="M1357.556,576.907h0a3.306,3.306,0,0,0,1.917,4.25l42.971,16.258a3.3,3.3,0,1,0,2.333-6.167l-42.971-16.258a3.307,3.307,0,0,0-4.25,1.917" transform="translate(-992.841 -420.427)" fill="#7f635d"/>
        <path id="Trazado_661306" data-name="Trazado 661306" d="M1328.683,507.8h0a2.255,2.255,0,0,0-.07.22,2.423,2.423,0,0,0-.254,4.6l1.985,3.941,9.275,3.509,4.1-1.64a2.423,2.423,0,0,0,2.854-3.616,2.235,2.235,0,0,0,.093-.212,2.2,2.2,0,0,0-1.278-2.833l-13.868-5.247a2.2,2.2,0,0,0-2.833,1.278" transform="translate(-970.511 -370.395)" fill="#7f635d"/>
        <path id="Trazado_661307" data-name="Trazado 661307" d="M1292,604.935h0a2.2,2.2,0,0,1,.093-.212,2.423,2.423,0,0,1,2.854-3.616l4.1-1.64,9.276,3.509,1.984,3.941a2.423,2.423,0,0,1-.254,4.6,2.134,2.134,0,0,1-.071.22,2.2,2.2,0,0,1-2.833,1.278l-13.868-5.247a2.2,2.2,0,0,1-1.278-2.833" transform="translate(-944.814 -438.486)" fill="#7f635d"/>
        <path id="Trazado_661308" data-name="Trazado 661308" d="M1307.8,536.672a.731.731,0,0,0,.2.8l-2.562,6.773-2.562,6.773a.727.727,0,0,0-.258,1.408l16.911,6.4a.727.727,0,0,0,.739-1.226l2.562-6.773,2.562-6.773a.727.727,0,0,0,.258-1.408l-16.911-6.4a.73.73,0,0,0-.938.423" transform="translate(-952.47 -392.211)" fill="#7f635d"/>
        <rect id="Rectángulo_338218" data-name="Rectángulo 338218" width="14.482" height="18.594" transform="translate(350.409 158.81) rotate(-69.276)" fill="#f2a25c"/>
        <path id="Trazado_661309" data-name="Trazado 661309" d="M1376.049,585.813l2.921-5.945-1.815-.687-2.333,6.167Z" transform="translate(-1005.626 -423.648)" fill="#434a59"/>
        <path id="Trazado_661310" data-name="Trazado 661310" d="M1322.744,550.5a.334.334,0,0,1-.312-.452l.83-2.2a.334.334,0,0,1,.624.236l-.83,2.2a.334.334,0,0,1-.312.216" transform="translate(-967.289 -400.573)" fill="#fff"/>
        <path id="Trazado_661311" data-name="Trazado 661311" d="M1311.587,568.541a.334.334,0,0,1-.312-.452l2.421-6.4a.334.334,0,0,1,.624.236l-2.421,6.4a.334.334,0,0,1-.312.216" transform="translate(-959.128 -410.695)" fill="#fff"/>
        <path id="Trazado_661312" data-name="Trazado 661312" d="M1357.113,525.581a.331.331,0,0,1-.117-.021l-9.593-3.577a.334.334,0,0,1,.233-.625l9.593,3.577a.334.334,0,0,1-.117.646" transform="translate(-985.411 -381.337)" fill="#fff"/>
        <path id="Trazado_661313" data-name="Trazado 661313" d="M1333.9,516.928a.327.327,0,0,1-.117-.021l-1.931-.72a.334.334,0,0,1,.233-.625l1.931.72a.334.334,0,0,1-.116.646" transform="translate(-974.04 -377.097)" fill="#fff"/>
      </g>
    </g>
    <text id="NORMATIVIDAD_" data-name="NORMATIVIDAD " transform="translate(329.866 106.141)" fill="#231f20" font-size="5" font-family="Roboto-Bold, Roboto" font-weight="700"><tspan x="0" y="0">NORM</tspan><tspan y="0" letter-spacing="-0.058em">A</tspan><tspan y="0">TIVIDAD </tspan></text>
    <text id="ENERGÉTICO" transform="translate(329.866 113.021)" fill="#231f20" font-size="5" font-family="Roboto-Bold, Roboto" font-weight="700"><tspan x="0" y="0">ENERGÉTICO</tspan></text>
  </g>
</svg>
