<svg xmlns="http://www.w3.org/2000/svg" width="70.218" height="70.215" viewBox="0 0 70.218 70.215">
  <g id="Grupo_972364" data-name="Grupo 972364" transform="translate(-878.112 -250.248)">
    <path id="Trazado_696762" data-name="Trazado 696762" d="M87.658,443.421a19.259,19.259,0,1,1,19.26-19.259,19.259,19.259,0,0,1-19.26,19.259m34.98-16.369c.078-.954.129-1.916.129-2.889s-.05-1.936-.129-2.891c-12.16-3.819-14.275-8.768-8.305-19.923a35.417,35.417,0,0,0-3.86-3.86c-4.6,2.459-8.14,3.546-11.289,3.072-3.755-.551-6.391-4.228-8.634-11.379-.955-.078-1.919-.129-2.892-.129s-1.936.051-2.892.129c-3.817,12.16-8.769,14.275-19.923,8.3a35.278,35.278,0,0,0-3.858,3.86c5.968,11.156,3.852,16.107-8.308,19.924-.078.954-.129,1.916-.129,2.891s.05,1.935.129,2.889c12.16,3.818,14.275,8.769,8.308,19.923a34.975,34.975,0,0,0,3.858,3.86c11.154-5.969,16.106-3.854,19.923,8.307.955.076,1.916.126,2.892.126s1.936-.05,2.892-.126c3.817-12.161,8.767-14.277,19.923-8.307a35.517,35.517,0,0,0,3.86-3.86c-5.97-11.154-3.855-16.1,8.305-19.923" transform="translate(825.563 -138.806)" fill="#ffc600" fill-rule="evenodd"/>
    <path id="Trazado_696763" data-name="Trazado 696763" d="M112.348,445.278a32.538,32.538,0,0,1-3.575,3.572c-10.325-5.524-14.906-3.568-18.44,7.689-.882.072-1.775.12-2.675.12s-1.793-.048-2.675-.12c-3.535-11.256-8.119-13.213-18.443-7.689a32.92,32.92,0,0,1-3.573-3.572c5.527-10.325,3.568-14.907-7.688-18.441-.073-.884-.118-1.774-.118-2.675s.045-1.793.118-2.677c11.255-3.533,13.214-8.115,7.688-18.442a33.17,33.17,0,0,1,3.573-3.573c10.324,5.527,14.908,3.569,18.443-7.687.882-.073,1.775-.118,2.675-.118s1.793.045,2.675.118c3.535,11.256,8.116,13.214,18.44,7.689a32.426,32.426,0,0,1,3.575,3.573c-5.527,10.326-3.57,14.907,7.688,18.44.073.884.118,1.774.118,2.677s-.045,1.792-.118,2.675c-11.258,3.533-13.214,8.116-7.688,18.441m10.289-18.226c.078-.954.129-1.916.129-2.889s-.05-1.936-.129-2.891c-12.16-3.819-14.275-8.768-8.305-19.923a35.417,35.417,0,0,0-3.86-3.86c-11.157,5.969-16.108,3.854-19.923-8.306-.955-.078-1.919-.129-2.892-.129s-1.936.051-2.892.129c-3.817,12.16-8.769,14.275-19.923,8.3a35.278,35.278,0,0,0-3.858,3.86c5.968,11.156,3.852,16.107-8.308,19.924-.078.954-.129,1.916-.129,2.891s.05,1.935.129,2.889c12.16,3.818,14.275,8.769,8.308,19.923a34.975,34.975,0,0,0,3.858,3.86c11.154-5.969,16.106-3.854,19.923,8.307.955.076,1.916.126,2.892.126s1.936-.05,2.892-.126c3.817-12.161,8.767-14.277,19.923-8.307a35.517,35.517,0,0,0,3.86-3.86c-5.97-11.154-3.855-16.1,8.305-19.923" transform="translate(825.563 -138.806)" fill="#25ffff" fill-rule="evenodd"/>
    <path id="Trazado_696764" data-name="Trazado 696764" d="M136.856,487.414a14.057,14.057,0,1,1,14.056-14.056,14.055,14.055,0,0,1-14.056,14.056m0-31.1A17.047,17.047,0,1,0,153.9,473.358a17.045,17.045,0,0,0-17.046-17.048" transform="translate(776.364 -188.001)" fill="#25ffff" fill-rule="evenodd"/>
  </g>
</svg>
