<svg xmlns="http://www.w3.org/2000/svg" width="31.34" height="31.385" viewBox="0 0 31.34 31.385">
  <path id="Trazado_696765" data-name="Trazado 696765" d="M1562.282,598.613l-1.621.944a1.153,1.153,0,0,0-.416,1.572l.358.617c.424.726.237,1.054.106,1.172-.36.323-.7.673-1.031,1.024-.1.1-.411.453-1.235-.027l-.567-.329a1.154,1.154,0,0,0-1.573.416l-.943,1.624a1.153,1.153,0,0,0,.416,1.572l.562.325c.771.45.751.68.655,1.009-.136.45-.28.9-.378,1.367-.088.415-.048.712-1.1.712h-.645a1.151,1.151,0,0,0-1.15,1.15v1.876a1.151,1.151,0,0,0,1.15,1.15h.645c1.051,0,1.011.3,1.1.714.1.466.242.915.378,1.367.1.328.116.557-.655,1.008l-.562.326a1.154,1.154,0,0,0-.416,1.573l.943,1.621a1.155,1.155,0,0,0,1.573.416l.567-.328c.825-.479,1.137-.128,1.235-.025.335.348.671.7,1.031,1.021.131.118.318.446-.106,1.172l-.358.618a1.152,1.152,0,0,0,.416,1.571l1.621.943a1.154,1.154,0,0,0,1.573-.414l.358-.615c.429-.736.852-.708,1.029-.65.52.164,1,.27,1.528.408.2.051.529.194.529,1.072v.658a1.153,1.153,0,0,0,1.152,1.15h1.876a1.151,1.151,0,0,0,1.15-1.15v-.658c0-.877.335-1.021.53-1.072.534-.138,1.011-.244,1.53-.408.177-.058.6-.086,1.029.65l.358.615a1.153,1.153,0,0,0,1.573.414l1.621-.943a1.152,1.152,0,0,0,.416-1.571l-.358-.618c-.424-.726-.24-1.054-.109-1.172.36-.323.7-.673,1.031-1.021.1-.1.413-.454,1.238.025l.565.328a1.155,1.155,0,0,0,1.574-.416l.943-1.621A1.152,1.152,0,0,0,1583,618.2l-.56-.326c-.774-.451-.754-.681-.656-1.008.136-.451.28-.9.378-1.367.088-.416.048-.714,1.1-.714h.645a1.151,1.151,0,0,0,1.15-1.15V611.76a1.151,1.151,0,0,0-1.15-1.15h-.645c-1.051,0-1.011-.3-1.1-.712-.1-.465-.242-.916-.378-1.367-.1-.329-.118-.559.656-1.009l.56-.325a1.151,1.151,0,0,0,.416-1.572l-.943-1.624a1.155,1.155,0,0,0-1.574-.416l-.565.329c-.825.479-1.137.129-1.238.027-.336-.35-.671-.7-1.031-1.024-.131-.118-.315-.446.109-1.172l.358-.617a1.153,1.153,0,0,0-.416-1.572l-1.621-.944a1.155,1.155,0,0,0-1.573.416l-.358.615c-.428.736-.852.707-1.029.65-.519-.164-1-.271-1.53-.41-.194-.051-.53-.193-.53-1.071v-.658a1.152,1.152,0,0,0-1.15-1.15h-1.876a1.154,1.154,0,0,0-1.152,1.15v.658c0,.879-.333,1.021-.529,1.071-.532.139-1.009.246-1.528.41-.176.057-.6.086-1.029-.65l-.358-.615a1.156,1.156,0,0,0-1.573-.416m7.108,11.608a2.478,2.478,0,1,1-2.479,2.477,2.478,2.478,0,0,1,2.479-2.477m-7.768,2.477a.529.529,0,0,1,1.059,0,6.711,6.711,0,0,0,6.709,6.709.529.529,0,1,1,0,1.059,7.769,7.769,0,0,1-7.768-7.768m15.435-1.251a.529.529,0,0,1-1.044.166,6.721,6.721,0,0,0-5.471-5.525.53.53,0,0,1,.177-1.045,7.781,7.781,0,0,1,6.339,6.4m-7.667-7.953a9.2,9.2,0,1,1-9.205,9.2,9.205,9.205,0,0,1,9.205-9.2" transform="translate(-1553.72 -597.006)" fill="#0f58b9" fill-rule="evenodd"/>
</svg>
