<svg id="distribution-board" xmlns="http://www.w3.org/2000/svg" width="115.676" height="115.676" viewBox="0 0 115.676 115.676">
  <path id="Trazado_696313" data-name="Trazado 696313" d="M15.816,97.577a57.838,57.838,0,1,1,84.043,0A2.259,2.259,0,0,0,97.6,95.342H18.074A2.258,2.258,0,0,0,15.816,97.577Z" transform="translate(0 0)" fill="#0f58b9"/>
  <path id="Trazado_696314" data-name="Trazado 696314" d="M154.046,42.259v86.279a57.831,57.831,0,0,1-84.046,0V42.259A2.259,2.259,0,0,1,72.259,40h79.527A2.259,2.259,0,0,1,154.046,42.259Z" transform="translate(-54.185 -30.963)" fill="#ffe13c"/>
  <path id="Trazado_696315" data-name="Trazado 696315" d="M137.268,84.519v82.756q-2.187,1.522-4.517,2.843l0-85.6H75.815v85.6q-2.329-1.319-4.519-2.844V152.3H60.9a.9.9,0,0,1-.9-.9v-7.23a.9.9,0,0,1,.9-.9H71.3V104.852H60.9a.9.9,0,0,1-.9-.9v-7.23a.9.9,0,0,1,.9-.9H71.3v-11.3A4.524,4.524,0,0,1,75.815,80h56.934A4.524,4.524,0,0,1,137.268,84.519ZM120.1,161.335H88.467a2.259,2.259,0,1,0,0,4.519H120.1a2.259,2.259,0,0,0,0-4.519Zm0-9.037H88.467a2.259,2.259,0,1,0,0,4.519H120.1a2.259,2.259,0,0,0,0-4.519Zm0-9.037H88.467a2.259,2.259,0,1,0,0,4.519H120.1a2.259,2.259,0,0,0,0-4.519Z" transform="translate(-46.444 -61.926)" fill="#e3a600"/>
  <path id="Trazado_696316" data-name="Trazado 696316" d="M164.592,175.569l17.941-24.415a2.831,2.831,0,0,1,4.562,0l17.941,24.415a2.831,2.831,0,0,1-2.281,4.507H166.873A2.831,2.831,0,0,1,164.592,175.569Z" transform="translate(-126.977 -116.11)" fill="#fff5f5"/>
  <path id="Trazado_696317" data-name="Trazado 696317" d="M244.359,190.78a.678.678,0,0,1,.678.678V192.6a2.261,2.261,0,0,1-.162.839l-3.318,8.294a.539.539,0,0,1-.5.339h0a.539.539,0,0,1-.539-.539V195.3h-3.841a.678.678,0,0,1-.678-.678v-1.146a2.261,2.261,0,0,1,.162-.839l3.318-8.295a.539.539,0,0,1,.5-.339h0a.539.539,0,0,1,.539.539v6.239h3.841Z" transform="translate(-182.681 -142.431)" fill="#1e233c"/>
</svg>
