<svg xmlns="http://www.w3.org/2000/svg" width="715" height="402" viewBox="0 0 715 402">
  <g id="Grupo_972364" data-name="Grupo 972364" transform="translate(3905 10851)">
    <rect id="Rectángulo_338709" data-name="Rectángulo 338709" width="715" height="402" rx="19" transform="translate(-3905 -10851)" fill="#fff"/>
    <g id="Grupo_971968" data-name="Grupo 971968" transform="translate(263.074 524)">
      <text id="ECONOMÍA_LINEAL" data-name="ECONOMÍA LINEAL" transform="translate(-3888.81 -11330.392)" fill="#1767b9" font-size="14.43" font-family="Roboto-Bold, Roboto" font-weight="700"><tspan x="0" y="0">ECONOMÍA LINEAL</tspan></text>
      <path id="Trazado_663862" data-name="Trazado 663862" d="M247.119,398.215H198.854V441.28h48.265l-.1,13.375,21.443-34.907L247.016,384.84Z" transform="translate(-4120.074 -11692)" fill="#eee"/>
      <path id="Trazado_663863" data-name="Trazado 663863" d="M327.559,398.215H279.295V441.28h48.264l-.1,13.375L348.9,419.748,327.456,384.84Z" transform="translate(-4120.074 -11692)" fill="#eee"/>
      <path id="Trazado_663864" data-name="Trazado 663864" d="M409.759,398.215H361.5V441.28h48.264l-.1,13.375L431.1,419.748,409.656,384.84Z" transform="translate(-4120.074 -11692)" fill="#eee"/>
      <path id="Trazado_663865" data-name="Trazado 663865" d="M183.29,403.49a18.224,18.224,0,1,1-18.223-18.223A18.224,18.224,0,0,1,183.29,403.49" transform="translate(-4120.074 -11692)" fill="#fff"/>
      <path id="Trazado_663866" data-name="Trazado 663866" d="M168.062,385.517a18.221,18.221,0,0,1-9.978,34.808,18.223,18.223,0,1,0,9.978-34.808" transform="translate(-4120.074 -11692)" fill="#f1f1f1"/>
      <path id="Trazado_663867" data-name="Trazado 663867" d="M165.067,422.141a18.65,18.65,0,1,1,18.65-18.651,18.672,18.672,0,0,1-18.65,18.651m0-36.446a17.8,17.8,0,1,0,17.795,17.795A17.817,17.817,0,0,0,165.067,385.7" transform="translate(-4120.074 -11692)" fill="#1767b9"/>
      <path id="Trazado_663868" data-name="Trazado 663868" d="M159.665,400.883c0,3.048-3.225,4.5-4.213,4.5s-4.212-1.452-4.212-4.5,4.212-8.441,4.212-8.441,4.213,5.393,4.213,8.441" transform="translate(-4120.074 -11692)" fill="#f1f1f1"/>
      <path id="Trazado_663869" data-name="Trazado 663869" d="M156.889,400.05c.28,1.9.213,3.678-1.438,5.334-.988,0-4.211-1.452-4.211-4.5,0-2.483,2.217-5.544,2.217-5.544a6.479,6.479,0,0,1,3.432,4.711" transform="translate(-4120.074 -11692)" fill="#fff"/>
      <path id="Trazado_663870" data-name="Trazado 663870" d="M155.452,405.811c-1.08,0-4.639-1.535-4.639-4.927,0-3.159,4.127-8.48,4.3-8.705a.443.443,0,0,1,.674,0c.175.225,4.3,5.546,4.3,8.705,0,3.392-3.561,4.927-4.641,4.927m0-12.658c-.983,1.338-3.786,5.357-3.786,7.731,0,2.81,3.01,4.072,3.786,4.072s3.786-1.262,3.786-4.072c0-2.374-2.8-6.393-3.786-7.731" transform="translate(-4120.074 -11692)" fill="#1767b9"/>
      <path id="Trazado_663871" data-name="Trazado 663871" d="M155.452,408.894a.427.427,0,0,1-.427-.427v-8.929a.427.427,0,0,1,.854,0v8.929a.427.427,0,0,1-.427.427" transform="translate(-4120.074 -11692)" fill="#1767b9"/>
      <path id="Trazado_663872" data-name="Trazado 663872" d="M167.157,400.728c0,3.546-3.542,4.347-4.628,4.347s-4.629-.8-4.629-4.347,4.629-9.823,4.629-9.823,4.628,6.275,4.628,9.823" transform="translate(-4120.074 -11692)" fill="#f1f1f1"/>
      <path id="Trazado_663873" data-name="Trazado 663873" d="M163.936,398.895c.339,2.771.153,4.509-1.407,6.181-1.088,0-4.628-.8-4.628-4.347,0-3.012,2.758-6.994,2.758-6.994a7.3,7.3,0,0,1,3.277,5.16" transform="translate(-4120.074 -11692)" fill="#fff"/>
      <path id="Trazado_663874" data-name="Trazado 663874" d="M162.529,405.5c-1.651,0-5.057-1.167-5.057-4.775,0-3.645,4.52-9.815,4.712-10.075a.443.443,0,0,1,.687,0c.193.26,4.711,6.43,4.711,10.075,0,3.608-3.4,4.775-5.053,4.775m0-13.86c-1.06,1.522-4.2,6.273-4.2,9.085,0,3.256,3.314,3.92,4.2,3.92s4.2-.664,4.2-3.92c0-2.812-3.142-7.563-4.2-9.085" transform="translate(-4120.074 -11692)" fill="#1767b9"/>
      <path id="Trazado_663875" data-name="Trazado 663875" d="M162.529,409.571a.426.426,0,0,1-.427-.427V397.881a.426.426,0,1,1,.853,0v11.263a.428.428,0,0,1-.426.427" transform="translate(-4120.074 -11692)" fill="#1767b9"/>
      <path id="Trazado_663876" data-name="Trazado 663876" d="M177.666,401.947c0,2.817-2.877,3.651-3.759,3.651s-3.759-.834-3.759-3.651,3.759-10.849,3.759-10.849,3.759,8.033,3.759,10.849" transform="translate(-4120.074 -11692)" fill="#f1f1f1"/>
      <path id="Trazado_663877" data-name="Trazado 663877" d="M175.593,401.464c0,2.816-.8,4.134-1.686,4.134s-3.759-.833-3.759-3.651,2.721-8.513,2.721-8.513,2.724,4.982,2.724,8.03" transform="translate(-4120.074 -11692)" fill="#fff"/>
      <path id="Trazado_663878" data-name="Trazado 663878" d="M173.907,406.026c-1.073,0-4.186-1.005-4.186-4.078,0-2.879,3.645-10.7,3.8-11.03a.443.443,0,0,1,.772,0c.155.332,3.8,8.151,3.8,11.03,0,3.073-3.113,4.078-4.186,4.078m0-13.9c-.952,2.127-3.331,7.655-3.331,9.818,0,2.628,2.813,3.223,3.331,3.223s3.331-.6,3.331-3.223c0-2.163-2.379-7.691-3.331-9.818" transform="translate(-4120.074 -11692)" fill="#1767b9"/>
      <path id="Trazado_663879" data-name="Trazado 663879" d="M173.907,409.123a.427.427,0,0,1-.427-.427v-8.5a.427.427,0,1,1,.854,0v8.5a.428.428,0,0,1-.427.427" transform="translate(-4120.074 -11692)" fill="#1767b9"/>
      <path id="Trazado_663880" data-name="Trazado 663880" d="M157.33,411.91c0,2.136,13.068-.1,13.068,3.092,0,3.3-8.743,3.944-14.91,3.991a18.222,18.222,0,0,0,26.721-9.314c-8.8-1.818-24.879-1.495-24.879,2.231" transform="translate(-4120.074 -11692)" fill="#f1f1f1"/>
      <path id="Trazado_663881" data-name="Trazado 663881" d="M163.9,411.033c0,.9,9.915-.4,9.915,3.97,0,3.3-7.494,6.968-18.327,3.992a18.225,18.225,0,0,0,26.721-9.317c-.523,1.292-18.309.222-18.309,1.355" transform="translate(-4120.074 -11692)" fill="#fff"/>
      <path id="Trazado_663882" data-name="Trazado 663882" d="M165.066,422.139a18.6,18.6,0,0,1-9.8-2.783.427.427,0,0,1,.222-.79c9.206-.07,14.485-1.369,14.485-3.564,0-1.338-4.1-1.457-7.094-1.544-3.466-.1-5.974-.171-5.974-1.547a1.982,1.982,0,0,1,.836-1.548c3.452-2.81,17.277-2.608,24.559-1.1a.426.426,0,0,1,.285.211.422.422,0,0,1,.03.352,18.7,18.7,0,0,1-17.546,12.317m-7.985-2.743a17.8,17.8,0,0,0,24.552-9.4c-7.943-1.53-20.463-1.33-23.356,1.028a1.157,1.157,0,0,0-.52.884c0,.546,3.346.642,5.145.694,3.9.112,7.923.229,7.923,2.4,0,2.7-4.623,4.178-13.744,4.394" transform="translate(-4120.074 -11692)" fill="#1767b9"/>
      <path id="Trazado_663883" data-name="Trazado 663883" d="M147.387,407.894a18.262,18.262,0,0,0,8.1,11.1c6.169-.047,14.912-.693,14.912-3.992,0-3.189-13.068-.956-13.068-3.091,0-1.028,1.226-1.8,3.182-2.332a44.727,44.727,0,0,0-13.126-1.685" transform="translate(-4120.074 -11692)" fill="#fff"/>
      <path id="Trazado_663884" data-name="Trazado 663884" d="M151.4,407.988a37.632,37.632,0,0,0-4.013-.094,18.259,18.259,0,0,0,8.1,11.1c1.2-.011,2.976-.072,6.006-.283-7.817-3.075-8.935-6.161-10.1-10.723" transform="translate(-4120.074 -11692)" fill="#f1f1f1"/>
      <path id="Trazado_663885" data-name="Trazado 663885" d="M155.488,419.42a.425.425,0,0,1-.224-.064A18.549,18.549,0,0,1,146.973,408a.424.424,0,0,1,.4-.529,45.163,45.163,0,0,1,13.256,1.7.427.427,0,0,1,0,.823c-1.849.507-2.868,1.19-2.868,1.921,0,.546,3.346.642,5.144.694,3.9.112,7.924.229,7.924,2.4,0,2.854-5.159,4.342-15.336,4.418Zm-7.549-11.113a17.7,17.7,0,0,0,7.668,10.258c9.131-.08,14.364-1.378,14.364-3.563,0-1.338-4.1-1.457-7.095-1.544-3.468-.1-5.974-.171-5.974-1.547,0-.924.715-1.687,2.127-2.28a44.367,44.367,0,0,0-11.09-1.324" transform="translate(-4120.074 -11692)" fill="#1767b9"/>
      <path id="Trazado_663886" data-name="Trazado 663886" d="M150.831,388.116a1.139,1.139,0,1,1-1.138-1.14,1.138,1.138,0,0,1,1.138,1.14" transform="translate(-4120.074 -11692)" fill="#fff"/>
      <path id="Trazado_663887" data-name="Trazado 663887" d="M149.692,389.681a1.566,1.566,0,1,1,1.566-1.566,1.567,1.567,0,0,1-1.566,1.566m0-2.278a.712.712,0,1,0,.712.712.712.712,0,0,0-.712-.712" transform="translate(-4120.074 -11692)" fill="#1767b9"/>
      <path id="Trazado_663888" data-name="Trazado 663888" d="M179.873,386.407a1.139,1.139,0,1,1-1.138-1.138,1.138,1.138,0,0,1,1.138,1.138" transform="translate(-4120.074 -11692)" fill="#fff"/>
      <path id="Trazado_663889" data-name="Trazado 663889" d="M178.734,387.973a1.566,1.566,0,1,1,1.566-1.566,1.569,1.569,0,0,1-1.566,1.566m0-2.278a.712.712,0,1,0,.712.712.712.712,0,0,0-.712-.712" transform="translate(-4120.074 -11692)" fill="#1767b9"/>
      <path id="Trazado_663890" data-name="Trazado 663890" d="M183.29,390.393a1.139,1.139,0,1,1-1.138-1.138,1.138,1.138,0,0,1,1.138,1.138" transform="translate(-4120.074 -11692)" fill="#fff"/>
      <path id="Trazado_663891" data-name="Trazado 663891" d="M182.152,391.96a1.566,1.566,0,1,1,1.566-1.566,1.567,1.567,0,0,1-1.566,1.566m0-2.278a.712.712,0,1,0,.712.712.712.712,0,0,0-.712-.712" transform="translate(-4120.074 -11692)" fill="#1767b9"/>
      <path id="Trazado_663892" data-name="Trazado 663892" d="M149.122,417.157a1.139,1.139,0,1,1-1.138-1.138,1.14,1.14,0,0,1,1.138,1.138" transform="translate(-4120.074 -11692)" fill="#fff"/>
      <path id="Trazado_663893" data-name="Trazado 663893" d="M147.983,418.724a1.566,1.566,0,1,1,1.566-1.566,1.567,1.567,0,0,1-1.566,1.566m0-2.278a.712.712,0,1,0,.712.712.712.712,0,0,0-.712-.712" transform="translate(-4120.074 -11692)" fill="#1767b9"/>
      <path id="Trazado_663894" data-name="Trazado 663894" d="M153.678,420.574a1.139,1.139,0,1,1-1.138-1.138,1.14,1.14,0,0,1,1.138,1.138" transform="translate(-4120.074 -11692)" fill="#fff"/>
      <path id="Trazado_663895" data-name="Trazado 663895" d="M152.539,422.141a1.565,1.565,0,1,1,1.566-1.566,1.567,1.567,0,0,1-1.566,1.566m0-2.278a.712.712,0,1,0,.712.712.712.712,0,0,0-.712-.712" transform="translate(-4120.074 -11692)" fill="#1767b9"/>
      <path id="Trazado_663896" data-name="Trazado 663896" d="M182.721,417.727a1.139,1.139,0,1,1-1.138-1.138,1.14,1.14,0,0,1,1.138,1.138" transform="translate(-4120.074 -11692)" fill="#fff"/>
      <path id="Trazado_663897" data-name="Trazado 663897" d="M181.582,419.294a1.566,1.566,0,1,1,1.566-1.566,1.567,1.567,0,0,1-1.566,1.566m0-2.278a.712.712,0,1,0,.712.712.712.712,0,0,0-.712-.712" transform="translate(-4120.074 -11692)" fill="#1767b9"/>
      <text id="RECURSOS" transform="translate(-3986.187 -11252.77)" fill="#1767b9" font-size="10.403" font-family="Roboto-Bold, Roboto" font-weight="700"><tspan x="0" y="0">RECURSOS</tspan></text>
      <text id="N" transform="translate(-3987.435 -11240.287)" fill="#1767b9" font-size="10.403" font-family="Roboto-Bold, Roboto" font-weight="700"><tspan x="0" y="0">N</tspan></text>
      <text id="A" transform="translate(-3980.091 -11240.287)" fill="#1767b9" font-size="10.403" font-family="Roboto-Bold, Roboto" font-weight="700"><tspan x="0" y="0">A</tspan></text>
      <text id="TURALES" transform="translate(-3974.036 -11240.287)" fill="#1767b9" font-size="10.403" font-family="Roboto-Bold, Roboto" font-weight="700"><tspan x="0" y="0">TURALES</tspan></text>
      <path id="Trazado_663898" data-name="Trazado 663898" d="M211.048,411.509a4.764,4.764,0,0,0-.889,1.551l25.428,1.916c-12.743-14.228-21.518-6.972-24.539-3.467" transform="translate(-4120.074 -11692)" fill="#f1f1f1"/>
      <path id="Trazado_663899" data-name="Trazado 663899" d="M210.159,413.06l25.429,1.916c-13.95-9.854-25.234-2.479-25.429-1.916" transform="translate(-4120.074 -11692)" fill="#fff"/>
      <path id="Trazado_663900" data-name="Trazado 663900" d="M238.872,416.082l-3.283-1.107-25.428-1.914a4.825,4.825,0,0,0-.271,1.591v5.579a1.933,1.933,0,0,0,1.472,1.877l2.458.606h23.7l2.278-.664a1.45,1.45,0,0,0,1.046-1.392v-1.825a2.9,2.9,0,0,0-1.975-2.751" transform="translate(-4120.074 -11692)" fill="#fff"/>
      <path id="Trazado_663901" data-name="Trazado 663901" d="M238.872,416.082l-2.332-.786a2.893,2.893,0,0,1,1.883,2.656c0-.018,0-.036,0-.054v.11c0-.018,0-.038,0-.056a1.449,1.449,0,0,1-1.041,1.341l-1.589.461a4.981,4.981,0,0,1-1.4.2H215.449a13.46,13.46,0,0,1-3.211-.388l-.876-.217a1.935,1.935,0,0,1-1.472-1.877v2.758a1.933,1.933,0,0,0,1.472,1.877l2.458.606h23.7l2.278-.664a1.45,1.45,0,0,0,1.046-1.392v-1.825a2.9,2.9,0,0,0-1.975-2.751" transform="translate(-4120.074 -11692)" fill="#f1f1f1"/>
      <path id="Trazado_663902" data-name="Trazado 663902" d="M237.523,423.076h-23.7a.346.346,0,0,1-.087-.011l-2.458-.6a2.293,2.293,0,0,1-1.748-2.231v-5.579a5.168,5.168,0,0,1,1.246-3.38c1.627-1.889,5.1-5.067,10.067-5.114h.115c4.771,0,9.764,2.86,14.839,8.506l3.193,1.077a3.261,3.261,0,0,1,2.22,3.093v1.825A1.824,1.824,0,0,1,239.9,422.4l-2.278.662a.379.379,0,0,1-.1.014m-23.659-.725h23.609l2.226-.648a1.1,1.1,0,0,0,.784-1.046v-1.825a2.538,2.538,0,0,0-1.728-2.406l-3.283-1.108a.359.359,0,0,1-.153-.1c-4.955-5.529-9.787-8.334-14.363-8.334h-.108c-4.679.045-7.976,3.067-9.525,4.863a4.449,4.449,0,0,0-1.07,2.906v5.579a1.567,1.567,0,0,0,1.2,1.526Z" transform="translate(-4120.074 -11692)" fill="#1767b9"/>
      <path id="Trazado_663903" data-name="Trazado 663903" d="M235.589,415.338a.151.151,0,0,1-.029,0l-25.432-1.914a.362.362,0,0,1-.334-.389.369.369,0,0,1,.39-.334l25.432,1.914a.363.363,0,0,1-.027.725" transform="translate(-4120.074 -11692)" fill="#1767b9"/>
      <path id="Trazado_663904" data-name="Trazado 663904" d="M225.426,414.573a.362.362,0,0,1-.355-.294l-1.413-7.294a.363.363,0,0,1,.713-.137l1.412,7.294a.363.363,0,0,1-.287.424.332.332,0,0,1-.07.007" transform="translate(-4120.074 -11692)" fill="#1767b9"/>
      <path id="Trazado_663905" data-name="Trazado 663905" d="M217.572,413.982a.362.362,0,0,1-.355-.294l-1.189-6.142a.363.363,0,0,1,.712-.139l1.189,6.144a.363.363,0,0,1-.287.424.332.332,0,0,1-.07.007" transform="translate(-4120.074 -11692)" fill="#1767b9"/>
      <path id="Trazado_663906" data-name="Trazado 663906" d="M229.216,417.276h-.029l-2.071-.157a.363.363,0,0,1,.056-.723l2.071.155a.363.363,0,0,1-.027.725" transform="translate(-4120.074 -11692)" fill="#1767b9"/>
      <path id="Trazado_663907" data-name="Trazado 663907" d="M220.705,416.635h-.029l-1.847-.139a.361.361,0,0,1-.334-.39.37.37,0,0,1,.388-.335l1.849.141a.362.362,0,0,1-.027.723" transform="translate(-4120.074 -11692)" fill="#1767b9"/>
      <path id="Trazado_663908" data-name="Trazado 663908" d="M219.624,422.714a2.9,2.9,0,1,0-2.9,2.9,2.9,2.9,0,0,0,2.9-2.9" transform="translate(-4120.074 -11692)" fill="#fff"/>
      <path id="Trazado_663909" data-name="Trazado 663909" d="M217.531,419.928a2.9,2.9,0,0,1-2.26,4.72,2.859,2.859,0,0,1-.81-.117,2.9,2.9,0,1,0,3.07-4.6" transform="translate(-4120.074 -11692)" fill="#f1f1f1"/>
      <path id="Trazado_663910" data-name="Trazado 663910" d="M216.722,425.979a3.264,3.264,0,1,1,3.265-3.264,3.268,3.268,0,0,1-3.265,3.264m0-5.8a2.539,2.539,0,1,0,2.54,2.54,2.542,2.542,0,0,0-2.54-2.54" transform="translate(-4120.074 -11692)" fill="#1767b9"/>
      <path id="Trazado_663911" data-name="Trazado 663911" d="M217.205,422.714a.483.483,0,1,0-.483.483.483.483,0,0,0,.483-.483" transform="translate(-4120.074 -11692)" fill="#1767b9"/>
      <path id="Trazado_663912" data-name="Trazado 663912" d="M237.523,422.714a2.9,2.9,0,1,0-2.9,2.9,2.9,2.9,0,0,0,2.9-2.9" transform="translate(-4120.074 -11692)" fill="#fff"/>
      <path id="Trazado_663913" data-name="Trazado 663913" d="M235.431,419.928a2.9,2.9,0,0,1-2.26,4.72,2.848,2.848,0,0,1-.81-.117,2.9,2.9,0,1,0,3.07-4.6" transform="translate(-4120.074 -11692)" fill="#f1f1f1"/>
      <path id="Trazado_663914" data-name="Trazado 663914" d="M234.621,425.979a3.264,3.264,0,1,1,3.265-3.264,3.268,3.268,0,0,1-3.265,3.264m0-5.8a2.539,2.539,0,1,0,2.54,2.54,2.542,2.542,0,0,0-2.54-2.54" transform="translate(-4120.074 -11692)" fill="#1767b9"/>
      <path id="Trazado_663915" data-name="Trazado 663915" d="M235.1,422.714a.483.483,0,1,0-.483.483.483.483,0,0,0,.483-.483" transform="translate(-4120.074 -11692)" fill="#1767b9"/>
      <path id="Trazado_663916" data-name="Trazado 663916" d="M215.864,415.572a.682.682,0,1,1-.96-.108.681.681,0,0,1,.96.108" transform="translate(-4120.074 -11692)" fill="#1767b9"/>
      <path id="Trazado_663917" data-name="Trazado 663917" d="M217.875,402.88H217.2a.363.363,0,1,1,0-.725h.671a.363.363,0,1,1,0,.725" transform="translate(-4120.074 -11692)" fill="#1767b9"/>
      <path id="Trazado_663918" data-name="Trazado 663918" d="M220.108,402.88h-.669a.363.363,0,1,1,0-.725h.669a.363.363,0,1,1,0,.725" transform="translate(-4120.074 -11692)" fill="#1767b9"/>
      <path id="Trazado_663919" data-name="Trazado 663919" d="M218.656,404.332a.363.363,0,0,1-.363-.363V403.3a.363.363,0,0,1,.726,0v.671a.363.363,0,0,1-.363.363" transform="translate(-4120.074 -11692)" fill="#1767b9"/>
      <path id="Trazado_663920" data-name="Trazado 663920" d="M218.656,402.1a.363.363,0,0,1-.363-.363v-.671a.363.363,0,0,1,.726,0v.671a.363.363,0,0,1-.363.363" transform="translate(-4120.074 -11692)" fill="#1767b9"/>
      <path id="Trazado_663921" data-name="Trazado 663921" d="M230.3,405.485h-.671a.362.362,0,1,1,0-.725h.671a.362.362,0,1,1,0,.725" transform="translate(-4120.074 -11692)" fill="#1767b9"/>
      <path id="Trazado_663922" data-name="Trazado 663922" d="M232.528,405.485h-.669a.362.362,0,1,1,0-.725h.669a.362.362,0,1,1,0,.725" transform="translate(-4120.074 -11692)" fill="#1767b9"/>
      <path id="Trazado_663923" data-name="Trazado 663923" d="M231.077,406.936a.363.363,0,0,1-.363-.363V405.9a.363.363,0,0,1,.726,0v.669a.363.363,0,0,1-.363.363" transform="translate(-4120.074 -11692)" fill="#1767b9"/>
      <path id="Trazado_663924" data-name="Trazado 663924" d="M231.077,404.7a.363.363,0,0,1-.363-.363v-.669a.363.363,0,0,1,.726,0v.669a.363.363,0,0,1-.363.363" transform="translate(-4120.074 -11692)" fill="#1767b9"/>
      <text id="TOMAR" transform="translate(-3913.088 -11254.884)" fill="#1767b9" font-size="10.403" font-family="Roboto-Bold, Roboto" font-weight="700"><tspan x="0" y="0">TOMAR</tspan></text>
      <path id="Trazado_663925" data-name="Trazado 663925" d="M295.53,426.105c3.12-6.538,3.451-18.427,3.451-18.427h7.84s.328,11.889,3.451,18.427Z" transform="translate(-4120.074 -11692)" fill="#f1f1f1"/>
      <path id="Trazado_663926" data-name="Trazado 663926" d="M295.53,426.105c3.12-6.538,3.451-18.427,3.451-18.427H304a68.954,68.954,0,0,0,2.509,18.427Z" transform="translate(-4120.074 -11692)" fill="#fff"/>
      <path id="Trazado_663927" data-name="Trazado 663927" d="M310.271,426.412H295.529a.3.3,0,0,1-.276-.438c3.056-6.4,3.416-18.185,3.42-18.3a.307.307,0,0,1,.307-.3h7.84a.311.311,0,0,1,.309.3c0,.119.362,11.9,3.42,18.3a.306.306,0,0,1-.278.438m-14.262-.613h13.784c-2.662-6.005-3.191-15.966-3.268-17.813h-7.25c-.075,1.847-.6,11.808-3.266,17.813" transform="translate(-4120.074 -11692)" fill="#1767b9"/>
      <path id="Trazado_663928" data-name="Trazado 663928" d="M306.992,410.634h-8.183c-.049.626-.112,1.329-.19,2.087h8.561c-.076-.758-.139-1.461-.188-2.087" transform="translate(-4120.074 -11692)" fill="#fff"/>
      <path id="Trazado_663929" data-name="Trazado 663929" d="M307.18,413.026h-8.56a.31.31,0,0,1-.307-.337c.08-.754.141-1.456.19-2.08a.307.307,0,0,1,.306-.283h8.184a.31.31,0,0,1,.306.283c.047.624.11,1.326.188,2.08a.307.307,0,0,1-.307.337m-8.221-.613h7.882c-.052-.521-.1-1.015-.133-1.472h-7.616c-.037.457-.082.951-.133,1.472" transform="translate(-4120.074 -11692)" fill="#1767b9"/>
      <path id="Trazado_663930" data-name="Trazado 663930" d="M285.74,426.105c3.642-7.7,4.026-21.7,4.026-21.7h9.148s.384,14,4.026,21.7Z" transform="translate(-4120.074 -11692)" fill="#f1f1f1"/>
      <path id="Trazado_663931" data-name="Trazado 663931" d="M285.74,426.105c3.642-7.7,4.026-21.7,4.026-21.7h5.855a81.916,81.916,0,0,0,2.927,21.7Z" transform="translate(-4120.074 -11692)" fill="#fff"/>
      <path id="Trazado_663932" data-name="Trazado 663932" d="M302.939,426.412h-17.2a.3.3,0,0,1-.258-.142.308.308,0,0,1-.018-.3c3.572-7.554,3.992-21.441,3.995-21.58a.309.309,0,0,1,.307-.3h9.148a.307.307,0,0,1,.307.3c0,.139.426,14.026,4,21.58a.306.306,0,0,1-.278.438m-16.72-.613h16.242c-3.158-7.112-3.762-19.053-3.843-21.089h-8.557c-.081,2.036-.686,13.977-3.842,21.089" transform="translate(-4120.074 -11692)" fill="#1767b9"/>
      <path id="Trazado_663933" data-name="Trazado 663933" d="M299.115,407.883h-9.55c-.058.736-.13,1.566-.22,2.457h9.989c-.092-.891-.163-1.721-.219-2.457" transform="translate(-4120.074 -11692)" fill="#fff"/>
      <path id="Trazado_663934" data-name="Trazado 663934" d="M299.335,410.646h-9.99a.3.3,0,0,1-.227-.1.3.3,0,0,1-.078-.236c.084-.833.157-1.658.218-2.449a.308.308,0,0,1,.307-.284h9.55a.3.3,0,0,1,.3.284c.063.8.137,1.625.22,2.449a.307.307,0,0,1-.3.337m-9.65-.613h9.31c-.061-.619-.116-1.237-.166-1.842h-8.981c-.047.6-.1,1.218-.163,1.842" transform="translate(-4120.074 -11692)" fill="#1767b9"/>
      <path id="Trazado_663935" data-name="Trazado 663935" d="M311.129,426.413H284.921a.307.307,0,0,1,0-.615h26.208a.307.307,0,0,1,0,.615" transform="translate(-4120.074 -11692)" fill="#1767b9"/>
      <path id="Trazado_663936" data-name="Trazado 663936" d="M297,403.481a.306.306,0,0,1-.307-.307,2.152,2.152,0,0,0-2.15-2.15h-.819a.307.307,0,0,1,0-.615h.819a2.768,2.768,0,0,1,2.764,2.765.306.306,0,0,1-.307.307" transform="translate(-4120.074 -11692)" fill="#1767b9"/>
      <path id="Trazado_663937" data-name="Trazado 663937" d="M285.944,400.2H284.92a.307.307,0,1,1,0-.613h1.024a.307.307,0,1,1,0,.613" transform="translate(-4120.074 -11692)" fill="#1767b9"/>
      <path id="Trazado_663938" data-name="Trazado 663938" d="M289.63,401.843h-3.481a.306.306,0,1,1,0-.613h3.481a.306.306,0,1,1,0,.613" transform="translate(-4120.074 -11692)" fill="#1767b9"/>
      <path id="Trazado_663939" data-name="Trazado 663939" d="M302.735,403.071h-3.481a.307.307,0,1,1,0-.613h3.481a.307.307,0,1,1,0,.613" transform="translate(-4120.074 -11692)" fill="#1767b9"/>
      <path id="Trazado_663940" data-name="Trazado 663940" d="M300.687,401.433h-2.662a.307.307,0,1,1,0-.613h2.662a.307.307,0,1,1,0,.613" transform="translate(-4120.074 -11692)" fill="#1767b9"/>
      <path id="Trazado_663941" data-name="Trazado 663941" d="M292.907,403.481a.306.306,0,0,1-.307-.307,2.973,2.973,0,0,0-2.969-2.969h-2.05a.307.307,0,0,1,0-.615h2.05a3.587,3.587,0,0,1,3.583,3.584.306.306,0,0,1-.307.307" transform="translate(-4120.074 -11692)" fill="#1767b9"/>
      <path id="Trazado_663942" data-name="Trazado 663942" d="M305.246,406.757a.306.306,0,0,1-.307-.307,1.743,1.743,0,0,0-1.74-1.74h-2.731a.307.307,0,0,1,0-.615H303.2a2.358,2.358,0,0,1,2.354,2.355.306.306,0,0,1-.307.307" transform="translate(-4120.074 -11692)" fill="#1767b9"/>
      <path id="Trazado_663943" data-name="Trazado 663943" d="M289.479,421.285a.354.354,0,0,1-.056-.005.306.306,0,0,1-.245-.359c.344-1.838.644-3.923.893-6.2a.307.307,0,1,1,.611.066c-.251,2.293-.554,4.394-.9,6.248a.305.305,0,0,1-.3.251" transform="translate(-4120.074 -11692)" fill="#1767b9"/>
      <path id="Trazado_663944" data-name="Trazado 663944" d="M288.815,424.312a.285.285,0,0,1-.077-.009.307.307,0,0,1-.221-.373c.109-.426.212-.863.311-1.308a.307.307,0,1,1,.6.135c-.1.451-.2.893-.315,1.326a.307.307,0,0,1-.3.229" transform="translate(-4120.074 -11692)" fill="#1767b9"/>
      <text id="PRODUCIR" transform="translate(-3849.018 -11253.77)" fill="#1767b9" font-size="10.403" font-family="Roboto-Bold, Roboto" font-weight="700"><tspan x="0" y="0">PRODUCIR</tspan></text>
      <path id="Trazado_663945" data-name="Trazado 663945" d="M365.675,415.186a.227.227,0,0,1-.227-.227v-4.464a.227.227,0,1,1,.454,0v4.464a.229.229,0,0,1-.227.227" transform="translate(-4120.074 -11692)" fill="#1767b9"/>
      <path id="Trazado_663946" data-name="Trazado 663946" d="M365.675,415.231a.273.273,0,0,1-.272-.273V410.5a.272.272,0,1,1,.544,0v4.462a.273.273,0,0,1-.272.273m0-4.919a.184.184,0,0,0-.184.184v4.462a.183.183,0,0,0,.366,0V410.5a.182.182,0,0,0-.182-.184" transform="translate(-4120.074 -11692)" fill="#1767b9"/>
      <path id="Trazado_663947" data-name="Trazado 663947" d="M365.675,409.508a.227.227,0,0,1-.227-.227v-.7a.227.227,0,1,1,.454,0v.7a.229.229,0,0,1-.227.227" transform="translate(-4120.074 -11692)" fill="#1767b9"/>
      <path id="Trazado_663948" data-name="Trazado 663948" d="M365.675,409.553a.272.272,0,0,1-.272-.272v-.7a.272.272,0,1,1,.544,0v.7a.272.272,0,0,1-.272.272m0-1.154a.184.184,0,0,0-.184.184v.7a.183.183,0,0,0,.366,0v-.7a.182.182,0,0,0-.182-.184" transform="translate(-4120.074 -11692)" fill="#1767b9"/>
      <path id="Trazado_663949" data-name="Trazado 663949" d="M382.982,419.438a.227.227,0,0,1-.227-.227v-3.554a.227.227,0,1,1,.454,0v3.554a.229.229,0,0,1-.227.227" transform="translate(-4120.074 -11692)" fill="#1767b9"/>
      <path id="Trazado_663950" data-name="Trazado 663950" d="M382.982,419.482a.273.273,0,0,1-.272-.273v-3.551a.272.272,0,1,1,.544,0v3.551a.273.273,0,0,1-.272.273m0-4.008a.184.184,0,0,0-.184.184v3.551a.183.183,0,0,0,.366,0v-3.551a.182.182,0,0,0-.182-.184" transform="translate(-4120.074 -11692)" fill="#1767b9"/>
      <path id="Trazado_663951" data-name="Trazado 663951" d="M382.982,414.67a.227.227,0,0,1-.227-.227v-.7a.227.227,0,1,1,.454,0v.7a.229.229,0,0,1-.227.227" transform="translate(-4120.074 -11692)" fill="#1767b9"/>
      <path id="Trazado_663952" data-name="Trazado 663952" d="M382.982,414.715a.272.272,0,0,1-.272-.272v-.7a.272.272,0,1,1,.544,0v.7a.272.272,0,0,1-.272.272m0-1.154a.184.184,0,0,0-.184.184v.7a.183.183,0,0,0,.366,0v-.7a.182.182,0,0,0-.182-.184" transform="translate(-4120.074 -11692)" fill="#1767b9"/>
      <path id="Trazado_663953" data-name="Trazado 663953" d="M380.035,421.336H368.924a1.216,1.216,0,0,1-1.212-1.122l-1.127-14.668h15.789l-1.129,14.668a1.213,1.213,0,0,1-1.21,1.122" transform="translate(-4120.074 -11692)" fill="#fff"/>
      <path id="Trazado_663954" data-name="Trazado 663954" d="M380.036,421.381H368.925a1.266,1.266,0,0,1-1.256-1.164L366.537,405.5h15.887l0,.049-1.129,14.667a1.264,1.264,0,0,1-1.255,1.164m-13.4-15.79,1.126,14.619a1.172,1.172,0,0,0,1.165,1.08h11.111a1.176,1.176,0,0,0,1.167-1.08l1.123-14.619Z" transform="translate(-4120.074 -11692)" fill="#1767b9"/>
      <path id="Trazado_663955" data-name="Trazado 663955" d="M381,405.546l-.987,12.823a.91.91,0,0,1-.907.84H367.711c-.025,0-.051-.005-.074-.007l.077,1.012a1.216,1.216,0,0,0,1.211,1.122h11.111a1.216,1.216,0,0,0,1.212-1.122l1.127-14.668Z" transform="translate(-4120.074 -11692)" fill="#f1f1f1"/>
      <path id="Trazado_663956" data-name="Trazado 663956" d="M380.036,421.564H368.925a1.453,1.453,0,0,1-1.439-1.333l-1.128-14.668a.223.223,0,0,1,.06-.171.23.23,0,0,1,.168-.074h15.789a.222.222,0,0,1,.166.074.229.229,0,0,1,.062.171l-1.13,14.668a1.45,1.45,0,0,1-1.437,1.333m-13.205-15.79L367.94,420.2a.992.992,0,0,0,.985.911h11.111a.993.993,0,0,0,.983-.911l1.109-14.422Z" transform="translate(-4120.074 -11692)" fill="#1767b9"/>
      <path id="Trazado_663957" data-name="Trazado 663957" d="M380.035,421.609H368.924a1.5,1.5,0,0,1-1.482-1.375l-1.129-14.668a.275.275,0,0,1,.272-.294h15.79a.275.275,0,0,1,.2.089.278.278,0,0,1,.072.205l-1.129,14.668a1.5,1.5,0,0,1-1.483,1.375m-13.45-16.246a.185.185,0,0,0-.182.2l1.127,14.668a1.406,1.406,0,0,0,1.394,1.291h11.111a1.4,1.4,0,0,0,1.393-1.291l1.129-14.668a.186.186,0,0,0-.049-.137.179.179,0,0,0-.133-.059Zm13.45,15.789H368.924a1.035,1.035,0,0,1-1.029-.952l-1.113-14.471h15.394l0,.049-1.11,14.422a1.035,1.035,0,0,1-1.028.952m-13.156-15.333,1.106,14.374a.946.946,0,0,0,.939.869h11.111a.946.946,0,0,0,.938-.869l1.108-14.374Z" transform="translate(-4120.074 -11692)" fill="#1767b9"/>
      <path id="Trazado_663958" data-name="Trazado 663958" d="M383.893,403.724H365.371V402.51a.608.608,0,0,1,.606-.608h16.7a1.216,1.216,0,0,1,1.214,1.214Z" transform="translate(-4120.074 -11692)" fill="#f1f1f1"/>
      <path id="Trazado_663959" data-name="Trazado 663959" d="M383.938,403.769H365.326V402.51a.653.653,0,0,1,.653-.653h16.7a1.26,1.26,0,0,1,1.259,1.259Zm-18.522-.09h18.432v-.563a1.171,1.171,0,0,0-1.169-1.169h-16.7a.564.564,0,0,0-.563.563Z" transform="translate(-4120.074 -11692)" fill="#1767b9"/>
      <path id="Trazado_663960" data-name="Trazado 663960" d="M381.767,403.724h-16.4V402.51a.609.609,0,0,1,.606-.608h14.576a1.215,1.215,0,0,1,1.214,1.214Z" transform="translate(-4120.074 -11692)" fill="#fff"/>
      <path id="Trazado_663961" data-name="Trazado 663961" d="M381.812,403.769H365.326V402.51a.653.653,0,0,1,.653-.653h14.574a1.261,1.261,0,0,1,1.259,1.259Zm-16.4-.09h16.307v-.563a1.171,1.171,0,0,0-1.17-1.169H365.979a.564.564,0,0,0-.563.563Z" transform="translate(-4120.074 -11692)" fill="#1767b9"/>
      <path id="Trazado_663962" data-name="Trazado 663962" d="M383.894,403.952H365.372a.227.227,0,0,1-.229-.228V402.51a.836.836,0,0,1,.835-.835h16.7a1.445,1.445,0,0,1,1.443,1.443v.606a.228.228,0,0,1-.227.228m-18.3-.455h18.066v-.379a.989.989,0,0,0-.987-.988h-16.7a.38.38,0,0,0-.379.38Z" transform="translate(-4120.074 -11692)" fill="#1767b9"/>
      <path id="Trazado_663963" data-name="Trazado 663963" d="M383.894,404H365.372a.274.274,0,0,1-.275-.273V402.51a.88.88,0,0,1,.881-.88h16.7a1.489,1.489,0,0,1,1.488,1.487v.607a.273.273,0,0,1-.272.273m-17.916-2.277a.79.79,0,0,0-.79.79v1.214a.183.183,0,0,0,.184.183h18.522a.184.184,0,0,0,.182-.183v-.607a1.4,1.4,0,0,0-1.4-1.4Zm17.732,1.822H365.554V402.51a.426.426,0,0,1,.424-.425h16.7a1.033,1.033,0,0,1,1.032,1.032Zm-18.066-.09H383.62v-.335a.942.942,0,0,0-.942-.942h-16.7a.335.335,0,0,0-.334.335Z" transform="translate(-4120.074 -11692)" fill="#1767b9"/>
      <path id="Trazado_663964" data-name="Trazado 663964" d="M382.679,405.546h-16.7a.608.608,0,0,1-.607-.608v-1.214h18.522v.608a1.215,1.215,0,0,1-1.214,1.214" transform="translate(-4120.074 -11692)" fill="#f1f1f1"/>
      <path id="Trazado_663965" data-name="Trazado 663965" d="M382.679,405.591h-16.7a.653.653,0,0,1-.653-.653v-1.259h18.612v.653a1.26,1.26,0,0,1-1.259,1.259m-17.263-1.822v1.169a.564.564,0,0,0,.563.563h16.7a1.171,1.171,0,0,0,1.169-1.169v-.563Z" transform="translate(-4120.074 -11692)" fill="#1767b9"/>
      <path id="Trazado_663966" data-name="Trazado 663966" d="M380.856,405.546H365.977a.607.607,0,0,1-.606-.608v-1.214h16.7v.608a1.215,1.215,0,0,1-1.214,1.214" transform="translate(-4120.074 -11692)" fill="#fff"/>
      <path id="Trazado_663967" data-name="Trazado 663967" d="M380.858,405.591H365.979a.653.653,0,0,1-.653-.653v-1.259h16.791v.653a1.261,1.261,0,0,1-1.259,1.259m-15.442-1.822v1.169a.564.564,0,0,0,.563.563h14.879a1.171,1.171,0,0,0,1.168-1.169v-.563Z" transform="translate(-4120.074 -11692)" fill="#1767b9"/>
      <path id="Trazado_663968" data-name="Trazado 663968" d="M382.678,405.774h-16.7a.836.836,0,0,1-.835-.835v-1.214a.227.227,0,0,1,.229-.228h18.522a.228.228,0,0,1,.227.228v.606a1.445,1.445,0,0,1-1.443,1.443M365.6,403.952v.987a.379.379,0,0,0,.379.378h16.7a.987.987,0,0,0,.987-.986v-.379Z" transform="translate(-4120.074 -11692)" fill="#1767b9"/>
      <path id="Trazado_663969" data-name="Trazado 663969" d="M382.678,405.819h-16.7a.88.88,0,0,1-.881-.88v-1.214a.274.274,0,0,1,.275-.273h18.522a.273.273,0,0,1,.272.273v.608a1.489,1.489,0,0,1-1.488,1.486m-17.306-2.277a.183.183,0,0,0-.184.183v1.214a.79.79,0,0,0,.79.79h16.7a1.4,1.4,0,0,0,1.4-1.4v-.608a.184.184,0,0,0-.182-.183Zm17.306,1.82h-16.7a.424.424,0,0,1-.424-.423v-1.032H383.71v.426a1.031,1.031,0,0,1-1.032,1.029M365.644,404v.942a.335.335,0,0,0,.334.335h16.7a.943.943,0,0,0,.942-.941V404Z" transform="translate(-4120.074 -11692)" fill="#1767b9"/>
      <path id="Trazado_663970" data-name="Trazado 663970" d="M366.281,403.724a.911.911,0,1,1-.911-.911.911.911,0,0,1,.911.911" transform="translate(-4120.074 -11692)" fill="#f1f1f1"/>
      <path id="Trazado_663971" data-name="Trazado 663971" d="M365.371,404.68a.956.956,0,1,1,.956-.956.958.958,0,0,1-.956.956m0-1.822a.866.866,0,1,0,.866.866.866.866,0,0,0-.866-.866" transform="translate(-4120.074 -11692)" fill="#1767b9"/>
      <path id="Trazado_663972" data-name="Trazado 663972" d="M365.371,404.863a1.139,1.139,0,1,1,1.138-1.14,1.14,1.14,0,0,1-1.138,1.14m0-1.822a.683.683,0,1,0,.684.682.685.685,0,0,0-.684-.682" transform="translate(-4120.074 -11692)" fill="#1767b9"/>
      <path id="Trazado_663973" data-name="Trazado 663973" d="M365.371,404.908a1.184,1.184,0,1,1,1.183-1.183,1.185,1.185,0,0,1-1.183,1.183m0-2.278a1.094,1.094,0,1,0,1.093,1.1,1.095,1.095,0,0,0-1.093-1.1m0,1.821a.727.727,0,1,1,.729-.726.729.729,0,0,1-.729.726m0-1.365a.639.639,0,1,0,.639.639.64.64,0,0,0-.639-.639" transform="translate(-4120.074 -11692)" fill="#1767b9"/>
      <path id="Trazado_663974" data-name="Trazado 663974" d="M379.338,413.441a4.859,4.859,0,1,0-4.857,4.857,4.858,4.858,0,0,0,4.857-4.857" transform="translate(-4120.074 -11692)" fill="#fff"/>
      <path id="Trazado_663975" data-name="Trazado 663975" d="M374.48,418.344a4.9,4.9,0,1,1,4.9-4.9,4.907,4.907,0,0,1-4.9,4.9m0-9.717a4.813,4.813,0,1,0,4.812,4.814,4.818,4.818,0,0,0-4.812-4.814" transform="translate(-4120.074 -11692)" fill="#1767b9"/>
      <path id="Trazado_663976" data-name="Trazado 663976" d="M377.578,409.7a4.855,4.855,0,0,1-7.256,6.243,4.855,4.855,0,1,0,7.256-6.243" transform="translate(-4120.074 -11692)" fill="#f1f1f1"/>
      <path id="Trazado_663977" data-name="Trazado 663977" d="M374.48,418.527a5.086,5.086,0,1,1,5.086-5.087,5.092,5.092,0,0,1-5.086,5.087m0-9.717a4.631,4.631,0,1,0,4.63,4.63,4.635,4.635,0,0,0-4.63-4.63" transform="translate(-4120.074 -11692)" fill="#1767b9"/>
      <path id="Trazado_663978" data-name="Trazado 663978" d="M374.48,418.572a5.131,5.131,0,1,1,5.132-5.132,5.138,5.138,0,0,1-5.132,5.132m0-10.172a5.04,5.04,0,1,0,5.041,5.04,5.046,5.046,0,0,0-5.041-5.04m0,9.717a4.676,4.676,0,1,1,4.675-4.677,4.681,4.681,0,0,1-4.675,4.677m0-9.262a4.586,4.586,0,1,0,4.585,4.585,4.59,4.59,0,0,0-4.585-4.585" transform="translate(-4120.074 -11692)" fill="#1767b9"/>
      <path id="Trazado_663979" data-name="Trazado 663979" d="M394.372,420.3a2.893,2.893,0,0,1-.653-1.8,10.2,10.2,0,0,0-4.457-8.241,3.715,3.715,0,0,1-4.221,0,10.2,10.2,0,0,0-4.458,8.241,2.9,2.9,0,0,1-.653,1.8,1.947,1.947,0,0,0-.4,1.23c0,.453.814.406,1.544.274a4.686,4.686,0,0,1,2.278.173,13.065,13.065,0,0,0,7.6,0,4.676,4.676,0,0,1,2.276-.173c.731.132,1.546.179,1.546-.274a1.941,1.941,0,0,0-.4-1.23" transform="translate(-4120.074 -11692)" fill="#fff"/>
      <path id="Trazado_663980" data-name="Trazado 663980" d="M386.869,422.592a11.584,11.584,0,0,1-3.532-.572,4.669,4.669,0,0,0-2.255-.171q-1.155.21-1.479-.058a.328.328,0,0,1-.119-.262,2,2,0,0,1,.411-1.255,2.857,2.857,0,0,0,.643-1.777c-.069-5.355,4.433-8.25,4.478-8.279l.031-.019.025.025a3.673,3.673,0,0,0,4.158,0l.025-.025.031.019c.045.029,4.547,2.924,4.478,8.279a2.862,2.862,0,0,0,.642,1.777,1.983,1.983,0,0,1,.412,1.255.328.328,0,0,1-.119.262c-.213.179-.709.2-1.48.058a4.668,4.668,0,0,0-2.254.171,11.581,11.581,0,0,1-3.534.572c-.093,0-.187,0-.281,0s-.188,0-.281,0m.281-.094c.094,0,.188,0,.28,0a11.477,11.477,0,0,0,3.508-.567,4.712,4.712,0,0,1,2.3-.175c.73.132,1.217.119,1.4-.038a.236.236,0,0,0,.088-.193,1.91,1.91,0,0,0-.393-1.2,2.923,2.923,0,0,1-.662-1.832,10.212,10.212,0,0,0-4.408-8.182,3.816,3.816,0,0,1-4.23,0,10.212,10.212,0,0,0-4.408,8.182,2.919,2.919,0,0,1-.662,1.832,1.913,1.913,0,0,0-.392,1.2.234.234,0,0,0,.089.193c.187.157.673.17,1.4.038a4.722,4.722,0,0,1,2.3.175,11.454,11.454,0,0,0,3.5.567c.092,0,.186,0,.28,0" transform="translate(-4120.074 -11692)" fill="#1767b9"/>
      <path id="Trazado_663981" data-name="Trazado 663981" d="M383.886,419.512c-.038-3.055,1.4-6.354,2.651-8.642a2.7,2.7,0,0,1-1.5-.615,10.207,10.207,0,0,0-4.457,8.242,2.9,2.9,0,0,1-.653,1.8,1.955,1.955,0,0,0-.4,1.23c0,.453.814.406,1.546.275a4.624,4.624,0,0,1,1.867.059,1.907,1.907,0,0,1,.292-.548,2.889,2.889,0,0,0,.653-1.8" transform="translate(-4120.074 -11692)" fill="#f1f1f1"/>
      <path id="Trazado_663982" data-name="Trazado 663982" d="M387.431,422.737l-.285,0a11.73,11.73,0,0,1-3.853-.574,4.494,4.494,0,0,0-2.184-.168c-.824.15-1.347.121-1.6-.088a.475.475,0,0,1-.173-.373,2.148,2.148,0,0,1,.442-1.348,2.693,2.693,0,0,0,.613-1.685c-.069-5.434,4.5-8.374,4.547-8.4a.194.194,0,0,1,.235.023,3.544,3.544,0,0,0,3.955,0,.191.191,0,0,1,.233-.023c.047.029,4.615,2.969,4.547,8.4a2.693,2.693,0,0,0,.613,1.685,2.153,2.153,0,0,1,.44,1.348.473.473,0,0,1-.171.373c-.251.209-.774.238-1.6.088a4.519,4.519,0,0,0-2.185.168,11.74,11.74,0,0,1-3.58.577m-.285-.384a11.291,11.291,0,0,0,3.746-.556,4.9,4.9,0,0,1,2.37-.18c.974.177,1.231.04,1.286-.007a.087.087,0,0,0,.035-.079,1.765,1.765,0,0,0-.361-1.113,3.069,3.069,0,0,1-.693-1.925,10.025,10.025,0,0,0-4.253-8,4,4,0,0,1-4.249,0,10.044,10.044,0,0,0-4.253,8,3.069,3.069,0,0,1-.693,1.925,1.765,1.765,0,0,0-.361,1.113.094.094,0,0,0,.034.079c.056.047.312.184,1.286.007a4.9,4.9,0,0,1,2.371.18,11.29,11.29,0,0,0,3.735.556" transform="translate(-4120.074 -11692)" fill="#1767b9"/>
      <path id="Trazado_663983" data-name="Trazado 663983" d="M386.864,422.781a11.744,11.744,0,0,1-3.586-.579,4.434,4.434,0,0,0-2.163-.166c-.84.151-1.372.121-1.634-.1a.514.514,0,0,1-.187-.407,2.193,2.193,0,0,1,.449-1.375,2.649,2.649,0,0,0,.6-1.657c-.069-5.437,4.522-8.415,4.569-8.444a.237.237,0,0,1,.288.031,3.49,3.49,0,0,0,3.893,0,.228.228,0,0,1,.288-.031,10.465,10.465,0,0,1,4.569,8.444,2.655,2.655,0,0,0,.6,1.657,2.184,2.184,0,0,1,.45,1.375.514.514,0,0,1-.187.407c-.263.219-.8.251-1.634.1a4.479,4.479,0,0,0-2.163.166,11.774,11.774,0,0,1-3.878.575c-.1,0-.188,0-.281,0m-5.011-.9a4.738,4.738,0,0,1,1.454.234,11.467,11.467,0,0,0,3.838.574l.285,0a11.7,11.7,0,0,0,3.566-.577,4.529,4.529,0,0,1,2.206-.166c.812.146,1.32.121,1.56-.079a.437.437,0,0,0,.157-.339,2.1,2.1,0,0,0-.433-1.321,2.733,2.733,0,0,1-.622-1.713,10.378,10.378,0,0,0-4.526-8.366.141.141,0,0,0-.178.02,3.609,3.609,0,0,1-4.019,0,.143.143,0,0,0-.178-.018c-.045.027-4.594,2.978-4.526,8.364a2.741,2.741,0,0,1-.622,1.713,2.109,2.109,0,0,0-.433,1.321.437.437,0,0,0,.157.339c.242.2.752.223,1.562.079a4.172,4.172,0,0,1,.752-.068m5.011.521a11.367,11.367,0,0,1-3.469-.563,4.833,4.833,0,0,0-2.346-.178c-.969.176-1.249.046-1.324-.017a.133.133,0,0,1-.051-.113,1.8,1.8,0,0,1,.372-1.14,3.036,3.036,0,0,0,.682-1.9A10.077,10.077,0,0,1,385,410.458l.028-.018.027.02a3.95,3.95,0,0,0,4.193,0l.025-.02.028.018a10.064,10.064,0,0,1,4.273,8.035,3.041,3.041,0,0,0,.681,1.9,1.8,1.8,0,0,1,.372,1.14.138.138,0,0,1-.052.115c-.073.061-.356.191-1.321.015a4.841,4.841,0,0,0-2.348.178,11.39,11.39,0,0,1-3.483.563c-.092,0-.184,0-.278,0s-.188,0-.281,0m-5.011-.9a5.067,5.067,0,0,1,1.571.254,11.266,11.266,0,0,0,3.44.558c.093,0,.185,0,.281,0h0c.092,0,.186,0,.276,0a11.289,11.289,0,0,0,3.454-.558,4.915,4.915,0,0,1,2.393-.18c.985.177,1.211.032,1.247,0a.046.046,0,0,0,.02-.045,1.727,1.727,0,0,0-.352-1.086,3.122,3.122,0,0,1-.7-1.952,9.957,9.957,0,0,0-4.206-7.941,4.081,4.081,0,0,1-4.253,0,9.974,9.974,0,0,0-4.206,7.941,3.122,3.122,0,0,1-.7,1.952,1.727,1.727,0,0,0-.352,1.086.049.049,0,0,0,.02.045c.036.03.269.177,1.248,0a4.4,4.4,0,0,1,.821-.074" transform="translate(-4120.074 -11692)" fill="#1767b9"/>
      <path id="Trazado_663984" data-name="Trazado 663984" d="M387.07,410.912a3.214,3.214,0,0,0,2.192-.657l1.762-3.461a5.156,5.156,0,0,1-3.954,1.023Z" transform="translate(-4120.074 -11692)" fill="#fff"/>
      <path id="Trazado_663985" data-name="Trazado 663985" d="M387.153,410.957h-.083l-.045,0v-3.192l.054.011a4.413,4.413,0,0,0,.812.075,5.331,5.331,0,0,0,3.1-1.089l.068.054-1.769,3.474a3.2,3.2,0,0,1-2.141.669m-.038-.09h.038a3.12,3.12,0,0,0,2.071-.639l1.672-3.28a5.2,5.2,0,0,1-3.781.923Z" transform="translate(-4120.074 -11692)" fill="#1767b9"/>
      <path id="Trazado_663986" data-name="Trazado 663986" d="M387.154,411.1h-.087a.191.191,0,0,1-.188-.191v-3.1a.194.194,0,0,1,.069-.147.19.19,0,0,1,.157-.039,5.015,5.015,0,0,0,3.8-.981.185.185,0,0,1,.24,0,.188.188,0,0,1,.05.234l-1.76,3.462a.221.221,0,0,1-.038.05,3.3,3.3,0,0,1-2.24.711m.106-3.061v2.678a2.929,2.929,0,0,0,1.845-.58l1.416-2.778a5.2,5.2,0,0,1-3.261.68" transform="translate(-4120.074 -11692)" fill="#1767b9"/>
      <path id="Trazado_663987" data-name="Trazado 663987" d="M387.155,411.148h-.09a.235.235,0,0,1-.231-.235v-3.1a.226.226,0,0,1,.087-.18.244.244,0,0,1,.193-.051,5.008,5.008,0,0,0,3.757-.972.235.235,0,0,1,.361.287l-1.761,3.461a.178.178,0,0,1-.048.063,3.343,3.343,0,0,1-2.268.723m-.086-3.475a.147.147,0,0,0-.145.144v3.1a.146.146,0,0,0,.143.146h.088a3.254,3.254,0,0,0,2.206-.7.133.133,0,0,0,.031-.039l1.76-3.462a.145.145,0,0,0-.222-.176,5.154,5.154,0,0,1-3.03,1.067,4.324,4.324,0,0,1-.8-.075.143.143,0,0,0-.029,0m.146,3.093V407.99l.052.007a5.1,5.1,0,0,0,3.232-.674l.13-.076-.068.134-1.423,2.792a2.973,2.973,0,0,1-1.876.593Zm.09-2.673v2.581a2.867,2.867,0,0,0,1.766-.563l1.342-2.639a5.187,5.187,0,0,1-3.108.621" transform="translate(-4120.074 -11692)" fill="#1767b9"/>
      <path id="Trazado_663988" data-name="Trazado 663988" d="M386.888,407.246a4.814,4.814,0,0,1-3.651-.451l1.8,3.461a3.1,3.1,0,0,0,2.029.657v0c.081-1.975,3.445-4.872-.182-3.665" transform="translate(-4120.074 -11692)" fill="#fff"/>
      <path id="Trazado_663989" data-name="Trazado 663989" d="M387.069,410.958a3.131,3.131,0,0,1-2.06-.669l-.007-.011-1.879-3.606.137.083a4.767,4.767,0,0,0,3.614.447c.971-.322,1.49-.371,1.669-.153.216.262-.105.837-.512,1.564a5.884,5.884,0,0,0-.917,2.3v.045Zm-1.991-.729a3.032,3.032,0,0,0,1.95.639,6.1,6.1,0,0,1,.923-2.3c.375-.669.7-1.247.522-1.461-.148-.181-.662-.121-1.571.182l-.015-.043.015.043a4.842,4.842,0,0,1-3.557-.384Z" transform="translate(-4120.074 -11692)" fill="#1767b9"/>
      <path id="Trazado_663990" data-name="Trazado 663990" d="M383.236,406.794l1.8,3.461a2.641,2.641,0,0,0,1.412.6,5.645,5.645,0,0,1-.491-3.431,5.114,5.114,0,0,1-2.725-.633" transform="translate(-4120.074 -11692)" fill="#f1f1f1"/>
      <path id="Trazado_663991" data-name="Trazado 663991" d="M386.537,410.918l-.092-.014a2.685,2.685,0,0,1-1.436-.615l-.007-.011-1.879-3.606.137.083a5.178,5.178,0,0,0,2.4.637c.1,0,.2,0,.3-.011l.062,0-.013.06a5.585,5.585,0,0,0,.485,3.4Zm-1.459-.689a2.528,2.528,0,0,0,1.291.57,5.78,5.78,0,0,1-.463-3.322c-.083,0-.164.007-.245.007a5.31,5.31,0,0,1-2.316-.579Z" transform="translate(-4120.074 -11692)" fill="#1767b9"/>
      <path id="Trazado_663992" data-name="Trazado 663992" d="M387.071,411.1h0a3.285,3.285,0,0,1-2.159-.709.189.189,0,0,1-.036-.048l-1.8-3.464a.19.19,0,0,1,.267-.25,4.65,4.65,0,0,0,3.492.434c1.07-.355,1.6-.386,1.828-.108.279.338-.046.92-.5,1.726a5.818,5.818,0,0,0-.9,2.237.189.189,0,0,1-.189.182m-1.876-.963a2.8,2.8,0,0,0,1.7.575,6.787,6.787,0,0,1,.929-2.218c.26-.462.649-1.16.535-1.3-.025-.031-.216-.17-1.412.229a4.757,4.757,0,0,1-3.275-.207Z" transform="translate(-4120.074 -11692)" fill="#1767b9"/>
      <path id="Trazado_663993" data-name="Trazado 663993" d="M387.071,411.148h0a3.323,3.323,0,0,1-2.19-.723.205.205,0,0,1-.045-.06l-1.8-3.461a.235.235,0,0,1,.328-.312,4.63,4.63,0,0,0,3.456.431c1.086-.363,1.632-.391,1.876-.1.3.365-.033.958-.493,1.779a5.745,5.745,0,0,0-.891,2.215.234.234,0,0,1-.234.227m-3.833-4.5a.14.14,0,0,0-.1.039.143.143,0,0,0-.029.172l1.8,3.463a.308.308,0,0,0,.027.036,3.231,3.231,0,0,0,2.128.7l0,.045v-.045a.145.145,0,0,0,.144-.141,5.819,5.819,0,0,1,.9-2.256c.444-.79.763-1.36.5-1.674-.214-.262-.73-.227-1.778.121a4.7,4.7,0,0,1-3.53-.438.135.135,0,0,0-.074-.02m3.7,4.112-.042,0a2.853,2.853,0,0,1-1.73-.588l-.009-.012-1.58-3.029.116.049a4.748,4.748,0,0,0,3.243.2c1.159-.386,1.41-.278,1.463-.213.122.15-.168.7-.533,1.347a6.777,6.777,0,0,0-.923,2.2Zm-1.705-.651a2.752,2.752,0,0,0,1.627.557,6.954,6.954,0,0,1,.927-2.193c.189-.339.637-1.133.541-1.246,0,0-.155-.161-1.365.241a4.793,4.793,0,0,1-3.191-.162Z" transform="translate(-4120.074 -11692)" fill="#1767b9"/>
      <path id="Trazado_663994" data-name="Trazado 663994" d="M387.151,411.106a3.331,3.331,0,0,1-2.242-.714.19.19,0,1,1,.265-.273,3.553,3.553,0,0,0,3.956,0,.19.19,0,1,1,.263.273,3.331,3.331,0,0,1-2.242.714" transform="translate(-4120.074 -11692)" fill="#1767b9"/>
      <path id="Trazado_663995" data-name="Trazado 663995" d="M387.151,411.151a3.359,3.359,0,0,1-2.274-.725.237.237,0,0,1-.006-.334.245.245,0,0,1,.166-.072h0a.232.232,0,0,1,.164.067,3.492,3.492,0,0,0,3.893,0,.234.234,0,0,1,.333.005.238.238,0,0,1-.005.334,3.364,3.364,0,0,1-2.275.725m-2.11-1.041h0a.142.142,0,0,0-.1.045.146.146,0,0,0-.041.1.155.155,0,0,0,.045.1,3.843,3.843,0,0,0,4.423,0,.144.144,0,0,0,.043-.1.137.137,0,0,0-.04-.1.139.139,0,0,0-.1-.045h0a.141.141,0,0,0-.1.041,3.605,3.605,0,0,1-4.019,0,.141.141,0,0,0-.1-.041" transform="translate(-4120.074 -11692)" fill="#1767b9"/>
      <path id="Trazado_663996" data-name="Trazado 663996" d="M395.79,411.051a.188.188,0,0,1-.135-.056l-.763-.763a.191.191,0,0,1,.27-.269l.763.762a.192.192,0,0,1,0,.27.188.188,0,0,1-.135.056" transform="translate(-4120.074 -11692)" fill="#1767b9"/>
      <path id="Trazado_663997" data-name="Trazado 663997" d="M395.79,411.1a.233.233,0,0,1-.168-.069l-.761-.763a.236.236,0,0,1,.166-.4.229.229,0,0,1,.166.07l.763.761a.236.236,0,0,1-.166.4m-.763-1.144a.146.146,0,0,0-.1.249l.763.763a.145.145,0,0,0,.2,0,.148.148,0,0,0,0-.208l-.763-.761a.145.145,0,0,0-.1-.043" transform="translate(-4120.074 -11692)" fill="#1767b9"/>
      <path id="Trazado_663998" data-name="Trazado 663998" d="M395.027,411.051a.188.188,0,0,1-.135-.056.192.192,0,0,1,0-.27l.763-.762a.191.191,0,0,1,.27.269l-.763.763a.188.188,0,0,1-.135.056" transform="translate(-4120.074 -11692)" fill="#1767b9"/>
      <path id="Trazado_663999" data-name="Trazado 663999" d="M395.027,411.1a.231.231,0,0,1-.166-.069.237.237,0,0,1,0-.334l.763-.761a.229.229,0,0,1,.166-.07.236.236,0,0,1,.166.4l-.763.763a.226.226,0,0,1-.166.069m.763-1.144h0a.144.144,0,0,0-.1.043l-.763.761a.146.146,0,1,0,.206.208l.763-.763a.146.146,0,0,0-.1-.249" transform="translate(-4120.074 -11692)" fill="#1767b9"/>
      <path id="Trazado_664000" data-name="Trazado 664000" d="M393.249,408.763a.188.188,0,0,1-.135-.056l-.763-.763a.191.191,0,1,1,.27-.269l.763.763a.191.191,0,0,1,0,.269.188.188,0,0,1-.135.056" transform="translate(-4120.074 -11692)" fill="#1767b9"/>
      <path id="Trazado_664001" data-name="Trazado 664001" d="M393.249,408.809a.236.236,0,0,1-.166-.069l-.763-.763a.235.235,0,1,1,.332-.334l.763.763a.237.237,0,0,1,0,.334.231.231,0,0,1-.166.069m-.763-1.144a.146.146,0,0,0-.1.041.15.15,0,0,0,0,.208l.763.763a.149.149,0,0,0,.206,0,.147.147,0,0,0,0-.206l-.763-.763a.146.146,0,0,0-.1-.041" transform="translate(-4120.074 -11692)" fill="#1767b9"/>
      <path id="Trazado_664002" data-name="Trazado 664002" d="M392.486,408.763a.188.188,0,0,1-.135-.056.191.191,0,0,1,0-.269l.763-.763a.191.191,0,1,1,.27.269l-.763.763a.188.188,0,0,1-.135.056" transform="translate(-4120.074 -11692)" fill="#1767b9"/>
      <path id="Trazado_664003" data-name="Trazado 664003" d="M392.486,408.809a.231.231,0,0,1-.166-.069.237.237,0,0,1,0-.334l.763-.763a.235.235,0,0,1,.332.334l-.763.763a.236.236,0,0,1-.166.069m.763-1.144a.146.146,0,0,0-.1.041l-.763.763a.146.146,0,1,0,.206.208l.763-.763a.145.145,0,0,0-.1-.249" transform="translate(-4120.074 -11692)" fill="#1767b9"/>
      <text id="DESECHAR" transform="translate(-3767.799 -11255.854)" fill="#1767b9" font-size="10.403" font-family="Roboto-Bold, Roboto" font-weight="700"><tspan x="0" y="0">DESECHAR</tspan></text>
      <text id="BASURA" transform="translate(-3685.753 -11268.961)" fill="#4d4d4d" font-size="10.403" font-family="Roboto-Bold, Roboto" font-weight="700"><tspan x="0" y="0">BASURA</tspan></text>
      <text id="ENERGÍA_DE_RECURSOS_FINITOS" data-name="ENERGÍA DE RECURSOS FINITOS" transform="translate(-3998.237 -11209.038)" fill="#4d4d4d" font-size="10.822" font-family="Roboto-Bold, Roboto" font-weight="700"><tspan x="0" y="0">ENERGÍA DE RECURSOS FINITOS</tspan></text>
      <text id="M" transform="translate(-3998.237 -11220.456)" fill="#4d4d4d" font-size="10.822" font-family="Roboto-Bold, Roboto" font-weight="700"><tspan x="0" y="0">M</tspan></text>
      <text id="A-2" data-name="A" transform="translate(-3988.757 -11220.456)" fill="#4d4d4d" font-size="10.822" font-family="Roboto-Bold, Roboto" font-weight="700"><tspan x="0" y="0">A</tspan></text>
      <text id="TERIALES_TÉCNICOS_Y_BIOLÓGICOS_MEZCLADOS" data-name="TERIALES TÉCNICOS Y BIOLÓGICOS MEZCLADOS" transform="translate(-3982.469 -11220.456)" fill="#4d4d4d" font-size="10.822" font-family="Roboto-Bold, Roboto" font-weight="700"><tspan x="0" y="0">TERIALES TÉCNICOS Y BIOLÓGICOS MEZCLADOS</tspan></text>
      <text id="M-2" data-name="M" transform="translate(-3977.708 -11132.872)" fill="#4d4d4d" font-size="10.822" font-family="Roboto-Bold, Roboto" font-weight="700"><tspan x="0" y="0">M</tspan></text>
      <text id="A-3" data-name="A" transform="translate(-3968.228 -11132.872)" fill="#4d4d4d" font-size="10.822" font-family="Roboto-Bold, Roboto" font-weight="700"><tspan x="0" y="0">A</tspan></text>
      <text id="TERIALES_BIOLÓGICOS_" data-name="TERIALES  BIOLÓGICOS " transform="translate(-3961.939 -11132.872)" fill="#4d4d4d" font-size="10.822" font-family="Roboto-Bold, Roboto" font-weight="700"><tspan x="0" y="0" xml:space="preserve">TERIALES  BIOLÓGICOS </tspan></text>
      <path id="Trazado_664004" data-name="Trazado 664004" d="M186.4,622.957a18.268,18.268,0,1,1-18.268-18.266A18.268,18.268,0,0,1,186.4,622.957" transform="translate(-4120.074 -11692)" fill="#fff"/>
      <path id="Trazado_664005" data-name="Trazado 664005" d="M171.137,604.94a18.269,18.269,0,0,1-10,34.9,18.269,18.269,0,1,0,10-34.9" transform="translate(-4120.074 -11692)" fill="#f1f1f1"/>
      <path id="Trazado_664006" data-name="Trazado 664006" d="M168.134,641.652a18.7,18.7,0,1,1,18.695-18.7,18.714,18.714,0,0,1-18.695,18.7m0-36.534a17.84,17.84,0,1,0,17.841,17.839,17.86,17.86,0,0,0-17.841-17.839" transform="translate(-4120.074 -11692)" fill="#1767b9"/>
      <path id="Trazado_664007" data-name="Trazado 664007" d="M162.719,620.344c0,3.055-3.232,4.511-4.224,4.511s-4.223-1.456-4.223-4.511,4.223-8.463,4.223-8.463,4.224,5.408,4.224,8.463" transform="translate(-4120.074 -11692)" fill="#f1f1f1"/>
      <path id="Trazado_664008" data-name="Trazado 664008" d="M159.936,619.508c.28,1.9.215,3.687-1.441,5.346-.992,0-4.223-1.455-4.223-4.511,0-2.489,2.224-5.557,2.224-5.557a6.5,6.5,0,0,1,3.44,4.722" transform="translate(-4120.074 -11692)" fill="#fff"/>
      <path id="Trazado_664009" data-name="Trazado 664009" d="M158.495,625.283c-1.084,0-4.65-1.538-4.65-4.938,0-3.168,4.138-8.5,4.313-8.729a.443.443,0,0,1,.674,0c.177.226,4.315,5.561,4.315,8.729,0,3.4-3.568,4.938-4.652,4.938m0-12.689c-.987,1.342-3.795,5.37-3.795,7.751,0,2.815,3.016,4.083,3.795,4.083s3.795-1.268,3.795-4.083c0-2.381-2.808-6.409-3.795-7.751" transform="translate(-4120.074 -11692)" fill="#1767b9"/>
      <path id="Trazado_664010" data-name="Trazado 664010" d="M158.495,628.373a.427.427,0,0,1-.427-.427v-8.952a.427.427,0,1,1,.854,0v8.952a.427.427,0,0,1-.427.427" transform="translate(-4120.074 -11692)" fill="#1767b9"/>
      <path id="Trazado_664011" data-name="Trazado 664011" d="M170.228,620.188c0,3.555-3.551,4.358-4.639,4.358s-4.641-.8-4.641-4.358,4.641-9.846,4.641-9.846,4.639,6.291,4.639,9.846" transform="translate(-4120.074 -11692)" fill="#f1f1f1"/>
      <path id="Trazado_664012" data-name="Trazado 664012" d="M167,618.35c.339,2.776.153,4.518-1.412,6.2-1.09,0-4.639-.8-4.639-4.358,0-3.019,2.765-7.011,2.765-7.011A7.317,7.317,0,0,1,167,618.35" transform="translate(-4120.074 -11692)" fill="#fff"/>
      <path id="Trazado_664013" data-name="Trazado 664013" d="M165.589,624.975c-1.652,0-5.068-1.171-5.068-4.787,0-3.654,4.53-9.839,4.725-10.1a.444.444,0,0,1,.688,0c.193.262,4.723,6.447,4.723,10.1,0,3.616-3.414,4.787-5.068,4.787m0-13.894c-1.062,1.526-4.212,6.288-4.212,9.107,0,3.263,3.323,3.93,4.212,3.93s4.212-.667,4.212-3.93c0-2.819-3.15-7.581-4.212-9.107" transform="translate(-4120.074 -11692)" fill="#1767b9"/>
      <path id="Trazado_664014" data-name="Trazado 664014" d="M165.589,629.052a.427.427,0,0,1-.427-.427V617.333a.427.427,0,0,1,.854,0v11.292a.427.427,0,0,1-.427.427" transform="translate(-4120.074 -11692)" fill="#1767b9"/>
      <path id="Trazado_664015" data-name="Trazado 664015" d="M180.765,621.411c0,2.823-2.886,3.658-3.77,3.658s-3.768-.835-3.768-3.658,3.768-10.876,3.768-10.876,3.77,8.053,3.77,10.876" transform="translate(-4120.074 -11692)" fill="#f1f1f1"/>
      <path id="Trazado_664016" data-name="Trazado 664016" d="M178.687,620.925c0,2.823-.806,4.143-1.69,4.143s-3.768-.835-3.768-3.658,2.725-8.535,2.725-8.535,2.733,4.995,2.733,8.05" transform="translate(-4120.074 -11692)" fill="#fff"/>
      <path id="Trazado_664017" data-name="Trazado 664017" d="M177,625.5c-1.075,0-4.2-1-4.2-4.085,0-2.886,3.652-10.727,3.807-11.059a.446.446,0,0,1,.776,0c.157.332,3.809,8.173,3.809,11.059,0,3.081-3.12,4.085-4.2,4.085m0-13.928c-.954,2.132-3.34,7.675-3.34,9.843,0,2.633,2.821,3.23,3.34,3.23s3.342-.6,3.342-3.23c0-2.168-2.388-7.711-3.342-9.843" transform="translate(-4120.074 -11692)" fill="#1767b9"/>
      <path id="Trazado_664018" data-name="Trazado 664018" d="M177,628.6a.427.427,0,0,1-.427-.427v-8.523a.427.427,0,0,1,.854,0v8.523a.427.427,0,0,1-.427.427" transform="translate(-4120.074 -11692)" fill="#1767b9"/>
      <path id="Trazado_664019" data-name="Trazado 664019" d="M160.378,631.4c0,2.141,13.1-.1,13.1,3.1,0,3.306-8.764,3.954-14.945,4a18.267,18.267,0,0,0,26.785-9.337c-8.818-1.822-24.94-1.5-24.94,2.238" transform="translate(-4120.074 -11692)" fill="#f1f1f1"/>
      <path id="Trazado_664020" data-name="Trazado 664020" d="M166.964,630.517c0,.9,9.94-.4,9.94,3.979,0,3.308-7.514,6.988-18.372,4a18.267,18.267,0,0,0,26.787-9.336c-.524,1.293-18.355.221-18.355,1.356" transform="translate(-4120.074 -11692)" fill="#fff"/>
      <path id="Trazado_664021" data-name="Trazado 664021" d="M168.133,641.653a18.653,18.653,0,0,1-9.827-2.791.422.422,0,0,1-.185-.479.427.427,0,0,1,.407-.313c9.228-.07,14.522-1.372,14.522-3.573,0-1.342-4.109-1.459-7.11-1.547-3.478-.1-5.991-.173-5.991-1.551a1.99,1.99,0,0,1,.837-1.552c3.46-2.819,17.321-2.615,24.621-1.107a.43.43,0,0,1,.314.566,18.747,18.747,0,0,1-17.588,12.347m-8-2.751a17.845,17.845,0,0,0,24.613-9.421c-7.965-1.533-20.513-1.331-23.414,1.03a1.169,1.169,0,0,0-.521.888c0,.546,3.355.643,5.157.7,3.9.112,7.944.229,7.944,2.4,0,2.71-4.634,4.189-13.779,4.4" transform="translate(-4120.074 -11692)" fill="#1767b9"/>
      <path id="Trazado_664022" data-name="Trazado 664022" d="M150.41,627.371a18.292,18.292,0,0,0,8.122,11.125c6.183-.045,14.946-.692,14.946-4,0-3.195-13.1-.958-13.1-3.1,0-1.03,1.23-1.8,3.193-2.338a44.932,44.932,0,0,0-13.16-1.688" transform="translate(-4120.074 -11692)" fill="#fff"/>
      <path id="Trazado_664023" data-name="Trazado 664023" d="M154.434,627.465a37.848,37.848,0,0,0-4.023-.094,18.286,18.286,0,0,0,8.12,11.125c1.2-.009,2.985-.07,6.021-.281-7.835-3.084-8.956-6.176-10.118-10.75" transform="translate(-4120.074 -11692)" fill="#f1f1f1"/>
      <path id="Trazado_664024" data-name="Trazado 664024" d="M158.532,638.927a.43.43,0,0,1-.225-.065A18.6,18.6,0,0,1,150,627.475a.426.426,0,0,1,.072-.361.431.431,0,0,1,.329-.171,45.27,45.27,0,0,1,13.288,1.7.429.429,0,0,1,0,.826c-1.856.509-2.877,1.193-2.877,1.925,0,.546,3.355.644,5.157.7,3.9.112,7.943.229,7.943,2.4,0,2.862-5.171,4.352-15.371,4.43Zm-7.568-11.142a17.743,17.743,0,0,0,7.689,10.283c9.152-.079,14.4-1.38,14.4-3.571,0-1.342-4.108-1.46-7.11-1.548-3.477-.1-5.99-.171-5.99-1.551,0-.925.716-1.692,2.132-2.287a44.617,44.617,0,0,0-11.118-1.326" transform="translate(-4120.074 -11692)" fill="#1767b9"/>
      <path id="Trazado_664025" data-name="Trazado 664025" d="M153.863,607.544a1.142,1.142,0,1,1-1.142-1.142,1.141,1.141,0,0,1,1.142,1.142" transform="translate(-4120.074 -11692)" fill="#fff"/>
      <path id="Trazado_664026" data-name="Trazado 664026" d="M152.721,609.114a1.57,1.57,0,1,1,1.569-1.57,1.572,1.572,0,0,1-1.569,1.57m0-2.284a.714.714,0,1,0,.714.714.714.714,0,0,0-.714-.714" transform="translate(-4120.074 -11692)" fill="#1767b9"/>
      <path id="Trazado_664027" data-name="Trazado 664027" d="M182.976,605.832a1.142,1.142,0,1,1-1.142-1.142,1.141,1.141,0,0,1,1.142,1.142" transform="translate(-4120.074 -11692)" fill="#fff"/>
      <path id="Trazado_664028" data-name="Trazado 664028" d="M181.834,607.4a1.57,1.57,0,1,1,1.571-1.57,1.573,1.573,0,0,1-1.571,1.57m0-2.284a.714.714,0,1,0,.714.714.714.714,0,0,0-.714-.714" transform="translate(-4120.074 -11692)" fill="#1767b9"/>
      <path id="Trazado_664029" data-name="Trazado 664029" d="M186.4,609.827a1.141,1.141,0,1,1-1.142-1.142,1.141,1.141,0,0,1,1.142,1.142" transform="translate(-4120.074 -11692)" fill="#fff"/>
      <path id="Trazado_664030" data-name="Trazado 664030" d="M185.26,611.4a1.57,1.57,0,1,1,1.569-1.57,1.572,1.572,0,0,1-1.569,1.57m0-2.284a.715.715,0,1,0,.714.714.716.716,0,0,0-.714-.714" transform="translate(-4120.074 -11692)" fill="#1767b9"/>
      <path id="Trazado_664031" data-name="Trazado 664031" d="M152.151,636.658a1.143,1.143,0,1,1-1.142-1.142,1.141,1.141,0,0,1,1.142,1.142" transform="translate(-4120.074 -11692)" fill="#fff"/>
      <path id="Trazado_664032" data-name="Trazado 664032" d="M151.009,638.228a1.571,1.571,0,1,1,1.569-1.57,1.574,1.574,0,0,1-1.569,1.57m0-2.284a.715.715,0,1,0,.714.714.713.713,0,0,0-.714-.714" transform="translate(-4120.074 -11692)" fill="#1767b9"/>
      <path id="Trazado_664033" data-name="Trazado 664033" d="M156.718,640.084a1.143,1.143,0,1,1-1.142-1.142,1.141,1.141,0,0,1,1.142,1.142" transform="translate(-4120.074 -11692)" fill="#fff"/>
      <path id="Trazado_664034" data-name="Trazado 664034" d="M155.577,641.654a1.57,1.57,0,1,1,1.569-1.57,1.574,1.574,0,0,1-1.569,1.57m0-2.284a.714.714,0,1,0,.714.714.713.713,0,0,0-.714-.714" transform="translate(-4120.074 -11692)" fill="#1767b9"/>
      <path id="Trazado_664035" data-name="Trazado 664035" d="M185.831,637.229a1.141,1.141,0,1,1-1.142-1.142,1.141,1.141,0,0,1,1.142,1.142" transform="translate(-4120.074 -11692)" fill="#fff"/>
      <path id="Trazado_664036" data-name="Trazado 664036" d="M184.69,638.8a1.57,1.57,0,1,1,1.569-1.569,1.571,1.571,0,0,1-1.569,1.569m0-2.283a.714.714,0,1,0,.714.714.716.716,0,0,0-.714-.714" transform="translate(-4120.074 -11692)" fill="#1767b9"/>
      <path id="Trazado_664037" data-name="Trazado 664037" d="M219.5,600.967c3.57-7.478,3.947-21.076,3.947-21.076h8.968s.377,13.6,3.946,21.076Z" transform="translate(-4120.074 -11692)" fill="#f1f1f1"/>
      <path id="Trazado_664038" data-name="Trazado 664038" d="M219.5,600.967c3.57-7.478,3.947-21.076,3.947-21.076h5.739a78.87,78.87,0,0,0,2.871,21.076Z" transform="translate(-4120.074 -11692)" fill="#fff"/>
      <path id="Trazado_664039" data-name="Trazado 664039" d="M236.363,601.318H219.5a.352.352,0,0,1-.317-.5c3.5-7.325,3.908-20.8,3.91-20.934a.354.354,0,0,1,.355-.342h8.966a.35.35,0,0,1,.351.342c0,.136.418,13.609,3.912,20.934a.351.351,0,0,1-.317.5m-16.312-.7h15.763c-3.041-6.867-3.647-18.261-3.735-20.373h-8.291c-.089,2.112-.694,13.506-3.737,20.373" transform="translate(-4120.074 -11692)" fill="#1767b9"/>
      <path id="Trazado_664040" data-name="Trazado 664040" d="M232.613,583.271h-9.359c-.056.714-.129,1.521-.217,2.386h9.792c-.09-.865-.16-1.672-.216-2.386" transform="translate(-4120.074 -11692)" fill="#fff"/>
      <path id="Trazado_664041" data-name="Trazado 664041" d="M232.83,586.009h-9.793a.341.341,0,0,1-.259-.117.351.351,0,0,1-.091-.27c.091-.863.161-1.665.215-2.378a.353.353,0,0,1,.35-.324h9.361a.353.353,0,0,1,.35.324c.056.713.126,1.515.215,2.378a.335.335,0,0,1-.089.27.348.348,0,0,1-.259.117m-9.4-.7h9.015c-.058-.6-.11-1.162-.152-1.683h-8.711c-.042.521-.092,1.086-.152,1.683" transform="translate(-4120.074 -11692)" fill="#1767b9"/>
      <path id="Trazado_664042" data-name="Trazado 664042" d="M208.307,600.967c4.165-8.809,4.6-24.823,4.6-24.823h10.463s.438,16.014,4.6,24.823Z" transform="translate(-4120.074 -11692)" fill="#f1f1f1"/>
      <path id="Trazado_664043" data-name="Trazado 664043" d="M208.307,600.967c4.165-8.809,4.6-24.823,4.6-24.823h6.695a93.705,93.705,0,0,0,3.348,24.823Z" transform="translate(-4120.074 -11692)" fill="#fff"/>
      <path id="Trazado_664044" data-name="Trazado 664044" d="M227.978,601.318H208.307a.358.358,0,0,1-.3-.164.346.346,0,0,1-.018-.337c4.084-8.642,4.565-24.523,4.571-24.684a.349.349,0,0,1,.35-.341h10.463a.352.352,0,0,1,.35.341c0,.161.487,16.042,4.57,24.684a.349.349,0,0,1-.019.337.358.358,0,0,1-.3.164m-19.123-.7h18.576c-3.611-8.133-4.3-21.791-4.4-24.121h-9.783c-.094,2.33-.785,15.988-4.4,24.121" transform="translate(-4120.074 -11692)" fill="#1767b9"/>
      <path id="Trazado_664045" data-name="Trazado 664045" d="M223.6,580.125H212.682c-.065.842-.148,1.791-.251,2.81h11.425c-.1-1.019-.19-1.968-.253-2.81" transform="translate(-4120.074 -11692)" fill="#fff"/>
      <path id="Trazado_664046" data-name="Trazado 664046" d="M223.855,583.287H212.43a.348.348,0,0,1-.26-.117.356.356,0,0,1-.09-.27c.1-.953.181-1.894.251-2.8a.352.352,0,0,1,.352-.324H223.6a.351.351,0,0,1,.35.324c.072.917.155,1.858.251,2.8a.35.35,0,0,1-.348.387m-11.037-.7h10.647c-.068-.709-.131-1.414-.187-2.107H213.006c-.055.687-.118,1.393-.188,2.107" transform="translate(-4120.074 -11692)" fill="#1767b9"/>
      <path id="Trazado_664047" data-name="Trazado 664047" d="M237.344,601.317H207.37a.351.351,0,0,1,0-.7h29.974a.351.351,0,1,1,0,.7" transform="translate(-4120.074 -11692)" fill="#1767b9"/>
      <path id="Trazado_664048" data-name="Trazado 664048" d="M221.187,575.09a.351.351,0,0,1-.35-.352,2.463,2.463,0,0,0-2.46-2.458h-.936a.352.352,0,0,1,0-.7h.936a3.166,3.166,0,0,1,3.162,3.162.353.353,0,0,1-.352.352" transform="translate(-4120.074 -11692)" fill="#1767b9"/>
      <path id="Trazado_664049" data-name="Trazado 664049" d="M208.54,571.343h-1.172a.351.351,0,0,1,0-.7h1.172a.351.351,0,1,1,0,.7" transform="translate(-4120.074 -11692)" fill="#1767b9"/>
      <path id="Trazado_664050" data-name="Trazado 664050" d="M212.755,573.217h-3.981a.352.352,0,0,1,0-.7h3.981a.352.352,0,1,1,0,.7" transform="translate(-4120.074 -11692)" fill="#1767b9"/>
      <path id="Trazado_664051" data-name="Trazado 664051" d="M227.744,574.622h-3.981a.351.351,0,0,1,0-.7h3.981a.351.351,0,0,1,0,.7" transform="translate(-4120.074 -11692)" fill="#1767b9"/>
      <path id="Trazado_664052" data-name="Trazado 664052" d="M225.4,572.748h-3.043a.352.352,0,1,1,0-.7H225.4a.352.352,0,1,1,0,.7" transform="translate(-4120.074 -11692)" fill="#1767b9"/>
      <path id="Trazado_664053" data-name="Trazado 664053" d="M216.5,575.09a.351.351,0,0,1-.35-.352,3.4,3.4,0,0,0-3.4-3.4h-2.343a.351.351,0,1,1,0-.7h2.343a4.1,4.1,0,0,1,4.1,4.1.353.353,0,0,1-.352.352" transform="translate(-4120.074 -11692)" fill="#1767b9"/>
      <path id="Trazado_664054" data-name="Trazado 664054" d="M230.615,578.837a.351.351,0,0,1-.35-.352,1.993,1.993,0,0,0-1.991-1.989h-3.122a.351.351,0,1,1,0-.7h3.122a2.7,2.7,0,0,1,2.693,2.691.353.353,0,0,1-.352.352" transform="translate(-4120.074 -11692)" fill="#1767b9"/>
      <path id="Trazado_664055" data-name="Trazado 664055" d="M212.582,595.453a.436.436,0,0,1-.063-.005.351.351,0,0,1-.282-.41c.394-2.1.74-4.489,1.023-7.094a.351.351,0,0,1,.7.076c-.287,2.623-.633,5.027-1.031,7.146a.35.35,0,0,1-.345.287" transform="translate(-4120.074 -11692)" fill="#1767b9"/>
      <path id="Trazado_664056" data-name="Trazado 664056" d="M211.823,598.915a.3.3,0,0,1-.088-.011.35.35,0,0,1-.251-.427q.186-.73.357-1.494a.35.35,0,0,1,.418-.267.354.354,0,0,1,.267.421c-.115.515-.236,1.022-.364,1.515a.349.349,0,0,1-.339.263" transform="translate(-4120.074 -11692)" fill="#1767b9"/>
      <path id="Trazado_664057" data-name="Trazado 664057" d="M225.465,653.012a2.791,2.791,0,1,0-2.79,2.792,2.792,2.792,0,0,0,2.79-2.792" transform="translate(-4120.074 -11692)" fill="#dce1e6"/>
      <path id="Trazado_664058" data-name="Trazado 664058" d="M233.9,652.334c-.316-.6-1.955-3.7-3.113-6.116a4.9,4.9,0,0,0-3.64-2.856,8.469,8.469,0,0,1-3.907-2,.184.184,0,0,0-.1-.055,21.481,21.481,0,0,0-7.107,0,.187.187,0,0,0-.1.055,8.446,8.446,0,0,1-3.906,2,4.9,4.9,0,0,0-3.64,2.856c-1.156,2.42-2.8,5.519-3.113,6.116a.352.352,0,0,0,.043.393,7.247,7.247,0,0,0,4.8,2.307.234.234,0,0,0,.038,0,.349.349,0,0,0,.308-.184l1.062-1.9a101.5,101.5,0,0,1-.193,10.9c-.207,2.119-.425,3.29-.508,3.732a.445.445,0,0,0,.258.492c.663.3,3.243,1.272,8.508,1.272s7.844-.974,8.51-1.272a.448.448,0,0,0,.258-.492l-.015-.074a72.883,72.883,0,0,1-.7-14.547l1.072,1.892a.351.351,0,0,0,.344.184,7.255,7.255,0,0,0,4.8-2.307.352.352,0,0,0,.042-.393" transform="translate(-4120.074 -11692)" fill="#fff"/>
      <path id="Trazado_664059" data-name="Trazado 664059" d="M215.765,641.778c0,.954,2.163,1.914,3.817,1.914s3.815-.96,3.815-1.914c0,0-.67-.6-3.815-.6-3.269,0-3.817.6-3.817.6" transform="translate(-4120.074 -11692)" fill="#f1f1f1"/>
      <path id="Trazado_664060" data-name="Trazado 664060" d="M219.582,669.435c-5.285,0-7.877-.978-8.546-1.279a.54.54,0,0,1-.312-.6c.083-.442.3-1.614.509-3.723a113.442,113.442,0,0,0,.093-13.477.268.268,0,0,1,.255-.285.281.281,0,0,1,.285.256,114.223,114.223,0,0,1-.094,13.56c-.209,2.13-.431,3.321-.516,3.768.644.292,3.149,1.234,8.326,1.234s7.682-.942,8.326-1.23l-.013-.078c-.961-5.1-.853-12.2-.6-17.254a.27.27,0,1,1,.539.029c-.256,5.023-.362,12.072.588,17.124l.015.076a.545.545,0,0,1-.312.6c-.671.3-3.269,1.279-8.548,1.279" transform="translate(-4120.074 -11692)" fill="#1767b9"/>
      <path id="Trazado_664061" data-name="Trazado 664061" d="M219.582,644.013c-1.631,0-4.147-.951-4.147-2.215a.272.272,0,0,1,.543,0c0,.736,2.02,1.674,3.6,1.674s3.606-.938,3.606-1.674a.271.271,0,0,1,.542,0c0,1.264-2.517,2.215-4.148,2.215" transform="translate(-4120.074 -11692)" fill="#1767b9"/>
      <path id="Trazado_664062" data-name="Trazado 664062" d="M210.146,655.13l-.043,0a7.356,7.356,0,0,1-4.863-2.339.446.446,0,0,1-.051-.5c.446-.838,1.993-3.777,3.108-6.107a4.989,4.989,0,0,1,3.7-2.906,8.371,8.371,0,0,0,3.86-1.977.29.29,0,0,1,.153-.083,21.6,21.6,0,0,1,7.139,0,.285.285,0,0,1,.154.083,8.342,8.342,0,0,0,3.861,1.977,4.989,4.989,0,0,1,3.7,2.906c1.069,2.237,2.534,5.02,3.113,6.113a.45.45,0,0,1-.052.5,7.361,7.361,0,0,1-4.865,2.341.458.458,0,0,1-.436-.235l-1.378-2.435a.27.27,0,1,1,.47-.265l1.353,2.388a6.819,6.819,0,0,0,4.4-2.095c-.6-1.133-2.036-3.868-3.093-6.074a4.49,4.49,0,0,0-3.346-2.615,9.065,9.065,0,0,1-4.056-2.065,20.994,20.994,0,0,0-6.786,0,9.065,9.065,0,0,1-4.056,2.065,4.5,4.5,0,0,0-3.348,2.614c-1.1,2.29-2.6,5.16-3.092,6.075a6.823,6.823,0,0,0,4.4,2.095l1.356-2.431a.267.267,0,0,1,.368-.105.272.272,0,0,1,.105.368l-1.386,2.484a.441.441,0,0,1-.389.233m-.085-.494h0Zm19.038-.008,0,0,0,0m-23.432-2.087,0,0,0,0m-.016-.106v0Z" transform="translate(-4120.074 -11692)" fill="#1767b9"/>
      <path id="Trazado_664063" data-name="Trazado 664063" d="M218.388,657.25a3.215,3.215,0,0,1,2.866,2.864,2.865,2.865,0,0,0,0-5.73,3.215,3.215,0,0,1-2.866,2.866" transform="translate(-4120.074 -11692)" fill="#f1f1f1"/>
      <path id="Trazado_664064" data-name="Trazado 664064" d="M221.255,660.385a.272.272,0,0,1-.273-.271,2.937,2.937,0,0,0-2.593-2.593.271.271,0,1,1,0-.542,2.939,2.939,0,0,0,2.593-2.6.272.272,0,0,1,.543,0,2.94,2.94,0,0,0,2.594,2.6.271.271,0,1,1,0,.542,2.938,2.938,0,0,0-2.594,2.593.27.27,0,0,1-.27.271m-1.766-3.135a3.9,3.9,0,0,1,1.766,1.764,3.883,3.883,0,0,1,1.764-1.764,3.883,3.883,0,0,1-1.764-1.764,3.9,3.9,0,0,1-1.766,1.764" transform="translate(-4120.074 -11692)" fill="#1767b9"/>
      <path id="Trazado_664065" data-name="Trazado 664065" d="M214.181,652.377a2.336,2.336,0,0,1,2.083,2.085,2.084,2.084,0,1,0,0-4.168,2.335,2.335,0,0,1-2.083,2.083" transform="translate(-4120.074 -11692)" fill="#f1f1f1"/>
      <path id="Trazado_664066" data-name="Trazado 664066" d="M216.264,654.731a.27.27,0,0,1-.27-.271,2.087,2.087,0,0,0-1.813-1.812.271.271,0,1,1,0-.542,2.087,2.087,0,0,0,1.813-1.812.272.272,0,0,1,.543,0,2.087,2.087,0,0,0,1.812,1.812.271.271,0,1,1,0,.542,2.087,2.087,0,0,0-1.812,1.812.272.272,0,0,1-.273.271m-1.109-2.354a2.869,2.869,0,0,1,1.109,1.109,1.109,1.109,0,1,0,0-2.218,2.869,2.869,0,0,1-1.109,1.109" transform="translate(-4120.074 -11692)" fill="#1767b9"/>
      <path id="Trazado_664067" data-name="Trazado 664067" d="M209.6,661.613a4.34,4.34,0,0,1,3.871,3.869,4.337,4.337,0,0,1,3.867-3.869,4.337,4.337,0,0,1-3.867-3.869,4.34,4.34,0,0,1-3.871,3.869" transform="translate(-4120.074 -11692)" fill="#f1f1f1"/>
      <path id="Trazado_664068" data-name="Trazado 664068" d="M213.465,665.753a.27.27,0,0,1-.27-.271,4.077,4.077,0,0,0-3.6-3.6.271.271,0,1,1,0-.542,4.077,4.077,0,0,0,3.6-3.6.272.272,0,0,1,.543,0,4.074,4.074,0,0,0,3.6,3.6.271.271,0,1,1,0,.542,4.074,4.074,0,0,0-3.6,3.6.272.272,0,0,1-.273.271m-2.606-4.14a5.087,5.087,0,0,1,2.606,2.608,5.1,5.1,0,0,1,2.61-2.608,5.1,5.1,0,0,1-2.61-2.608,5.087,5.087,0,0,1-2.606,2.608" transform="translate(-4120.074 -11692)" fill="#1767b9"/>
      <path id="Trazado_664069" data-name="Trazado 664069" d="M249.729,651.04H236.816V666.1a.431.431,0,0,0,.431.429H249.3a.431.431,0,0,0,.431-.429Z" transform="translate(-4120.074 -11692)" fill="#fff"/>
      <path id="Trazado_664070" data-name="Trazado 664070" d="M249.729,653.622h0a10.332,10.332,0,0,0-10.332,10.33v2.583h9.9a.431.431,0,0,0,.431-.431Z" transform="translate(-4120.074 -11692)" fill="#f1f1f1"/>
      <path id="Trazado_664071" data-name="Trazado 664071" d="M250.159,648.457H236.386a.429.429,0,0,0-.429.431v1.721a.429.429,0,0,0,.429.431h13.773a.429.429,0,0,0,.429-.431v-1.721a.429.429,0,0,0-.429-.431" transform="translate(-4120.074 -11692)" fill="#fff"/>
      <path id="Trazado_664072" data-name="Trazado 664072" d="M250.159,648.457h-2.583v.86a.431.431,0,0,1-.431.431H235.957v.861a.429.429,0,0,0,.429.431h13.773a.429.429,0,0,0,.429-.431v-1.721a.429.429,0,0,0-.429-.431" transform="translate(-4120.074 -11692)" fill="#f1f1f1"/>
      <path id="Trazado_664073" data-name="Trazado 664073" d="M249.3,666.857H237.248a.754.754,0,0,1-.754-.754V651.04a.323.323,0,0,1,.321-.323h12.913a.323.323,0,0,1,.323.323V666.1a.753.753,0,0,1-.754.754M237.14,651.363V666.1a.106.106,0,0,0,.108.108H249.3a.109.109,0,0,0,.11-.108v-14.74Z" transform="translate(-4120.074 -11692)" fill="#1767b9"/>
      <path id="Trazado_664074" data-name="Trazado 664074" d="M250.159,651.363H236.386a.755.755,0,0,1-.754-.754v-1.721a.756.756,0,0,1,.754-.754h13.773a.756.756,0,0,1,.754.754v1.721a.755.755,0,0,1-.754.754m-13.773-2.583a.108.108,0,0,0-.108.108v1.721a.108.108,0,0,0,.108.108h13.773a.107.107,0,0,0,.107-.108v-1.721a.107.107,0,0,0-.107-.108Z" transform="translate(-4120.074 -11692)" fill="#1767b9"/>
      <path id="Trazado_664075" data-name="Trazado 664075" d="M247.576,658.787a4.3,4.3,0,1,0-4.305,4.3,4.3,4.3,0,0,0,4.305-4.3" transform="translate(-4120.074 -11692)" fill="#fff"/>
      <path id="Trazado_664076" data-name="Trazado 664076" d="M243.273,663.413a4.627,4.627,0,1,1,4.625-4.626,4.631,4.631,0,0,1-4.625,4.626m0-8.607a3.981,3.981,0,1,0,3.981,3.981,3.986,3.986,0,0,0-3.981-3.981" transform="translate(-4120.074 -11692)" fill="#1767b9"/>
      <path id="Trazado_664077" data-name="Trazado 664077" d="M248.006,642a.862.862,0,1,0,.862-.86.86.86,0,0,0-.862.86" transform="translate(-4120.074 -11692)" fill="#fff"/>
      <path id="Trazado_664078" data-name="Trazado 664078" d="M245.855,645.444a.861.861,0,1,0,.86-.86.86.86,0,0,0-.86.86" transform="translate(-4120.074 -11692)" fill="#fff"/>
      <path id="Trazado_664079" data-name="Trazado 664079" d="M243.7,639.849a.86.86,0,1,0,.86-.862.861.861,0,0,0-.86.862" transform="translate(-4120.074 -11692)" fill="#fff"/>
      <path id="Trazado_664080" data-name="Trazado 664080" d="M244.563,641.034a1.185,1.185,0,1,1,1.182-1.185,1.186,1.186,0,0,1-1.182,1.185m0-1.723a.538.538,0,1,0,.538.538.54.54,0,0,0-.538-.538" transform="translate(-4120.074 -11692)" fill="#1767b9"/>
      <path id="Trazado_664081" data-name="Trazado 664081" d="M246.715,646.629a1.185,1.185,0,1,1,1.183-1.186,1.187,1.187,0,0,1-1.183,1.186m0-1.723a.538.538,0,1,0,.539.537.539.539,0,0,0-.539-.537" transform="translate(-4120.074 -11692)" fill="#1767b9"/>
      <path id="Trazado_664082" data-name="Trazado 664082" d="M248.868,643.186A1.184,1.184,0,1,1,250.051,642a1.187,1.187,0,0,1-1.183,1.185m0-1.723a.538.538,0,1,0,.539.538.539.539,0,0,0-.539-.538" transform="translate(-4120.074 -11692)" fill="#1767b9"/>
      <path id="Trazado_664083" data-name="Trazado 664083" d="M241.494,670.862H225.021a1.5,1.5,0,0,1-1.5-1.5v-1.124a.375.375,0,0,1,.375-.373h18.717a.375.375,0,0,1,.375.373v1.124a1.5,1.5,0,0,1-1.5,1.5" transform="translate(-4120.074 -11692)" fill="#fff"/>
      <path id="Trazado_664084" data-name="Trazado 664084" d="M240.557,667.867H225.209a.936.936,0,1,1,0-1.872h15.348a.936.936,0,1,1,0,1.872" transform="translate(-4120.074 -11692)" fill="#fff"/>
      <path id="Trazado_664085" data-name="Trazado 664085" d="M240.557,666h-14.6a1.31,1.31,0,0,1,0-2.621h14.6a1.31,1.31,0,1,1,0,2.621" transform="translate(-4120.074 -11692)" fill="#fff"/>
      <path id="Trazado_664086" data-name="Trazado 664086" d="M242.616,663.428H223.9a.376.376,0,0,1-.375-.375,4.867,4.867,0,0,1,4.866-4.867h9.735a4.867,4.867,0,0,1,4.866,4.867.375.375,0,0,1-.375.375" transform="translate(-4120.074 -11692)" fill="#fff"/>
      <path id="Trazado_664087" data-name="Trazado 664087" d="M242.616,667.867H231.384a.374.374,0,0,1,.374.375v1.122a1.5,1.5,0,0,1-1.5,1.5h11.233a1.5,1.5,0,0,0,1.5-1.5v-1.122a.375.375,0,0,0-.375-.375" transform="translate(-4120.074 -11692)" fill="#f1f1f1"/>
      <path id="Trazado_664088" data-name="Trazado 664088" d="M232.321,666a.936.936,0,1,1,0,1.872h8.236a.936.936,0,1,0,0-1.872h-8.236Z" transform="translate(-4120.074 -11692)" fill="#f1f1f1"/>
      <path id="Trazado_664089" data-name="Trazado 664089" d="M233.82,663.375a1.31,1.31,0,1,1,0,2.621h6.737a1.31,1.31,0,1,0,0-2.621H233.82Z" transform="translate(-4120.074 -11692)" fill="#f1f1f1"/>
      <path id="Trazado_664090" data-name="Trazado 664090" d="M238.873,663.054a.375.375,0,0,1-.375.375h4.118a.375.375,0,0,0,.375-.375,4.866,4.866,0,0,0-4.867-4.866h-4.117a4.866,4.866,0,0,1,4.866,4.866" transform="translate(-4120.074 -11692)" fill="#f1f1f1"/>
      <path id="Trazado_664091" data-name="Trazado 664091" d="M241.494,671.142H225.023a1.78,1.78,0,0,1-1.779-1.778v-1.122a.658.658,0,0,1,.655-.657h18.719a.656.656,0,0,1,.653.657v1.122a1.778,1.778,0,0,1-1.777,1.778m-17.6-2.994a.1.1,0,0,0-.094.094v1.122a1.219,1.219,0,0,0,1.218,1.217h16.471a1.219,1.219,0,0,0,1.218-1.217v-1.122a.1.1,0,0,0-.094-.094Z" transform="translate(-4120.074 -11692)" fill="#1767b9"/>
      <path id="Trazado_664092" data-name="Trazado 664092" d="M240.56,668.148H225.21a1.217,1.217,0,0,1,0-2.435h15.35a1.218,1.218,0,0,1,0,2.435m-15.35-1.872a.655.655,0,0,0,0,1.311h15.35a.655.655,0,0,0,0-1.311Z" transform="translate(-4120.074 -11692)" fill="#1767b9"/>
      <path id="Trazado_664093" data-name="Trazado 664093" d="M240.559,666.277h-14.6a1.592,1.592,0,0,1,0-3.184h14.6a1.592,1.592,0,0,1,0,3.184m-14.6-2.621a1.029,1.029,0,0,0,0,2.058h14.6a1.029,1.029,0,0,0,0-2.058Z" transform="translate(-4120.074 -11692)" fill="#1767b9"/>
      <path id="Trazado_664094" data-name="Trazado 664094" d="M242.619,663.71H223.9a.658.658,0,0,1-.657-.657,5.154,5.154,0,0,1,5.148-5.146h9.733a5.152,5.152,0,0,1,5.148,5.146.655.655,0,0,1-.653.657m-14.228-5.242a4.592,4.592,0,0,0-4.585,4.585.1.1,0,0,0,.094.1h18.719a.1.1,0,0,0,.092-.1,4.591,4.591,0,0,0-4.587-4.585Z" transform="translate(-4120.074 -11692)" fill="#1767b9"/>
      <path id="Trazado_664095" data-name="Trazado 664095" d="M227,663.376l2.668,3.306,5.93-3.306Z" transform="translate(-4120.074 -11692)" fill="#fff"/>
      <path id="Trazado_664096" data-name="Trazado 664096" d="M231.868,663.376l-2.2,3.306,5.931-3.306Z" transform="translate(-4120.074 -11692)" fill="#f1f1f1"/>
      <path id="Trazado_664097" data-name="Trazado 664097" d="M229.668,666.964a.278.278,0,0,1-.219-.1l-2.665-3.308a.279.279,0,0,1,.218-.456h8.6a.28.28,0,0,1,.137.525l-5.93,3.308a.27.27,0,0,1-.137.036m-2.08-3.308,2.15,2.668,4.782-2.668Z" transform="translate(-4120.074 -11692)" fill="#1767b9"/>
      <path id="Trazado_664098" data-name="Trazado 664098" d="M229.34,661.028a.374.374,0,1,1-.373-.375.375.375,0,0,1,.373.375" transform="translate(-4120.074 -11692)" fill="#1767b9"/>
      <path id="Trazado_664099" data-name="Trazado 664099" d="M226.744,660.209a.375.375,0,1,1-.375-.375.375.375,0,0,1,.375.375" transform="translate(-4120.074 -11692)" fill="#1767b9"/>
      <path id="Trazado_664100" data-name="Trazado 664100" d="M227.75,662.244a.374.374,0,1,1-.375-.375.375.375,0,0,1,.375.375" transform="translate(-4120.074 -11692)" fill="#1767b9"/>
      <path id="Trazado_664101" data-name="Trazado 664101" d="M231.517,659.834a.375.375,0,1,1-.375-.375.376.376,0,0,1,.375.375" transform="translate(-4120.074 -11692)" fill="#1767b9"/>
      <path id="Trazado_664102" data-name="Trazado 664102" d="M233.388,661.659a.374.374,0,1,1-.373-.375.375.375,0,0,1,.373.375" transform="translate(-4120.074 -11692)" fill="#1767b9"/>
      <path id="Trazado_664103" data-name="Trazado 664103" d="M235.505,660.434a.374.374,0,1,1-.375-.375.376.376,0,0,1,.375.375" transform="translate(-4120.074 -11692)" fill="#1767b9"/>
      <path id="Trazado_664104" data-name="Trazado 664104" d="M237.658,662.244a.375.375,0,1,1-.375-.375.375.375,0,0,1,.375.375" transform="translate(-4120.074 -11692)" fill="#1767b9"/>
      <path id="Trazado_664105" data-name="Trazado 664105" d="M239.2,659.685a.374.374,0,1,1-.375-.375.377.377,0,0,1,.375.375" transform="translate(-4120.074 -11692)" fill="#1767b9"/>
      <path id="Trazado_664106" data-name="Trazado 664106" d="M240.3,661.4a.375.375,0,1,1-.375-.375.375.375,0,0,1,.375.375" transform="translate(-4120.074 -11692)" fill="#1767b9"/>
      <path id="Trazado_664107" data-name="Trazado 664107" d="M225.4,669.751a.273.273,0,0,1-.2-.083.28.28,0,0,1,0-.4l1.6-1.6a.28.28,0,1,1,.4.4l-1.6,1.6a.271.271,0,0,1-.2.083" transform="translate(-4120.074 -11692)" fill="#1767b9"/>
      <path id="Trazado_664108" data-name="Trazado 664108" d="M228.016,669.751a.274.274,0,0,1-.2-.083.28.28,0,0,1,0-.4l1.6-1.6a.282.282,0,0,1,.4,0,.279.279,0,0,1,0,.4l-1.6,1.6a.273.273,0,0,1-.2.083" transform="translate(-4120.074 -11692)" fill="#1767b9"/>
      <path id="Trazado_664109" data-name="Trazado 664109" d="M230.637,669.751a.271.271,0,0,1-.2-.083.278.278,0,0,1,0-.4l1.6-1.6a.282.282,0,0,1,.4,0,.279.279,0,0,1,0,.4l-1.6,1.6a.273.273,0,0,1-.2.083" transform="translate(-4120.074 -11692)" fill="#1767b9"/>
      <path id="Trazado_664110" data-name="Trazado 664110" d="M233.258,669.751a.273.273,0,0,1-.2-.083.278.278,0,0,1,0-.4l1.6-1.6a.28.28,0,0,1,.4,0,.275.275,0,0,1,0,.4l-1.6,1.6a.273.273,0,0,1-.2.083" transform="translate(-4120.074 -11692)" fill="#1767b9"/>
      <path id="Trazado_664111" data-name="Trazado 664111" d="M177.9,643.229a36.6,36.6,0,0,0,27.709,14.716" transform="translate(-4120.074 -11692)" fill="none" stroke="#4d4d4d" stroke-miterlimit="10" stroke-width="1.19"/>
      <path id="Trazado_664112" data-name="Trazado 664112" d="M176.758,644.687l-.334-3.593L179.7,642.6Z" transform="translate(-4120.074 -11692)" fill="#4d4d4d"/>
      <path id="Trazado_664113" data-name="Trazado 664113" d="M203.023,584.927a36.648,36.648,0,0,0-26.6,16.643" transform="translate(-4120.074 -11692)" fill="none" stroke="#4d4d4d" stroke-miterlimit="10" stroke-width="1.19"/>
      <path id="Trazado_664114" data-name="Trazado 664114" d="M202.336,583.2l3.275,1.513-2.947,2.082Z" transform="translate(-4120.074 -11692)" fill="#4d4d4d"/>
      <path id="Trazado_664115" data-name="Trazado 664115" d="M240.679,636.495a36.725,36.725,0,0,0-1.16-32.651" transform="translate(-4120.074 -11692)" fill="none" stroke="#4d4d4d" stroke-miterlimit="10" stroke-width="1.19"/>
      <path id="Trazado_664116" data-name="Trazado 664116" d="M242.509,636.8l-2.989,2.024-.259-3.6Z" transform="translate(-4120.074 -11692)" fill="#4d4d4d"/>
      <rect id="Rectángulo_338809" data-name="Rectángulo 338809" width="378.01" height="344.072" transform="translate(-4000.074 -11346)" fill="none"/>
      <text id="PRODUCIR-2" data-name="PRODUCIR" transform="translate(-3993.036 -11100.455)" fill="#1767b9" font-size="10.403" font-family="Roboto-Bold, Roboto" font-weight="700"><tspan x="0" y="0">PRODUCIR</tspan></text>
      <text id="RECIRCULAR" transform="translate(-3998.809 -11026.148)" fill="#1767b9" font-size="10.403" font-family="Roboto-Bold, Roboto" font-weight="700"><tspan x="0" y="0">RECIRCULAR</tspan></text>
      <text id="CONSUMIR" transform="translate(-3867.423 -11064.389)" fill="#1767b9" font-size="10.403" font-family="Roboto-Bold, Roboto" font-weight="700"><tspan x="0" y="0">CONSUMIR</tspan></text>
      <text id="M-3" data-name="M" transform="translate(-3765.409 -11132.867)" fill="#4d4d4d" font-size="10.822" font-family="Roboto-Bold, Roboto" font-weight="700"><tspan x="0" y="0">M</tspan></text>
      <text id="A-4" data-name="A" transform="translate(-3755.928 -11132.867)" fill="#4d4d4d" font-size="10.822" font-family="Roboto-Bold, Roboto" font-weight="700"><tspan x="0" y="0">A</tspan></text>
      <text id="TERIALES_TÉCNICOS" data-name="TERIALES  TÉCNICOS" transform="translate(-3749.641 -11132.867)" fill="#4d4d4d" font-size="10.822" font-family="Roboto-Bold, Roboto" font-weight="700"><tspan x="0" y="0" xml:space="preserve">TERIALES  TÉCNICOS</tspan></text>
      <path id="Trazado_664117" data-name="Trazado 664117" d="M434.214,594.929c3.57-7.48,3.947-21.076,3.947-21.076h8.966s.377,13.6,3.948,21.076Z" transform="translate(-4120.074 -11692)" fill="#f1f1f1"/>
      <path id="Trazado_664118" data-name="Trazado 664118" d="M434.214,594.929c3.57-7.48,3.947-21.076,3.947-21.076H443.9a78.848,78.848,0,0,0,2.872,21.076Z" transform="translate(-4120.074 -11692)" fill="#fff"/>
      <path id="Trazado_664119" data-name="Trazado 664119" d="M451.075,595.281H434.214a.353.353,0,0,1-.3-.164.345.345,0,0,1-.018-.339c3.494-7.326,3.907-20.8,3.911-20.935a.35.35,0,0,1,.351-.341h8.966a.353.353,0,0,1,.354.341c0,.137.415,13.609,3.912,20.935a.353.353,0,0,1-.317.5m-16.313-.7h15.763c-3.043-6.867-3.647-18.261-3.736-20.373H438.5c-.089,2.112-.693,13.506-3.736,20.373" transform="translate(-4120.074 -11692)" fill="#1767b9"/>
      <path id="Trazado_664120" data-name="Trazado 664120" d="M447.323,577.234h-9.358c-.057.714-.13,1.52-.218,2.386h9.792c-.088-.866-.16-1.672-.216-2.386" transform="translate(-4120.074 -11692)" fill="#fff"/>
      <path id="Trazado_664121" data-name="Trazado 664121" d="M447.54,579.971h-9.793a.352.352,0,0,1-.348-.387c.088-.863.159-1.665.215-2.378a.35.35,0,0,1,.35-.324h9.359a.35.35,0,0,1,.35.324c.056.713.126,1.515.215,2.378a.338.338,0,0,1-.089.27.344.344,0,0,1-.259.117m-9.4-.7h9.017c-.06-.6-.11-1.162-.154-1.683h-8.71c-.041.521-.093,1.086-.153,1.683" transform="translate(-4120.074 -11692)" fill="#1767b9"/>
      <path id="Trazado_664122" data-name="Trazado 664122" d="M423.017,594.929c4.165-8.809,4.605-24.823,4.605-24.823h10.463s.438,16.014,4.6,24.823Z" transform="translate(-4120.074 -11692)" fill="#f1f1f1"/>
      <path id="Trazado_664123" data-name="Trazado 664123" d="M423.017,594.929c4.165-8.809,4.605-24.823,4.605-24.823h6.7a93.609,93.609,0,0,0,3.348,24.823Z" transform="translate(-4120.074 -11692)" fill="#fff"/>
      <path id="Trazado_664124" data-name="Trazado 664124" d="M442.69,595.281H423.017a.352.352,0,0,1-.316-.5c4.084-8.64,4.565-24.521,4.571-24.682a.351.351,0,0,1,.35-.341h10.463a.352.352,0,0,1,.35.341c.005.161.487,16.042,4.57,24.682a.35.35,0,0,1-.019.339.357.357,0,0,1-.3.164m-19.125-.7h18.576c-3.611-8.135-4.3-21.792-4.4-24.121h-9.783c-.094,2.329-.785,15.986-4.4,24.121" transform="translate(-4120.074 -11692)" fill="#1767b9"/>
      <path id="Trazado_664125" data-name="Trazado 664125" d="M438.313,574.088H427.392c-.065.841-.148,1.791-.251,2.81h11.425c-.105-1.019-.188-1.969-.253-2.81" transform="translate(-4120.074 -11692)" fill="#fff"/>
      <path id="Trazado_664126" data-name="Trazado 664126" d="M438.565,577.249H427.14a.352.352,0,0,1-.348-.386c.1-.953.18-1.894.249-2.8a.352.352,0,0,1,.352-.324h10.919a.352.352,0,0,1,.352.324c.07.917.155,1.858.249,2.8a.349.349,0,0,1-.348.386m-11.037-.7h10.647c-.068-.709-.131-1.414-.187-2.107H427.716c-.055.686-.118,1.393-.188,2.107" transform="translate(-4120.074 -11692)" fill="#1767b9"/>
      <path id="Trazado_664127" data-name="Trazado 664127" d="M452.054,595.28H422.08a.352.352,0,0,1,0-.7h29.974a.352.352,0,1,1,0,.7" transform="translate(-4120.074 -11692)" fill="#1767b9"/>
      <path id="Trazado_664128" data-name="Trazado 664128" d="M435.9,569.052a.35.35,0,0,1-.35-.35,2.463,2.463,0,0,0-2.46-2.46h-.936a.351.351,0,0,1,0-.7h.936a3.165,3.165,0,0,1,3.162,3.162.351.351,0,0,1-.352.35" transform="translate(-4120.074 -11692)" fill="#1767b9"/>
      <path id="Trazado_664129" data-name="Trazado 664129" d="M423.249,565.3H422.08a.351.351,0,1,1,0-.7h1.169a.351.351,0,1,1,0,.7" transform="translate(-4120.074 -11692)" fill="#1767b9"/>
      <path id="Trazado_664130" data-name="Trazado 664130" d="M427.466,567.18h-3.981a.352.352,0,1,1,0-.7h3.981a.352.352,0,0,1,0,.7" transform="translate(-4120.074 -11692)" fill="#1767b9"/>
      <path id="Trazado_664131" data-name="Trazado 664131" d="M442.454,568.584h-3.981a.352.352,0,1,1,0-.7h3.981a.352.352,0,1,1,0,.7" transform="translate(-4120.074 -11692)" fill="#1767b9"/>
      <path id="Trazado_664132" data-name="Trazado 664132" d="M440.112,566.711h-3.043a.352.352,0,1,1,0-.7h3.043a.352.352,0,1,1,0,.7" transform="translate(-4120.074 -11692)" fill="#1767b9"/>
      <path id="Trazado_664133" data-name="Trazado 664133" d="M431.215,569.052a.351.351,0,0,1-.352-.35,3.4,3.4,0,0,0-3.4-3.4h-2.343a.351.351,0,1,1,0-.7h2.343a4.1,4.1,0,0,1,4.1,4.1.35.35,0,0,1-.35.35" transform="translate(-4120.074 -11692)" fill="#1767b9"/>
      <path id="Trazado_664134" data-name="Trazado 664134" d="M445.327,572.8a.351.351,0,0,1-.352-.352,1.993,1.993,0,0,0-1.991-1.989h-3.122a.352.352,0,0,1,0-.7h3.122a2.7,2.7,0,0,1,2.693,2.693.351.351,0,0,1-.35.352" transform="translate(-4120.074 -11692)" fill="#1767b9"/>
      <path id="Trazado_664135" data-name="Trazado 664135" d="M427.294,589.416a.476.476,0,0,1-.065-.005.352.352,0,0,1-.281-.41c.395-2.1.739-4.489,1.022-7.094a.351.351,0,1,1,.7.076c-.285,2.623-.633,5.027-1.029,7.146a.35.35,0,0,1-.345.287" transform="translate(-4120.074 -11692)" fill="#1767b9"/>
      <path id="Trazado_664136" data-name="Trazado 664136" d="M426.533,592.878a.369.369,0,0,1-.087-.011.351.351,0,0,1-.252-.427q.186-.73.357-1.494a.351.351,0,1,1,.685.154c-.115.515-.234,1.022-.364,1.515a.349.349,0,0,1-.339.263" transform="translate(-4120.074 -11692)" fill="#1767b9"/>
      <path id="Trazado_664137" data-name="Trazado 664137" d="M397.682,605.154l-.355.534a14.964,14.964,0,0,1-4.107,28.4l-.2.3a14.988,14.988,0,0,0,4.659-29.233" transform="translate(-4120.074 -11692)" fill="#f1f1f1"/>
      <path id="Trazado_664138" data-name="Trazado 664138" d="M397.327,605.688l-1.834,2.747a11.239,11.239,0,0,1,2.215,21.183v-2.257l-4.487,6.732a15.151,15.151,0,0,0,2.487-.583,14.98,14.98,0,0,0,1.619-27.822" transform="translate(-4120.074 -11692)" fill="#fff"/>
      <path id="Trazado_664139" data-name="Trazado 664139" d="M393.023,634.739a.351.351,0,0,1-.29-.546l4.682-7.026a.352.352,0,0,1,.644.2v1.692a10.888,10.888,0,0,0-2.64-20.275.351.351,0,0,1-.251-.211.364.364,0,0,1,.034-.327l2.188-3.281a.351.351,0,0,1,.4-.139,15.339,15.339,0,0,1-4.768,29.918m4.333-6.217-3.665,5.5a14.636,14.636,0,0,0,4.134-28.448l-1.762,2.643a11.591,11.591,0,0,1,1.791,21.722.355.355,0,0,1-.336-.024.35.35,0,0,1-.162-.295Z" transform="translate(-4120.074 -11692)" fill="#1767b9"/>
      <path id="Trazado_664140" data-name="Trazado 664140" d="M379.909,619.546a14.925,14.925,0,0,1,12.915-14.834l.2-.3a14.988,14.988,0,0,0-4.659,29.233l.315-.475a14.977,14.977,0,0,1-8.771-13.625" transform="translate(-4120.074 -11692)" fill="#fff"/>
      <path id="Trazado_664141" data-name="Trazado 664141" d="M381.784,619.4a11.239,11.239,0,0,1,6.556-10.218v2.256l4.483-6.726a14.973,14.973,0,0,0-4.143,28.459l1.873-2.806a11.241,11.241,0,0,1-8.769-10.965" transform="translate(-4120.074 -11692)" fill="#f1f1f1"/>
      <path id="Trazado_664142" data-name="Trazado 664142" d="M388.365,634a.371.371,0,0,1-.108-.018,15.339,15.339,0,0,1,4.766-29.918.351.351,0,0,1,.292.547l-4.683,7.025a.352.352,0,0,1-.644-.2v-1.692a10.888,10.888,0,0,0,2.641,20.276.357.357,0,0,1,.251.211.362.362,0,0,1-.034.326l-2.188,3.281a.352.352,0,0,1-.293.157m3.992-29.218a14.635,14.635,0,0,0-4.134,28.446l1.76-2.64a11.591,11.591,0,0,1-1.791-21.722.352.352,0,0,1,.5.319v1.1Z" transform="translate(-4120.074 -11692)" fill="#1767b9"/>
      <path id="Trazado_664143" data-name="Trazado 664143" d="M381.315,606.755a.936.936,0,1,1-.938-.938.935.935,0,0,1,.938.938" transform="translate(-4120.074 -11692)" fill="#fff"/>
      <path id="Trazado_664144" data-name="Trazado 664144" d="M380.378,608.043a1.288,1.288,0,1,1,1.29-1.288,1.288,1.288,0,0,1-1.29,1.288m0-1.874a.586.586,0,1,0,.586.586.585.585,0,0,0-.586-.586" transform="translate(-4120.074 -11692)" fill="#1767b9"/>
      <path id="Trazado_664145" data-name="Trazado 664145" d="M405.2,605.349a.936.936,0,1,1-.936-.936.937.937,0,0,1,.936.936" transform="translate(-4120.074 -11692)" fill="#fff"/>
      <path id="Trazado_664146" data-name="Trazado 664146" d="M404.265,606.638a1.289,1.289,0,1,1,1.288-1.29,1.291,1.291,0,0,1-1.288,1.29m0-1.874a.586.586,0,1,0,.584.584.585.585,0,0,0-.584-.584" transform="translate(-4120.074 -11692)" fill="#1767b9"/>
      <path id="Trazado_664147" data-name="Trazado 664147" d="M408.011,608.628a.937.937,0,1,1-.938-.936.937.937,0,0,1,.938.936" transform="translate(-4120.074 -11692)" fill="#fff"/>
      <path id="Trazado_664148" data-name="Trazado 664148" d="M407.074,609.917a1.288,1.288,0,1,1,1.288-1.29,1.29,1.29,0,0,1-1.288,1.29m0-1.874a.585.585,0,1,0,.586.584.585.585,0,0,0-.586-.584" transform="translate(-4120.074 -11692)" fill="#1767b9"/>
      <path id="Trazado_664149" data-name="Trazado 664149" d="M379.909,630.641a.936.936,0,1,1-.936-.938.935.935,0,0,1,.936.938" transform="translate(-4120.074 -11692)" fill="#fff"/>
      <path id="Trazado_664150" data-name="Trazado 664150" d="M378.974,631.929a1.289,1.289,0,1,1,1.288-1.288,1.291,1.291,0,0,1-1.288,1.288m0-1.874a.586.586,0,1,0,.584.586.586.586,0,0,0-.584-.586" transform="translate(-4120.074 -11692)" fill="#1767b9"/>
      <path id="Trazado_664151" data-name="Trazado 664151" d="M383.658,633.451a.937.937,0,1,1-.938-.938.935.935,0,0,1,.938.938" transform="translate(-4120.074 -11692)" fill="#fff"/>
      <path id="Trazado_664152" data-name="Trazado 664152" d="M382.721,634.739a1.289,1.289,0,1,1,1.288-1.288,1.29,1.29,0,0,1-1.288,1.288m0-1.874a.586.586,0,1,0,.584.586.585.585,0,0,0-.584-.586" transform="translate(-4120.074 -11692)" fill="#1767b9"/>
      <path id="Trazado_664153" data-name="Trazado 664153" d="M407.543,631.109a.937.937,0,1,1-.938-.938.935.935,0,0,1,.938.938" transform="translate(-4120.074 -11692)" fill="#fff"/>
      <path id="Trazado_664154" data-name="Trazado 664154" d="M406.606,632.4a1.288,1.288,0,1,1,1.29-1.288,1.29,1.29,0,0,1-1.29,1.288m0-1.874a.585.585,0,1,0,.586.586.585.585,0,0,0-.586-.586" transform="translate(-4120.074 -11692)" fill="#1767b9"/>
      <path id="Trazado_664155" data-name="Trazado 664155" d="M388.3,613.928a1.183,1.183,0,0,0-.267-.3,1.293,1.293,0,0,0-.366-.2,1.23,1.23,0,0,0-.424-.072,1.409,1.409,0,0,0-.691.157,1.3,1.3,0,0,0-.46.422,1.849,1.849,0,0,0-.256.6,2.969,2.969,0,0,0-.081.7,2.775,2.775,0,0,0,.081.671,1.815,1.815,0,0,0,.256.587,1.3,1.3,0,0,0,.46.418,1.409,1.409,0,0,0,.691.157,1.112,1.112,0,0,0,.862-.337,1.566,1.566,0,0,0,.381-.889h1.165a2.86,2.86,0,0,1-.238.927,2.213,2.213,0,0,1-.507.7,2.122,2.122,0,0,1-.736.445,2.675,2.675,0,0,1-.927.154,2.844,2.844,0,0,1-1.133-.219,2.438,2.438,0,0,1-.847-.6,2.686,2.686,0,0,1-.529-.9,3.289,3.289,0,0,1-.182-1.115,3.418,3.418,0,0,1,.182-1.139,2.777,2.777,0,0,1,.529-.917,2.451,2.451,0,0,1,.847-.613,2.793,2.793,0,0,1,1.133-.222,2.762,2.762,0,0,1,.855.13,2.36,2.36,0,0,1,.72.379,2.086,2.086,0,0,1,.526.618,2.234,2.234,0,0,1,.26.843h-1.165a1.007,1.007,0,0,0-.139-.379" transform="translate(-4120.074 -11692)" fill="#1767b9"/>
      <path id="Trazado_664156" data-name="Trazado 664156" d="M393.043,617.943v-.552h-.023a1.23,1.23,0,0,1-.538.5,1.571,1.571,0,0,1-.675.153,1.888,1.888,0,0,1-.716-.115,1.017,1.017,0,0,1-.44-.325,1.271,1.271,0,0,1-.227-.514,3.1,3.1,0,0,1-.065-.671v-2.439h1.088v2.239a1.375,1.375,0,0,0,.155.732.59.59,0,0,0,.545.242.754.754,0,0,0,.642-.264,1.456,1.456,0,0,0,.2-.871v-2.078h1.089v3.965Z" transform="translate(-4120.074 -11692)" fill="#1767b9"/>
      <path id="Trazado_664157" data-name="Trazado 664157" d="M394.593,621.188h-2.707v-1.014h4.31v.953l-2.936,3.511h3.014v1.014h-4.619V624.7Z" transform="translate(-4120.074 -11692)" fill="#1767b9"/>
      <path id="Trazado_664158" data-name="Trazado 664158" d="M397.9,621.686v.552h.023a1.239,1.239,0,0,1,.538-.5,1.516,1.516,0,0,1,.675-.159,1.832,1.832,0,0,1,.716.119,1.05,1.05,0,0,1,.44.33,1.237,1.237,0,0,1,.225.514,3.092,3.092,0,0,1,.067.671v2.439h-1.09v-2.239a1.409,1.409,0,0,0-.153-.734.6.6,0,0,0-.545-.24.754.754,0,0,0-.643.263,1.468,1.468,0,0,0-.2.872v2.078h-1.087v-3.965Z" transform="translate(-4120.074 -11692)" fill="#1767b9"/>
      <rect id="Rectángulo_338810" data-name="Rectángulo 338810" width="13.871" height="3.2" transform="translate(-3681.285 -11028.888)" fill="#f1f1f1"/>
      <rect id="Rectángulo_338811" data-name="Rectángulo 338811" width="10.669" height="3.2" transform="translate(-3681.287 -11028.888)" fill="#fff"/>
      <path id="Trazado_664159" data-name="Trazado 664159" d="M452.659,666.712H438.787a.4.4,0,0,1-.4-.4v-3.2a.4.4,0,0,1,.4-.4h13.872a.4.4,0,0,1,.4.4v3.2a.4.4,0,0,1-.4.4m-13.472-.8h13.072v-2.4H439.187Z" transform="translate(-4120.074 -11692)" fill="#1767b9"/>
      <path id="Trazado_664160" data-name="Trazado 664160" d="M456.392,666.713H435.051a.4.4,0,1,1,0-.8h21.341a.4.4,0,0,1,0,.8" transform="translate(-4120.074 -11692)" fill="#1767b9"/>
      <path id="Trazado_664161" data-name="Trazado 664161" d="M461.728,663.112h-32.01a1.068,1.068,0,0,1-1.068-1.068V659.91H462.8v2.134a1.069,1.069,0,0,1-1.068,1.068" transform="translate(-4120.074 -11692)" fill="#f1f1f1"/>
      <path id="Trazado_664162" data-name="Trazado 664162" d="M459.059,663.112H429.716a1.066,1.066,0,0,1-1.066-1.068V659.91h31.477v2.134a1.068,1.068,0,0,1-1.068,1.068" transform="translate(-4120.074 -11692)" fill="#fff"/>
      <path id="Trazado_664163" data-name="Trazado 664163" d="M461.728,663.511H429.717a1.466,1.466,0,0,1-1.466-1.467v-2.133a.4.4,0,0,1,.4-.4H462.8a.4.4,0,0,1,.4.4v2.133a1.469,1.469,0,0,1-1.468,1.467m-32.678-3.2v1.733a.668.668,0,0,0,.667.668h32.011a.667.667,0,0,0,.665-.668v-1.733Z" transform="translate(-4120.074 -11692)" fill="#1767b9"/>
      <path id="Trazado_664164" data-name="Trazado 664164" d="M462.8,659.91H428.649V637.5a1.068,1.068,0,0,1,1.068-1.068h32.01A1.07,1.07,0,0,1,462.8,637.5Z" transform="translate(-4120.074 -11692)" fill="#f1f1f1"/>
      <path id="Trazado_664165" data-name="Trazado 664165" d="M459.593,657.243H428.65V637.5a1.067,1.067,0,0,1,1.068-1.068h30.409v20.274a.535.535,0,0,1-.534.534" transform="translate(-4120.074 -11692)" fill="#fff"/>
      <path id="Trazado_664166" data-name="Trazado 664166" d="M462.8,660.311H428.65a.4.4,0,0,1-.4-.4V637.5a1.467,1.467,0,0,1,1.466-1.468h32.011A1.47,1.47,0,0,1,463.2,637.5V659.91a.4.4,0,0,1-.4.4m-33.746-.8h33.343V637.5a.666.666,0,0,0-.665-.667H429.717a.667.667,0,0,0-.667.667Z" transform="translate(-4120.074 -11692)" fill="#1767b9"/>
      <path id="Trazado_664167" data-name="Trazado 664167" d="M431.317,656.043a.4.4,0,0,1-.4-.4v-6.82a.4.4,0,1,1,.8,0v6.82a.4.4,0,0,1-.4.4" transform="translate(-4120.074 -11692)" fill="#1767b9"/>
      <path id="Trazado_664168" data-name="Trazado 664168" d="M431.317,647.088a.4.4,0,0,1-.4-.4v-1.182a.4.4,0,0,1,.8,0v1.182a.4.4,0,0,1-.4.4" transform="translate(-4120.074 -11692)" fill="#1767b9"/>
      <path id="Trazado_664169" data-name="Trazado 664169" d="M460.13,650.707a.4.4,0,0,1-.4-.4v-5.22a.4.4,0,1,1,.8,0v5.22a.4.4,0,0,1-.4.4" transform="translate(-4120.074 -11692)" fill="#1767b9"/>
      <path id="Trazado_664170" data-name="Trazado 664170" d="M460.13,643.353a.4.4,0,0,1-.4-.4v-1.182a.4.4,0,0,1,.8,0v1.182a.4.4,0,0,1-.4.4" transform="translate(-4120.074 -11692)" fill="#1767b9"/>
      <rect id="Rectángulo_338812" data-name="Rectángulo 338812" width="375.01" height="344.072" transform="translate(-3999.074 -11347)" fill="none"/>
      <text id="PRODUCIR-3" data-name="PRODUCIR" transform="translate(-3776.689 -11103.996)" fill="#1767b9" font-size="10.403" font-family="Roboto-Bold, Roboto" font-weight="700"><tspan x="0" y="0">PRODUCIR</tspan></text>
      <text id="USAR" transform="translate(-3652.46 -11071.82)" fill="#1767b9" font-size="10.403" font-family="Roboto-Bold, Roboto" font-weight="700"><tspan x="0" y="0">USAR</tspan></text>
      <text id="REGENERAR" transform="translate(-3781.017 -11033.361)" fill="#1767b9" font-size="10.403" font-family="Roboto-Bold, Roboto" font-weight="700"><tspan x="0" y="0">REGENERAR</tspan></text>
      <path id="Trazado_664171" data-name="Trazado 664171" d="M395.507,637.982A36.6,36.6,0,0,0,423.216,652.7" transform="translate(-4120.074 -11692)" fill="none" stroke="#4d4d4d" stroke-miterlimit="10" stroke-width="1.19"/>
      <path id="Trazado_664172" data-name="Trazado 664172" d="M394.362,639.441l-.335-3.595,3.28,1.51Z" transform="translate(-4120.074 -11692)" fill="#4d4d4d"/>
      <path id="Trazado_664173" data-name="Trazado 664173" d="M420.625,579.681a36.651,36.651,0,0,0-26.6,16.643" transform="translate(-4120.074 -11692)" fill="none" stroke="#4d4d4d" stroke-miterlimit="10" stroke-width="1.19"/>
      <path id="Trazado_664174" data-name="Trazado 664174" d="M419.938,577.958l3.277,1.513-2.949,2.082Z" transform="translate(-4120.074 -11692)" fill="#4d4d4d"/>
      <path id="Trazado_664175" data-name="Trazado 664175" d="M458.283,631.247a36.734,36.734,0,0,0-1.162-32.651" transform="translate(-4120.074 -11692)" fill="none" stroke="#4d4d4d" stroke-miterlimit="10" stroke-width="1.19"/>
      <path id="Trazado_664176" data-name="Trazado 664176" d="M460.111,631.549l-2.987,2.024-.26-3.6Z" transform="translate(-4120.074 -11692)" fill="#4d4d4d"/>
      <text id="ENERGÍA_RENO" data-name="ENERGÍA RENO" transform="translate(-3869.013 -11005.773)" fill="#4d4d4d" font-size="10.822" font-family="Roboto-Bold, Roboto" font-weight="700"><tspan x="0" y="0">ENERGÍA RENO</tspan></text>
      <text id="V" transform="translate(-3793.692 -11005.773)" fill="#4d4d4d" font-size="10.822" font-family="Roboto-Bold, Roboto" font-weight="700"><tspan x="0" y="0">V</tspan></text>
      <text id="ABLE" transform="translate(-3787.197 -11005.773)" fill="#4d4d4d" font-size="10.822" font-family="Roboto-Bold, Roboto" font-weight="700"><tspan x="0" y="0">ABLE</tspan></text>
      <text id="ECONOMÍA_CIRCULAR" data-name="ECONOMÍA CIRCULAR" transform="translate(-3891.594 -11160.608)" fill="#1767b9" font-size="14.43" font-family="Roboto-Bold, Roboto" font-weight="700"><tspan x="0" y="0">ECONOMÍA CIRCULAR</tspan></text>
    </g>
  </g>
</svg>
