<svg xmlns="http://www.w3.org/2000/svg" width="94" height="94" viewBox="0 0 94 94">
  <g id="Grupo_971806" data-name="Grupo 971806" transform="translate(-1306 -1977)">
    <circle id="Elipse_5568" data-name="Elipse 5568" cx="47" cy="47" r="47" transform="translate(1306 1977)" fill="#0f58b9"/>
    <g id="competencia" transform="translate(1312 1975)">
      <path id="Trazado_663357" data-name="Trazado 663357" d="M32.9,56.9A3.9,3.9,0,0,1,29,53h7.792A3.9,3.9,0,0,1,32.9,56.9Z" transform="translate(7.469 8.663)" fill="#e8e8e8"/>
      <path id="Trazado_663358" data-name="Trazado 663358" d="M65.182,45.091A9.091,9.091,0,0,0,55.937,36a9.206,9.206,0,0,0-8.931,8.755A9.039,9.039,0,0,0,49.6,51.442a8.582,8.582,0,0,1,2.6,5.979v.657h7.792v-.664a8.305,8.305,0,0,1,2.51-5.886,9.034,9.034,0,0,0,2.684-6.438Z" transform="translate(12.846 3.585)" fill="#f2e079"/>
      <path id="Trazado_663359" data-name="Trazado 663359" d="M60.39,49.195a5.195,5.195,0,0,0-10.39,0v1.512a8.126,8.126,0,0,1,1.3,4.326v.656h7.792v-.664a8.133,8.133,0,0,1,1.3-4.369Z" transform="translate(13.742 5.975)" fill="#8acbe6"/>
      <path id="Trazado_663360" data-name="Trazado 663360" d="M47.975,36.987A12.988,12.988,0,1,0,26.636,46.92a5.187,5.187,0,0,1,1.857,3.97v2.981H41.481V50.89A5.119,5.119,0,0,1,43.3,46.95,12.938,12.938,0,0,0,47.975,36.987Z" transform="translate(5.377 0)" fill="#ffed80"/>
      <path id="Trazado_663361" data-name="Trazado 663361" d="M41.585,44.211V42.792a7.792,7.792,0,1,0-15.585,0v1.425A5.155,5.155,0,0,1,27.3,47.6v2.981H40.286V47.6a5.128,5.128,0,0,1,1.3-3.394Z" transform="translate(6.572 3.286)" fill="#99e1ff"/>
      <circle id="Elipse_5570" data-name="Elipse 5570" cx="4" cy="4" r="4" transform="translate(36.513 30.676)" fill="#edbf89"/>
      <circle id="Elipse_5571" data-name="Elipse 5571" cx="2.5" cy="2.5" r="2.5" transform="translate(66.513 44.676)" fill="#edbf89"/>
      <path id="Trazado_663362" data-name="Trazado 663362" d="M32.6,35,30,40.195l2.6,5.195,2.6-5.195Z" transform="translate(7.767 3.286)" fill="#26547c"/>
      <path id="Trazado_663373" data-name="Trazado 663373" d="M38.689,51.6H28.3a1.3,1.3,0,1,1,0-2.6h10.39a1.3,1.3,0,0,1,0,2.6Z" transform="translate(6.871 7.468)" fill="#e8e8e8"/>
      <path id="Trazado_663374" data-name="Trazado 663374" d="M57.494,57.6H52.3a1.3,1.3,0,0,1,0-2.6h5.195a1.3,1.3,0,0,1,0,2.6Z" transform="translate(14.041 9.261)" fill="#e8e8e8"/>
      <path id="Trazado_663375" data-name="Trazado 663375" d="M55.9,60.6H53.3a1.3,1.3,0,1,1,0-2.6h2.6a1.3,1.3,0,1,1,0,2.6Z" transform="translate(14.339 10.157)" fill="#e8e8e8"/>
      <path id="Trazado_663376" data-name="Trazado 663376" d="M22.182,47.091A9.091,9.091,0,0,0,12.937,38a9.206,9.206,0,0,0-8.931,8.755A9.039,9.039,0,0,0,6.6,53.442a8.582,8.582,0,0,1,2.6,5.979v.657h7.792v-.664a8.306,8.306,0,0,1,2.51-5.886,9.034,9.034,0,0,0,2.684-6.438Z" transform="translate(0 4.182)" fill="#f2e079"/>
      <path id="Trazado_663377" data-name="Trazado 663377" d="M17.39,51.195a5.195,5.195,0,0,0-10.39,0v1.512a8.126,8.126,0,0,1,1.3,4.326v.656h7.792v-.664a8.133,8.133,0,0,1,1.3-4.369Z" transform="translate(0.896 6.572)" fill="#8acbe6"/>
      <circle id="Elipse_5572" data-name="Elipse 5572" cx="2.5" cy="2.5" r="2.5" transform="translate(10.513 47.676)" fill="#edbf89"/>
      <path id="Trazado_663378" data-name="Trazado 663378" d="M14.494,59.6H9.3a1.3,1.3,0,0,1,0-2.6h5.195a1.3,1.3,0,0,1,0,2.6Z" transform="translate(1.195 9.858)" fill="#e8e8e8"/>
      <path id="Trazado_663379" data-name="Trazado 663379" d="M12.9,62.6H10.3a1.3,1.3,0,1,1,0-2.6h2.6a1.3,1.3,0,1,1,0,2.6Z" transform="translate(1.494 10.755)" fill="#e8e8e8"/>
    </g>
  </g>
</svg>
