<svg xmlns="http://www.w3.org/2000/svg" width="94" height="94" viewBox="0 0 94 94">
  <g id="_x37_0" transform="translate(-3.5 -3.43)">
    <g id="Grupo_971779" data-name="Grupo 971779" transform="translate(3.5 3.5)">
      <g id="Grupo_971778" data-name="Grupo 971778">
        <g id="Grupo_971777" data-name="Grupo 971777">
          <g id="Grupo_971776" data-name="Grupo 971776">
            <g id="Grupo_971775" data-name="Grupo 971775">
              <g id="Grupo_971774" data-name="Grupo 971774">
                <circle id="Elipse_5569" data-name="Elipse 5569" cx="47" cy="47" r="47" transform="translate(0 -0.07)" fill="#0f58b9"/>
              </g>
            </g>
          </g>
        </g>
      </g>
    </g>
    <g id="Grupo_971802" data-name="Grupo 971802" transform="translate(22.93 25.619)">
      <g id="Grupo_971793" data-name="Grupo 971793">
        <g id="Grupo_971783" data-name="Grupo 971783" transform="translate(7.341)">
          <g id="Grupo_971782" data-name="Grupo 971782">
            <g id="Grupo_971781" data-name="Grupo 971781">
              <g id="Grupo_971780" data-name="Grupo 971780">
                <path id="Trazado_663347" data-name="Trazado 663347" d="M43.656,33.642H84.043a3.667,3.667,0,0,0-3.667,3.667V79.667A3.668,3.668,0,0,1,76.7,83.334H43.656a3.668,3.668,0,0,1-3.674-3.667V37.316A3.675,3.675,0,0,1,43.656,33.642Z" transform="translate(-39.981 -33.642)" fill="#fff"/>
              </g>
            </g>
          </g>
        </g>
        <g id="Grupo_971785" data-name="Grupo 971785" transform="translate(15.951 5.559)">
          <g id="Grupo_971784" data-name="Grupo 971784">
            <path id="Trazado_663348" data-name="Trazado 663348" d="M55.533,76.014,63.38,60.683,51.8,62.555l-.088-.168,18.093-21.17.143.094-8.233,15L73.494,54.5,55.636,76.151Z" transform="translate(-51.715 -41.217)" fill="#ffc536"/>
          </g>
        </g>
        <g id="Grupo_971789" data-name="Grupo 971789" transform="translate(0 46.025)">
          <g id="Grupo_971788" data-name="Grupo 971788">
            <g id="Grupo_971787" data-name="Grupo 971787">
              <g id="Grupo_971786" data-name="Grupo 971786">
                <path id="Trazado_663349" data-name="Trazado 663349" d="M29.977,96.361H70.372a3.662,3.662,0,0,0,3.667,3.667H33.652A3.668,3.668,0,0,1,29.977,96.361Z" transform="translate(-29.977 -96.361)" fill="#e1e7ef"/>
              </g>
            </g>
          </g>
        </g>
        <g id="Grupo_971792" data-name="Grupo 971792" transform="translate(47.732 0.001)">
          <g id="Grupo_971791" data-name="Grupo 971791">
            <g id="Grupo_971790" data-name="Grupo 971790">
              <path id="Trazado_663350" data-name="Trazado 663350" d="M102.361,43.161v-5.85a3.667,3.667,0,0,0-3.667-3.667h0a3.667,3.667,0,0,0-3.667,3.667v5.85Z" transform="translate(-95.023 -33.644)" fill="#e1e7ef"/>
            </g>
          </g>
        </g>
      </g>
      <g id="Grupo_971797" data-name="Grupo 971797" transform="translate(10.721 3.464)">
        <g id="Grupo_971794" data-name="Grupo 971794">
          <path id="Trazado_663351" data-name="Trazado 663351" d="M57.892,39.01a.649.649,0,0,1-.647.647H45.226a.647.647,0,0,1,0-1.294H57.245A.643.643,0,0,1,57.892,39.01Z" transform="translate(-44.587 -38.363)" fill="#bbc7d7"/>
        </g>
        <g id="Grupo_971795" data-name="Grupo 971795" transform="translate(0 2.947)">
          <path id="Trazado_663352" data-name="Trazado 663352" d="M57.892,43.026a.649.649,0,0,1-.647.647H45.226a.647.647,0,0,1,0-1.294H57.245A.643.643,0,0,1,57.892,43.026Z" transform="translate(-44.587 -42.379)" fill="#bbc7d7"/>
        </g>
        <g id="Grupo_971796" data-name="Grupo 971796" transform="translate(0 5.894)">
          <path id="Trazado_663353" data-name="Trazado 663353" d="M50.519,47.042a.649.649,0,0,1-.647.647H45.226a.647.647,0,0,1,0-1.294h4.645A.643.643,0,0,1,50.519,47.042Z" transform="translate(-44.587 -46.395)" fill="#bbc7d7"/>
        </g>
      </g>
      <g id="Grupo_971801" data-name="Grupo 971801" transform="translate(32.583 36.251)">
        <g id="Grupo_971798" data-name="Grupo 971798">
          <path id="Trazado_663354" data-name="Trazado 663354" d="M87.683,83.69a.649.649,0,0,1-.647.647H75.018a.647.647,0,0,1,0-1.294H87.036A.643.643,0,0,1,87.683,83.69Z" transform="translate(-74.379 -83.042)" fill="#bbc7d7"/>
        </g>
        <g id="Grupo_971799" data-name="Grupo 971799" transform="translate(0 2.947)">
          <path id="Trazado_663355" data-name="Trazado 663355" d="M87.683,87.705a.649.649,0,0,1-.647.647H75.018a.647.647,0,0,1,0-1.294H87.036A.643.643,0,0,1,87.683,87.705Z" transform="translate(-74.379 -87.058)" fill="#bbc7d7"/>
        </g>
        <g id="Grupo_971800" data-name="Grupo 971800" transform="translate(0 5.894)">
          <path id="Trazado_663356" data-name="Trazado 663356" d="M80.31,91.721a.649.649,0,0,1-.647.647H75.018a.647.647,0,0,1,0-1.294h4.645A.643.643,0,0,1,80.31,91.721Z" transform="translate(-74.379 -91.074)" fill="#bbc7d7"/>
        </g>
      </g>
    </g>
  </g>
</svg>
