<svg id="Grupo_972334" data-name="Grupo 972334" xmlns="http://www.w3.org/2000/svg" xmlns:xlink="http://www.w3.org/1999/xlink" width="189.2" height="195.774" viewBox="0 0 189.2 195.774">
  <defs>
    <clipPath id="clip-path">
      <rect id="Rectángulo_339014" data-name="Rectángulo 339014" width="189.2" height="195.774" fill="none"/>
    </clipPath>
    <clipPath id="clip-path-3">
      <rect id="Rectángulo_338976" data-name="Rectángulo 338976" width="17.733" height="24.694" fill="none"/>
    </clipPath>
    <clipPath id="clip-path-4">
      <rect id="Rectángulo_338977" data-name="Rectángulo 338977" width="27.747" height="30.115" fill="none"/>
    </clipPath>
    <clipPath id="clip-path-5">
      <rect id="Rectángulo_338978" data-name="Rectángulo 338978" width="20.687" height="11.944" fill="none"/>
    </clipPath>
    <clipPath id="clip-path-6">
      <rect id="Rectángulo_338979" data-name="Rectángulo 338979" width="20.207" height="11.114" fill="none"/>
    </clipPath>
    <clipPath id="clip-path-7">
      <rect id="Rectángulo_338980" data-name="Rectángulo 338980" width="20.688" height="11.944" fill="none"/>
    </clipPath>
    <clipPath id="clip-path-9">
      <rect id="Rectángulo_338982" data-name="Rectángulo 338982" width="9.008" height="5.197" fill="none"/>
    </clipPath>
    <clipPath id="clip-path-10">
      <rect id="Rectángulo_338983" data-name="Rectángulo 338983" width="8.527" height="4.367" fill="none"/>
    </clipPath>
    <clipPath id="clip-path-17">
      <rect id="Rectángulo_338990" data-name="Rectángulo 338990" width="3.668" height="3.982" fill="none"/>
    </clipPath>
    <clipPath id="clip-path-18">
      <rect id="Rectángulo_338991" data-name="Rectángulo 338991" width="1.71" height="2.608" fill="none"/>
    </clipPath>
    <clipPath id="clip-path-19">
      <rect id="Rectángulo_338992" data-name="Rectángulo 338992" width="2.888" height="3.729" fill="none"/>
    </clipPath>
    <clipPath id="clip-path-20">
      <rect id="Rectángulo_338993" data-name="Rectángulo 338993" width="0.696" height="1.264" fill="none"/>
    </clipPath>
    <clipPath id="clip-path-21">
      <rect id="Rectángulo_338994" data-name="Rectángulo 338994" width="5.713" height="3.635" fill="none"/>
    </clipPath>
    <clipPath id="clip-path-22">
      <rect id="Rectángulo_338995" data-name="Rectángulo 338995" width="5.83" height="3.477" fill="none"/>
    </clipPath>
    <clipPath id="clip-path-23">
      <rect id="Rectángulo_338996" data-name="Rectángulo 338996" width="5.621" height="3.693" fill="none"/>
    </clipPath>
    <clipPath id="clip-path-24">
      <rect id="Rectángulo_338997" data-name="Rectángulo 338997" width="5.894" height="7.398" fill="none"/>
    </clipPath>
    <clipPath id="clip-path-25">
      <rect id="Rectángulo_338998" data-name="Rectángulo 338998" width="14.009" height="8.322" fill="none"/>
    </clipPath>
    <clipPath id="clip-path-26">
      <rect id="Rectángulo_338999" data-name="Rectángulo 338999" width="11.217" height="7.444" fill="none"/>
    </clipPath>
    <clipPath id="clip-path-27">
      <rect id="Rectángulo_339000" data-name="Rectángulo 339000" width="17.532" height="6.119" fill="none"/>
    </clipPath>
    <clipPath id="clip-path-28">
      <rect id="Rectángulo_339001" data-name="Rectángulo 339001" width="17.456" height="5.299" fill="none"/>
    </clipPath>
    <clipPath id="clip-path-29">
      <rect id="Rectángulo_339002" data-name="Rectángulo 339002" width="27.328" height="6.171" fill="none"/>
    </clipPath>
    <clipPath id="clip-path-30">
      <rect id="Rectángulo_339003" data-name="Rectángulo 339003" width="6.899" height="8.078" fill="none"/>
    </clipPath>
    <clipPath id="clip-path-31">
      <rect id="Rectángulo_339004" data-name="Rectángulo 339004" width="12.563" height="15.298" fill="none"/>
    </clipPath>
    <clipPath id="clip-path-32">
      <rect id="Rectángulo_339005" data-name="Rectángulo 339005" width="5.689" height="7.215" fill="none"/>
    </clipPath>
    <clipPath id="clip-path-33">
      <rect id="Rectángulo_339006" data-name="Rectángulo 339006" width="15.92" height="21.669" fill="none"/>
    </clipPath>
    <clipPath id="clip-path-34">
      <rect id="Rectángulo_339007" data-name="Rectángulo 339007" width="14.252" height="8.95" fill="none"/>
    </clipPath>
    <clipPath id="clip-path-35">
      <rect id="Rectángulo_339008" data-name="Rectángulo 339008" width="45.979" height="26.546" fill="none"/>
    </clipPath>
    <clipPath id="clip-path-36">
      <rect id="Rectángulo_339009" data-name="Rectángulo 339009" width="14.27" height="64.992" fill="none"/>
    </clipPath>
    <clipPath id="clip-path-37">
      <rect id="Rectángulo_339010" data-name="Rectángulo 339010" width="33.295" height="19.223" fill="none"/>
    </clipPath>
    <clipPath id="clip-path-38">
      <rect id="Rectángulo_339011" data-name="Rectángulo 339011" width="1.586" height="1.83" fill="none"/>
    </clipPath>
    <clipPath id="clip-path-39">
      <rect id="Rectángulo_339012" data-name="Rectángulo 339012" width="20.42" height="48.515" fill="none"/>
    </clipPath>
  </defs>
  <g id="Grupo_972333" data-name="Grupo 972333" clip-path="url(#clip-path)">
    <g id="Grupo_972332" data-name="Grupo 972332">
      <g id="Grupo_972331" data-name="Grupo 972331" clip-path="url(#clip-path)">
        <path id="Trazado_696330" data-name="Trazado 696330" d="M29.156,253.19a56.029,56.029,0,0,0-.931-14.021c-1.476-6.863-5.058-12.143-9.472-14.205s-9.654.747-5.863,5.443S24.548,243.478,24.5,255.715Z" transform="translate(-6.825 -132.131)" fill="#e0e0e0"/>
        <path id="Trazado_696331" data-name="Trazado 696331" d="M32.716,255.868a.212.212,0,0,0,.053,0,.258.258,0,0,0,.252-.266c-.413-14.989-5.4-22.495-11.173-26.311a.259.259,0,1,0-.286.433c5.69,3.765,10.534,11.117,10.942,25.893a.259.259,0,0,0,.213.248" transform="translate(-12.634 -135.061)" fill="#fff"/>
        <path id="Trazado_696332" data-name="Trazado 696332" d="M.009,257.931a3.3,3.3,0,0,0,1.394,2,3.816,3.816,0,0,1,1.51,1.929c.351,1.645-1.6,3.163-1.177,4.791a2.607,2.607,0,0,0,1.374,1.532,17.338,17.338,0,0,0,1.615.69,6.956,6.956,0,0,0,.811.2,3.781,3.781,0,0,1,2.211.989c.9.976.785,2.475,1.1,3.764.383,1.543,1.3,2.447,3.4,3.181l7.189-4.076c1.793-1.826,2.424-4.949.774-7.072-.99-1.274-2.845-1.435-3.78-2.709-.839-1.143-.353-2.794-.868-4.115-.522-1.337-1.882-1.776-3.172-2-1.329-.23-2.66.308-3.92-.152a38.73,38.73,0,0,0-3.734-1.53,4.361,4.361,0,0,0-3.764.632,2.308,2.308,0,0,0-.966,1.949" transform="translate(0 -150.341)" fill="#ebebeb"/>
        <path id="Trazado_696333" data-name="Trazado 696333" d="M17.228,266.84a.183.183,0,0,0-.056-.077A20.277,20.277,0,0,0,6.705,259.3a.188.188,0,1,0-.082.366,19.87,19.87,0,0,1,9.926,6.877,10.348,10.348,0,0,0-8.246.715.188.188,0,0,0,.1.345.19.19,0,0,0,.108-.03,9.986,9.986,0,0,1,8.423-.507,15.706,15.706,0,0,1,2.811,9.666.188.188,0,0,0,.166.192h.015a.187.187,0,0,0,.193-.182,16.048,16.048,0,0,0-2.888-9.9" transform="translate(-3.816 -152.759)" fill="#fff"/>
        <path id="Trazado_696334" data-name="Trazado 696334" d="M413.437,262.8a45.111,45.111,0,0,1,2.738-17.859c2.274-6.372,8.116-12.8,12.062-12.526,3.675.254,4.488,4.769,1.183,8.787s-10.509,11.707-10.956,17.247l-1.408,6.3Z" transform="translate(-243.563 -136.92)" fill="#e0e0e0"/>
        <path id="Trazado_696335" data-name="Trazado 696335" d="M417.009,264.915a.236.236,0,0,0,.182-.219c.574-12.426,7.512-22.779,13.3-25.962a.236.236,0,1,0-.227-.413c-5.884,3.235-12.963,13.758-13.545,26.353a.236.236,0,0,0,.224.246.223.223,0,0,0,.065-.006" transform="translate(-245.506 -140.386)" fill="#fff"/>
        <path id="Trazado_696336" data-name="Trazado 696336" d="M422.108,285.1c.226-1.874,1.941-5.182,5.091-8.192,3.484-3.33,8.242-5.365,9.048-7.652.968-2.747-1.461-4.213-5.476-3.355-4.826,1.032-10.177,6.556-11.075,17.836Z" transform="translate(-247.26 -156.508)" fill="#ebebeb"/>
        <path id="Trazado_696337" data-name="Trazado 696337" d="M422.52,285.943a.236.236,0,0,0,.176-.186c1.846-9.858,8.436-14.269,11.662-15.225a.236.236,0,0,0,.159-.293.233.233,0,0,0-.293-.159c-3.568,1.056-10.108,5.528-11.992,15.59a.236.236,0,0,0,.189.275.23.23,0,0,0,.1,0" transform="translate(-248.751 -159.109)" fill="#fff"/>
        <path id="Trazado_696338" data-name="Trazado 696338" d="M35.018,313.3c-34.924-20.163-34.924-52.854,0-73.018s91.547-20.163,126.471,0,34.924,52.855,0,73.018-91.547,20.163-126.471,0" transform="translate(-5.199 -132.653)" fill="#fafafa"/>
        <path id="Trazado_696339" data-name="Trazado 696339" d="M219.246,392.605l9.562-5.521a.313.313,0,0,0,0-.592l-2.343-1.353a1.132,1.132,0,0,0-1.026,0l-9.562,5.521a.313.313,0,0,0,0,.593l1.172.676-12,6.928c-.283.164-.164.219-.032.3s.23.145.513-.018l12-6.928.69.4a1.134,1.134,0,0,0,1.026,0" transform="translate(-120.699 -226.828)" fill="#e0e0e0"/>
        <path id="Trazado_696340" data-name="Trazado 696340" d="M226.652,361.079a4.3,4.3,0,0,1-2.142-.521c-.067-.039-.129-.079-.191-.122l-.353-.249,3.008-.441.272-.569-.811-.476-2.869.419.095-.269a1.854,1.854,0,0,1,.881-.947,4.33,4.33,0,0,1,2.106-.5,5.028,5.028,0,0,1,.963.092l9.811-5.664a1.169,1.169,0,0,1-.081-.789,1.763,1.763,0,0,1,.911-1.053,4.676,4.676,0,0,1,4.25.019c.068.04.131.08.191.122l.354.249-3.009.441-.272.569.812.476,2.869-.419-.095.269a1.855,1.855,0,0,1-.881.947,4.332,4.332,0,0,1-2.106.5,5.02,5.02,0,0,1-.963-.092l-9.811,5.664a1.167,1.167,0,0,1,.081.789,1.762,1.762,0,0,1-.911,1.053,4.336,4.336,0,0,1-2.109.5" transform="translate(-131.711 -205.897)" fill="#e0e0e0"/>
        <path id="Trazado_696341" data-name="Trazado 696341" d="M107.66,346.935c12.241,7.067,12.241,18.525,0,25.593s-32.087,7.067-44.327,0-12.241-18.525,0-25.593,32.087-7.067,44.327,0" transform="translate(-31.903 -201.27)" fill="#e0e0e0"/>
        <path id="Trazado_696342" data-name="Trazado 696342" d="M255.293,353.77l41.6-24.015,23.238,13.416-41.6,24.015Z" transform="translate(-150.403 -194.271)" fill="#e0e0e0"/>
        <path id="Trazado_696343" data-name="Trazado 696343" d="M205.279,316.864,189.056,307.5a.651.651,0,0,1,0-1.233l26.237-15.148a2.357,2.357,0,0,1,2.135,0l16.223,9.366a.651.651,0,0,1,0,1.233l-26.237,15.148a2.36,2.36,0,0,1-2.135,0" transform="translate(-111.12 -171.358)" fill="#e0e0e0"/>
        <path id="Trazado_696344" data-name="Trazado 696344" d="M207.843,317.187V303.7l-16.689-9.636,1.669,14.453Z" transform="translate(-112.617 -173.243)" fill="#263238"/>
        <path id="Trazado_696345" data-name="Trazado 696345" d="M231.773,308.9l25.034-14.453,1.669-14.453-26.7,15.418Z" transform="translate(-136.547 -164.953)" fill="#37474f"/>
        <path id="Trazado_696346" data-name="Trazado 696346" d="M188.613,264.055a.75.75,0,0,1,.442-.616l26.237-15.148a2.361,2.361,0,0,1,2.135,0l16.223,9.366a.75.75,0,0,1,.442.616c0,.223,0,3.632,0,3.854a.747.747,0,0,1-.442.619L207.413,277.9a2.36,2.36,0,0,1-2.135,0l-16.223-9.367a.75.75,0,0,1-.442-.616Z" transform="translate(-111.119 -146.128)" fill="#ba68c8"/>
        <g id="Grupo_972222" data-name="Grupo 972222" transform="translate(77.494 107.329)" opacity="0.2">
          <g id="Grupo_972221" data-name="Grupo 972221">
            <g id="Grupo_972220" data-name="Grupo 972220" clip-path="url(#clip-path-3)">
              <path id="Trazado_696347" data-name="Trazado 696347" d="M189.055,271.211l17.291-9.982v24.694a2.184,2.184,0,0,1-1.067-.255L189.055,276.3a.75.75,0,0,1-.442-.616v-3.857a.75.75,0,0,1,.442-.616" transform="translate(-188.613 -261.229)"/>
            </g>
          </g>
        </g>
        <g id="Grupo_972225" data-name="Grupo 972225" transform="translate(95.227 101.908)" opacity="0.1">
          <g id="Grupo_972224" data-name="Grupo 972224">
            <g id="Grupo_972223" data-name="Grupo 972223" clip-path="url(#clip-path-4)">
              <path id="Trazado_696348" data-name="Trazado 696348" d="M231.774,253.455l8.946-5.165a2.36,2.36,0,0,1,2.135,0l16.223,9.367a.749.749,0,0,1,.442.616c0,.223,0,3.632,0,3.854a.748.748,0,0,1-.442.619l-26.237,15.148a2.182,2.182,0,0,1-1.067.255Z" transform="translate(-231.774 -248.035)"/>
            </g>
          </g>
        </g>
        <path id="Trazado_696349" data-name="Trazado 696349" d="M205.279,274.038l-16.223-9.366a.651.651,0,0,1,0-1.233l26.237-15.148a2.358,2.358,0,0,1,2.135,0l16.223,9.366a.651.651,0,0,1,0,1.233l-26.237,15.148a2.358,2.358,0,0,1-2.135,0" transform="translate(-111.12 -146.127)" fill="#ba68c8"/>
        <g id="Grupo_972228" data-name="Grupo 972228" transform="translate(97.4 112.438)" opacity="0.2">
          <g id="Grupo_972227" data-name="Grupo 972227">
            <g id="Grupo_972226" data-name="Grupo 972226" clip-path="url(#clip-path-5)">
              <path id="Trazado_696350" data-name="Trazado 696350" d="M257.42,273.854c.461.266.436.712-.055,1l-18.248,10.536a1.909,1.909,0,0,1-1.724.032c-.461-.266-.436-.712.055-1L255.7,273.886a1.909,1.909,0,0,1,1.724-.032" transform="translate(-237.063 -273.663)"/>
            </g>
          </g>
        </g>
        <g id="Grupo_972231" data-name="Grupo 972231" transform="translate(97.64 113.268)" opacity="0.2">
          <g id="Grupo_972230" data-name="Grupo 972230">
            <g id="Grupo_972229" data-name="Grupo 972229" clip-path="url(#clip-path-6)">
              <path id="Trazado_696351" data-name="Trazado 696351" d="M239.463,286.574a1.907,1.907,0,0,1-1.724.032.906.906,0,0,1-.09-.064,1.062,1.062,0,0,1,.145-.1l18.248-10.535a1.909,1.909,0,0,1,1.724-.032.859.859,0,0,1,.09.064,1.049,1.049,0,0,1-.145.1Z" transform="translate(-237.649 -275.683)"/>
            </g>
          </g>
        </g>
        <g id="Grupo_972234" data-name="Grupo 972234" transform="translate(84.05 104.729)" opacity="0.2">
          <g id="Grupo_972233" data-name="Grupo 972233">
            <g id="Grupo_972232" data-name="Grupo 972232" clip-path="url(#clip-path-7)">
              <path id="Trazado_696352" data-name="Trazado 696352" d="M224.927,255.091c.461.266.436.712-.055,1l-18.248,10.536a1.909,1.909,0,0,1-1.724.032c-.461-.266-.436-.712.055-1L223.2,255.123a1.908,1.908,0,0,1,1.724-.032" transform="translate(-204.57 -254.9)"/>
            </g>
          </g>
        </g>
        <g id="Grupo_972237" data-name="Grupo 972237" transform="translate(84.29 105.559)" opacity="0.2">
          <g id="Grupo_972236" data-name="Grupo 972236">
            <g id="Grupo_972235" data-name="Grupo 972235" clip-path="url(#clip-path-6)">
              <path id="Trazado_696353" data-name="Trazado 696353" d="M206.969,267.811a1.907,1.907,0,0,1-1.724.032.915.915,0,0,1-.09-.064,1.064,1.064,0,0,1,.145-.1l18.248-10.535a1.908,1.908,0,0,1,1.724-.032.856.856,0,0,1,.09.064,1.059,1.059,0,0,1-.145.1Z" transform="translate(-205.155 -256.92)"/>
            </g>
          </g>
        </g>
        <g id="Grupo_972240" data-name="Grupo 972240" transform="translate(87.384 117.257)" opacity="0.2">
          <g id="Grupo_972239" data-name="Grupo 972239">
            <g id="Grupo_972238" data-name="Grupo 972238" clip-path="url(#clip-path-9)">
              <path id="Trazado_696354" data-name="Trazado 696354" d="M213.015,285.583c-.461.266-.436.712.055,1l6.569,3.789a1.907,1.907,0,0,0,1.724.032c.461-.266.436-.712-.055-1l-6.568-3.789a1.907,1.907,0,0,0-1.724-.032" transform="translate(-212.685 -285.392)"/>
            </g>
          </g>
        </g>
        <g id="Grupo_972243" data-name="Grupo 972243" transform="translate(87.624 118.087)" opacity="0.2">
          <g id="Grupo_972242" data-name="Grupo 972242">
            <g id="Grupo_972241" data-name="Grupo 972241" clip-path="url(#clip-path-10)">
              <path id="Trazado_696355" data-name="Trazado 696355" d="M219.984,291.558a1.908,1.908,0,0,0,1.724.032.847.847,0,0,0,.09-.064,1.065,1.065,0,0,0-.145-.1l-6.568-3.789a1.907,1.907,0,0,0-1.724-.032.851.851,0,0,0-.09.064,1.072,1.072,0,0,0,.145.1Z" transform="translate(-213.27 -287.413)"/>
            </g>
          </g>
        </g>
        <g id="Grupo_972246" data-name="Grupo 972246" transform="translate(84.05 119.182)" opacity="0.2">
          <g id="Grupo_972245" data-name="Grupo 972245">
            <g id="Grupo_972244" data-name="Grupo 972244" clip-path="url(#clip-path-9)">
              <path id="Trazado_696356" data-name="Trazado 696356" d="M204.9,290.269c-.461.266-.436.712.055,1l6.569,3.789a1.909,1.909,0,0,0,1.724.032c.461-.266.436-.712-.055-1l-6.568-3.789a1.907,1.907,0,0,0-1.724-.032" transform="translate(-204.569 -290.078)"/>
            </g>
          </g>
        </g>
        <g id="Grupo_972249" data-name="Grupo 972249" transform="translate(84.29 120.012)" opacity="0.2">
          <g id="Grupo_972248" data-name="Grupo 972248">
            <g id="Grupo_972247" data-name="Grupo 972247" clip-path="url(#clip-path-10)">
              <path id="Trazado_696357" data-name="Trazado 696357" d="M211.868,296.244a1.908,1.908,0,0,0,1.724.032.964.964,0,0,0,.09-.064,1.09,1.09,0,0,0-.145-.1l-6.568-3.788a1.907,1.907,0,0,0-1.724-.032.861.861,0,0,0-.09.064,1.076,1.076,0,0,0,.145.1Z" transform="translate(-205.154 -292.099)"/>
            </g>
          </g>
        </g>
        <g id="Grupo_972252" data-name="Grupo 972252" transform="translate(107.411 105.695)" opacity="0.2">
          <g id="Grupo_972251" data-name="Grupo 972251">
            <g id="Grupo_972250" data-name="Grupo 972250" clip-path="url(#clip-path-9)">
              <path id="Trazado_696358" data-name="Trazado 696358" d="M261.758,257.442c-.461.266-.436.712.055,1l6.569,3.789a1.908,1.908,0,0,0,1.724.032c.461-.266.436-.712-.055-1l-6.568-3.789a1.909,1.909,0,0,0-1.724-.032" transform="translate(-261.428 -257.251)"/>
            </g>
          </g>
        </g>
        <g id="Grupo_972255" data-name="Grupo 972255" transform="translate(107.651 106.524)" opacity="0.2">
          <g id="Grupo_972254" data-name="Grupo 972254">
            <g id="Grupo_972253" data-name="Grupo 972253" clip-path="url(#clip-path-10)">
              <path id="Trazado_696359" data-name="Trazado 696359" d="M268.727,263.416a1.907,1.907,0,0,0,1.724.032.931.931,0,0,0,.09-.064,1.058,1.058,0,0,0-.145-.1l-6.568-3.789a1.907,1.907,0,0,0-1.724-.032.866.866,0,0,0-.09.064,1.087,1.087,0,0,0,.145.1Z" transform="translate(-262.013 -259.271)"/>
            </g>
          </g>
        </g>
        <g id="Grupo_972258" data-name="Grupo 972258" transform="translate(104.076 107.619)" opacity="0.2">
          <g id="Grupo_972257" data-name="Grupo 972257">
            <g id="Grupo_972256" data-name="Grupo 972256" clip-path="url(#clip-path-9)">
              <path id="Trazado_696360" data-name="Trazado 696360" d="M253.642,262.127c-.461.266-.436.712.055,1l6.569,3.789a1.909,1.909,0,0,0,1.724.032c.461-.266.436-.712-.055-1l-6.568-3.789a1.908,1.908,0,0,0-1.724-.032" transform="translate(-253.312 -261.936)"/>
            </g>
          </g>
        </g>
        <g id="Grupo_972261" data-name="Grupo 972261" transform="translate(104.316 108.449)" opacity="0.2">
          <g id="Grupo_972260" data-name="Grupo 972260">
            <g id="Grupo_972259" data-name="Grupo 972259" clip-path="url(#clip-path-10)">
              <path id="Trazado_696361" data-name="Trazado 696361" d="M260.611,268.1a1.907,1.907,0,0,0,1.724.032.883.883,0,0,0,.09-.064,1.084,1.084,0,0,0-.145-.1l-6.568-3.789a1.907,1.907,0,0,0-1.724-.032.854.854,0,0,0-.09.064,1.08,1.08,0,0,0,.145.1Z" transform="translate(-253.897 -263.957)"/>
            </g>
          </g>
        </g>
        <path id="Trazado_696362" data-name="Trazado 696362" d="M227.716,267.844v3.727l1.668.966,1.668-.966v-2.827a1.971,1.971,0,0,1,.887-1.541l4.117-2.379.781-.448c.489-.283.887-.053.887.514l0,2.827,1.668-.966v-3.727a1.9,1.9,0,0,0-.012-.222,1.04,1.04,0,0,0-.025-.168,1.273,1.273,0,0,0-.049-.189,1.535,1.535,0,0,0-.058-.143,1.072,1.072,0,0,0-.078-.136.907.907,0,0,0-.09-.119.744.744,0,0,0-.1-.1,0,0,0,0,0,0,0,.685.685,0,0,0-.115-.074.222.222,0,0,0-.053-.029c-.353-.2-1.323-.764-1.606-.929a1.234,1.234,0,0,0-1.253.123l-6.455,3.726a3.925,3.925,0,0,0-1.779,3.081" transform="translate(-134.156 -153.643)" fill="#455a64"/>
        <path id="Trazado_696363" data-name="Trazado 696363" d="M248.016,269.789v0l0,1.923,1.668.966,0-2.827c0-.567-.4-.8-.887-.514Z" transform="translate(-146.116 -158.608)" fill="#263238"/>
        <path id="Trazado_696364" data-name="Trazado 696364" d="M231.776,270.185v3.731l1.668-.965v-2.827a1.97,1.97,0,0,1,.887-1.541l4.117-2.375v0l.781-.448c.489-.283.887-.053.887.514l0,2.827,1.668-.961V264.4a1.906,1.906,0,0,0-.012-.222,1.031,1.031,0,0,0-.025-.168,1.274,1.274,0,0,0-.049-.189,1.538,1.538,0,0,0-.058-.143,1.008,1.008,0,0,0-.078-.136.907.907,0,0,0-.09-.12.767.767,0,0,0-.1-.1s0,0,0,0a.705.705,0,0,0-.115-.074.237.237,0,0,0-.053-.029,1.284,1.284,0,0,0-1.191.157l-6.455,3.726a3.942,3.942,0,0,0-1.779,3.081" transform="translate(-136.548 -155.023)" fill="#37474f"/>
        <path id="Trazado_696365" data-name="Trazado 696365" d="M248.806,319.348l-.618-.356-1.669.964.618.356Z" transform="translate(-145.235 -187.93)" fill="#455a64"/>
        <path id="Trazado_696366" data-name="Trazado 696366" d="M247.137,321.692l-.618,8.065v-8.421Z" transform="translate(-145.234 -189.312)" fill="#263238"/>
        <path id="Trazado_696367" data-name="Trazado 696367" d="M251.2,319.858l-.618,8.065.2-.1Z" transform="translate(-147.627 -188.441)" fill="#37474f"/>
        <path id="Trazado_696368" data-name="Trazado 696368" d="M218.086,323.171l.618-.356,1.668.964-.617.356Z" transform="translate(-128.483 -190.183)" fill="#455a64"/>
        <path id="Trazado_696369" data-name="Trazado 696369" d="M218.086,323.682l.618,8.065-.2-.1Z" transform="translate(-128.483 -190.693)"/>
        <path id="Trazado_696370" data-name="Trazado 696370" d="M201.837,313.791l.618-.356,1.668.963-.617.356Z" transform="translate(-118.91 -184.656)" fill="#455a64"/>
        <path id="Trazado_696371" data-name="Trazado 696371" d="M222.764,333.581l-.618-8.065.618-.356Z" transform="translate(-130.875 -191.564)" fill="#37474f"/>
        <path id="Trazado_696372" data-name="Trazado 696372" d="M206.516,315.779V324.2l-.618-8.065Z" transform="translate(-121.303 -186.038)" fill="#37474f"/>
        <path id="Trazado_696373" data-name="Trazado 696373" d="M201.837,314.3l.618,8.065-.2-.1Z" transform="translate(-118.91 -185.167)"/>
        <path id="Trazado_696374" data-name="Trazado 696374" d="M277.24,302.932l-.618-.356-1.668.963.618.356Z" transform="translate(-161.986 -178.259)" fill="#455a64"/>
        <path id="Trazado_696375" data-name="Trazado 696375" d="M275.571,305.276l-.617,8.065V304.92Z" transform="translate(-161.986 -179.64)" fill="#263238"/>
        <path id="Trazado_696376" data-name="Trazado 696376" d="M279.632,303.442l-.618,8.065.2-.1Z" transform="translate(-164.378 -178.77)" fill="#37474f"/>
        <path id="Trazado_696377" data-name="Trazado 696377" d="M244.332,311l.005-1.927,3.338-1.927.557.321-.006,1.927-3.337,1.927Z" transform="translate(-143.945 -180.949)" fill="#37474f"/>
        <path id="Trazado_696378" data-name="Trazado 696378" d="M249.031,307.924l-.005,1.927-3.338,1.927.005-1.927Z" transform="translate(-144.744 -181.41)" fill="#455a64"/>
        <path id="Trazado_696379" data-name="Trazado 696379" d="M244.894,312.154l-.557-.321,0,1.927.557.321Z" transform="translate(-143.946 -183.713)" fill="#263238"/>
        <path id="Trazado_696380" data-name="Trazado 696380" d="M272.989,294.468l.005-1.927,3.338-1.927.557.322-.006,1.927-3.337,1.927Z" transform="translate(-160.828 -171.212)" fill="#37474f"/>
        <path id="Trazado_696381" data-name="Trazado 696381" d="M277.688,291.4l-.005,1.927-3.338,1.927.005-1.927Z" transform="translate(-161.627 -171.673)" fill="#455a64"/>
        <path id="Trazado_696382" data-name="Trazado 696382" d="M273.552,295.626,273,295.3l-.005,1.927.557.321Z" transform="translate(-160.829 -173.976)" fill="#263238"/>
        <path id="Trazado_696383" data-name="Trazado 696383" d="M225.127,357.94c-.226.128-.649.123-.784.278v.555l2.58-.377.976.572-.371.775-2.605-.174v.555c.055.039.113.076.175.112a4.395,4.395,0,0,0,3.977.017,1.4,1.4,0,0,0,.837-1.154v-.554l-.154.025c-.006-.01-.011-.021-.017-.031L239.5,352.9a4.415,4.415,0,0,0,2.939-.367,1.641,1.641,0,0,0,.784-.833v-.556l-2.581.933-.975-.572.371-.775,2.605-.382V349.8s-3.045-.2-4.152.426a1.81,1.81,0,0,0-.69.638l-.147-.053v.55a1.032,1.032,0,0,0,.17.58l-9.764,5.637a4.417,4.417,0,0,0-2.939.368" transform="translate(-132.169 -206.059)" fill="#37474f"/>
        <path id="Trazado_696384" data-name="Trazado 696384" d="M247.245,356.608v-.555l-9.764,5.637v.556Z" transform="translate(-139.909 -209.764)" fill="#37474f"/>
        <path id="Trazado_696385" data-name="Trazado 696385" d="M237.83,350.569l-9.764,5.637a4.415,4.415,0,0,0-2.939.368,1.637,1.637,0,0,0-.784.833l2.58-.377.976.572-.371.775-2.605.382c.055.039.113.076.175.112a4.394,4.394,0,0,0,3.977.018c.811-.461,1.033-1.135.666-1.714l9.764-5.637a4.415,4.415,0,0,0,2.939-.368,1.638,1.638,0,0,0,.784-.833l-2.58.377-.976-.572.371-.775,2.605-.381c-.055-.039-.113-.076-.175-.112a4.395,4.395,0,0,0-3.977-.018c-.811.461-1.032,1.135-.666,1.714" transform="translate(-132.169 -205.249)" fill="#455a64"/>
        <path id="Trazado_696386" data-name="Trazado 696386" d="M261.859,351.118l-.208-.122.371-.775,2.605-.382v.555l-2.605.382Z" transform="translate(-154.149 -206.104)" fill="#263238"/>
        <path id="Trazado_696387" data-name="Trazado 696387" d="M227.691,370.427l.207-.434-.975-.572-2.58.377v.555l2.581-.377Z" transform="translate(-132.169 -217.641)" fill="#263238"/>
        <path id="Trazado_696388" data-name="Trazado 696388" d="M240.791,383.761l2.04,3.534,6.884-3.975a.988.988,0,0,0,.461-.952,3.191,3.191,0,0,0-1.444-2.5,1.014,1.014,0,0,0-1.022-.1Z" transform="translate(-141.859 -223.678)" fill="#ba68c8"/>
        <path id="Trazado_696389" data-name="Trazado 696389" d="M238.655,390.223v0c-.03.539-.792.654-.792.654l1.444,2.5s.482-.593.963-.359v0c.712.308,1.263-.074,1.263-.924a3.192,3.192,0,0,0-1.444-2.5c-.736-.425-1.342-.138-1.431.631" transform="translate(-140.134 -229.408)" fill="#ba68c8"/>
        <g id="Grupo_972264" data-name="Grupo 972264" transform="translate(97.728 159.987)" opacity="0.05">
          <g id="Grupo_972263" data-name="Grupo 972263">
            <g id="Grupo_972262" data-name="Grupo 972262" clip-path="url(#clip-path-17)">
              <path id="Trazado_696390" data-name="Trazado 696390" d="M238.655,390.223v0c-.03.539-.792.654-.792.654l1.444,2.5s.482-.593.963-.359v0c.712.308,1.263-.074,1.263-.924a3.192,3.192,0,0,0-1.444-2.5c-.736-.425-1.342-.138-1.431.631" transform="translate(-237.862 -389.395)"/>
            </g>
          </g>
        </g>
        <g id="Grupo_972267" data-name="Grupo 972267" transform="translate(97.728 161.361)" opacity="0.05">
          <g id="Grupo_972266" data-name="Grupo 972266">
            <g id="Grupo_972265" data-name="Grupo 972265" clip-path="url(#clip-path-18)">
              <path id="Trazado_696391" data-name="Trazado 696391" d="M238.208,392.738a1.506,1.506,0,0,1-.346.107l1.444,2.5a1.507,1.507,0,0,1,.266-.243,3.227,3.227,0,0,0-1.364-2.365" transform="translate(-237.862 -392.738)"/>
            </g>
          </g>
        </g>
        <path id="Trazado_696392" data-name="Trazado 696392" d="M234.206,392.894l.121.209a1.511,1.511,0,0,0-.062.448,3.192,3.192,0,0,0,1.444,2.5,1.52,1.52,0,0,0,.419.17l.121.209.481-.278a1.015,1.015,0,0,0,.423-.935,3.191,3.191,0,0,0-1.444-2.5,1.014,1.014,0,0,0-1.021-.1Z" transform="translate(-137.98 -231.249)" fill="#ba68c8"/>
        <path id="Trazado_696393" data-name="Trazado 696393" d="M236.064,395.894a3.193,3.193,0,0,0-1.444-2.5c-.8-.46-1.444-.087-1.444.834a3.192,3.192,0,0,0,1.444,2.5c.8.461,1.444.087,1.444-.834" transform="translate(-137.373 -231.647)" fill="#ba68c8"/>
        <g id="Grupo_972270" data-name="Grupo 972270" transform="translate(95.803 161.549)" opacity="0.15">
          <g id="Grupo_972269" data-name="Grupo 972269">
            <g id="Grupo_972268" data-name="Grupo 972268" clip-path="url(#clip-path-19)">
              <path id="Trazado_696394" data-name="Trazado 696394" d="M236.064,395.894a3.193,3.193,0,0,0-1.444-2.5c-.8-.46-1.444-.087-1.444.834a3.192,3.192,0,0,0,1.444,2.5c.8.461,1.444.087,1.444-.834" transform="translate(-233.176 -393.196)"/>
            </g>
          </g>
        </g>
        <g id="Grupo_972273" data-name="Grupo 972273" transform="translate(96.684 163.68)" opacity="0.15">
          <g id="Grupo_972272" data-name="Grupo 972272">
            <g id="Grupo_972271" data-name="Grupo 972271" clip-path="url(#clip-path-20)">
              <path id="Trazado_696395" data-name="Trazado 696395" d="M235.321,399.327a2.687,2.687,0,0,0,.358.32l.338-.964-.408-.3Z" transform="translate(-235.321 -398.383)"/>
            </g>
          </g>
        </g>
        <g id="Grupo_972276" data-name="Grupo 972276" transform="translate(101.482 157.5)" opacity="0.2">
          <g id="Grupo_972275" data-name="Grupo 972275">
            <g id="Grupo_972274" data-name="Grupo 972274" clip-path="url(#clip-path-21)">
              <path id="Trazado_696396" data-name="Trazado 696396" d="M252.658,383.541h0a.4.4,0,0,1-.146.544l-4.917,2.839a.4.4,0,1,1-.4-.689l4.918-2.839a.4.4,0,0,1,.544.146" transform="translate(-246.998 -383.342)"/>
            </g>
          </g>
        </g>
        <g id="Grupo_972279" data-name="Grupo 972279" transform="translate(100.537 156.522)" opacity="0.2">
          <g id="Grupo_972278" data-name="Grupo 972278">
            <g id="Grupo_972277" data-name="Grupo 972277" clip-path="url(#clip-path-22)">
              <path id="Trazado_696397" data-name="Trazado 696397" d="M250.416,381.08h0a.233.233,0,0,1-.018.408l-5.01,2.892a.546.546,0,0,1-.58-.063.233.233,0,0,1,.018-.408l5.01-2.892a.545.545,0,0,1,.579.063" transform="translate(-244.697 -380.961)"/>
            </g>
          </g>
        </g>
        <g id="Grupo_972282" data-name="Grupo 972282" transform="translate(102 158.769)" opacity="0.2">
          <g id="Grupo_972281" data-name="Grupo 972281">
            <g id="Grupo_972280" data-name="Grupo 972280" clip-path="url(#clip-path-23)">
              <path id="Trazado_696398" data-name="Trazado 696398" d="M253.874,386.656h0a.233.233,0,0,0-.362-.189l-5.01,2.892a.546.546,0,0,0-.235.534.234.234,0,0,0,.362.189l5.01-2.893a.545.545,0,0,0,.235-.534" transform="translate(-248.26 -386.428)"/>
            </g>
          </g>
        </g>
        <path id="Trazado_696399" data-name="Trazado 696399" d="M205.874,403.6v.963l2.406-.783a3.7,3.7,0,0,1,.963-1.162l9.145-5.28.282-.8-.282-.163-9.145,5.28a.961.961,0,0,1-.963-.051Z" transform="translate(-121.288 -233.519)" fill="#455a64"/>
        <path id="Trazado_696400" data-name="Trazado 696400" d="M206.56,404v.963l2.406-.783a3.706,3.706,0,0,1,.963-1.162l9.145-5.28v-.963l-9.145,5.28a.961.961,0,0,1-.963-.051Z" transform="translate(-121.693 -233.753)" fill="#37474f"/>
        <path id="Trazado_696401" data-name="Trazado 696401" d="M206.155,415.084l-.282-.163v-.963l.282.163Z" transform="translate(-121.288 -243.879)" fill="#263238"/>
        <path id="Trazado_696402" data-name="Trazado 696402" d="M205.874,411.1l.282.163,2.406-2-.282-.163Z" transform="translate(-121.288 -241.016)" fill="#455a64"/>
        <path id="Trazado_696403" data-name="Trazado 696403" d="M258.487,111.966H237.311a.308.308,0,0,1,0-.616h21.175a.308.308,0,0,1,0,.616" transform="translate(-139.628 -65.601)" fill="#37474f"/>
        <path id="Trazado_696404" data-name="Trazado 696404" d="M163.274,112.431c-2.037-3.88-5.318-12.271-5.318-12.271l.071-11.262c-.082.008,1.518.486,2.008.6,3.172,1.173,4.046,1.73,5.408,4.529,1.081,2.222,4.72,12.357,6.013,15.786l7.746-5.506c1.951-1.643,2.407-3.989,3.6-5.447s2.541-1.859,3.891-3.1,1.857-2.155,2.374-1.168-.954,2.81-1.206,3.25c-.179.312-.628.543-.728.894-.17.6.721.5,1.106.421a9.339,9.339,0,0,0,4.772-3.464c.455-.569,2.12-2.79,2.544-1,.345,1.459-.853,2.393-.941,3.736a5.4,5.4,0,0,1-.574,2.135,14.688,14.688,0,0,0-.353,1.954c-.622,1.979-2.2,2.659-4.024,3.276-1.779.6-3.8,1.063-5.319,2.23-1.841,1.418-6.294,6.21-9,9.09-3.44,3.66-5.706,4.532-7.718,2.363s-3.6-5.612-4.351-7.051" transform="translate(-93.058 -52.373)" fill="#ffa8a7"/>
        <path id="Trazado_696405" data-name="Trazado 696405" d="M225.254,102.03c-.424-1.792-2.088.429-2.544,1a9.338,9.338,0,0,1-4.773,3.464c-.385.083-1.276.175-1.105-.421.1-.351.549-.582.728-.894.252-.44,1.724-2.264,1.206-3.25s-1.023-.071-2.374,1.168-2.7,1.639-3.891,3.1-1.648,3.8-3.6,5.446l-.532.378a7.151,7.151,0,0,0,3.564,5.257,27.183,27.183,0,0,1,2.109-1.913c1.514-1.166,3.54-1.629,5.319-2.23,1.828-.617,3.4-1.3,4.024-3.276a14.62,14.62,0,0,1,.353-1.953,5.407,5.407,0,0,0,.574-2.135c.088-1.343,1.286-2.278.941-3.736" transform="translate(-122.759 -59.706)" fill="#455a64"/>
        <path id="Trazado_696406" data-name="Trazado 696406" d="M207.7,124.764a6.315,6.315,0,0,0,1.269,3.636,6.551,6.551,0,0,0,2.19,1.527l.326-.256s.315.035-.525.876-1.034,1.156-1.5,1.087a5.337,5.337,0,0,1-2.69-2.215,6.809,6.809,0,0,1-1.118-3.274c.022-.4.6-.708,1.118-1.084s1.066-1.008,1.357-.758Z" transform="translate(-121.154 -73.197)" fill="#ba68c8"/>
        <g id="Grupo_972285" data-name="Grupo 972285" transform="translate(84.492 51.047)" opacity="0.2">
          <g id="Grupo_972284" data-name="Grupo 972284">
            <g id="Grupo_972283" data-name="Grupo 972283" clip-path="url(#clip-path-24)">
              <path id="Trazado_696407" data-name="Trazado 696407" d="M207.7,124.764a6.315,6.315,0,0,0,1.269,3.636,6.551,6.551,0,0,0,2.19,1.527l.326-.256s.315.035-.525.876-1.034,1.156-1.5,1.087a5.337,5.337,0,0,1-2.69-2.215,6.809,6.809,0,0,1-1.118-3.274c.022-.4.6-.708,1.118-1.084s1.066-1.008,1.357-.758Z" transform="translate(-205.646 -124.244)"/>
            </g>
          </g>
        </g>
        <path id="Trazado_696408" data-name="Trazado 696408" d="M156.495,89.346a11.258,11.258,0,0,1,4.684,2.106c1.523,1.314,2.215,3.362,3.249,6.171s3.7,9.612,3.7,9.612a13.464,13.464,0,0,0-7.395,5.8l-7.051-14.672Z" transform="translate(-90.542 -52.637)" fill="#e0e0e0"/>
        <path id="Trazado_696409" data-name="Trazado 696409" d="M186.281,138.677a7.142,7.142,0,0,0-3.16,3.173s-.019-2.263,2.864-3.957Z" transform="translate(-107.884 -81.238)" fill="#f28f8f"/>
        <path id="Trazado_696410" data-name="Trazado 696410" d="M97.734,88.891A11.092,11.092,0,0,0,94.708,93.3c-.3,1.127-.582,2.067.371,8.319.91,5.97,1.556,5.968,2.017,10.519l-.666,11.394c3.572,4.183,20.247,6.313,28.587.678,0,0,.361-17.3-.229-24.423-.4-4.841-2.443-9.811-3.208-12.082-2.267-.393-4.447-.657-4.447-.657l-8.34-.485Z" transform="translate(-55.627 -51)" fill="#fafafa"/>
        <path id="Trazado_696411" data-name="Trazado 696411" d="M130.426,35.714c1.1-2.514.023-5.849-1.287-7.415-1.894-2.264-4.841-3.241-9.284-2.965-3.379.21-6.7,1.613-7.334,5.08-2.716.81-2.406,5.27-1.731,7.237,1.371,3.992,4.066,7.466,4.112,9.508Z" transform="translate(-64.996 -14.898)" fill="#37474f"/>
        <path id="Trazado_696412" data-name="Trazado 696412" d="M130.377,52.333c-.534,1.927-1.65,3.34-3.432,3.618a14.936,14.936,0,0,1-2.815.016l.07,2.454c3.676,4.679-4.955,5.63-9.228.5l-.254-8.287a2.144,2.144,0,0,1-2.89.068,3.922,3.922,0,0,1-1.22-4.8,1.927,1.927,0,0,1,3.225-.532c.546.571,1.188,1.646,1.645,1.5a1.659,1.659,0,0,0,1.106-1.129,10.072,10.072,0,0,0,.583-3.644,4.9,4.9,0,0,0,1.395-1.076,4.507,4.507,0,0,0,1.211-2.789c3.852-1.206,8.282-.638,9.883.6.922,1.622.955,5.4,1.108,7.569a17.85,17.85,0,0,1-.389,5.939" transform="translate(-64.949 -22.126)" fill="#ffa8a7"/>
        <path id="Trazado_696413" data-name="Trazado 696413" d="M131.859,74.5c-1.971-.111-5.936-1.031-6.992-2.132a8.136,8.136,0,0,1-1.5-3.351,11.111,11.111,0,0,0,.975,4.1c.816,1.254,2.879,1.8,4.131,2.113a30.818,30.818,0,0,0,3.427.52Z" transform="translate(-72.677 -40.66)" fill="#f28f8f"/>
        <path id="Trazado_696414" data-name="Trazado 696414" d="M138.723,54.809a.8.8,0,1,1-.8-.828.81.81,0,0,1,.8.828" transform="translate(-80.788 -31.802)" fill="#263238"/>
        <path id="Trazado_696415" data-name="Trazado 696415" d="M135.751,49.134l-1.614,1.09a1.022,1.022,0,0,1,.274-1.387.95.95,0,0,1,1.339.3" transform="translate(-78.931 -28.677)" fill="#263238"/>
        <path id="Trazado_696416" data-name="Trazado 696416" d="M154.822,49l-1.77-.846a.941.941,0,0,1,1.278-.485A1.031,1.031,0,0,1,154.822,49" transform="translate(-90.169 -28.025)" fill="#263238"/>
        <path id="Trazado_696417" data-name="Trazado 696417" d="M153.624,54.115a.8.8,0,1,1-.8-.828.81.81,0,0,1,.8.828" transform="translate(-89.567 -31.393)" fill="#263238"/>
        <path id="Trazado_696418" data-name="Trazado 696418" d="M145.464,51.822l.576,5.73,3.074-.928Z" transform="translate(-85.698 -30.531)" fill="#f28f8f"/>
        <path id="Trazado_696419" data-name="Trazado 696419" d="M140.95,69.016l3.3.73a1.659,1.659,0,0,1-1.979,1.34,1.769,1.769,0,0,1-1.319-2.07" transform="translate(-83.019 -40.66)" fill="#b16668"/>
        <path id="Trazado_696420" data-name="Trazado 696420" d="M142.3,71.944a1.614,1.614,0,0,0,.206.023,1.533,1.533,0,0,0-1.533-1.5,1.745,1.745,0,0,0,1.327,1.472" transform="translate(-83.055 -41.518)" fill="#f28f8f"/>
        <path id="Trazado_696421" data-name="Trazado 696421" d="M109.838,33.4a10.475,10.475,0,0,0,.713,2.932,10.622,10.622,0,0,1,.725-.811,17.636,17.636,0,0,1,5.109-3.516h.009a21.369,21.369,0,0,1,14.077-1.551,10.08,10.08,0,0,0-.8-2.465A10.429,10.429,0,0,0,109.838,33.4" transform="translate(-64.681 -12.943)" fill="#ba68c8"/>
        <path id="Trazado_696422" data-name="Trazado 696422" d="M118.96,22.642c.523-.253,3.151-1.039,3.361-1.1a6.232,6.232,0,0,1,5.8,1.462,10.6,10.6,0,0,1,3.518,5.682l-2.793.876-.892.085c-.329-2.051-3.038-6.478-6.84-6.644a3.573,3.573,0,0,0-.538.007,4.938,4.938,0,0,0-1.471.3,14.213,14.213,0,0,0-1.475,1.182,2.333,2.333,0,0,1,1.332-1.848" transform="translate(-69.299 -12.562)" fill="#ba68c8"/>
        <g id="Grupo_972288" data-name="Grupo 972288" transform="translate(48.329 8.76)" opacity="0.45">
          <g id="Grupo_972287" data-name="Grupo 972287">
            <g id="Grupo_972286" data-name="Grupo 972286" clip-path="url(#clip-path-25)">
              <path id="Trazado_696423" data-name="Trazado 696423" d="M118.96,22.642c.523-.253,3.151-1.039,3.361-1.1a6.232,6.232,0,0,1,5.8,1.462,10.6,10.6,0,0,1,3.518,5.682l-2.793.876-.892.085c-.329-2.051-3.038-6.478-6.84-6.644a3.573,3.573,0,0,0-.538.007,4.938,4.938,0,0,0-1.471.3,14.213,14.213,0,0,0-1.475,1.182,2.333,2.333,0,0,1,1.332-1.848" transform="translate(-117.628 -21.322)" fill="#fff"/>
            </g>
          </g>
        </g>
        <path id="Trazado_696424" data-name="Trazado 696424" d="M127.949,30.909c-.389-2.388-4.031-8.046-8.848-6.342a14.328,14.328,0,0,0-1.481,1.182,2.352,2.352,0,0,1,1.336-1.846c1.255-.6,3.767-.9,6.368,1.241a10.573,10.573,0,0,1,3.513,5.68Z" transform="translate(-69.294 -13.824)" fill="#ba68c8"/>
        <g id="Grupo_972291" data-name="Grupo 972291" transform="translate(48.326 9.64)" opacity="0.3">
          <g id="Grupo_972290" data-name="Grupo 972290">
            <g id="Grupo_972289" data-name="Grupo 972289" clip-path="url(#clip-path-26)">
              <path id="Trazado_696425" data-name="Trazado 696425" d="M127.949,30.909c-.389-2.388-4.031-8.046-8.848-6.342a14.328,14.328,0,0,0-1.481,1.182,2.352,2.352,0,0,1,1.336-1.846c1.255-.6,3.767-.9,6.368,1.241a10.573,10.573,0,0,1,3.513,5.68Z" transform="translate(-117.62 -23.464)"/>
            </g>
          </g>
        </g>
        <path id="Trazado_696426" data-name="Trazado 696426" d="M125.672,36.8a11.68,11.68,0,0,1,4.645-4.126c2.141-1.143,6.529-1.2,8.5-1.167,3.446.056,4.269.79,4.312,1.3.01.12.058.678.074.8a.49.49,0,0,1-.072.326c-.517.782-3.3,2.135-3.3,2.135A21.369,21.369,0,0,0,125.75,37.62Z" transform="translate(-74.038 -18.558)" fill="#ba68c8"/>
        <g id="Grupo_972294" data-name="Grupo 972294" transform="translate(51.634 12.943)" opacity="0.15">
          <g id="Grupo_972293" data-name="Grupo 972293">
            <g id="Grupo_972292" data-name="Grupo 972292" clip-path="url(#clip-path-27)">
              <path id="Trazado_696427" data-name="Trazado 696427" d="M125.672,36.8a11.68,11.68,0,0,1,4.645-4.126c2.141-1.143,6.529-1.2,8.5-1.167,3.446.056,4.269.79,4.312,1.3.01.12.058.678.074.8a.49.49,0,0,1-.072.326c-.517.782-3.3,2.135-3.3,2.135A21.369,21.369,0,0,0,125.75,37.62Z" transform="translate(-125.672 -31.501)"/>
            </g>
          </g>
        </g>
        <path id="Trazado_696428" data-name="Trazado 696428" d="M125.863,38.8a21.369,21.369,0,0,1,14.077-1.551s2.784-1.353,3.3-2.135c.276-.433.027-1.538-4.236-1.608-1.968-.032-6.356.025-8.5,1.167a11.683,11.683,0,0,0-4.645,4.126" transform="translate(-74.151 -19.734)" fill="#ba68c8"/>
        <g id="Grupo_972297" data-name="Grupo 972297" transform="translate(51.712 13.763)" opacity="0.3">
          <g id="Grupo_972296" data-name="Grupo 972296">
            <g id="Grupo_972295" data-name="Grupo 972295" clip-path="url(#clip-path-28)">
              <path id="Trazado_696429" data-name="Trazado 696429" d="M125.863,38.8a21.369,21.369,0,0,1,14.077-1.551s2.784-1.353,3.3-2.135c.276-.433.027-1.538-4.236-1.608-1.968-.032-6.356.025-8.5,1.167a11.683,11.683,0,0,0-4.645,4.126" transform="translate(-125.863 -33.497)"/>
            </g>
          </g>
        </g>
        <path id="Trazado_696430" data-name="Trazado 696430" d="M144.719,318.2c.134-2.18,1.3-24.159,1.3-24.159l-10.671,7.533c1.864,12.563,2.273,16.35,2.353,18.447a1.762,1.762,0,0,0-.049.538c.057,2.49,3.038,3.79,5.376,5.417a43.522,43.522,0,0,0,6.31,3.781c1.69.776,5.094.8,5.5-.23a64.493,64.493,0,0,1-8.41-6.469,5.467,5.467,0,0,1-1.707-4.856" transform="translate(-79.74 -173.232)" fill="#ffa8a7"/>
        <path id="Trazado_696431" data-name="Trazado 696431" d="M161.2,379.145a2.046,2.046,0,0,1-.38,2.154,9.99,9.99,0,0,1-7.02,1.625,12.655,12.655,0,0,1-6.842-2.476c-1.421-1.094-3.413-2.637-5-2.946a9.894,9.894,0,0,1-3.563-1.323c-.478-.425-.449-2.347-.449-2.347Z" transform="translate(-81.266 -220.238)" fill="#263238"/>
        <path id="Trazado_696432" data-name="Trazado 696432" d="M149.978,355.785c-.229-.212-.452-.429-.668-.648a8.186,8.186,0,0,1-1.673-2.756,7.921,7.921,0,0,1-.525-1.522c-.108-.6-.18-1.214-.283-1.819-.039-.227-.016-.721-.28-.82a1.617,1.617,0,0,0-.945.176c-.712.3-1.454.539-2.185.8-.395.14-1.253.364-1.378.817-.131.477.084,1.022-.014,1.514-.039.192-.12.4-.349.387-.391-.017-.513-.594-.62-.878-.228-.607-.415-.89-1.063-1.067-.34-.093-1-.138-1.231-.44l-.087-.834a1.247,1.247,0,0,0-.868.671,3.7,3.7,0,0,0,0,2.032,9.247,9.247,0,0,1,.156,1.88,11.241,11.241,0,0,1-.259,1.6,14.746,14.746,0,0,0-.26,2.8,6.657,6.657,0,0,0,.1,1.3,1.416,1.416,0,0,0,.549.888,4.848,4.848,0,0,0,1.5.9c.751.3,1.527.53,2.291.794a19.8,19.8,0,0,1,5.018,2.908,14.96,14.96,0,0,0,7.432,2.508c3.482,0,5.915-1.151,6.589-2.35a3.711,3.711,0,0,0-.263-2.228c-1.219-1.881-3.931-2.488-6.1-3.526a23.955,23.955,0,0,1-2.738-1.609,14.171,14.171,0,0,1-1.85-1.468" transform="translate(-80.978 -205.133)" fill="#37474f"/>
        <path id="Trazado_696433" data-name="Trazado 696433" d="M173.194,375.562a8.6,8.6,0,0,0-6.379,6.418,14.064,14.064,0,0,0,4.828,1.111c3.482,0,5.915-1.15,6.589-2.35a3.711,3.711,0,0,0-.263-2.228c-.98-1.512-2.922-2.2-4.775-2.951" transform="translate(-98.277 -221.258)" fill="#455a64"/>
        <path id="Trazado_696434" data-name="Trazado 696434" d="M141.894,372.341c.06.021.122.048.182.07-.171-3.3-1.523-5.463-4.5-5.9a15,15,0,0,0-.127,1.955,6.661,6.661,0,0,0,.1,1.3,1.415,1.415,0,0,0,.549.888,4.847,4.847,0,0,0,1.5.9c.751.3,1.527.53,2.291.794" transform="translate(-80.978 -215.925)" fill="#455a64"/>
        <path id="Trazado_696435" data-name="Trazado 696435" d="M98.229,306.349,87.1,303.942c-.293,6.892-.116,16.215-.352,22.683-.044,1.218-.675,9.444-.325,11.973.526,3.8,5.617,3.551,6.038,1.316s.789-11.788.873-12.778c.237-4.144,2.6-11.108,4.259-18.484.081-.363.561-1.949.638-2.3" transform="translate(-50.852 -179.064)" fill="#ffa8a7"/>
        <path id="Trazado_696436" data-name="Trazado 696436" d="M90.8,392.823a9.262,9.262,0,0,1-1.2,5.021,3.924,3.924,0,0,1-4.2,1.481c-1.715-.317-3.936-1.249-4.51-3.137a10.744,10.744,0,0,1-.244-5.259Z" transform="translate(-47.389 -230.311)" fill="#263238"/>
        <path id="Trazado_696437" data-name="Trazado 696437" d="M83.585,349.832c-.7.074-.835,6.085-1.1,9.069-.286,3.2-1.3,4.555-1.569,7.179-.3,3-.066,4.323,1.2,6.081s5.541,3.371,7.489.713c1.588-2.167,1.55-4.5,1.26-7.474-.3-3.072-.311-7.993-.276-10.334.034-2.237.712-4.6.094-4.825-.134.6-.215,1.114-.284,1.432-.154.71-.319,1.562-.534,1.4,0,0,.059-.627.067-.918.007-.253.072-.475-.123-.66a3.75,3.75,0,0,0-1.316-.339c-.694-.094-1.391-.177-2.093-.206-.35-.015-.7-.016-1.049,0a3.115,3.115,0,0,0-.881.144.6.6,0,0,0-.365.317.862.862,0,0,0-.021.342,2.172,2.172,0,0,1-.059.615c-.022.089-.085.2-.187.182-.082-.014-.165-.072-.193-.276a9.479,9.479,0,0,1-.068-1.218c0-.194.024-.459.018-.653s-.012-.382-.007-.573" transform="translate(-47.599 -206.1)" fill="#37474f"/>
        <path id="Trazado_696438" data-name="Trazado 696438" d="M80.8,392.1a6.637,6.637,0,0,0,1.134,4.5c1.267,1.759,5.879,3.365,7.827.707A7.705,7.705,0,0,0,91,392.9c-1.33-1.944-8.33-2.562-10.206-.8" transform="translate(-47.599 -230.388)" fill="#455a64"/>
        <path id="Trazado_696439" data-name="Trazado 696439" d="M120.891,130.686a80.573,80.573,0,0,1-21.124,1.033c0,8.373.885,17.977-3.124,17.923l-4.79-.114c-.264,12.539-2.386,38.685-2.386,38.685-.189,1.54-2.419,8.09-2.5,13.66-.129,8.741-.315,15.36-.315,15.36s4.883,1.933,8.469.6c0,0,4.665-18.578,5.973-24.376,1.558-6.905,4.777-19.667,4.777-19.667l.387,18.172a50.056,50.056,0,0,0-.147,11.034c.431,3.682,1.91,13.933,1.91,13.933a20.083,20.083,0,0,0,8.389-.249s2.346-22.013,2.539-25.4c.21-3.681,1.374-37.663,1.483-40.833l.008,0c1.06-15.963.452-19.755.452-19.755" transform="translate(-51.049 -76.992)" fill="#455a64"/>
        <path id="Trazado_696440" data-name="Trazado 696440" d="M113.669,107c-.589-7.588-.572-13.82-3.419-17.506l3.633-.763s3.145,6.963,3.145,18.526Z" transform="translate(-64.953 -52.276)" fill="#455a64"/>
        <path id="Trazado_696441" data-name="Trazado 696441" d="M155.118,106.274c0-8.26-1.821-15.344-4.7-18.437l4.153.62s3.889,6.254,3.889,17.817Z" transform="translate(-88.615 -51.748)" fill="#455a64"/>
        <path id="Trazado_696442" data-name="Trazado 696442" d="M129.687,136.477a57.246,57.246,0,0,0,12.283-.652l.253,5.681-5.6,3.51-6.941-2.267Z" transform="translate(-76.404 -80.02)" fill="#37474f"/>
        <path id="Trazado_696443" data-name="Trazado 696443" d="M102.843,177.557c3.213,1.335,11.028,2.138,17.3,2.071s9.562-1.574,9.562-1.574l-.1,3.822s-11.129,4.665-27.227-.817Z" transform="translate(-60.311 -104.606)" fill="#ba68c8"/>
        <g id="Grupo_972300" data-name="Grupo 972300" transform="translate(42.061 72.951)" opacity="0.3">
          <g id="Grupo_972299" data-name="Grupo 972299">
            <g id="Grupo_972298" data-name="Grupo 972298" clip-path="url(#clip-path-29)">
              <path id="Trazado_696444" data-name="Trazado 696444" d="M102.843,177.557c3.213,1.335,11.028,2.138,17.3,2.071s9.562-1.574,9.562-1.574l-.1,3.822s-11.129,4.665-27.227-.817Z" transform="translate(-102.372 -177.557)"/>
            </g>
          </g>
        </g>
        <path id="Trazado_696445" data-name="Trazado 696445" d="M133.428,214.465l2.98-12.055s4.472.058,7.391-2.674c0,0-.394,3.077-5.722,4.722l-2.763,9.575L133.752,232.3Z" transform="translate(-78.608 -117.672)" fill="#37474f"/>
        <path id="Trazado_696446" data-name="Trazado 696446" d="M105.1,87.483l.025.8a30.038,30.038,0,0,1,1.393,5.618c.864,5.207,1.012,12.03,1.012,19.739s0,21.191,0,21.191-9.636.615-12.7-6.738l1.244-15.417s-1.768-7.967-2.249-12.526-1.34-7.75,2.924-11.23Z" transform="translate(-55.039 -51.54)" fill="#ba68c8"/>
        <path id="Trazado_696447" data-name="Trazado 696447" d="M97.717,138.329c.482,2.441.9,4.308.9,4.308l-.047.606a20.51,20.51,0,0,0,11.5,3.009V143.6c0-.558,0-1.108,0-1.656a19.986,19.986,0,0,1-12.344-3.615" transform="translate(-57.569 -81.495)" fill="#f0f0f0"/>
        <path id="Trazado_696448" data-name="Trazado 696448" d="M110.385,167.63v-4.307a20.342,20.342,0,0,1-11.809-3.22l-.314,4.081a20.142,20.142,0,0,0,12.123,3.446" transform="translate(-57.89 -94.323)" fill="#f0f0f0"/>
        <path id="Trazado_696449" data-name="Trazado 696449" d="M144.589,87.245a12,12,0,0,1,5.428,7.287c1.3,5.105,1.491,9.13,1.669,15.685s-.088,24.836-.088,24.836,2.892-1.262,3.512-2.63c0,0,.811-23.219-.087-31.446s-3.888-12.87-3.888-12.87a18.852,18.852,0,0,0-6.546-.863" transform="translate(-85.183 -51.399)" fill="#ba68c8"/>
        <path id="Trazado_696450" data-name="Trazado 696450" d="M161.96,148.79a20.715,20.715,0,0,0,3.716-.441c0-1.437,0-2.887-.018-4.3a20.707,20.707,0,0,1-3.749.436c.026,1.239.042,2.715.051,4.307" transform="translate(-95.387 -84.864)" fill="#f0f0f0"/>
        <path id="Trazado_696451" data-name="Trazado 696451" d="M165.638,169.189c.027-1.322.053-2.785.073-4.323a20.747,20.747,0,0,1-3.675.433c0,1.457-.006,2.918-.012,4.307a20.728,20.728,0,0,0,3.614-.417" transform="translate(-95.455 -97.129)" fill="#f0f0f0"/>
        <path id="Trazado_696452" data-name="Trazado 696452" d="M61.194,86.443c-2.468,0-5.333-.1-6.954,3.453-.527,1.158-2.152,7.97-3.955,14.252a87.571,87.571,0,0,1-6.343-9.067c-.958-2-.97-3.354-1.948-5.42a17.3,17.3,0,0,1-1.3-3.549c-.231-.829-.961-.217-1.218.152a3.878,3.878,0,0,0-.694,2.127c-.009.536-.007,1.08-.042,1.609-.031.471-.217.5-.646.264a13.4,13.4,0,0,1-2.357-2.023c-.788-.734-1.693-1.323-2.466-2.064a26.618,26.618,0,0,1-1.791-2.214c-.472-.556-1.279-1.273-1.9-.479-.372.478-.029,1.039.136,1.517a2.538,2.538,0,0,1-.1,1.487,2.777,2.777,0,0,0,.052,1.791,2.534,2.534,0,0,1,.481,1.618,6.46,6.46,0,0,0-.184,1.678,3.918,3.918,0,0,0,.65,1.249,9.072,9.072,0,0,0,1.551,1.983,18.774,18.774,0,0,0,2.312,1.984c1.977,1.538,2.712,2.019,3.372,2.529a13.71,13.71,0,0,1,2.592,3.806c1.122,2.1,3.526,8.007,6.769,12.235,1.868,2.436,4.412,3.215,6.655.459a21.2,21.2,0,0,0,2.824-5.471c2.493-6.644,4.3-12.12,4.3-12.12s2.012-6.2.2-11.786" transform="translate(-17.333 -48.976)" fill="#ffa8a7"/>
        <path id="Trazado_696453" data-name="Trazado 696453" d="M45.138,97.018c-.64-.97-1.07-1.672-1.2-1.936-.958-2-.97-3.354-1.948-5.42a17.3,17.3,0,0,1-1.3-3.55c-.231-.829-.961-.217-1.218.153a3.878,3.878,0,0,0-.694,2.127c-.009.536-.007,1.079-.042,1.608-.031.471-.217.5-.646.265a13.387,13.387,0,0,1-2.357-2.024c-.788-.734-1.693-1.323-2.466-2.063a26.694,26.694,0,0,1-1.791-2.214c-.472-.555-1.279-1.273-1.9-.479-.372.478-.029,1.039.136,1.517a2.536,2.536,0,0,1-.1,1.486,2.777,2.777,0,0,0,.052,1.791,2.535,2.535,0,0,1,.481,1.618,6.465,6.465,0,0,0-.184,1.678,3.922,3.922,0,0,0,.65,1.249,9.057,9.057,0,0,0,1.551,1.983,18.779,18.779,0,0,0,2.312,1.984c1.977,1.538,2.711,2.018,3.372,2.529a12.989,12.989,0,0,1,2.5,3.636,14.943,14.943,0,0,0,4.786-5.937" transform="translate(-17.333 -48.976)" fill="#455a64"/>
        <path id="Trazado_696454" data-name="Trazado 696454" d="M58.389,113.651l-.308-.459s.124-.538.624.23a12.411,12.411,0,0,1,1.164,2.036,6.362,6.362,0,0,1-2,4.053,6.06,6.06,0,0,1-3.37,1.571c-.434-.053-.559-.448-.808-.968s-.873-1.164-.686-1.663l.353.5a7.039,7.039,0,0,0,3.6-2.245,5.956,5.956,0,0,0,1.431-3.053" transform="translate(-31.21 -66.578)" fill="#ba68c8"/>
        <g id="Grupo_972303" data-name="Grupo 972303" transform="translate(21.766 46.431)" opacity="0.2">
          <g id="Grupo_972302" data-name="Grupo 972302">
            <g id="Grupo_972301" data-name="Grupo 972301" clip-path="url(#clip-path-30)">
              <path id="Trazado_696455" data-name="Trazado 696455" d="M58.389,113.651l-.308-.459s.124-.538.624.23a12.411,12.411,0,0,1,1.164,2.036,6.362,6.362,0,0,1-2,4.053,6.06,6.06,0,0,1-3.37,1.571c-.434-.053-.559-.448-.808-.968s-.873-1.164-.686-1.663l.353.5a7.039,7.039,0,0,0,3.6-2.245,5.956,5.956,0,0,0,1.431-3.053" transform="translate(-52.975 -113.008)"/>
            </g>
          </g>
        </g>
        <path id="Trazado_696456" data-name="Trazado 696456" d="M80.2,132.7a18.638,18.638,0,0,1,2.1,7.211c.413-3.744-.727-7.167-1.78-8.32Z" transform="translate(-47.251 -77.523)" fill="#f28f8f"/>
        <path id="Trazado_696457" data-name="Trazado 696457" d="M92.139,89.919a20.317,20.317,0,0,0-4.352.928c-1.5.514-2.577,1.03-3.96,5.547-1.332,4.354-2.574,9.308-2.574,9.308s1.316,3.444,7.792,4.107l3.439-9.589s1.075-5.771-.346-10.3" transform="translate(-47.87 -52.975)" fill="#ebebeb"/>
        <path id="Trazado_696458" data-name="Trazado 696458" d="M47.776,101.118a1.317,1.317,0,1,1-1.467-1.148,1.317,1.317,0,0,1,1.467,1.148" transform="translate(-26.6 -58.89)" fill="#263238"/>
        <path id="Trazado_696459" data-name="Trazado 696459" d="M124.429,107.773h-1.455a1.412,1.412,0,0,0-1.412,1.412V124.56a6.97,6.97,0,0,1-6.97,6.97H54.577a6.97,6.97,0,0,1-6.97-6.97V104.541a.308.308,0,1,1,.616,0v19.873a6.5,6.5,0,0,0,6.5,6.5h59.724a6.5,6.5,0,0,0,6.5-6.5V109.185a2.028,2.028,0,0,1,2.028-2.028h2.5a7.567,7.567,0,0,1-1.047.616" transform="translate(-28.047 -61.408)" fill="#37474f"/>
        <path id="Trazado_696460" data-name="Trazado 696460" d="M43.47,100.392a.962.962,0,0,1-.221-1.81,3.491,3.491,0,0,1,3.135-.382.963.963,0,0,1,.221,1.81,3.49,3.49,0,0,1-3.135.382" transform="translate(-25.159 -57.729)" fill="#37474f"/>
        <path id="Trazado_696461" data-name="Trazado 696461" d="M43.179,99.151a.992.992,0,0,1-.227-1.866,3.6,3.6,0,0,1,3.231-.394.992.992,0,0,1,.227,1.866,3.6,3.6,0,0,1-3.231.394" transform="translate(-24.974 -56.954)" fill="#263238"/>
        <path id="Trazado_696462" data-name="Trazado 696462" d="M42.88,97.873a1.022,1.022,0,0,1-.234-1.923,3.708,3.708,0,0,1,3.33-.406,1.022,1.022,0,0,1,.234,1.923,3.707,3.707,0,0,1-3.33.406" transform="translate(-24.783 -56.156)" fill="#37474f"/>
        <path id="Trazado_696463" data-name="Trazado 696463" d="M42.571,96.555a1.054,1.054,0,0,1-.242-1.982,3.822,3.822,0,0,1,3.433-.418A1.054,1.054,0,0,1,46,96.137a3.822,3.822,0,0,1-3.433.418" transform="translate(-24.587 -55.333)" fill="#263238"/>
        <path id="Trazado_696464" data-name="Trazado 696464" d="M42.3,95.207a1.075,1.075,0,0,1-.247-2.022,3.9,3.9,0,0,1,3.5-.427,1.076,1.076,0,0,1,.247,2.023,3.9,3.9,0,0,1-3.5.426" transform="translate(-24.42 -54.508)" fill="#37474f"/>
        <path id="Trazado_696465" data-name="Trazado 696465" d="M35.371,61.416A6.273,6.273,0,0,0,29.9,68.4c.6,4.943,4.781,5.267,5.024,7.26a1.075,1.075,0,0,0,.736.8,3.383,3.383,0,0,0,3.038-.37,1.076,1.076,0,0,0,.523-.954c-.243-1.993,3.736-3.31,3.134-8.254a6.273,6.273,0,0,0-6.986-5.469" transform="translate(-17.589 -36.155)" fill="#ba68c8"/>
        <g id="Grupo_972306" data-name="Grupo 972306" transform="translate(12.266 25.214)" opacity="0.6">
          <g id="Grupo_972305" data-name="Grupo 972305">
            <g id="Grupo_972304" data-name="Grupo 972304" clip-path="url(#clip-path-31)">
              <path id="Trazado_696466" data-name="Trazado 696466" d="M35.371,61.416A6.273,6.273,0,0,0,29.9,68.4c.6,4.943,4.781,5.267,5.024,7.26a1.075,1.075,0,0,0,.736.8,3.383,3.383,0,0,0,3.038-.37,1.076,1.076,0,0,0,.523-.954c-.243-1.993,3.736-3.31,3.134-8.254a6.273,6.273,0,0,0-6.986-5.469" transform="translate(-29.855 -61.369)" fill="#fff"/>
            </g>
          </g>
        </g>
        <path id="Trazado_696467" data-name="Trazado 696467" d="M44.025,94.824a.7.7,0,0,1-.161-1.319,2.544,2.544,0,0,1,2.285-.278.7.7,0,0,1,.161,1.319,2.544,2.544,0,0,1-2.285.278" transform="translate(-25.609 -54.832)" fill="#ba68c8"/>
        <path id="Trazado_696468" data-name="Trazado 696468" d="M42.681,83.918a.213.213,0,0,1-.236-.181,15.238,15.238,0,0,1,0-3.611,7.713,7.713,0,0,1,.189-1.028,2.846,2.846,0,0,1-.572-.2,3.666,3.666,0,0,1-.91-.594,3.666,3.666,0,0,1-.741.8,2.838,2.838,0,0,1-.508.33,7.717,7.717,0,0,1,.431.952,15.233,15.233,0,0,1,.87,3.505.216.216,0,0,1-.191.233.213.213,0,0,1-.233-.191,15.121,15.121,0,0,0-.844-3.4,7.054,7.054,0,0,0-.435-.947,1.33,1.33,0,0,1-1.22-.2.681.681,0,0,1-.2-.861.563.563,0,0,1,.546-.311c.341.025.707.328,1.054.852a2.386,2.386,0,0,0,.462-.295A3.246,3.246,0,0,0,40.853,78a1.575,1.575,0,0,1-.453-1.15.6.6,0,0,1,1.136-.138,1.576,1.576,0,0,1-.164,1.224,3.243,3.243,0,0,0,.871.583,2.4,2.4,0,0,0,.519.175c.211-.591.493-.973.818-1.08a.57.57,0,0,1,.6.171.681.681,0,0,1,.015.883,1.33,1.33,0,0,1-1.136.489,6.971,6.971,0,0,0-.195,1.024,15.05,15.05,0,0,0,0,3.5.213.213,0,0,1-.181.241h0M38.57,78.637c-.036,0-.074.025-.112.094-.085.154.055.29.1.328a.85.85,0,0,0,.7.143c-.276-.386-.517-.555-.661-.565a.153.153,0,0,0-.03,0m4.639.084a.854.854,0,0,0,.648-.308c.035-.048.138-.214.018-.343-.069-.074-.119-.071-.161-.057-.137.045-.331.267-.506.707m-2.24-1.943c-.107.013-.137.063-.147.133a1.024,1.024,0,0,0,.246.673,1.026,1.026,0,0,0,.077-.712.142.142,0,0,0-.175-.094" transform="translate(-22.391 -44.981)" fill="#fff"/>
        <path id="Trazado_696469" data-name="Trazado 696469" d="M52.68,52.617a.415.415,0,0,1-.227-.54l.813-2.007a.415.415,0,0,1,.541-.229h0a.414.414,0,0,1,.227.54l-.814,2.007a.415.415,0,0,1-.541.229h0" transform="translate(-30.884 -29.345)" fill="#e0e0e0"/>
        <path id="Trazado_696470" data-name="Trazado 696470" d="M40.7,50.987a.416.416,0,0,1-.254-.327l-.3-2.145a.415.415,0,0,1,.823-.115l.3,2.145a.416.416,0,0,1-.354.469.411.411,0,0,1-.215-.027" transform="translate(-23.648 -28.303)" fill="#e0e0e0"/>
        <path id="Trazado_696471" data-name="Trazado 696471" d="M28.491,56.15a.412.412,0,0,1-.17-.129L26.99,54.312a.416.416,0,0,1,.656-.511l1.332,1.708a.416.416,0,0,1-.486.64" transform="translate(-15.849 -31.602)" fill="#e0e0e0"/>
        <path id="Trazado_696472" data-name="Trazado 696472" d="M18.5,65.91a.415.415,0,0,1,.314-.769l2.007.814h0a.415.415,0,0,1-.314.769L18.5,65.91h0" transform="translate(-10.745 -38.359)" fill="#e0e0e0"/>
        <path id="Trazado_696473" data-name="Trazado 696473" d="M16.728,79.745a.415.415,0,0,1,.1-.8l2.145-.3a.415.415,0,0,1,.115.823l-2.145.3a.411.411,0,0,1-.215-.027" transform="translate(-9.703 -46.334)" fill="#e0e0e0"/>
        <path id="Trazado_696474" data-name="Trazado 696474" d="M66.509,72.81a.415.415,0,0,1,.1-.8l2.145-.3a.415.415,0,0,1,.115.823l-2.145.3a.411.411,0,0,1-.215-.027" transform="translate(-39.031 -42.248)" fill="#e0e0e0"/>
        <path id="Trazado_696475" data-name="Trazado 696475" d="M61.971,60.605a.408.408,0,0,1-.17-.129.416.416,0,0,1,.073-.583l1.708-1.332a.415.415,0,0,1,.511.655l-1.708,1.332a.415.415,0,0,1-.414.056" transform="translate(-36.358 -34.449)" fill="#e0e0e0"/>
        <path id="Trazado_696476" data-name="Trazado 696476" d="M92.883,178.82l-2.167,1.2a1.056,1.056,0,0,0-.493.808c-.055,1.943-.233,9.584.078,13.236a1.158,1.158,0,0,0,.526.811,41.445,41.445,0,0,0,6.108,2.95,1.935,1.935,0,0,0,1.042-.115l1.544-.62a.87.87,0,0,0,.5-.748A101.452,101.452,0,0,1,101.374,183a.783.783,0,0,0-.409-.775l-7.115-3.433a1.182,1.182,0,0,0-.968.027" transform="translate(-53.094 -105.28)" fill="#455a64"/>
        <path id="Trazado_696477" data-name="Trazado 696477" d="M90.3,196.6c-.311-3.652-.132-11.293-.078-13.236a.322.322,0,0,1,.5-.3l6.621,3.291a.864.864,0,0,1,.442.786,122.834,122.834,0,0,0-.348,12.768.409.409,0,0,1-.508.455,41.458,41.458,0,0,1-6.108-2.95,1.16,1.16,0,0,1-.526-.811" transform="translate(-53.094 -107.817)" fill="#37474f"/>
        <path id="Trazado_696478" data-name="Trazado 696478" d="M106.9,203.394a1.982,1.982,0,0,0,.961-.129l1.545-.621a.9.9,0,0,0,.5-.746c.3-3.983.707-9.115,1.353-13.338a.684.684,0,0,0-.078-.423l-3.584,1.634a.749.749,0,0,1,.078.385,121.907,121.907,0,0,0-.346,12.772.41.41,0,0,1-.427.466" transform="translate(-62.98 -110.839)" fill="#263238"/>
        <path id="Trazado_696479" data-name="Trazado 696479" d="M92.39,186.909l5.8,2.706-.281,4.933-5.679-2.44s.056-3.523.158-5.2" transform="translate(-54.337 -110.115)" fill="#263238"/>
        <path id="Trazado_696480" data-name="Trazado 696480" d="M98.318,194.421l-5.427-2.329s.052-3.224.141-4.886l5.548,2.584Z" transform="translate(-54.726 -110.29)" fill="#ba68c8"/>
        <g id="Grupo_972309" data-name="Grupo 972309" transform="translate(38.165 76.916)" opacity="0.4">
          <g id="Grupo_972308" data-name="Grupo 972308">
            <g id="Grupo_972307" data-name="Grupo 972307" clip-path="url(#clip-path-32)">
              <path id="Trazado_696481" data-name="Trazado 696481" d="M98.318,194.421l-5.427-2.329s.052-3.224.141-4.886l5.548,2.584Z" transform="translate(-92.891 -187.206)"/>
            </g>
          </g>
        </g>
        <path id="Trazado_696482" data-name="Trazado 696482" d="M98.447,191.514l-1.217,1.76.765.265-.595,1.551,1.36-1.832L98,192.97Z" transform="translate(-57.282 -112.828)" fill="#fafafa"/>
        <path id="Trazado_696483" data-name="Trazado 696483" d="M103.123,207.144l-.034.488a.185.185,0,0,1-.271.168l-.879-.361a.407.407,0,0,1-.236-.375l.029-.5A.181.181,0,0,1,102,206.4l.892.371a.4.4,0,0,1,.233.376" transform="translate(-59.916 -121.585)" fill="#263238"/>
        <path id="Trazado_696484" data-name="Trazado 696484" d="M103.142,211.043l-.027.489a.185.185,0,0,1-.268.173l-.884-.347a.408.408,0,0,1-.242-.372l.021-.5a.181.181,0,0,1,.265-.171l.9.357a.4.4,0,0,1,.238.373" transform="translate(-59.927 -123.893)" fill="#263238"/>
        <path id="Trazado_696485" data-name="Trazado 696485" d="M103.16,214.941l-.019.489a.185.185,0,0,1-.265.177l-.89-.334a.407.407,0,0,1-.248-.368l.014-.5a.181.181,0,0,1,.262-.176l.9.343a.4.4,0,0,1,.244.369" transform="translate(-59.938 -126.201)" fill="#263238"/>
        <path id="Trazado_696486" data-name="Trazado 696486" d="M103.179,218.84l-.012.489a.185.185,0,0,1-.263.181l-.895-.32a.407.407,0,0,1-.253-.364l.006-.5a.181.181,0,0,1,.26-.18l.907.329a.4.4,0,0,1,.25.365" transform="translate(-59.949 -128.509)" fill="#263238"/>
        <path id="Trazado_696487" data-name="Trazado 696487" d="M98.352,204.957l-.026.509a.18.18,0,0,1-.265.168l-.873-.362a.42.42,0,0,1-.241-.376l.021-.521a.177.177,0,0,1,.262-.167l.886.371a.416.416,0,0,1,.237.378" transform="translate(-57.114 -120.295)" fill="#263238"/>
        <path id="Trazado_696488" data-name="Trazado 696488" d="M98.336,208.809l-.024.509a.18.18,0,0,1-.265.169l-.875-.357a.419.419,0,0,1-.242-.376l.018-.521a.177.177,0,0,1,.261-.168l.887.367a.415.415,0,0,1,.239.376" transform="translate(-57.105 -122.568)" fill="#263238"/>
        <path id="Trazado_696489" data-name="Trazado 696489" d="M98.319,212.662l-.021.509a.18.18,0,0,1-.264.17l-.876-.353a.419.419,0,0,1-.244-.374l.016-.521a.177.177,0,0,1,.261-.169l.889.363a.415.415,0,0,1,.241.375" transform="translate(-57.095 -124.841)" fill="#263238"/>
        <path id="Trazado_696490" data-name="Trazado 696490" d="M98.3,216.514l-.019.509a.18.18,0,0,1-.263.171l-.878-.349a.419.419,0,0,1-.246-.373l.014-.521a.176.176,0,0,1,.26-.17l.891.359a.415.415,0,0,1,.242.374" transform="translate(-57.084 -127.114)" fill="#263238"/>
        <path id="Trazado_696491" data-name="Trazado 696491" d="M93.582,202.769l-.018.53a.175.175,0,0,1-.26.167l-.868-.362a.429.429,0,0,1-.245-.377l.012-.542a.172.172,0,0,1,.257-.166l.88.373a.426.426,0,0,1,.242.378" transform="translate(-54.313 -119.005)" fill="#263238"/>
        <path id="Trazado_696492" data-name="Trazado 696492" d="M93.6,206.508l-.018.53a.175.175,0,0,1-.26.167l-.868-.362a.429.429,0,0,1-.245-.377l.012-.542a.172.172,0,0,1,.257-.166l.88.373a.426.426,0,0,1,.242.378" transform="translate(-54.321 -121.207)" fill="#263238"/>
        <path id="Trazado_696493" data-name="Trazado 696493" d="M93.61,210.248l-.018.53a.175.175,0,0,1-.26.167l-.868-.362a.428.428,0,0,1-.245-.377l.012-.542a.172.172,0,0,1,.257-.166l.88.373a.426.426,0,0,1,.242.378" transform="translate(-54.33 -123.411)" fill="#263238"/>
        <path id="Trazado_696494" data-name="Trazado 696494" d="M93.623,213.987l-.018.53a.175.175,0,0,1-.26.167l-.868-.362a.429.429,0,0,1-.245-.377l.012-.542a.172.172,0,0,1,.257-.166l.88.373a.426.426,0,0,1,.242.378" transform="translate(-54.337 -125.614)" fill="#263238"/>
        <path id="Trazado_696495" data-name="Trazado 696495" d="M331.551,341.332l-3.79-1.289c-.324-3.632.143-12.431,6.048-17.6,5.994-5.243,9.907-1.88,9.793.394-.126,2.5-5.5,4.849-8.226,8.228-2.961,3.673-3.889,6.18-3.825,10.265" transform="translate(-193.052 -188.326)" fill="#ba68c8"/>
        <g id="Grupo_972312" data-name="Grupo 972312" transform="translate(134.633 131.337)" opacity="0.5">
          <g id="Grupo_972311" data-name="Grupo 972311">
            <g id="Grupo_972310" data-name="Grupo 972310" clip-path="url(#clip-path-33)">
              <path id="Trazado_696496" data-name="Trazado 696496" d="M331.551,341.332l-3.79-1.289c-.324-3.632.143-12.431,6.048-17.6,5.994-5.243,9.907-1.88,9.793.394-.126,2.5-5.5,4.849-8.226,8.228-2.961,3.673-3.889,6.18-3.825,10.265" transform="translate(-327.685 -319.663)" fill="#fff"/>
            </g>
          </g>
        </g>
        <path id="Trazado_696497" data-name="Trazado 696497" d="M330.587,343.415h0a.206.206,0,0,1-.2-.207c.053-9.772,7.312-18.32,10.925-18.874a.205.205,0,1,1,.063.406c-3.543.543-10.527,9.242-10.576,18.47a.206.206,0,0,1-.205.2" transform="translate(-194.641 -191.077)" fill="#fff"/>
        <path id="Trazado_696498" data-name="Trazado 696498" d="M342.076,350.811c-3.274-1.082-10.436,2.515-11.822,7.811l2.811.947a15.535,15.535,0,0,1,7.925-3.386c4.631-.471,4.36-4.289,1.086-5.371" transform="translate(-194.565 -206.563)" fill="#ba68c8"/>
        <g id="Grupo_972315" data-name="Grupo 972315" transform="translate(135.689 144.056)" opacity="0.65">
          <g id="Grupo_972314" data-name="Grupo 972314">
            <g id="Grupo_972313" data-name="Grupo 972313" clip-path="url(#clip-path-34)">
              <path id="Trazado_696499" data-name="Trazado 696499" d="M342.076,350.811c-3.274-1.082-10.436,2.515-11.822,7.811l2.811.947a15.535,15.535,0,0,1,7.925-3.386c4.631-.471,4.36-4.289,1.086-5.371" transform="translate(-330.254 -350.619)" fill="#fff"/>
            </g>
          </g>
        </g>
        <path id="Trazado_696500" data-name="Trazado 696500" d="M333.081,362.052a.2.2,0,0,1-.094-.023.205.205,0,0,1-.088-.277c2.814-5.437,8.924-7.042,11.411-6.378a.206.206,0,1,1-.106.4c-2.376-.637-8.225.925-10.94,6.169a.205.205,0,0,1-.182.111" transform="translate(-196.11 -209.282)" fill="#fff"/>
        <path id="Trazado_696501" data-name="Trazado 696501" d="M325.653,224.186v60.758a1.143,1.143,0,0,0,.673.938,3.593,3.593,0,0,0,3.25,0,1.142,1.142,0,0,0,.673-.938V224.186Z" transform="translate(-191.855 -132.077)" fill="#455a64"/>
        <path id="Trazado_696502" data-name="Trazado 696502" d="M325.653,235.575l4.6-2.654v-8.735h-4.6Z" transform="translate(-191.855 -132.077)" fill="#37474f"/>
        <path id="Trazado_696503" data-name="Trazado 696503" d="M310.024,141.9l31.709-18.308V66.838l-31.71,18.308Z" transform="translate(-182.647 -39.377)" fill="#ba68c8"/>
        <path id="Trazado_696504" data-name="Trazado 696504" d="M321.273,55.025,307,46.786l-31.71,18.308,14.269,8.239Z" transform="translate(-162.186 -27.564)" fill="#ba68c8"/>
        <g id="Grupo_972318" data-name="Grupo 972318" transform="translate(113.107 19.223)" opacity="0.2">
          <g id="Grupo_972317" data-name="Grupo 972317">
            <g id="Grupo_972316" data-name="Grupo 972316" clip-path="url(#clip-path-35)">
              <path id="Trazado_696505" data-name="Trazado 696505" d="M321.273,55.025,307,46.786l-31.71,18.308,14.269,8.239Z" transform="translate(-275.293 -46.787)" fill="#fff"/>
            </g>
          </g>
        </g>
        <path id="Trazado_696506" data-name="Trazado 696506" d="M275.293,91.345V148.1l14.269,8.238V99.584Z" transform="translate(-162.186 -53.815)" fill="#ba68c8"/>
        <g id="Grupo_972321" data-name="Grupo 972321" transform="translate(113.107 37.53)" opacity="0.2">
          <g id="Grupo_972320" data-name="Grupo 972320">
            <g id="Grupo_972319" data-name="Grupo 972319" clip-path="url(#clip-path-36)">
              <path id="Trazado_696507" data-name="Trazado 696507" d="M275.293,91.345V148.1l14.269,8.238V99.584Z" transform="translate(-275.293 -91.345)"/>
            </g>
          </g>
        </g>
        <path id="Trazado_696508" data-name="Trazado 696508" d="M342.372,102.752l-11.76,30.587,7.4-5.981-5.749,21.627L345.4,116.1l-7.4,5.768Z" transform="translate(-194.776 -60.535)" fill="#fafafa"/>
        <path id="Trazado_696509" data-name="Trazado 696509" d="M314.675,112.356c.438-.253.793-.048.793.458a1.752,1.752,0,0,1-.793,1.373c-.438.253-.793.048-.793-.458a1.752,1.752,0,0,1,.793-1.373" transform="translate(-184.92 -66.129)" fill="#37474f"/>
        <path id="Trazado_696510" data-name="Trazado 696510" d="M314.675,237.128c.438-.253.793-.048.793.458a1.752,1.752,0,0,1-.793,1.373c-.438.253-.793.048-.793-.458a1.751,1.751,0,0,1,.793-1.373" transform="translate(-184.92 -139.637)" fill="#37474f"/>
        <path id="Trazado_696511" data-name="Trazado 696511" d="M380.282,74.478c.438-.253.793-.048.793.458a1.752,1.752,0,0,1-.793,1.373c-.438.253-.793.048-.793-.458a1.752,1.752,0,0,1,.793-1.373" transform="translate(-223.572 -43.814)" fill="#37474f"/>
        <path id="Trazado_696512" data-name="Trazado 696512" d="M380.282,199.249c.438-.253.793-.048.793.458a1.752,1.752,0,0,1-.793,1.373c-.438.253-.793.048-.793-.458a1.752,1.752,0,0,1,.793-1.373" transform="translate(-223.572 -117.321)" fill="#37474f"/>
        <path id="Trazado_696513" data-name="Trazado 696513" d="M366.74,28.774V69.051l17.44-10.069V2.228L352.47,20.535Z" transform="translate(-207.654 -1.313)" fill="#ba68c8"/>
        <path id="Trazado_696514" data-name="Trazado 696514" d="M381.907.915,350.2,19.223l-1.586-.915L380.322,0Z" transform="translate(-205.381 0)" fill="#ba68c8"/>
        <g id="Grupo_972324" data-name="Grupo 972324" transform="translate(143.231)" opacity="0.2">
          <g id="Grupo_972323" data-name="Grupo 972323">
            <g id="Grupo_972322" data-name="Grupo 972322" clip-path="url(#clip-path-37)">
              <path id="Trazado_696515" data-name="Trazado 696515" d="M381.907.915,350.2,19.223l-1.586-.915L380.322,0Z" transform="translate(-348.612 0)" fill="#fff"/>
            </g>
          </g>
        </g>
        <path id="Trazado_696516" data-name="Trazado 696516" d="M348.612,46.389V44.558l1.586.915Z" transform="translate(-205.381 -26.251)" fill="#ba68c8"/>
        <g id="Grupo_972327" data-name="Grupo 972327" transform="translate(143.231 18.308)" opacity="0.2">
          <g id="Grupo_972326" data-name="Grupo 972326">
            <g id="Grupo_972325" data-name="Grupo 972325" clip-path="url(#clip-path-38)">
              <path id="Trazado_696517" data-name="Trazado 696517" d="M348.612,46.389V44.558l1.586.915Z" transform="translate(-348.612 -44.559)"/>
            </g>
          </g>
        </g>
        <g id="Grupo_972330" data-name="Grupo 972330" transform="translate(144.817 19.223)" opacity="0.2">
          <g id="Grupo_972329" data-name="Grupo 972329">
            <g id="Grupo_972328" data-name="Grupo 972328" clip-path="url(#clip-path-39)">
              <path id="Trazado_696518" data-name="Trazado 696518" d="M352.471,46.787l20.42,5.6V91.75L366.741,95.3V55.025Z" transform="translate(-352.471 -46.787)"/>
            </g>
          </g>
        </g>
      </g>
    </g>
  </g>
</svg>
