<svg id="Grupo_972356" data-name="Grupo 972356" xmlns="http://www.w3.org/2000/svg" xmlns:xlink="http://www.w3.org/1999/xlink" width="295" height="184.74" viewBox="0 0 295 184.74">
  <defs>
    <clipPath id="clip-path">
      <rect id="Rectángulo_339058" data-name="Rectángulo 339058" width="295" height="184.74" fill="none"/>
    </clipPath>
    <clipPath id="clip-path-3">
      <rect id="Rectángulo_339049" data-name="Rectángulo 339049" width="5.094" height="1.537" fill="none"/>
    </clipPath>
    <clipPath id="clip-path-4">
      <rect id="Rectángulo_339050" data-name="Rectángulo 339050" width="4.777" height="1.566" fill="none"/>
    </clipPath>
    <clipPath id="clip-path-5">
      <rect id="Rectángulo_339052" data-name="Rectángulo 339052" width="4.911" height="1.566" fill="none"/>
    </clipPath>
    <clipPath id="clip-path-6">
      <rect id="Rectángulo_339053" data-name="Rectángulo 339053" width="4.47" height="1.47" fill="none"/>
    </clipPath>
    <clipPath id="clip-path-7">
      <rect id="Rectángulo_339055" data-name="Rectángulo 339055" width="2.88" height="0.762" fill="none"/>
    </clipPath>
    <clipPath id="clip-path-8">
      <rect id="Rectángulo_339056" data-name="Rectángulo 339056" width="2.599" height="0.777" fill="none"/>
    </clipPath>
  </defs>
  <g id="Grupo_972355" data-name="Grupo 972355" clip-path="url(#clip-path)">
    <g id="Grupo_972354" data-name="Grupo 972354" transform="translate(0 0)">
      <g id="Grupo_972353" data-name="Grupo 972353" clip-path="url(#clip-path)">
        <path id="Trazado_696519" data-name="Trazado 696519" d="M23.8,183.981S-13.051,134.388,4.957,83.332C16.7,50.053,60.729,31.817,85.579,50.053c10.584,7.767,40.2-2.573,62.671-31.893,37.26-48.624,153.851,5.4,117.89,102.632-16.431,44.426,11.669,38.737,4.624,63.949Z" transform="translate(0 -0.001)" fill="#ebf3fa"/>
        <rect id="Rectángulo_339015" data-name="Rectángulo 339015" width="5.053" height="135.668" transform="translate(193.889 48.597)" fill="#ccddfc"/>
        <rect id="Rectángulo_339016" data-name="Rectángulo 339016" width="66.121" height="3.335" transform="translate(163.006 52.29)" fill="#ccddfc"/>
        <rect id="Rectángulo_339017" data-name="Rectángulo 339017" width="1.09" height="7.385" transform="translate(165.499 44.904)" fill="#ccddfc"/>
        <path id="Trazado_696520" data-name="Trazado 696520" d="M1453.265,408.194c0-.374,1.338-.677,2.988-.677s2.988.3,2.988.677-1.338.677-2.988.677-2.988-.3-2.988-.677" transform="translate(-1290.169 -361.783)" fill="#ccddfc"/>
        <path id="Trazado_696521" data-name="Trazado 696521" d="M1453.265,396.133c0-.374,1.338-.677,2.988-.677s2.988.3,2.988.677-1.338.677-2.988.677-2.988-.3-2.988-.677" transform="translate(-1290.169 -351.075)" fill="#ccddfc"/>
        <path id="Trazado_696522" data-name="Trazado 696522" d="M1453.265,384.072c0-.374,1.338-.677,2.988-.677s2.988.3,2.988.677-1.338.677-2.988.677-2.988-.3-2.988-.677" transform="translate(-1290.169 -340.368)" fill="#ccddfc"/>
        <path id="Trazado_696523" data-name="Trazado 696523" d="M1453.265,372.01c0-.374,1.338-.677,2.988-.677s2.988.3,2.988.677-1.338.677-2.988.677-2.988-.3-2.988-.677" transform="translate(-1290.169 -329.659)" fill="#ccddfc"/>
        <rect id="Rectángulo_339018" data-name="Rectángulo 339018" width="3.625" height="4.606" transform="translate(164.232 42.046)" fill="#ccddfc"/>
        <rect id="Rectángulo_339019" data-name="Rectángulo 339019" width="1.09" height="7.385" transform="translate(195.482 44.904)" fill="#ccddfc"/>
        <path id="Trazado_696524" data-name="Trazado 696524" d="M1720.423,408.194c0-.374,1.338-.677,2.988-.677s2.988.3,2.988.677-1.338.677-2.988.677-2.988-.3-2.988-.677" transform="translate(-1527.344 -361.783)" fill="#ccddfc"/>
        <path id="Trazado_696525" data-name="Trazado 696525" d="M1720.423,396.133c0-.374,1.338-.677,2.988-.677s2.988.3,2.988.677-1.338.677-2.988.677-2.988-.3-2.988-.677" transform="translate(-1527.344 -351.075)" fill="#ccddfc"/>
        <path id="Trazado_696526" data-name="Trazado 696526" d="M1720.423,384.072c0-.374,1.338-.677,2.988-.677s2.988.3,2.988.677-1.338.677-2.988.677-2.988-.3-2.988-.677" transform="translate(-1527.344 -340.368)" fill="#ccddfc"/>
        <path id="Trazado_696527" data-name="Trazado 696527" d="M1720.423,372.01c0-.374,1.338-.677,2.988-.677s2.988.3,2.988.677-1.338.677-2.988.677-2.988-.3-2.988-.677" transform="translate(-1527.344 -329.659)" fill="#ccddfc"/>
        <rect id="Rectángulo_339020" data-name="Rectángulo 339020" width="3.625" height="4.606" transform="translate(194.214 42.046)" fill="#ccddfc"/>
        <rect id="Rectángulo_339021" data-name="Rectángulo 339021" width="1.09" height="7.385" transform="translate(225.555 44.904)" fill="#ccddfc"/>
        <path id="Trazado_696528" data-name="Trazado 696528" d="M1988.385,408.194c0-.374,1.337-.677,2.988-.677s2.988.3,2.988.677-1.338.677-2.988.677-2.988-.3-2.988-.677" transform="translate(-1765.234 -361.783)" fill="#ccddfc"/>
        <path id="Trazado_696529" data-name="Trazado 696529" d="M1988.385,396.133c0-.374,1.337-.677,2.988-.677s2.988.3,2.988.677-1.338.677-2.988.677-2.988-.3-2.988-.677" transform="translate(-1765.234 -351.075)" fill="#ccddfc"/>
        <path id="Trazado_696530" data-name="Trazado 696530" d="M1988.385,384.072c0-.374,1.337-.677,2.988-.677s2.988.3,2.988.677-1.338.677-2.988.677-2.988-.3-2.988-.677" transform="translate(-1765.234 -340.368)" fill="#ccddfc"/>
        <path id="Trazado_696531" data-name="Trazado 696531" d="M1988.385,372.01c0-.374,1.337-.677,2.988-.677s2.988.3,2.988.677-1.338.677-2.988.677-2.988-.3-2.988-.677" transform="translate(-1765.234 -329.659)" fill="#ccddfc"/>
        <rect id="Rectángulo_339022" data-name="Rectángulo 339022" width="3.625" height="4.606" transform="translate(224.287 42.046)" fill="#ccddfc"/>
        <path id="Trazado_696532" data-name="Trazado 696532" d="M1602,494.115l-18.732-15.641.691-.822,18.036,15.059,18.327-15.562.7.816Z" transform="translate(-1405.578 -423.601)" fill="#ccddfc"/>
        <path id="Trazado_696533" data-name="Trazado 696533" d="M260.825,1130.317h-6.112a.059.059,0,0,1-.059-.059v-31.51a.059.059,0,0,1,.059-.059h6.112a.059.059,0,0,1,.059.059v31.51a.059.059,0,0,1-.059.059m-6.054-.118h5.995v-31.393h-5.995Z" transform="translate(-226.075 -975.386)" fill="#c0d8fb"/>
        <path id="Trazado_696534" data-name="Trazado 696534" d="M241.543,1400.588H229.9a.059.059,0,0,1-.044-.02.058.058,0,0,1-.014-.046l2.785-21.007a.059.059,0,0,1,.058-.051H238.8a.059.059,0,0,1,.058.051l2.746,21.007a.059.059,0,0,1-.058.066m-11.575-.118h11.508l-2.73-20.889h-6.009Z" transform="translate(-204.047 -1224.649)" fill="#c0d8fb"/>
        <path id="Trazado_696535" data-name="Trazado 696535" d="M222.257,1575.1h-2.231a.06.06,0,0,1-.044-.02.059.059,0,0,1-.014-.047l1.108-8.339a.059.059,0,0,1,.058-.051h4.615a.059.059,0,0,1,.054.082l-3.492,8.339a.059.059,0,0,1-.054.036m-2.164-.118h2.125l3.443-8.221h-4.476Z" transform="translate(-195.28 -1390.826)" fill="#c0d8fb"/>
        <path id="Trazado_696536" data-name="Trazado 696536" d="M298.073,1575.1h-2.231a.058.058,0,0,1-.054-.036l-3.493-8.339a.059.059,0,0,1,.005-.055.059.059,0,0,1,.049-.026h4.615a.059.059,0,0,1,.058.051l1.108,8.339a.058.058,0,0,1-.014.047.059.059,0,0,1-.044.02m-2.192-.118h2.125l-1.093-8.221h-4.475Z" transform="translate(-259.487 -1390.826)" fill="#c0d8fb"/>
        <path id="Trazado_696537" data-name="Trazado 696537" d="M166.989,1338.037H132.644a.059.059,0,0,1-.021-.114l13.7-5.251a.057.057,0,0,1,.021,0h6.112a.062.062,0,0,1,.02,0l14.534,5.252a.059.059,0,0,1,.038.066.059.059,0,0,1-.058.048m-34.028-.117h33.692l-14.208-5.134h-6.091Z" transform="translate(-117.705 -1183.106)" fill="#c0d8fb"/>
        <path id="Trazado_696538" data-name="Trazado 696538" d="M181.069,1197.65H150.8a.059.059,0,0,1-.024-.113l11.662-5.252a.059.059,0,0,1,.024-.005h6.112a.057.057,0,0,1,.023,0l12.5,5.252a.059.059,0,0,1-.023.113m-30-.118h29.7l-12.216-5.134h-6.088Z" transform="translate(-133.822 -1058.474)" fill="#c0d8fb"/>
        <path id="Trazado_696539" data-name="Trazado 696539" d="M203.194,1068.567H179.327a.059.059,0,0,1-.022-.114l9.52-3.823a.057.057,0,0,1,.022,0h4.247a.056.056,0,0,1,.021,0l10.1,3.823a.059.059,0,0,1-.021.114m-23.563-.118h23.241l-9.789-3.705h-4.225Z" transform="translate(-159.149 -945.146)" fill="#c0d8fb"/>
        <path id="Trazado_696540" data-name="Trazado 696540" d="M268.4,1006.908h-4.248a.059.059,0,0,1-.057-.074l2-7.312a.059.059,0,0,1,.056-.043.058.058,0,0,1,.057.042l2.251,7.311a.059.059,0,0,1-.056.076m-4.171-.118h4.091l-2.168-7.042Z" transform="translate(-234.457 -887.31)" fill="#c0d8fb"/>
        <path id="Trazado_696541" data-name="Trazado 696541" d="M260.825,1104.059h-6.112a.059.059,0,0,1-.038-.1l3-2.581-3-2.581a.059.059,0,0,1,.038-.1h6.112a.059.059,0,0,1,.038.1l-3,2.581,3,2.581a.059.059,0,0,1-.038.1m-5.954-.118h5.795l-2.9-2.49Zm0-5.134,2.9,2.49,2.9-2.49Z" transform="translate(-226.074 -975.386)" fill="#c0d8fb"/>
        <path id="Trazado_696542" data-name="Trazado 696542" d="M260.825,1150.855h-6.112a.059.059,0,0,1-.038-.1l3-2.582-3-2.581a.059.059,0,0,1,.038-.1h6.112a.059.059,0,0,1,.038.1l-3,2.581,3,2.582a.059.059,0,0,1-.038.1m-5.954-.118h5.795l-2.9-2.489Zm0-5.134,2.9,2.49,2.9-2.49Z" transform="translate(-226.074 -1016.93)" fill="#c0d8fb"/>
        <path id="Trazado_696543" data-name="Trazado 696543" d="M260.825,1197.65h-6.112a.059.059,0,0,1-.038-.1l3-2.581-3-2.582a.059.059,0,0,1,.038-.1h6.112a.059.059,0,0,1,.038.1l-3,2.582,3,2.581a.059.059,0,0,1-.038.1m-5.954-.118h5.795l-2.9-2.49Zm0-5.134,2.9,2.49,2.9-2.49Z" transform="translate(-226.074 -1058.474)" fill="#c0d8fb"/>
        <path id="Trazado_696544" data-name="Trazado 696544" d="M260.825,1244.446h-6.112a.059.059,0,0,1-.038-.1l3-2.581-3-2.581a.059.059,0,0,1,.038-.1h6.112a.059.059,0,0,1,.038.1l-3,2.581,3,2.581a.059.059,0,0,1-.038.1m-5.954-.118h5.795l-2.9-2.49Zm0-5.134,2.9,2.489,2.9-2.489Z" transform="translate(-226.074 -1100.019)" fill="#c0d8fb"/>
        <path id="Trazado_696545" data-name="Trazado 696545" d="M260.825,1291.242h-6.112a.059.059,0,0,1-.038-.1l3-2.581-3-2.581a.059.059,0,0,1,.038-.1h6.112a.059.059,0,0,1,.038.1l-3,2.581,3,2.581a.059.059,0,0,1-.038.1m-5.954-.118h5.795l-2.9-2.489Zm0-5.134,2.9,2.49,2.9-2.49Z" transform="translate(-226.074 -1141.563)" fill="#c0d8fb"/>
        <path id="Trazado_696546" data-name="Trazado 696546" d="M255.9,1384.833H248.37a.059.059,0,0,1-.036-.105l3.705-2.851-2.993-2.307a.059.059,0,0,1,.036-.105h6.112a.059.059,0,0,1,.036.106l-3,2.307,3.7,2.851a.059.059,0,0,1-.036.105m-7.353-.117h7.18l-3.588-2.765Zm.712-5.134,2.881,2.221,2.885-2.221Z" transform="translate(-220.444 -1224.65)" fill="#c0d8fb"/>
        <path id="Trazado_696547" data-name="Trazado 696547" d="M250.951,1431.629h-8.923a.059.059,0,0,1-.056-.042.059.059,0,0,1,.025-.066l4.391-2.8-3.679-2.353a.059.059,0,0,1,.032-.108h7.526a.059.059,0,0,1,.032.108l-3.691,2.353,4.377,2.8a.06.06,0,0,1,.025.066.059.059,0,0,1-.057.042m-8.721-.118h8.52l-4.253-2.72Zm.711-5.134,3.556,2.274,3.567-2.274Z" transform="translate(-214.813 -1266.194)" fill="#c0d8fb"/>
        <path id="Trazado_696548" data-name="Trazado 696548" d="M246.038,1478.425H235.685a.059.059,0,0,1-.028-.111l5.08-2.769-4.368-2.379a.059.059,0,0,1,.028-.111h8.923a.059.059,0,0,1,.028.111l-4.365,2.379,5.084,2.769a.059.059,0,0,1-.028.111m-10.122-.118h9.891l-4.947-2.7Zm.712-5.134,4.232,2.305,4.229-2.305Z" transform="translate(-209.182 -1307.738)" fill="#c0d8fb"/>
        <path id="Trazado_696549" data-name="Trazado 696549" d="M241.572,1525.219H229.9a.059.059,0,0,1-.025-.112l5.719-2.73-5.07-2.416a.059.059,0,0,1,.025-.112H240.9a.059.059,0,0,1,.025.112l-5.061,2.416,5.73,2.73a.059.059,0,0,1-.025.112m-11.412-.118h11.152l-5.581-2.659Zm.65-5.134,4.921,2.345,4.912-2.345Z" transform="translate(-204.047 -1349.281)" fill="#c0d8fb"/>
        <path id="Trazado_696550" data-name="Trazado 696550" d="M199.329,1197.835a.059.059,0,0,1-.04-.016l-2.548-2.316.079-.087,2.5,2.273,3.932-5.2.094.071-3.971,5.252a.059.059,0,0,1-.042.023h-.005" transform="translate(-174.661 -1058.659)" fill="#c0d8fb"/>
        <path id="Trazado_696551" data-name="Trazado 696551" d="M314.145,1197.8a.059.059,0,0,1-.043-.019l-4.846-5.252.086-.08,4.808,5.211,2.554-2.089.074.091-2.6,2.124a.058.058,0,0,1-.037.013" transform="translate(-274.549 -1058.624)" fill="#c0d8fb"/>
        <rect id="Rectángulo_339023" data-name="Rectángulo 339023" width="8.059" height="0.118" transform="matrix(0.759, -0.652, 0.652, 0.759, 28.6, 154.828)" fill="#c0d8fb"/>
        <path id="Trazado_696552" data-name="Trazado 696552" d="M271,1338.186l-4.451-3.266-5.529,3.222a.059.059,0,0,1-.068-.006l-6.112-5.252.077-.089,6.081,5.224,5.526-3.221a.058.058,0,0,1,.064,0l4.482,3.288Z" transform="translate(-226.236 -1183.219)" fill="#c0d8fb"/>
        <path id="Trazado_696553" data-name="Trazado 696553" d="M186.83,1352.519l-.091-.075,2.868-3.471a.059.059,0,0,1,.045-.021.057.057,0,0,1,.045.02l2.979,3.424-.089.077-2.934-3.372Z" transform="translate(-165.782 -1197.562)" fill="#c0d8fb"/>
        <path id="Trazado_696554" data-name="Trazado 696554" d="M225.693,1068.567a.058.058,0,0,1-.027-.007l-3.7-1.911.054-.1,3.636,1.878,1.04-3.753a.059.059,0,0,1,.092-.031l5.026,3.8,4.4-1.828.045.109-4.429,1.841a.059.059,0,0,1-.058-.007l-4.984-3.771-1.037,3.739a.059.059,0,0,1-.033.038.061.061,0,0,1-.024,0" transform="translate(-197.055 -945.146)" fill="#c0d8fb"/>
        <path id="Trazado_696555" data-name="Trazado 696555" d="M254.941,1068.557l-.069-.1,5.307-3.823a.059.059,0,0,1,.092.036l.805,3.823-.115.024-.787-3.734Z" transform="translate(-226.268 -945.147)" fill="#c0d8fb"/>
        <path id="Trazado_696556" data-name="Trazado 696556" d="M268.469,1035.807l-2.121-2.387-2.038,2.386-.089-.077,2.048-2.4-1.049-1.18a.059.059,0,0,1,.044-.1h2.124a.059.059,0,0,1,.045.1l-1.007,1.179,2.132,2.4Zm-3.074-3.636.951,1.07.914-1.07Z" transform="translate(-234.568 -916.229)" fill="#c0d8fb"/>
        <path id="Trazado_696557" data-name="Trazado 696557" d="M588.046,722.367h-10.97a.106.106,0,0,1-.106-.106V665.709a.106.106,0,0,1,.106-.106h10.97a.106.106,0,0,1,.106.106v56.553a.106.106,0,0,1-.106.106m-10.864-.211H587.94V665.814H577.181Z" transform="translate(-512.218 -590.904)" fill="#c0d8fb"/>
        <path id="Trazado_696558" data-name="Trazado 696558" d="M553.439,1207.43h-20.9a.106.106,0,0,1-.1-.12l5-37.7a.105.105,0,0,1,.1-.092h10.97a.106.106,0,0,1,.1.092l4.927,37.7a.106.106,0,0,1-.1.119m-20.775-.211h20.654l-4.9-37.491H537.634Z" transform="translate(-472.684 -1038.265)" fill="#c0d8fb"/>
        <path id="Trazado_696559" data-name="Trazado 696559" d="M518.826,1520.636h-4a.106.106,0,0,1-.1-.12l1.989-14.966a.106.106,0,0,1,.1-.092h8.283a.106.106,0,0,1,.1.146l-6.268,14.966a.106.106,0,0,1-.1.065m-3.884-.211h3.814l6.179-14.755H516.9Z" transform="translate(-456.951 -1336.505)" fill="#c0d8fb"/>
        <path id="Trazado_696560" data-name="Trazado 696560" d="M654.894,1520.636h-4a.106.106,0,0,1-.1-.065l-6.268-14.966a.105.105,0,0,1,.1-.146h8.283a.105.105,0,0,1,.1.092L655,1520.517a.106.106,0,0,1-.1.12m-3.934-.211h3.814l-1.961-14.755h-8.032Z" transform="translate(-572.184 -1336.505)" fill="#c0d8fb"/>
        <path id="Trazado_696561" data-name="Trazado 696561" d="M419.636,1095.169H358a.106.106,0,0,1-.038-.2l24.587-9.425a.1.1,0,0,1,.038-.007h10.97a.1.1,0,0,1,.036.006l26.084,9.426a.106.106,0,0,1-.036.2m-61.07-.211h60.467l-25.5-9.215H382.6Z" transform="translate(-317.725 -963.706)" fill="#c0d8fb"/>
        <path id="Trazado_696562" data-name="Trazado 696562" d="M444.9,843.212H390.577a.106.106,0,0,1-.043-.2l20.93-9.425a.1.1,0,0,1,.043-.009h10.97a.105.105,0,0,1,.041.008l22.427,9.425a.106.106,0,0,1-.041.2M391.069,843h53.312l-21.925-9.214H411.53Z" transform="translate(-346.65 -740.025)" fill="#c0d8fb"/>
        <path id="Trazado_696563" data-name="Trazado 696563" d="M484.614,611.542H441.779a.106.106,0,0,1-.039-.2l17.086-6.861a.107.107,0,0,1,.04-.008h7.623a.106.106,0,0,1,.037.007l18.126,6.861a.106.106,0,0,1-.037.2m-42.289-.211h41.712l-17.568-6.65h-7.584Z" transform="translate(-392.105 -536.632)" fill="#c0d8fb"/>
        <path id="Trazado_696564" data-name="Trazado 696564" d="M601.644,500.882h-7.623a.106.106,0,0,1-.1-.133l3.583-13.122a.106.106,0,0,1,.1-.078.1.1,0,0,1,.1.074l4.04,13.122a.105.105,0,0,1-.1.137m-7.485-.211H601.5l-3.891-12.638Z" transform="translate(-527.261 -432.833)" fill="#c0d8fb"/>
        <path id="Trazado_696565" data-name="Trazado 696565" d="M588.046,675.241h-10.97a.106.106,0,0,1-.069-.186l5.392-4.633-5.392-4.633a.105.105,0,0,1,.069-.185h10.97a.105.105,0,0,1,.069.185l-5.392,4.633,5.392,4.633a.106.106,0,0,1-.069.186m-10.685-.211h10.4l-5.2-4.468Zm0-9.214,5.2,4.468,5.2-4.468Z" transform="translate(-512.218 -590.905)" fill="#c0d8fb"/>
        <path id="Trazado_696566" data-name="Trazado 696566" d="M588.046,759.226h-10.97a.106.106,0,0,1-.069-.186l5.392-4.633-5.392-4.633a.105.105,0,0,1,.069-.186h10.97a.106.106,0,0,1,.069.186l-5.392,4.633,5.392,4.633a.106.106,0,0,1-.069.186m-10.685-.211h10.4l-5.2-4.468Zm0-9.214,5.2,4.468,5.2-4.468Z" transform="translate(-512.218 -665.465)" fill="#c0d8fb"/>
        <path id="Trazado_696567" data-name="Trazado 696567" d="M588.046,843.211h-10.97a.105.105,0,0,1-.069-.186l5.392-4.633-5.392-4.633a.105.105,0,0,1,.069-.186h10.97a.106.106,0,0,1,.069.186l-5.392,4.633,5.392,4.633a.106.106,0,0,1-.069.186M577.361,843h10.4l-5.2-4.468Zm0-9.214,5.2,4.468,5.2-4.468Z" transform="translate(-512.218 -740.024)" fill="#c0d8fb"/>
        <path id="Trazado_696568" data-name="Trazado 696568" d="M588.046,927.2h-10.97a.106.106,0,0,1-.069-.186l5.392-4.633-5.392-4.633a.106.106,0,0,1,.069-.186h10.97a.106.106,0,0,1,.069.186l-5.392,4.633,5.392,4.633a.106.106,0,0,1-.069.186m-10.685-.211h10.4l-5.2-4.468Zm0-9.214,5.2,4.468,5.2-4.468Z" transform="translate(-512.218 -814.584)" fill="#c0d8fb"/>
        <path id="Trazado_696569" data-name="Trazado 696569" d="M588.046,1011.182h-10.97a.105.105,0,0,1-.069-.186l5.392-4.633-5.392-4.633a.105.105,0,0,1,.069-.186h10.97a.106.106,0,0,1,.069.186l-5.392,4.633,5.392,4.633a.106.106,0,0,1-.069.186m-10.685-.211h10.4l-5.2-4.468Zm0-9.214,5.2,4.468,5.2-4.468Z" transform="translate(-512.218 -889.145)" fill="#c0d8fb"/>
        <path id="Trazado_696570" data-name="Trazado 696570" d="M579.2,1179.153H565.692a.106.106,0,0,1-.064-.189l6.65-5.117-5.372-4.141a.106.106,0,0,1,.064-.189h10.97a.106.106,0,0,1,.064.189l-5.38,4.141,6.64,5.117a.106.106,0,0,1-.064.189m-13.2-.211h12.887l-6.439-4.962Zm1.277-9.214,5.171,3.986,5.179-3.986Z" transform="translate(-502.112 -1038.264)" fill="#c0d8fb"/>
        <path id="Trazado_696571" data-name="Trazado 696571" d="M570.323,1263.139H554.309a.105.105,0,0,1-.057-.194l7.881-5.024-6.6-4.223a.106.106,0,0,1,.057-.195h13.507a.106.106,0,0,1,.057.195l-6.625,4.224,7.855,5.024a.106.106,0,0,1-.057.194m-15.652-.211h15.291l-7.633-4.882Zm1.277-9.214,6.381,4.082,6.4-4.082Z" transform="translate(-492.006 -1112.825)" fill="#c0d8fb"/>
        <path id="Trazado_696572" data-name="Trazado 696572" d="M561.507,1347.124H542.925a.105.105,0,0,1-.051-.2l9.117-4.97-7.84-4.27a.106.106,0,0,1,.051-.2h16.014a.106.106,0,0,1,.05.2l-7.834,4.27,9.124,4.97a.105.105,0,0,1-.05.2m-18.167-.211h17.752l-8.879-4.836Zm1.278-9.214,7.6,4.137,7.59-4.137Z" transform="translate(-481.9 -1187.384)" fill="#c0d8fb"/>
        <path id="Trazado_696573" data-name="Trazado 696573" d="M553.492,1431.109H532.544a.105.105,0,0,1-.045-.2l10.264-4.9-9.1-4.335a.106.106,0,0,1,.045-.2h18.581a.106.106,0,0,1,.046.2l-9.082,4.335,10.283,4.9a.105.105,0,0,1-.045.2m-20.481-.211h20.014l-10.016-4.772Zm1.166-9.214,8.832,4.208,8.816-4.208Z" transform="translate(-472.684 -1261.944)" fill="#c0d8fb"/>
        <path id="Trazado_696574" data-name="Trazado 696574" d="M477.676,843.542a.106.106,0,0,1-.071-.028l-4.573-4.157.142-.156,4.487,4.079,7.057-9.333.169.127L477.76,843.5a.106.106,0,0,1-.074.042h-.01" transform="translate(-419.945 -740.355)" fill="#c0d8fb"/>
        <path id="Trazado_696575" data-name="Trazado 696575" d="M683.74,843.48a.106.106,0,0,1-.078-.034l-8.7-9.426.155-.143,8.629,9.352,4.583-3.749.134.163-4.66,3.812a.1.1,0,0,1-.067.024" transform="translate(-599.216 -740.293)" fill="#c0d8fb"/>
        <rect id="Rectángulo_339024" data-name="Rectángulo 339024" width="14.463" height="0.211" transform="matrix(0.759, -0.651, 0.651, 0.759, 64.784, 131.271)" fill="#c0d8fb"/>
        <path id="Trazado_696576" data-name="Trazado 696576" d="M606.3,1095.433l-7.988-5.861-9.923,5.784a.106.106,0,0,1-.122-.011l-10.97-9.426.137-.16,10.913,9.377,9.918-5.78a.106.106,0,0,1,.116.006l8.044,5.9Z" transform="translate(-512.509 -963.906)" fill="#c0d8fb"/>
        <path id="Trazado_696577" data-name="Trazado 696577" d="M455.244,1121.159l-.163-.134,5.148-6.229a.1.1,0,0,1,.08-.039.1.1,0,0,1,.081.036l5.347,6.146-.159.139-5.265-6.052Z" transform="translate(-404.008 -989.65)" fill="#c0d8fb"/>
        <path id="Trazado_696578" data-name="Trazado 696578" d="M524.993,611.542a.107.107,0,0,1-.048-.012L518.3,608.1l.1-.188,6.526,3.371,1.867-6.736a.106.106,0,0,1,.165-.056l9.02,6.824,7.894-3.281.081.195L536,611.534a.105.105,0,0,1-.1-.013l-8.944-6.767-1.86,6.711a.106.106,0,0,1-.1.077" transform="translate(-460.135 -536.632)" fill="#c0d8fb"/>
        <path id="Trazado_696579" data-name="Trazado 696579" d="M577.484,611.522l-.123-.171,9.525-6.861a.1.1,0,0,1,.1-.013.106.106,0,0,1,.065.077l1.445,6.861-.207.043-1.412-6.7Z" transform="translate(-512.565 -536.632)" fill="#c0d8fb"/>
        <path id="Trazado_696580" data-name="Trazado 696580" d="M601.766,552.747l-3.807-4.283-3.657,4.282-.161-.137,3.676-4.3-1.883-2.118a.106.106,0,0,1,.079-.176h3.812a.106.106,0,0,1,.08.174L598.1,548.3l3.827,4.305Zm-5.518-6.526,1.707,1.921,1.64-1.921Z" transform="translate(-527.462 -484.733)" fill="#c0d8fb"/>
        <path id="Trazado_696581" data-name="Trazado 696581" d="M983,457.574c-.2-.795-.317-.871-.317-.871s-7.91.442-8.654.451-10.894-2.733-10.894-2.733L957.919,460s14.28,1.417,16.164,1.357c3.113-.1,8.9-2.625,8.9-2.625a2.275,2.275,0,0,0,.015-1.154" transform="translate(-850.414 -403.423)" fill="#77a4e5"/>
        <path id="Trazado_696582" data-name="Trazado 696582" d="M1160.49,887.425s-.145,3.193.5,3.469,8.085-.24,8.085-.24-.052-.932-1.346-1.068a6.081,6.081,0,0,1-4.063-2.441c-1.365-2.005-3.172.28-3.172.28" transform="translate(-1030.238 -786.852)" fill="#2c3a64"/>
        <path id="Trazado_696583" data-name="Trazado 696583" d="M954.776,647.456s10.4,8.954,11.741,11.844,5.469,15.913,5.469,15.913a8.067,8.067,0,0,1-3.461.814,3.477,3.477,0,0,1-1.766-.365s-6.024-11.817-6.551-12.957-13.92-5.582-17.6-12.314Z" transform="translate(-836.822 -574.794)" fill="#1d3f77"/>
        <rect id="Rectángulo_339025" data-name="Rectángulo 339025" width="6.132" height="164.563" transform="translate(131.469 19.515)" fill="#adc8fe"/>
        <rect id="Rectángulo_339026" data-name="Rectángulo 339026" width="80.243" height="4.046" transform="translate(93.99 23.994)" fill="#adc8fe"/>
        <rect id="Rectángulo_339027" data-name="Rectángulo 339027" width="1.323" height="8.958" transform="translate(97.016 15.036)" fill="#adc8fe"/>
        <path id="Trazado_696584" data-name="Trazado 696584" d="M838.474,143.772c0-.453,1.623-.821,3.626-.821s3.626.368,3.626.821-1.623.821-3.626.821-3.626-.368-3.626-.821" transform="translate(-744.374 -126.908)" fill="#adc8fe"/>
        <path id="Trazado_696585" data-name="Trazado 696585" d="M838.474,129.142c0-.453,1.623-.821,3.626-.821s3.626.368,3.626.821-1.623.821-3.626.821-3.626-.368-3.626-.821" transform="translate(-744.374 -113.92)" fill="#adc8fe"/>
        <path id="Trazado_696586" data-name="Trazado 696586" d="M838.474,114.512c0-.453,1.623-.821,3.626-.821s3.626.368,3.626.821-1.623.821-3.626.821-3.626-.368-3.626-.821" transform="translate(-744.374 -100.932)" fill="#adc8fe"/>
        <path id="Trazado_696587" data-name="Trazado 696587" d="M838.474,99.881c0-.453,1.623-.821,3.626-.821s3.626.368,3.626.821-1.623.821-3.626.821-3.626-.368-3.626-.821" transform="translate(-744.374 -87.943)" fill="#adc8fe"/>
        <rect id="Rectángulo_339028" data-name="Rectángulo 339028" width="4.4" height="5.587" transform="translate(95.478 11.568)" fill="#adc8fe"/>
        <rect id="Rectángulo_339029" data-name="Rectángulo 339029" width="1.323" height="8.958" transform="translate(133.402 15.036)" fill="#adc8fe"/>
        <path id="Trazado_696588" data-name="Trazado 696588" d="M1162.692,143.772c0-.453,1.623-.821,3.626-.821s3.626.368,3.626.821-1.624.821-3.626.821-3.626-.368-3.626-.821" transform="translate(-1032.206 -126.908)" fill="#adc8fe"/>
        <path id="Trazado_696589" data-name="Trazado 696589" d="M1162.692,129.142c0-.453,1.623-.821,3.626-.821s3.626.368,3.626.821-1.624.821-3.626.821-3.626-.368-3.626-.821" transform="translate(-1032.206 -113.92)" fill="#adc8fe"/>
        <path id="Trazado_696590" data-name="Trazado 696590" d="M1162.692,114.512c0-.453,1.623-.821,3.626-.821s3.626.368,3.626.821-1.624.821-3.626.821-3.626-.368-3.626-.821" transform="translate(-1032.206 -100.932)" fill="#adc8fe"/>
        <path id="Trazado_696591" data-name="Trazado 696591" d="M1162.692,99.881c0-.453,1.623-.821,3.626-.821s3.626.368,3.626.821-1.624.821-3.626.821-3.626-.368-3.626-.821" transform="translate(-1032.206 -87.943)" fill="#adc8fe"/>
        <rect id="Rectángulo_339030" data-name="Rectángulo 339030" width="4.4" height="5.587" transform="translate(131.864 11.568)" fill="#adc8fe"/>
        <rect id="Rectángulo_339031" data-name="Rectángulo 339031" width="1.323" height="8.958" transform="translate(169.898 15.036)" fill="#adc8fe"/>
        <path id="Trazado_696592" data-name="Trazado 696592" d="M1487.885,143.772c0-.453,1.623-.821,3.626-.821s3.626.368,3.626.821-1.623.821-3.626.821-3.626-.368-3.626-.821" transform="translate(-1320.903 -126.908)" fill="#adc8fe"/>
        <path id="Trazado_696593" data-name="Trazado 696593" d="M1487.885,129.142c0-.453,1.623-.821,3.626-.821s3.626.368,3.626.821-1.623.821-3.626.821-3.626-.368-3.626-.821" transform="translate(-1320.903 -113.92)" fill="#adc8fe"/>
        <path id="Trazado_696594" data-name="Trazado 696594" d="M1487.885,114.512c0-.453,1.623-.821,3.626-.821s3.626.368,3.626.821-1.623.821-3.626.821-3.626-.368-3.626-.821" transform="translate(-1320.903 -100.932)" fill="#adc8fe"/>
        <path id="Trazado_696595" data-name="Trazado 696595" d="M1487.885,99.881c0-.453,1.623-.821,3.626-.821s3.626.368,3.626.821-1.623.821-3.626.821-3.626-.368-3.626-.821" transform="translate(-1320.903 -87.943)" fill="#adc8fe"/>
        <rect id="Rectángulo_339032" data-name="Rectángulo 339032" width="4.4" height="5.587" transform="translate(168.36 11.568)" fill="#adc8fe"/>
        <path id="Trazado_696596" data-name="Trazado 696596" d="M1018.971,247.992,996.238,229.02l.838-1,21.888,18.267,22.241-18.876.847.99Z" transform="translate(-884.432 -201.892)" fill="#adc8fe"/>
        <rect id="Rectángulo_339033" data-name="Rectángulo 339033" width="16.401" height="20.091" transform="translate(126.381 36.644)" fill="#2a4e96"/>
        <path id="Trazado_696597" data-name="Trazado 696597" d="M1044.624,629.419a.622.622,0,0,0-.183-.049l-.424-.046a.663.663,0,0,0-.579.232l-.636.754.885,1.235,1.021-.649a.611.611,0,0,0,.28-.449.411.411,0,0,0,.005-.071v-.391a.614.614,0,0,0-.37-.565m-.067,1.241-.8.507-.605-.843.5-.589a.384.384,0,0,1,.333-.133l.426.046a.338.338,0,0,1,.3.336v.391a.309.309,0,0,1-.031.138.32.32,0,0,1-.126.147" transform="translate(-925.771 -558.693)" fill="#1d3f77"/>
        <path id="Trazado_696598" data-name="Trazado 696598" d="M1072.736,576.444v1.488s-15.621,4.886-18.383,5.572c-.132.032-.234.056-.3.068h0a.308.308,0,0,0,.031-.138v-.391a.338.338,0,0,0-.3-.336l-.426-.046.639-.183c2.954-.851,15.3-4.439,18.747-6.033" transform="translate(-935.135 -511.751)" fill="#f99746"/>
        <path id="Trazado_696599" data-name="Trazado 696599" d="M1116.35,912.245s-.673,3.125-.086,3.5,8.013,1.095,8.013,1.095.1-.928-1.15-1.275a6.07,6.07,0,0,1-3.6-3.077c-1.013-2.2-3.175-.246-3.175-.246" transform="translate(-990.775 -809.156)" fill="#2c3a64"/>
        <path id="Trazado_696600" data-name="Trazado 696600" d="M961.317,399.9s3.534,3.973,6.2,3.473c0,0-.728-.848-1.539-1.607-.242-.227-.17-.761-.082-1.08q.074-.269.134-.509a15.819,15.819,0,0,0,.34-1.645l-1.794-1.83-1.217-1.242a5.447,5.447,0,0,1-.313,1.629,10.238,10.238,0,0,1-1.725,2.812" transform="translate(-853.431 -351.08)" fill="#ffb27d"/>
        <path id="Trazado_696601" data-name="Trazado 696601" d="M976.689,406.913A5,5,0,0,0,979.674,410a15.83,15.83,0,0,0,.34-1.645l-1.794-1.83a5.132,5.132,0,0,0-1.53.387" transform="translate(-867.078 -360.903)" fill="#ed975d"/>
        <path id="Trazado_696602" data-name="Trazado 696602" d="M977.624,365.948s-4.323.2-4.4-2.487-.694-4.466,2.062-4.7,3.324.769,3.57,1.658-.105,5.413-1.228,5.534" transform="translate(-863.896 -318.463)" fill="#ffb27d"/>
        <path id="Trazado_696603" data-name="Trazado 696603" d="M929.181,448.831q-.024-.4-.039-.81a24.321,24.321,0,0,0-.489-4.1,18.589,18.589,0,0,0-.808-2.832,9,9,0,0,0-1.756-2.937c-.006-.006-1.163-1.186-1.169-1.19a6.287,6.287,0,0,1-4.81-1.936s-6.656,5.75-4.92,18.12c0,0,.167.894.461,2.181.064.279.134.577.21.889.512,2.119,13.531-3.84,13.319-7.385" transform="translate(-812.224 -386.203)" fill="#afcdfb"/>
        <path id="Trazado_696604" data-name="Trazado 696604" d="M949.85,345.889c-.049-.039-.148-.061-.355-.035a.84.84,0,0,1,.365-.178,1.061,1.061,0,0,1,.523-1.048.633.633,0,0,0-.219.5c.465-.694,1.61-1.342,5.044-1.671,4.525-.434,3.57,2.717,3.054,3.163s-2.138-.24-3.2.037-.985,1.886-1.311,2.167-.251-.127-.785-.265-.433.7-.195,1.211-.313,1.343-.313,1.343l-.819-.626c-.819-.626-2.03-3.676-1.839-4.406.017-.065.033-.13.051-.2" transform="translate(-842.935 -304.879)" fill="#2b478b"/>
        <path id="Trazado_696605" data-name="Trazado 696605" d="M939.583,531.173s1.868,6.284,3.984,7.3,1.993-4.362,1.993-4.362Z" transform="translate(-834.136 -471.561)" fill="#77a4e5"/>
        <path id="Trazado_696606" data-name="Trazado 696606" d="M937.572,508.964c-3.356-1.488-2.247-8.631-2.459-12.175-.016-.266-.029-.535-.039-.81a24.319,24.319,0,0,0-.489-4.1,18.611,18.611,0,0,0-.809-2.832l-4.64.754a1.785,1.785,0,0,0-1.5,1.825c.084,2.307-.126,6.589-2.566,8.773a43.275,43.275,0,0,1-3.487,2.887c.064.279.134.577.21.889.512,2.118,1.083,4.814,2.3,6.356.939,1.189,13.835-1.407,13.477-1.566" transform="translate(-818.157 -434.161)" fill="#2a4e96"/>
        <path id="Trazado_696607" data-name="Trazado 696607" d="M953.583,439.05a7.907,7.907,0,0,1,2.954,2.689,12.671,12.671,0,0,1,1.946,3.674l-.77.171a11.481,11.481,0,0,0-4.6-6.006s.009-.076.465-.527" transform="translate(-846.152 -389.777)" fill="#2a4e96"/>
        <path id="Trazado_696608" data-name="Trazado 696608" d="M1136.943,443.053a21.329,21.329,0,0,1,1.012-2.068,6.674,6.674,0,0,1,1.423-1.064c.083.043.115.373-.088.565-.143.136-.311.26-.223.274s.487-.616.8-.409,1.061,1.128.583,1.85-2.3,1.491-2.4,1.6c-.825.929-1.108-.749-1.108-.749" transform="translate(-1009.347 -390.548)" fill="#ffb27d"/>
        <path id="Trazado_696609" data-name="Trazado 696609" d="M953.583,467.839s-8.347,7.378-9.137,7.465c-1.26.139-8.3-6.263-8.3-6.263a2.356,2.356,0,0,0-3-.813,5.194,5.194,0,0,0-2.575,2.833s-.607,2.122.447,3.39c2.334,2.81,11.248,5.636,13.906,5.3,3.428-.437,9.78-9.769,9.78-9.769a1.57,1.57,0,0,0-.019-1.391,2.635,2.635,0,0,0-1.108-.749" transform="translate(-825.987 -415.335)" fill="#afcdfb"/>
        <path id="Trazado_696610" data-name="Trazado 696610" d="M958.382,670.015a8.075,8.075,0,0,1-3.548.233,3.479,3.479,0,0,1-1.681-.652s-.36-1.144-.873-2.777q-.118-.379-.248-.788l-.349-1.115q-.122-.389-.247-.79c-1.122-3.582-2.412-7.719-2.594-8.386-.331-1.211-12.8-7.8-15.312-15.044l12.44-2.5s8.82,12.154,9.661,15.224c.448,1.638,1.2,6.256,1.807,10.2q.061.391.118.772c.059.386.115.763.171,1.126q.059.4.115.77c.322,2.172.541,3.722.541,3.722" transform="translate(-828.762 -566.573)" fill="#2a4e96"/>
        <path id="Trazado_696611" data-name="Trazado 696611" d="M951.344,638.2a24.368,24.368,0,0,1-11.761,4.42,5.159,5.159,0,0,0,1.856,2.322s7.483-1.129,10.651-5.7Z" transform="translate(-834.136 -566.576)" fill="#f99746"/>
        <path id="Trazado_696612" data-name="Trazado 696612" d="M1107.328,946.735a.358.358,0,0,1-.045,0l-10.046-1.315a.349.349,0,1,1,.091-.692l9.968,1.3,4.024-1.291a.349.349,0,1,1,.215.664l-4.1,1.315a.356.356,0,0,1-.107.017" transform="translate(-973.826 -838.699)" fill="#19243f"/>
        <path id="Trazado_696613" data-name="Trazado 696613" d="M1099.2,865.547a16.562,16.562,0,0,1-4.459.565c-.589,0-1.078-.025-1.414-.046q-.122-.389-.247-.79l.1.007a17.465,17.465,0,0,0,5.9-.508q.061.391.118.772" transform="translate(-970.409 -767.724)" fill="#fff"/>
        <path id="Trazado_696614" data-name="Trazado 696614" d="M1104.2,882.458a16.57,16.57,0,0,1-4.42.555c-.445,0-.832-.014-1.142-.029q-.117-.379-.248-.788a17.287,17.287,0,0,0,5.695-.508c.039.265.077.522.115.77" transform="translate(-975.118 -782.739)" fill="#fff"/>
        <rect id="Rectángulo_339034" data-name="Rectángulo 339034" width="12.634" height="20.091" transform="translate(130.147 36.644)" fill="#233862"/>
        <rect id="Rectángulo_339035" data-name="Rectángulo 339035" width="3.528" height="95.034" transform="translate(237.703 89.706)" fill="#d8e6fb"/>
        <rect id="Rectángulo_339036" data-name="Rectángulo 339036" width="46.163" height="2.336" transform="translate(216.142 92.293)" fill="#d8e6fb"/>
        <rect id="Rectángulo_339037" data-name="Rectángulo 339037" width="0.761" height="5.173" transform="translate(217.882 87.12)" fill="#d8e6fb"/>
        <path id="Trazado_696615" data-name="Trazado 696615" d="M1926.484,781.935c0-.262.934-.474,2.086-.474s2.086.212,2.086.474-.934.474-2.086.474-2.086-.212-2.086-.474" transform="translate(-1710.28 -693.76)" fill="#d8e6fb"/>
        <path id="Trazado_696616" data-name="Trazado 696616" d="M1926.484,773.486c0-.262.934-.474,2.086-.474s2.086.212,2.086.474-.934.474-2.086.474-2.086-.212-2.086-.474" transform="translate(-1710.28 -686.259)" fill="#d8e6fb"/>
        <path id="Trazado_696617" data-name="Trazado 696617" d="M1926.484,765.037c0-.262.934-.474,2.086-.474s2.086.212,2.086.474-.934.474-2.086.474-2.086-.212-2.086-.474" transform="translate(-1710.28 -678.758)" fill="#d8e6fb"/>
        <path id="Trazado_696618" data-name="Trazado 696618" d="M1926.484,756.588c0-.262.934-.474,2.086-.474s2.086.212,2.086.474-.934.474-2.086.474-2.086-.212-2.086-.474" transform="translate(-1710.28 -671.257)" fill="#d8e6fb"/>
        <rect id="Rectángulo_339038" data-name="Rectángulo 339038" width="2.531" height="3.226" transform="translate(216.997 85.117)" fill="#d8e6fb"/>
        <rect id="Rectángulo_339039" data-name="Rectángulo 339039" width="0.761" height="5.173" transform="translate(238.815 87.12)" fill="#d8e6fb"/>
        <path id="Trazado_696619" data-name="Trazado 696619" d="M2113,781.935c0-.262.934-.474,2.086-.474s2.086.212,2.086.474-.934.474-2.086.474-2.086-.212-2.086-.474" transform="translate(-1875.865 -693.76)" fill="#d8e6fb"/>
        <path id="Trazado_696620" data-name="Trazado 696620" d="M2113,773.486c0-.262.934-.474,2.086-.474s2.086.212,2.086.474-.934.474-2.086.474-2.086-.212-2.086-.474" transform="translate(-1875.865 -686.259)" fill="#d8e6fb"/>
        <path id="Trazado_696621" data-name="Trazado 696621" d="M2113,765.037c0-.262.934-.474,2.086-.474s2.086.212,2.086.474-.934.474-2.086.474-2.086-.212-2.086-.474" transform="translate(-1875.865 -678.758)" fill="#d8e6fb"/>
        <path id="Trazado_696622" data-name="Trazado 696622" d="M2113,756.588c0-.262.934-.474,2.086-.474s2.086.212,2.086.474-.934.474-2.086.474-2.086-.212-2.086-.474" transform="translate(-1875.865 -671.257)" fill="#d8e6fb"/>
        <rect id="Rectángulo_339040" data-name="Rectángulo 339040" width="2.531" height="3.226" transform="translate(237.93 85.117)" fill="#d8e6fb"/>
        <rect id="Rectángulo_339041" data-name="Rectángulo 339041" width="0.761" height="5.173" transform="translate(259.81 87.12)" fill="#d8e6fb"/>
        <path id="Trazado_696623" data-name="Trazado 696623" d="M2300.083,781.935c0-.262.934-.474,2.086-.474s2.086.212,2.086.474-.934.474-2.086.474-2.086-.212-2.086-.474" transform="translate(-2041.95 -693.76)" fill="#d8e6fb"/>
        <path id="Trazado_696624" data-name="Trazado 696624" d="M2300.083,773.486c0-.262.934-.474,2.086-.474s2.086.212,2.086.474-.934.474-2.086.474-2.086-.212-2.086-.474" transform="translate(-2041.95 -686.259)" fill="#d8e6fb"/>
        <path id="Trazado_696625" data-name="Trazado 696625" d="M2300.083,765.037c0-.262.934-.474,2.086-.474s2.086.212,2.086.474-.934.474-2.086.474-2.086-.212-2.086-.474" transform="translate(-2041.95 -678.758)" fill="#d8e6fb"/>
        <path id="Trazado_696626" data-name="Trazado 696626" d="M2300.083,756.588c0-.262.934-.474,2.086-.474s2.086.212,2.086.474-.934.474-2.086.474-2.086-.212-2.086-.474" transform="translate(-2041.95 -671.257)" fill="#d8e6fb"/>
        <rect id="Rectángulo_339042" data-name="Rectángulo 339042" width="2.531" height="3.226" transform="translate(258.925 85.117)" fill="#d8e6fb"/>
        <path id="Trazado_696627" data-name="Trazado 696627" d="M2030.322,842.121l-13.078-10.956.482-.576,12.592,10.549,12.8-10.9.487.572Z" transform="translate(-1790.853 -737.062)" fill="#d8e6fb"/>
        <rect id="Rectángulo_339043" data-name="Rectángulo 339043" width="27.561" height="66.615" transform="translate(115.887 117.281)" fill="#adc8fe"/>
        <rect id="Rectángulo_339044" data-name="Rectángulo 339044" width="10.481" height="66.615" transform="translate(132.966 117.281)" fill="#8cb4f4"/>
        <rect id="Rectángulo_339045" data-name="Rectángulo 339045" width="5.58" height="9.905" transform="translate(124.794 119.582)" fill="#4786d1"/>
        <rect id="Rectángulo_339046" data-name="Rectángulo 339046" width="5.58" height="9.905" transform="translate(123.382 119.582)" fill="#699ae2"/>
        <path id="Trazado_696628" data-name="Trazado 696628" d="M1048.9,1189.992l-.035-.136c.018,0,1.757-.483,2.029-3.337.226-2.369.61-3.607,1.286-4.14a1.4,1.4,0,0,1,1.1-.268,3.26,3.26,0,0,1,1.573,1.133c.995,1.017,2.233,2.282,4.423,1.689,3.359-.909,4.76-4.508,4.774-4.544l.131.05c-.014.037-1.442,3.7-4.868,4.63-2.269.614-3.539-.684-4.56-1.726a3.187,3.187,0,0,0-1.493-1.092,1.245,1.245,0,0,0-1,.239c-.635.5-1.015,1.747-1.234,4.043a4.46,4.46,0,0,1-1.166,2.846,2.337,2.337,0,0,1-.968.614" transform="translate(-931.15 -1047.917)" fill="#ebf3fa"/>
        <path id="Trazado_696629" data-name="Trazado 696629" d="M1119.593,1168.478h-8.242v-14.693h.14v14.553h8.1Z" transform="translate(-986.627 -1024.299)" fill="#ebf3fa"/>
        <path id="Trazado_696630" data-name="Trazado 696630" d="M1130.49,1166.883h-6.864v-13.1h.14v12.958h6.724Z" transform="translate(-997.524 -1024.299)" fill="#ebf3fa"/>
        <path id="Trazado_696631" data-name="Trazado 696631" d="M1145.542,1165.045h-4.962v-11.259h.14V1164.9h4.821Z" transform="translate(-1012.576 -1024.299)" fill="#ebf3fa"/>
        <path id="Trazado_696632" data-name="Trazado 696632" d="M1087.916,1372.836H1075.67v-15.067h12.246v.14H1075.81V1372.7h12.106Z" transform="translate(-954.95 -1205.389)" fill="#ebf3fa"/>
        <path id="Trazado_696633" data-name="Trazado 696633" d="M1103.206,1381.133h-10.313v-12.124h10.313v.14h-10.173v11.844h10.173Z" transform="translate(-970.24 -1215.369)" fill="#ebf3fa"/>
        <path id="Trazado_696634" data-name="Trazado 696634" d="M1119.593,1393.882h-8.242v-8.013h8.242v.14h-8.1v7.733h8.1Z" transform="translate(-986.627 -1230.336)" fill="#ebf3fa"/>
        <rect id="Rectángulo_339047" data-name="Rectángulo 339047" width="13.365" height="8.28" transform="translate(119.601 171.908)" fill="#699ae2"/>
        <path id="Trazado_696635" data-name="Trazado 696635" d="M1082.676,1510.9h-.14v-2.639h11.476v.14h-11.335Z" transform="translate(-961.046 -1338.99)" fill="#699ae2"/>
        <path id="Trazado_696636" data-name="Trazado 696636" d="M1109.514,1521.061h-.14v-1.355h8.464v.14h-8.324Z" transform="translate(-984.871 -1349.153)" fill="#699ae2"/>
        <path id="Trazado_696637" data-name="Trazado 696637" d="M1126.663,1071.683a.219.219,0,1,1-.219-.219.219.219,0,0,1,.219.219" transform="translate(-999.832 -951.216)" fill="#adc8fe"/>
        <path id="Trazado_696638" data-name="Trazado 696638" d="M1133.919,1071.683a.219.219,0,1,1-.219-.219.219.219,0,0,1,.219.219" transform="translate(-1006.273 -951.216)" fill="#f99746"/>
        <path id="Trazado_696639" data-name="Trazado 696639" d="M1140.473,1071.683a.219.219,0,1,1-.219-.219.219.219,0,0,1,.219.219" transform="translate(-1012.092 -951.216)" fill="#fff"/>
        <rect id="Rectángulo_339048" data-name="Rectángulo 339048" width="4.308" height="2.359" transform="translate(124.292 120.983)" fill="#4786d1"/>
        <path id="Trazado_696640" data-name="Trazado 696640" d="M1084.943,1082.054a8.02,8.02,0,0,1,1.358-2.042,3.23,3.23,0,0,1,2.3-.242c.193.383-1.3.98-1.476,1.332s.545.316-.006.927a5.916,5.916,0,0,1-1.579,1.009Z" transform="translate(-963.182 -958.493)" fill="#ffb27d"/>
        <path id="Trazado_696641" data-name="Trazado 696641" d="M929.411,1094.294c-.394-.614-.512-.646-.512-.646s-6.522,2.6-7.144,2.82-9.927.765-9.927.765l-2.808,6.175s12.4-2.829,13.966-3.411c2.588-.961,6.74-4.725,6.74-4.725a2.035,2.035,0,0,0-.314-.978" transform="translate(-807.002 -970.911)" fill="#e58638"/>
        <path id="Trazado_696642" data-name="Trazado 696642" d="M946.352,1606.493a8.763,8.763,0,0,0,.567,2.829h6.542a1.164,1.164,0,0,0-1.044-.935,4.789,4.789,0,0,1-3.39-2.273c-.659-1.438-2.675.38-2.675.38" transform="translate(-840.145 -1425.371)" fill="#163560"/>
        <path id="Trazado_696643" data-name="Trazado 696643" d="M841.585,1602.011s-.412,3.474.148,3.525c.074.007,2.695,0,3.407.109a17.864,17.864,0,0,0,3.1.022.308.308,0,0,0,.278-.463,1.24,1.24,0,0,0-.889-.57,4.793,4.793,0,0,1-3.349-2.333c-.633-1.449-2.7-.29-2.7-.29" transform="translate(-747.006 -1421.832)" fill="#163560"/>
        <path id="Trazado_696644" data-name="Trazado 696644" d="M851.493,1297.633a116.782,116.782,0,0,1-6.359,15.757,72.132,72.132,0,0,0-3.267,8.012q-.134.4-.251.777-.189.6-.338,1.132c-.076.27-.144.527-.207.769a15.453,15.453,0,0,0-.605,3.5,5.76,5.76,0,0,1-2.349.276,10.952,10.952,0,0,1-2.08-.677s.154-1.613.465-3.892c.035-.251.071-.508.109-.775.05-.356.105-.724.163-1.1.039-.254.08-.512.122-.771a45.448,45.448,0,0,1,2.445-9.8c2.227-5.046,2.681-18.856,2.681-18.856Z" transform="translate(-742.211 -1146.993)" fill="#233862"/>
        <path id="Trazado_696645" data-name="Trazado 696645" d="M912.48,1300.136a149.359,149.359,0,0,1-1.4,17.847c-.532,3.781-.819,6.811-.967,9.158q-.025.414-.045.8c-.022.413-.039.8-.053,1.167-.01.276-.018.538-.024.787a30.712,30.712,0,0,0,.069,3.686,1.863,1.863,0,0,1-.289.13h0a5.422,5.422,0,0,1-1.894.293,4.528,4.528,0,0,1-1.076-.127,3.236,3.236,0,0,1-.8-.293s-.248-1.458-.529-3.573c-.035-.254-.069-.516-.1-.787-.046-.359-.091-.731-.137-1.116-.029-.258-.06-.518-.09-.785a51.049,51.049,0,0,1-.35-10.05,13.087,13.087,0,0,0,.074-1.426v0a50,50,0,0,0-1.088-8.746s0-.009-.006-.025c-.614-3.136-1.331-6.034-1.719-7.534-.175-.679-.283-1.072-.283-1.072l.327-.011h0l2.578-.083,7.031-.228.433-.014.35-.011s.011.726-.01,2.017" transform="translate(-800.566 -1152.435)" fill="#2a4e96"/>
        <path id="Trazado_696646" data-name="Trazado 696646" d="M932.356,1077.314l1.742,1.291,2.517-.53c-.035-.23-.2-1.182-.352-2.044-.009-.051-.018-.1-.027-.152-.13-.733-.242-1.364-.242-1.364l-2.351-1.173-.877-.437c0,.016.068.814.077.931a7.532,7.532,0,0,1-.488,3.477" transform="translate(-827.72 -952.496)" fill="#ffb27d"/>
        <path id="Trazado_696647" data-name="Trazado 696647" d="M934.145,1099.206a23.841,23.841,0,0,0-3.791-.9c-.366.121-.583.829-.583.829l5.2,1.482s-.125-1.118-.828-1.415" transform="translate(-825.426 -975.04)" fill="#e58638"/>
        <path id="Trazado_696648" data-name="Trazado 696648" d="M886.781,1128.235c.57,2.606,12.477-5.572,12.319-7.163-.018-.175-.035-.351-.052-.526-.22-2.215-.431-4.382-.445-5.8a19.949,19.949,0,0,0-.406-3.621c-.207-1.052-.461-2.007-.682-2.75a3.037,3.037,0,0,0-1.782-1.953,2.665,2.665,0,0,0-.3-.1,13.485,13.485,0,0,0-3.957-.774c-1.458.429-2.54,3-3.306,6.267-1.434,6.124-1.766,14.722-1.393,16.42" transform="translate(-787.135 -981.449)" fill="#f99746"/>
        <path id="Trazado_696649" data-name="Trazado 696649" d="M937.743,1077.328c.516.988,2.44,1.843,3.243,2.158-.009-.051-.018-.1-.027-.152-.13-.734-.242-1.364-.242-1.364l-2.351-1.173c-.52-.008-.836.124-.623.53" transform="translate(-832.443 -955.951)" fill="#fca56b"/>
        <path id="Trazado_696650" data-name="Trazado 696650" d="M928.162,1030.765s-4.242,1.324-5.025-1.332-1.858-4.273.817-5.231,3.5-.1,3.98.722,1.312,5.427.229,5.84" transform="translate(-818.745 -908.884)" fill="#ffb27d"/>
        <path id="Trazado_696651" data-name="Trazado 696651" d="M913.122,1013.2s-.271,3.09-.909,2.956-1.218-.234-1.125.7.124,2.052-1.845,2.216-3.943-4.959-3.4-5.921c1.56-2.775,9.536-3.335,7.281.05" transform="translate(-804.1 -897.414)" fill="#163560"/>
        <path id="Trazado_696652" data-name="Trazado 696652" d="M938.827,1211.934c-1.179.427.02-1.172,0-1.506-.092-1.466.483-3.318.307-5.082l-7.2-4.307s-1.709,10.826,6.9,10.895" transform="translate(-827.22 -1066.249)" fill="#e58638"/>
        <path id="Trazado_696653" data-name="Trazado 696653" d="M885.241,1178.034c3.075,5.7,3.564,7.878,3.564,7.878,2.676-.3,7.261-5.568,8.716-6.973,0,0,.2-6.477.039-8.067l-2.223-.064s-4.017,1.019-5.059-.364-.591-8.169-.591-8.169l-3.053-.661c-1.434,6.124-2.219,14.89-1.393,16.42" transform="translate(-785.595 -1031.249)" fill="#2a4e96"/>
        <path id="Trazado_696654" data-name="Trazado 696654" d="M1049.178,1201.006a19.091,19.091,0,0,1,1.741-1.077,3.658,3.658,0,0,1,1.23-.108c.042.072.167.292.008.366s-.357.048-.3.1.658-.233.8.072.26,1.351-.442,1.668a8.027,8.027,0,0,1-2.56.067c-1.06.308-.475-1.088-.475-1.088" transform="translate(-931.288 -1065.146)" fill="#ffb27d"/>
        <path id="Trazado_696655" data-name="Trazado 696655" d="M941.324,1137.6s-7.143,1.215-7.776.907c-1.01-.492.392-7.743.392-7.743a2.086,2.086,0,0,0-1.858-2.031,4.615,4.615,0,0,0-3.276.913,3.766,3.766,0,0,0-1.276,2.762c.414,3.22,1.059,9.769,3.211,10.772,2.776,1.295,10.81-3.59,10.81-3.59a1.406,1.406,0,0,0,.229-.937,2.184,2.184,0,0,0-.457-1.054" transform="translate(-823.421 -1002.003)" fill="#f99746"/>
        <path id="Trazado_696656" data-name="Trazado 696656" d="M922.244,1119.516l.592.128s1.251-5.418,5.455-5.444a3.007,3.007,0,0,0-.95-.605c-1.54.413-4.216,1.73-5.1,5.922" transform="translate(-818.743 -988.619)" fill="#2a4e96"/>
        <path id="Trazado_696657" data-name="Trazado 696657" d="M1100.778,1091.036l.715-.922s-.178-.228-.543.044c-.212.158-.782.525-.782.525Z" transform="translate(-976.699 -967.694)" fill="#ffb27d"/>
        <g id="Grupo_972337" data-name="Grupo 972337" transform="translate(94.563 173.649)" opacity="0.5">
          <g id="Grupo_972336" data-name="Grupo 972336">
            <g id="Grupo_972335" data-name="Grupo 972335" clip-path="url(#clip-path-3)">
              <path id="Trazado_696658" data-name="Trazado 696658" d="M847.7,1548.056q-.135.4-.251.777a16.865,16.865,0,0,1-4.186-.583c-.238-.061-.459-.124-.657-.183.039-.253.08-.511.122-.771a16.561,16.561,0,0,0,4.972.76" transform="translate(-842.603 -1547.296)" fill="#fff"/>
            </g>
          </g>
        </g>
        <g id="Grupo_972340" data-name="Grupo 972340" transform="translate(94.291 175.521)" opacity="0.5">
          <g id="Grupo_972339" data-name="Grupo 972339">
            <g id="Grupo_972338" data-name="Grupo 972338" clip-path="url(#clip-path-4)">
              <path id="Trazado_696659" data-name="Trazado 696659" d="M844.958,1564.771q-.114.406-.207.769a17.323,17.323,0,0,1-3.8-.575c-.283-.074-.539-.149-.766-.216.035-.251.071-.509.109-.775a17.232,17.232,0,0,0,4.668.8" transform="translate(-840.181 -1563.974)" fill="#fff"/>
            </g>
          </g>
        </g>
        <path id="Trazado_696660" data-name="Trazado 696660" d="M936.786,1556.722c-.017.276-.032.542-.045.8a17.079,17.079,0,0,1-3.956.228c-.328-.017-.623-.039-.88-.063-.029-.258-.06-.518-.09-.784a17.185,17.185,0,0,0,4.97-.18" transform="translate(-827.241 -1382.015)" fill="#fff"/>
        <path id="Trazado_696661" data-name="Trazado 696661" d="M938.484,1574.235q-.015.414-.024.787a17.406,17.406,0,0,1-3.649.175c-.324-.017-.615-.038-.869-.06-.035-.254-.069-.516-.1-.787a17.7,17.7,0,0,0,4.646-.115" transform="translate(-829.036 -1397.563)" fill="#fff"/>
        <path id="Trazado_696662" data-name="Trazado 696662" d="M1659.738,1260.618l4.793-.06,11.193-46.642-4.792.06Z" transform="translate(-1473.469 -1077.681)" fill="#8cb4f4"/>
        <path id="Trazado_696663" data-name="Trazado 696663" d="M1589.185,1621.29h21.493a2.277,2.277,0,0,0-2.277-2.277h-16.939a2.277,2.277,0,0,0-2.277,2.277" transform="translate(-1410.835 -1437.315)" fill="#8cb4f4"/>
        <path id="Trazado_696664" data-name="Trazado 696664" d="M1432.658,1092.374l-2.065-10.35,0-.022-6.87-34.443-66.775.01,8.939,44.814,12.684,0h.119l14.195,0h.043l14.133,0h.1l14.1,0h11.4Z" transform="translate(-1204.658 -929.994)" fill="#1d3f77"/>
        <path id="Trazado_696665" data-name="Trazado 696665" d="M1442.848,1091.487l-66.774.009-8.939-43.928,66.775-.01Z" transform="translate(-1213.705 -929.993)" fill="#2a4e96"/>
        <path id="Trazado_696666" data-name="Trazado 696666" d="M1489.409,1092.49h-.128l-8.915-43.81h.128Z" transform="translate(-1314.228 -930.989)" fill="#c0d8fb"/>
        <path id="Trazado_696667" data-name="Trazado 696667" d="M1616.2,1092.471h-.128l-8.915-43.81h.128Z" transform="translate(-1426.79 -930.972)" fill="#c0d8fb"/>
        <path id="Trazado_696668" data-name="Trazado 696668" d="M1742.99,1092.454h-.128l-8.915-43.81h.127Z" transform="translate(-1539.351 -930.957)" fill="#c0d8fb"/>
        <path id="Trazado_696669" data-name="Trazado 696669" d="M1869.782,1092.436h-.128l-8.915-43.81h.128Z" transform="translate(-1651.913 -930.941)" fill="#c0d8fb"/>
        <path id="Trazado_696670" data-name="Trazado 696670" d="M1452.62,1139.5l-66.774.01-.025-.12,66.775-.01Z" transform="translate(-1230.293 -1011.513)" fill="#c0d8fb"/>
        <path id="Trazado_696671" data-name="Trazado 696671" d="M1473.8,1243.569l-66.774.01-.024-.12,66.775-.009Z" transform="translate(-1249.093 -1103.9)" fill="#c0d8fb"/>
        <path id="Trazado_696672" data-name="Trazado 696672" d="M1494.97,1347.633l-66.774.01-.025-.12,66.775-.01Z" transform="translate(-1267.891 -1196.285)" fill="#c0d8fb"/>
        <path id="Trazado_696673" data-name="Trazado 696673" d="M1488.9,1131.062l-1.637-1.291,1.112-1.292,1.637,1.291Z" transform="translate(-1320.354 -1001.833)" fill="#c0d8fb"/>
        <path id="Trazado_696674" data-name="Trazado 696674" d="M1510.188,1235.662l-1.637-1.291,1.112-1.291,1.638,1.291Z" transform="translate(-1339.25 -1094.694)" fill="#c0d8fb"/>
        <path id="Trazado_696675" data-name="Trazado 696675" d="M1616.263,1131.044l-1.637-1.291,1.112-1.292,1.637,1.291Z" transform="translate(-1433.42 -1001.817)" fill="#c0d8fb"/>
        <path id="Trazado_696676" data-name="Trazado 696676" d="M1637.548,1235.645l-1.638-1.291,1.112-1.292,1.637,1.291Z" transform="translate(-1452.316 -1094.679)" fill="#c0d8fb"/>
        <path id="Trazado_696677" data-name="Trazado 696677" d="M1743.054,1131.027l-1.637-1.291,1.112-1.292,1.637,1.291Z" transform="translate(-1545.982 -1001.802)" fill="#c0d8fb"/>
        <path id="Trazado_696678" data-name="Trazado 696678" d="M1868.708,1131.008l-1.637-1.291,1.112-1.291,1.637,1.291Z" transform="translate(-1657.534 -1001.785)" fill="#c0d8fb"/>
        <path id="Trazado_696679" data-name="Trazado 696679" d="M1531.255,1339.191l-1.637-1.291,1.112-1.292,1.637,1.291Z" transform="translate(-1357.952 -1186.605)" fill="#c0d8fb"/>
        <path id="Trazado_696680" data-name="Trazado 696680" d="M1658.615,1339.174l-1.637-1.291,1.112-1.292,1.637,1.291Z" transform="translate(-1471.019 -1186.589)" fill="#c0d8fb"/>
        <path id="Trazado_696681" data-name="Trazado 696681" d="M1785.406,1339.157l-1.637-1.291,1.112-1.292,1.637,1.291Z" transform="translate(-1583.581 -1186.574)" fill="#c0d8fb"/>
        <path id="Trazado_696682" data-name="Trazado 696682" d="M1911.058,1339.138l-1.637-1.291,1.112-1.292,1.637,1.291Z" transform="translate(-1695.131 -1186.557)" fill="#c0d8fb"/>
        <path id="Trazado_696683" data-name="Trazado 696683" d="M1889.992,1235.609l-1.637-1.291,1.112-1.291,1.637,1.291Z" transform="translate(-1676.429 -1094.647)" fill="#c0d8fb"/>
        <path id="Trazado_696684" data-name="Trazado 696684" d="M1764.339,1235.626l-1.638-1.291,1.112-1.292,1.638,1.291Z" transform="translate(-1564.878 -1094.662)" fill="#c0d8fb"/>
        <rect id="Rectángulo_339051" data-name="Rectángulo 339051" width="0.814" height="4.313" transform="translate(206.065 130.572) rotate(-14.098)" fill="#adc8fe"/>
        <path id="Trazado_696685" data-name="Trazado 696685" d="M1829.05,1148.122a.02.02,0,0,1,0,0,.7.7,0,0,1-.359.784c-.408.152-.684-.113-.787-.523l-.027-.107c-.035-.143-.367-.026-.415.114a1.173,1.173,0,1,0,1.991-.393c-.116-.131-.427-.053-.4.121" transform="translate(-1622.314 -1019.106)" fill="#adc8fe"/>
        <path id="Trazado_696686" data-name="Trazado 696686" d="M1840.176,1199.137v0a.7.7,0,0,1,.359-.784c.408-.152.684.113.787.523l.027.107c.035.143.367.026.415-.113a1.173,1.173,0,1,0-1.991.393c.116.131.427.053.4-.121" transform="translate(-1633.04 -1062.938)" fill="#adc8fe"/>
        <path id="Trazado_696687" data-name="Trazado 696687" d="M1797.993,1047.983a8.535,8.535,0,0,0-1.448-2.175,3.444,3.444,0,0,0-2.446-.258c-.206.408,1.389,1.044,1.573,1.419s-.58.337.006.988a6.31,6.31,0,0,0,1.683,1.074Z" transform="translate(-1592.736 -928.107)" fill="#ffb27d"/>
        <path id="Trazado_696688" data-name="Trazado 696688" d="M1820.139,1061.021c.42-.654.546-.688.546-.688s6.95,2.772,7.614,3,10.58.814,10.58.814l2.992,6.578s-13.215-3.014-14.884-3.633c-2.759-1.024-7.183-5.033-7.183-5.033a2.165,2.165,0,0,1,.335-1.042" transform="translate(-1615.572 -941.335)" fill="#77a4e5"/>
        <path id="Trazado_696689" data-name="Trazado 696689" d="M1800.052,1057.17a.633.633,0,0,0-.083-.758c-.249-.3-.3.266-.729.126-.354-.117-1.3-.258-.689.237.564.455,1.123,1.067,1.331,1.209s.17-.814.17-.814" transform="translate(-1596.525 -937.776)" fill="#ffb27d"/>
        <path id="Trazado_696690" data-name="Trazado 696690" d="M1916.71,1606.609a9.325,9.325,0,0,1-.6,3.014h-6.972a1.24,1.24,0,0,1,1.113-1,5.106,5.106,0,0,0,3.612-2.422c.7-1.531,2.851.4,2.851.4" transform="translate(-1694.877 -1425.421)" fill="#163560"/>
        <path id="Trazado_696691" data-name="Trazado 696691" d="M2028.19,1603.855s.46,3.038-.137,3.092c-.08.007-2.872,0-3.631.116a19.052,19.052,0,0,1-3.308.024.328.328,0,0,1-.3-.493,1.321,1.321,0,0,1,.947-.608,5.105,5.105,0,0,0,3.569-2.485c.675-1.543,2.857.354,2.857.354" transform="translate(-1793.985 -1423.007)" fill="#163560"/>
        <path id="Trazado_696692" data-name="Trazado 696692" d="M1963.077,1309.743a6.7,6.7,0,0,1-1.669.333,5.021,5.021,0,0,1-1.531-.1,2.454,2.454,0,0,1-.26-.073,24.775,24.775,0,0,0-1.073-4.608q-.108-.354-.231-.739-.161-.5-.35-1.053c-.083-.24-.168-.486-.259-.74-.794-2.233-1.917-5.012-3.5-8.366q-.785-1.666-1.466-3.181a113.052,113.052,0,0,1-5.311-13.605l.171-.1,6.926-4.124,1.164-.692h0l1.833-1.092s.026.783.095,2.054c0,.018,0,.035,0,.054.232,4.263.942,13.859,2.759,17.977,1.107,2.5,1.768,6.6,2.158,10.251.027.258.054.513.079.765q.057.573.1,1.122c.023.259.045.515.063.764.237,2.952.294,5.151.294,5.151" transform="translate(-1728.872 -1128.895)" fill="#e58638"/>
        <path id="Trazado_696693" data-name="Trazado 696693" d="M1933.757,1278.506s-.115.418-.3,1.142c-.415,1.6-1.183,4.7-1.839,8.052a53.227,53.227,0,0,0-1.16,9.319,13.736,13.736,0,0,0,.079,1.517,47.832,47.832,0,0,1-.5,10.332q-.053.39-.105.772c-.054.386-.109.764-.164,1.13-.039.262-.077.518-.117.766-.41,2.626-.788,4.5-.788,4.5s-.164.037-.452.083a15.808,15.808,0,0,1-1.879.194,3.373,3.373,0,0,1-1.294-.271c-.19-.076-.31-.137-.31-.137a35.421,35.421,0,0,0,.055-4.555c0-.122-.01-.247-.015-.374l-.016-.39c-.015-.344-.032-.706-.055-1.085-.013-.248-.03-.5-.046-.767-.163-2.453-.465-5.579-1.009-9.44a158.93,158.93,0,0,1-1.493-19.011c-.022-1.377-.01-2.149-.01-2.149l.372.012.464.015,7.492.243,2.746.089h0Z" transform="translate(-1706.591 -1134.694)" fill="#f99746"/>
        <path id="Trazado_696694" data-name="Trazado 696694" d="M1955.648,1042.934l-1.856,1.375-2.683-.565c.037-.244.214-1.259.375-2.177.01-.054.019-.108.029-.161.138-.782.258-1.453.258-1.453l2.506-1.249.935-.466c0,.017-.073.867-.082.991a8.022,8.022,0,0,0,.52,3.7" transform="translate(-1732.141 -921.719)" fill="#ffb27d"/>
        <path id="Trazado_696695" data-name="Trazado 696695" d="M1945.8,1066.252a25.4,25.4,0,0,1,4.04-.956c.39.129.621.883.621.883l-5.544,1.579s.133-1.191.883-1.507" transform="translate(-1726.64 -945.731)" fill="#77a4e5"/>
        <path id="Trazado_696696" data-name="Trazado 696696" d="M1935.073,1097.174c-.608,2.776-13.3-5.936-13.128-7.63.019-.186.037-.374.056-.56.234-2.359.458-4.668.474-6.174a21.226,21.226,0,0,1,.433-3.857c.22-1.121.491-2.138.727-2.93a3.235,3.235,0,0,1,1.9-2.08,2.758,2.758,0,0,1,.315-.11c1.528-.443,3.643-.992,4.216-.825,1.553.457,2.707,3.19,3.524,6.675,1.528,6.523,1.882,15.682,1.485,17.491" transform="translate(-1706.248 -952.56)" fill="#adc8fe"/>
        <path id="Trazado_696697" data-name="Trazado 696697" d="M1957.91,1042.95c-.55,1.053-2.6,1.964-3.456,2.3.01-.054.02-.108.029-.161.138-.782.257-1.453.257-1.453l2.506-1.249c.554-.009.891.131.664.565" transform="translate(-1735.11 -925.4)" fill="#fca56b"/>
        <path id="Trazado_696698" data-name="Trazado 696698" d="M1941.684,993.351s4.521,1.41,5.355-1.419,1.981-4.552-.871-5.572-3.733-.107-4.241.77-1.4,5.781-.244,6.221" transform="translate(-1723.271 -875.265)" fill="#ffb27d"/>
        <path id="Trazado_696699" data-name="Trazado 696699" d="M1946.546,974.64s.288,3.292.969,3.149,1.3-.249,1.2.743-1.044,2.138,1.054,2.314,5.114-5.235,4.538-6.26c-1.663-2.956-10.163-3.552-7.76.054" transform="translate(-1727.713 -863.047)" fill="#ce6719"/>
        <path id="Trazado_696700" data-name="Trazado 696700" d="M1922.5,1186.33c1.257.454-.022-1.249,0-1.6.1-1.561-.515-3.534-.327-5.413l7.675-4.588s1.821,11.532-7.348,11.6" transform="translate(-1706.417 -1042.889)" fill="#77a4e5"/>
        <path id="Trazado_696701" data-name="Trazado 696701" d="M1934.566,1150.22c-3.277,6.073-3.8,8.391-3.8,8.391-2.852-.325-7.738-5.932-9.288-7.428,0,0-.211-6.9-.042-8.594l2.368-.068s4.282,1.085,5.392-.388.629-8.7.629-8.7l3.254-.7c1.528,6.523,2.364,15.861,1.485,17.491" transform="translate(-1705.741 -1005.606)" fill="#f99746"/>
        <path id="Trazado_696702" data-name="Trazado 696702" d="M1835.494,1174.69a20.3,20.3,0,0,0-1.856-1.147,3.893,3.893,0,0,0-1.311-.115c-.045.077-.178.31-.009.39s.381.051.317.107-.7-.248-.848.077-.276,1.439.472,1.777a8.578,8.578,0,0,0,2.728.071c1.129.328.506-1.159.506-1.159" transform="translate(-1626.111 -1041.713)" fill="#ffb27d"/>
        <path id="Trazado_696703" data-name="Trazado 696703" d="M1861.688,1107.146s7.613,1.294,8.287.966c1.076-.524-.418-8.248-.418-8.248a2.222,2.222,0,0,1,1.98-2.163,4.919,4.919,0,0,1,3.491.972s1.559,1.395,1.36,2.942c-.441,3.43-1.128,10.405-3.422,11.475-2.959,1.379-11.521-3.824-11.521-3.824a1.5,1.5,0,0,1-.244-1,2.325,2.325,0,0,1,.487-1.122" transform="translate(-1652.32 -974.455)" fill="#adc8fe"/>
        <path id="Trazado_696704" data-name="Trazado 696704" d="M1951.356,1087.889l-.631.136s-1.333-5.772-5.813-5.8a3.207,3.207,0,0,1,1.012-.645c1.642.44,4.492,1.843,5.432,6.308" transform="translate(-1726.639 -960.198)" fill="#f99746"/>
        <path id="Trazado_696705" data-name="Trazado 696705" d="M1949.935,1550.93q-.053.39-.106.772a16.229,16.229,0,0,1-4.15-.008c-.333-.041-.631-.087-.886-.129-.013-.248-.03-.5-.046-.767a16.228,16.228,0,0,0,5.188.132" transform="translate(-1726.493 -1376.756)" fill="#fff"/>
        <path id="Trazado_696706" data-name="Trazado 696706" d="M1945.653,1567.3l.016.39.015.374c.256.042.554.086.89.129a16.527,16.527,0,0,0,3.779.054c.039-.248.077-.5.117-.765a16.681,16.681,0,0,1-4.817-.182" transform="translate(-1727.297 -1391.408)" fill="#fff"/>
        <g id="Grupo_972343" data-name="Grupo 972343" transform="translate(228.832 173.045)" opacity="0.5">
          <g id="Grupo_972342" data-name="Grupo 972342">
            <g id="Grupo_972341" data-name="Grupo 972341" clip-path="url(#clip-path-5)">
              <path id="Trazado_696707" data-name="Trazado 696707" d="M2043.906,1542.679a16.365,16.365,0,0,1-3.974.761c-.245.019-.473.03-.679.039-.083-.24-.168-.486-.259-.74a16.269,16.269,0,0,0,4.833-.826c.027.257.054.513.079.765" transform="translate(-2038.995 -1541.914)" fill="#fff"/>
            </g>
          </g>
        </g>
        <g id="Grupo_972346" data-name="Grupo 972346" transform="translate(229.44 174.932)" opacity="0.5">
          <g id="Grupo_972345" data-name="Grupo 972345">
            <g id="Grupo_972344" data-name="Grupo 972344" clip-path="url(#clip-path-6)">
              <path id="Trazado_696708" data-name="Trazado 696708" d="M2048.887,1559.494a16.608,16.608,0,0,1-3.693.672c-.194.015-.377.026-.546.034q-.108-.354-.232-.739a16.424,16.424,0,0,0,4.407-.732c.023.259.045.515.064.764" transform="translate(-2044.416 -1558.73)" fill="#fff"/>
            </g>
          </g>
        </g>
        <path id="Trazado_696709" data-name="Trazado 696709" d="M425.263,1302.256a5.027,5.027,0,0,1,1.014-1.156,2.026,2.026,0,0,1,1.447.04c.088.254-.892.5-1.028.706s.312.241-.081.576a3.72,3.72,0,0,1-1.065.5Z" transform="translate(-377.537 -1154.974)" fill="#ffb27d"/>
        <path id="Trazado_696710" data-name="Trazado 696710" d="M322.738,1308.332c-.194-.414-.265-.444-.265-.444s-4.27,1.077-4.675,1.161-6.234-.347-6.234-.347l-2.257,3.6s7.943-.731,8.964-.963a19.16,19.16,0,0,0,4.581-2.378,1.274,1.274,0,0,0-.114-.634" transform="translate(-274.594 -1161.107)" fill="#77a4e5"/>
        <path id="Trazado_696711" data-name="Trazado 696711" d="M434.324,1304.1c.005,0,.238-.219.467-.426.168-.153.288-.364.36-.422.171-.137.251.234-.031.653a2.373,2.373,0,0,1-.761.684c-.133.067-.036-.488-.036-.488" transform="translate(-385.551 -1156.962)" fill="#ffb27d"/>
        <path id="Trazado_696712" data-name="Trazado 696712" d="M533.668,1417.283l2.82-.035,6.587-27.448-2.821.035Z" transform="translate(-473.776 -1233.826)" fill="#8cb4f4"/>
        <path id="Trazado_696713" data-name="Trazado 696713" d="M492.149,1629.535H504.8a1.34,1.34,0,0,0-1.34-1.34h-9.968a1.34,1.34,0,0,0-1.34,1.34" transform="translate(-436.916 -1445.467)" fill="#8cb4f4"/>
        <path id="Trazado_696714" data-name="Trazado 696714" d="M400.034,1318.273l-1.215-6.091,0-.013-4.043-20.269-39.3.006,5.26,26.373h39.3Z" transform="translate(-315.584 -1146.914)" fill="#1d3f77"/>
        <path id="Trazado_696715" data-name="Trazado 696715" d="M406.032,1317.751l-39.3.005-5.26-25.851,39.3-.006Z" transform="translate(-320.908 -1146.913)" fill="#2a4e96"/>
        <path id="Trazado_696716" data-name="Trazado 696716" d="M433.432,1318.342h-.075l-5.246-25.782h.075Z" transform="translate(-380.064 -1147.499)" fill="#c0d8fb"/>
        <path id="Trazado_696717" data-name="Trazado 696717" d="M508.046,1318.331h-.075l-5.246-25.781h.075Z" transform="translate(-446.305 -1147.49)" fill="#c0d8fb"/>
        <path id="Trazado_696718" data-name="Trazado 696718" d="M582.661,1318.321h-.075l-5.246-25.782h.075Z" transform="translate(-512.546 -1147.481)" fill="#c0d8fb"/>
        <path id="Trazado_696719" data-name="Trazado 696719" d="M657.277,1318.31H657.2l-5.246-25.782h.075Z" transform="translate(-578.788 -1147.471)" fill="#c0d8fb"/>
        <path id="Trazado_696720" data-name="Trazado 696720" d="M411.782,1346.009l-39.3.006-.014-.071,39.3-.005Z" transform="translate(-330.67 -1194.887)" fill="#c0d8fb"/>
        <path id="Trazado_696721" data-name="Trazado 696721" d="M424.244,1407.25l-39.3.005-.014-.071,39.3-.006Z" transform="translate(-341.733 -1249.255)" fill="#c0d8fb"/>
        <path id="Trazado_696722" data-name="Trazado 696722" d="M436.705,1468.49l-39.3.006-.014-.071,39.3-.005Z" transform="translate(-352.796 -1303.623)" fill="#c0d8fb"/>
        <path id="Trazado_696723" data-name="Trazado 696723" d="M433.134,1341.041l-.964-.76.654-.76.964.76Z" transform="translate(-383.669 -1189.19)" fill="#c0d8fb"/>
        <path id="Trazado_696724" data-name="Trazado 696724" d="M445.66,1402.6l-.964-.76.654-.76.964.76Z" transform="translate(-394.789 -1243.838)" fill="#c0d8fb"/>
        <path id="Trazado_696725" data-name="Trazado 696725" d="M508.084,1341.031l-.964-.76.654-.76.964.76Z" transform="translate(-450.207 -1189.181)" fill="#c0d8fb"/>
        <path id="Trazado_696726" data-name="Trazado 696726" d="M520.61,1402.586l-.964-.76.654-.76.964.76Z" transform="translate(-461.328 -1243.828)" fill="#c0d8fb"/>
        <path id="Trazado_696727" data-name="Trazado 696727" d="M582.7,1341.021l-.964-.76.654-.76.964.76Z" transform="translate(-516.449 -1189.172)" fill="#c0d8fb"/>
        <path id="Trazado_696728" data-name="Trazado 696728" d="M656.644,1341.01l-.964-.76.654-.76.964.76Z" transform="translate(-582.095 -1189.162)" fill="#c0d8fb"/>
        <path id="Trazado_696729" data-name="Trazado 696729" d="M458.058,1463.523l-.964-.76.654-.76.964.76Z" transform="translate(-405.796 -1297.927)" fill="#c0d8fb"/>
        <path id="Trazado_696730" data-name="Trazado 696730" d="M533.007,1463.513l-.964-.76.654-.76.964.76Z" transform="translate(-472.334 -1297.917)" fill="#c0d8fb"/>
        <path id="Trazado_696731" data-name="Trazado 696731" d="M607.622,1463.5l-.964-.76.654-.76.964.76Z" transform="translate(-538.575 -1297.908)" fill="#c0d8fb"/>
        <path id="Trazado_696732" data-name="Trazado 696732" d="M681.568,1463.491l-.964-.76.654-.76.964.76Z" transform="translate(-604.222 -1297.898)" fill="#c0d8fb"/>
        <path id="Trazado_696733" data-name="Trazado 696733" d="M669.17,1402.566l-.963-.76.654-.76.964.76Z" transform="translate(-593.216 -1243.81)" fill="#c0d8fb"/>
        <path id="Trazado_696734" data-name="Trazado 696734" d="M595.225,1402.576l-.964-.76.654-.76.964.76Z" transform="translate(-527.568 -1243.82)" fill="#c0d8fb"/>
        <rect id="Rectángulo_339054" data-name="Rectángulo 339054" width="2.538" height="0.479" transform="translate(45.753 154.987) rotate(-75.905)" fill="#adc8fe"/>
        <path id="Trazado_696735" data-name="Trazado 696735" d="M410.571,1351.08v0a.409.409,0,0,0,.211.461c.24.09.4-.066.463-.308l.016-.063c.021-.084.216-.015.244.067a.69.69,0,1,1-1.172-.231c.068-.077.252-.031.238.071" transform="translate(-364.13 -1199.355)" fill="#adc8fe"/>
        <path id="Trazado_696736" data-name="Trazado 696736" d="M404.024,1381.1v0a.409.409,0,0,0-.211-.461c-.24-.09-.4.066-.463.308l-.016.063c-.021.084-.216.016-.244-.067a.69.69,0,1,1,1.172.231c-.068.077-.252.031-.238-.071" transform="translate(-357.819 -1225.15)" fill="#adc8fe"/>
        <path id="Trazado_696737" data-name="Trazado 696737" d="M334.641,1620.894a5.488,5.488,0,0,0,.356,1.773h4.1a.73.73,0,0,0-.655-.586,3,3,0,0,1-2.126-1.425c-.413-.9-1.678.238-1.678.238" transform="translate(-297.085 -1438.466)" fill="#163560"/>
        <path id="Trazado_696738" data-name="Trazado 696738" d="M268.981,1619.274s-.27,1.787.081,1.82c.047,0,1.69,0,2.137.068a11.217,11.217,0,0,0,1.947.014.193.193,0,0,0,.175-.29.778.778,0,0,0-.557-.358,3.005,3.005,0,0,1-2.1-1.462c-.4-.908-1.681.208-1.681.208" transform="translate(-238.706 -1437.046)" fill="#163560"/>
        <path id="Trazado_696739" data-name="Trazado 696739" d="M278.973,1427.282a73.3,73.3,0,0,1-3.988,9.878,53.878,53.878,0,0,0-2.1,5.035c-.056.156-.108.305-.157.451q-.118.346-.216.66c-.049.154-.094.3-.137.446a14.143,14.143,0,0,0-.577,2.534,2.78,2.78,0,0,1-1.072.147,3.577,3.577,0,0,1-.965-.242s.029-1.164.153-2.77c.011-.146.022-.294.035-.447.017-.207.036-.42.056-.639.014-.147.029-.3.043-.447a23.876,23.876,0,0,1,1.3-6.322c1.4-3.164,1.681-11.821,1.681-11.821Z" transform="translate(-239.487 -1263.962)" fill="#e58638"/>
        <path id="Trazado_696740" data-name="Trazado 696740" d="M312.524,1440.042c-.356,2.531-.537,4.525-.622,6.034-.01.157-.017.308-.024.455-.011.235-.02.457-.028.664,0,.157-.008.307-.011.448a18.617,18.617,0,0,0,.046,2.174,3.453,3.453,0,0,1-1.1.188,5.981,5.981,0,0,1-1.219-.111s-.179-.891-.391-2.191h0q-.036-.218-.071-.45-.048-.311-.1-.642c-.022-.147-.043-.3-.066-.449a29.837,29.837,0,0,1-.361-6.566c.4-3.435-1.9-11.787-1.9-11.787l6.723-.218a90.152,90.152,0,0,1-.885,12.452" transform="translate(-272.267 -1267.374)" fill="#f99746"/>
        <path id="Trazado_696741" data-name="Trazado 696741" d="M325.863,1289.179l1.092.809,1.579-.332c-.022-.144-.126-.741-.221-1.281-.006-.032-.011-.063-.017-.095-.081-.46-.152-.855-.152-.855l-1.475-.735-.55-.274c0,.01.043.51.048.583a4.721,4.721,0,0,1-.306,2.18" transform="translate(-289.292 -1142.045)" fill="#ffb27d"/>
        <path id="Trazado_696742" data-name="Trazado 696742" d="M326.985,1302.9a14.955,14.955,0,0,0-2.377-.562c-.23.076-.365.52-.365.52l3.262.929s-.078-.7-.52-.887" transform="translate(-287.853 -1156.176)" fill="#77a4e5"/>
        <path id="Trazado_696743" data-name="Trazado 696743" d="M297.28,1321.1c.358,1.634,7.825-3.493,7.726-4.49l-.033-.329c-.138-1.388-.27-2.747-.279-3.633a12.5,12.5,0,0,0-.255-2.27c-.129-.66-.289-1.258-.428-1.724a1.9,1.9,0,0,0-1.118-1.224,1.669,1.669,0,0,0-.185-.065,8.457,8.457,0,0,0-2.481-.485c-.914.269-1.593,1.877-2.074,3.928a38.24,38.24,0,0,0-.874,10.293" transform="translate(-263.839 -1160.193)" fill="#adc8fe"/>
        <path id="Trazado_696744" data-name="Trazado 696744" d="M329.242,1289.188a4.487,4.487,0,0,0,2.034,1.352c-.006-.032-.011-.063-.017-.095l-.151-.855-1.475-.735c-.326,0-.524.077-.391.333" transform="translate(-292.254 -1144.21)" fill="#fca56b"/>
        <path id="Trazado_696745" data-name="Trazado 696745" d="M323.233,1260s-2.66.83-3.152-.835-1.166-2.679.512-3.279,2.2-.063,2.5.453.823,3.4.143,3.661" transform="translate(-283.664 -1114.707)" fill="#ffb27d"/>
        <path id="Trazado_696746" data-name="Trazado 696746" d="M313.809,1248.989s-.17,1.937-.57,1.853-.68-.149-.705.438c-.026.608.108,1.308-1.126,1.411s-2.5-3.131-2.165-3.734c.979-1.74,5.981-2.091,4.566.031" transform="translate(-274.487 -1107.516)" fill="#163560"/>
        <path id="Trazado_696747" data-name="Trazado 696747" d="M329.921,1373.565c-.74.268.013-.735,0-.944-.058-.918.3-2.08.192-3.185l-4.517-2.7s-1.072,6.787,4.324,6.829" transform="translate(-288.979 -1213.351)" fill="#77a4e5"/>
        <path id="Trazado_696748" data-name="Trazado 696748" d="M296.315,1352.315a23.839,23.839,0,0,1,2.235,4.938c1.678-.191,4.554-3.49,5.466-4.371,0,0,.124-4.06.025-5.057l-1.394-.04s-2.52.638-3.173-.228-.37-5.12-.37-5.12l-1.915-.414c-.9,3.839-1.391,9.333-.874,10.293" transform="translate(-262.873 -1191.41)" fill="#f99746"/>
        <path id="Trazado_696749" data-name="Trazado 696749" d="M399.128,1366.716a11.968,11.968,0,0,1,1.092-.675,2.292,2.292,0,0,1,.771-.068c.027.045.1.183.005.229s-.224.03-.187.063.413-.146.5.045.163.847-.278,1.045a5.047,5.047,0,0,1-1.605.042c-.664.193-.3-.682-.3-.682" transform="translate(-354.245 -1212.659)" fill="#ffb27d"/>
        <path id="Trazado_696750" data-name="Trazado 696750" d="M331.487,1326.968a33.765,33.765,0,0,1-4.877.568c-.634-.309.246-4.854.246-4.854a1.307,1.307,0,0,0-1.165-1.273,2.9,2.9,0,0,0-2.054.572,2.361,2.361,0,0,0-.8,1.731c.26,2.018.664,6.124,2.014,6.753,1.741.812,6.78-2.251,6.78-2.251a.882.882,0,0,0,.144-.587,1.369,1.369,0,0,0-.287-.66" transform="translate(-286.596 -1173.079)" fill="#adc8fe"/>
        <path id="Trazado_696751" data-name="Trazado 696751" d="M319.521,1315.634l.371.081s.785-3.4,3.421-3.413a1.882,1.882,0,0,0-.6-.379,4.454,4.454,0,0,0-3.2,3.712" transform="translate(-283.662 -1164.688)" fill="#f99746"/>
        <path id="Trazado_696752" data-name="Trazado 696752" d="M329.755,1592.309c-.01.157-.017.308-.024.455a10.107,10.107,0,0,1-2.463.115c-.147-.01-.283-.022-.406-.035-.022-.147-.043-.3-.066-.45a10.014,10.014,0,0,0,2.959-.085" transform="translate(-290.12 -1413.608)" fill="#fff"/>
        <path id="Trazado_696753" data-name="Trazado 696753" d="M330.987,1602.283c0,.157-.008.307-.011.448a10.115,10.115,0,0,1-2.307.088c-.128-.008-.245-.018-.354-.028h0q-.036-.218-.072-.45a10.238,10.238,0,0,0,2.744-.057" transform="translate(-291.405 -1422.463)" fill="#fff"/>
        <g id="Grupo_972349" data-name="Grupo 972349" transform="translate(30.518 177.926)" opacity="0.5">
          <g id="Grupo_972348" data-name="Grupo 972348">
            <g id="Grupo_972347" data-name="Grupo 972347" clip-path="url(#clip-path-7)">
              <path id="Trazado_696754" data-name="Trazado 696754" d="M274.814,1585.714c-.056.155-.108.305-.157.451a10.118,10.118,0,0,1-2.316-.22c-.148-.031-.284-.062-.408-.091.014-.147.029-.3.043-.447a10,10,0,0,0,2.837.307" transform="translate(-271.934 -1585.407)" fill="#fff"/>
            </g>
          </g>
        </g>
        <g id="Grupo_972352" data-name="Grupo 972352" transform="translate(30.427 179.012)" opacity="0.5">
          <g id="Grupo_972351" data-name="Grupo 972351">
            <g id="Grupo_972350" data-name="Grupo 972350" clip-path="url(#clip-path-8)">
              <path id="Trazado_696755" data-name="Trazado 696755" d="M273.722,1595.413c-.049.154-.094.3-.137.445a10.518,10.518,0,0,1-1.993-.224c-.174-.036-.331-.073-.468-.106.011-.146.022-.294.035-.447a10.5,10.5,0,0,0,2.564.332" transform="translate(-271.123 -1595.081)" fill="#fff"/>
            </g>
          </g>
        </g>
        <path id="Trazado_696756" data-name="Trazado 696756" d="M1609.41,213.433c-3.677-.548-7.76-3.048-12.133-7.432a88.855,88.855,0,0,1-10.962-13.987,179.278,179.278,0,0,1-10.99-19.561c-4.48.112-10.185-1.373-16.947-4.417A135.391,135.391,0,0,1,1540.2,157.8a239.626,239.626,0,0,1-20.408-15.052l.09-.107a239.483,239.483,0,0,0,20.4,15.042,135.229,135.229,0,0,0,18.158,10.224c6.766,3.045,12.464,4.527,16.93,4.4h.046l.019.042a178.9,178.9,0,0,0,11,19.587,88.73,88.73,0,0,0,10.943,13.964c4.352,4.362,8.408,6.849,12.054,7.392Z" transform="translate(-1349.229 -126.633)" fill="#adc8fe"/>
        <path id="Trazado_696757" data-name="Trazado 696757" d="M1298,198.537c-4.8-.738-10-3.343-15.438-7.745a91.459,91.459,0,0,1-13.43-13.871,156.864,156.864,0,0,1-13.067-19.147,98.991,98.991,0,0,1-26.542-6.279,100.392,100.392,0,0,1-19.438-10.137,84.355,84.355,0,0,1-15.993-13.589l.107-.09a84.221,84.221,0,0,0,15.969,13.565,100.235,100.235,0,0,0,19.41,10.121,98.848,98.848,0,0,0,26.538,6.272l.037,0,.018.032a156.324,156.324,0,0,0,13.073,19.162,91.305,91.305,0,0,0,13.409,13.848c5.423,4.385,10.594,6.981,15.371,7.715Z" transform="translate(-1060.082 -113.351)" fill="#adc8fe"/>
        <path id="Trazado_696758" data-name="Trazado 696758" d="M990.614,200.056c-6.431-.208-13.182-2.568-20.066-7.015A86.512,86.512,0,0,1,953.9,178.506a138.907,138.907,0,0,1-15.547-20.824c-6.166-.168-13.592-1.847-22.071-4.988a176.875,176.875,0,0,1-22.243-10.277,262.778,262.778,0,0,1-24.053-14.729l.081-.114a262.631,262.631,0,0,0,24.04,14.721,176.729,176.729,0,0,0,22.224,10.269c8.482,3.143,15.906,4.818,22.064,4.98h.039l.02.034a138.4,138.4,0,0,0,15.55,20.836,86.351,86.351,0,0,0,16.617,14.51c6.861,4.433,13.588,6.785,19.993,6.992Z" transform="translate(-772.354 -113.255)" fill="#adc8fe"/>
        <path id="Trazado_696759" data-name="Trazado 696759" d="M310.156,1637.721H17.754a.321.321,0,0,1-.321-.321v-.083a.321.321,0,0,1,.321-.32h292.4a.322.322,0,0,1,.321.32v.083a.322.322,0,0,1-.321.321" transform="translate(-15.477 -1453.281)" fill="#2e3552"/>
      </g>
    </g>
  </g>
</svg>
